<?xml version="1.0" encoding="utf-8"?>
<!-- Generator: Adobe Illustrator 24.1.2, SVG Export Plug-In . SVG Version: 6.00 Build 0)  -->
<svg version="1.1" id="Layer_1" xmlns="http://www.w3.org/2000/svg" xmlns:xlink="http://www.w3.org/1999/xlink" x="0px" y="0px"
	 viewBox="0 0 1920 1080" style="enable-background:new 0 0 1920 1080;" xml:space="preserve">
<style type="text/css">
	.st0{fill:#FFFFFF;}
	.st1{fill:#EA2D2E;}
</style>
<path class="st0" d="M896.09,586.24c0.58-0.28,1.17-0.56,1.75-0.85c2.09-0.14,3.32-1.02,5.13-1.69c0.53-0.19,1.06-0.37,1.6-0.55
	c0.09-0.01,0.18-0.02,0.27-0.02c-0.58,4.19-3.55,8.32-1.77,12.24c0.37,0.56,0.74,1.12,1.09,1.68c0.58,0.21,1.15,0.42,1.74,0.63
	c0.65,0.3,1.15,0.93,1.82,1.19c0.42-0.03,0.44,0.25,0.72,0.42c1.2,0.79,2.12,0.31,3.33-0.68c0.01-0.09,0.02-0.17,0.04-0.26
	c1.07-0.07,1.55,0.33,2.7-0.17c0.11-0.83-0.19-1.37,0.06-2.31c-0.41,0.02,0.89-0.75,1.21-1.11c0.49-0.03-0.01-0.93-0.08-1.28
	c-0.35,0.02-0.28,0.11-0.24-0.24c0.11-0.05,0.24-0.09,0.36-0.13c0.84-1.45,1.68-2.9,2.52-4.35c0.92-1.14,1.87-2.27,2.81-3.4
	c0.25-0.57,0.29-0.99,0.16-1.49c1.66-0.11,2.19-3.93,2.03-5.02c0.6-0.04,3.41-2.97,4.29-3.55c0.89-0.4,1.79-0.8,2.69-1.2l0.11-0.07
	c0.43-0.03,0.3-0.68,0.42-1.06c0.06-0.42-0.12-0.25-0.51-0.23l0.04-0.25c0.52,0.03,1.04,0.08,1.56,0.13
	c1.14-0.41,2.27-0.81,3.41-1.23c0.05-0.34,0.6-0.71,0.43-0.9c0.79-0.07,1.58-0.12,2.37-0.19c1.45-0.32,5.55-2.28,6.64-3.39
	c0.18-0.01,0.36-0.02,0.54-0.03c-0.04,0.36-0.12,0.27,0.24,0.25c0.06-0.41,0.57-0.44,0.88-0.57c0.05-0.34-0.04-0.25,0.31-0.27
	l-0.04,0.26c0.6-0.04,0.31,5.5,1.22,6.6c0.09,0,0.18-0.01,0.28-0.01c-0.14,0.34-0.28,0.7-0.42,1.06c-0.06,0-0.01,1.02-0.22,1.55
	c0.09,0,0.18-0.01,0.27-0.01c-0.12,0.88,2.59-0.31,3.01-0.46c0.01-0.09,0.02-0.17,0.04-0.26c-0.01,0.18-0.02,0.38-0.02,0.57
	c-0.16,0.81-0.69,1.42-1.35,1.95c-3.08,2.46-1.68,5.84-1.32,8.5c0.06,0.89,0.1,1.79,0.15,2.7c0.24,0.54,0.47,1.1,0.7,1.65
	c-0.09,0.56-0.17,1.14-0.25,1.72c-0.09,1.33,0.13,2.5,0.55,3.57l-0.04,0.26c0.28-0.02,0.88-1.65,1.91-2.18l-0.07,0.18
	c-0.32,0.67-0.64,1.36-0.96,2.03c-0.49,1.77-0.23,4.87,0.99,5.76c-0.18,1.31-0.43,2.34,0.96,2.76c0.04-0.26,0.08-0.52,0.11-0.78
	c0.08-0.65,0.7-1.31,1-1.89c0.3-0.78,0.61-1.56,0.92-2.35c0.59-0.04-0.43-0.94-0.62-1.24c-0.38,0.03-0.07-0.86-0.09-1.28
	c0.35-0.02,0.71-0.05,1.08-0.07c0.24-1.78-0.17-3.08-1.01-4.31c-0.38,0.02,0.11-0.18,0.3-0.28c0.02-0.09,0.02-0.17,0.04-0.26
	c0.38-0.02,0.08,0.06,0.23,0.25c-0.01,0.08-0.02,0.16-0.03,0.26c0.34-0.02,0.3-0.02,0.4-0.33c0.84-2.39,1.73-4.76,2.77-7.07
	c0.43-0.03,0.26-0.23,0.25-0.56c0.11-0.86,0.23-1.71,0.35-2.56c0.19-2.07,0.18-4.51,1-6.5c-0.33,0.02-0.46-2.21-0.95-2.76
	c0.05-0.4,0.35-0.56,0.65-0.82c0.11-0.78,0.22-1.56,0.32-2.33c0.09-0.58,0.83-1.22,1.29-1.63c0.12-0.87-0.04-1.6,0.09-2.58
	c-0.44,0.03-0.54-0.19-0.73-0.46c-0.35,0.02-0.28,0.1-0.23-0.24c0.54-0.04,1.03-0.78,1.21-1.2c0.2-0.76,0.4-1.51,0.59-2.26
	c1.59-3.27,3.58-3.81,6.54-5.48c0.44-0.32,0.88-0.63,1.3-0.94c0.07-0.49-0.59-0.4-1-0.44c0.01-0.09,0.02-0.17,0.04-0.26
	c0.8-0.05,4.7-3.45,5.3-4.26c0.21-0.53,0.43-1.06,0.64-1.58c0.64-0.25,1.34,0.06,1.79,0.21l0.04-0.26c0.58-0.3,1.15-0.59,1.73-0.89
	c0.05-0.39,0.2-0.27,0.57-0.29c0.06-0.42-0.4-0.38-0.73-0.47c0.06-0.46,0.5-0.43,0.88-0.57c0.01-0.09,0.02-0.17,0.04-0.26
	c-0.24,0.01-0.45-0.01-0.5-0.23c0.21-1.53,1.11-1.65,2.34-1.44c0.03-0.18,1.52-2.44,1.71-2.68c0.38-0.03,0.44-0.76,0.68-1.07
	c-0.07,0.45,0.53,0.06,0.81-0.06c-0.07,0.5,0.67-0.55,0.91-0.83c-0.41,0.03-0.46-0.26-0.74-0.47c0.02-0.09,0.03-0.17,0.04-0.26
	c0.45-0.12,0.92-0.23,1.38-0.34l0.04-0.26c2.53-0.17,3.86-1.95,6.22-2.46c0.08-0.56,0.5-0.78,0.95-1.1
	c0.04-0.25,0.08-0.51,0.12-0.77c-0.19,0.01-0.37,0.02-0.54,0.03c-0.06,0.46-0.86,0.8-1.22,1.11c-0.33,0.02-0.88-0.57-1.24-0.68
	c0.01-0.09,0.03-0.18,0.04-0.26c1.01-0.06,1.19-1.34,2.26-0.91c0.08-0.01,0.18-0.02,0.27-0.02c0.04-0.29-0.04-0.34-0.2-0.5
	c0.1-0.65-0.1-0.31-0.16-0.76c0.06-0.38-2.76,0.83-3.34,0.98c0.06-0.41,0.41,0.23,0.09,0.04l0.04-0.26c0.85-0.06,1.3-1.26,1.72-1.81
	c0.05-0.37-0.28-0.36-0.58-0.43c-1.67-0.38-7.53,1.98-9.33,2.64c-1.38,0.49-2.76,0.99-4.14,1.48c-0.93,0.5-1.86,1.03-2.78,1.54
	c-3.06,1.4-6.23,2.25-9.23,3.78c0.01-0.09,0.03-0.18,0.04-0.26c-0.3,0.02-0.31-0.05-0.5-0.23c0.14-1.03,0.32-1.79-0.18-2.56
	c0.16-0.44,0.33-0.88,0.49-1.33c0.29-2.24,0.6-4.48,0.89-6.73c-0.45,0.03,0.19-0.48,0.38-0.8c0.48-0.03,0.1-0.44,0-0.7
	c-0.84-2.15,0.22-4.77,0.06-7.26c-0.09-1.47-0.74-2.22-0.01-3.85c-0.4,0.03-0.3-0.15-0.38-0.41c-0.65-2.09-1.56-1.35-3.31-1.93
	c0.02-0.17,0.05-0.35,0.07-0.52c0.39-0.03,0.86-0.42,1.15-0.59c0.15-1.07-1.69-1.79-2.37-2.15c-0.04,0.27-1.78,0.54-2.21,0.72
	c-1.04,0.46-2.15,0.86-3.32,0.79c-0.76-0.04-1.43-0.45-2.34-0.24c-2.45,0.6-7.74,5.61-9.93,7.59c0.09,0,0.17-0.01,0.27-0.02
	c-0.07,0.45,0.62,0.42,1.01,0.45c-0.02,0.17-0.05,0.35-0.08,0.52c-0.35,0.02-0.25-0.06-0.3,0.28c-0.73,0.05-2.49,0.76-3.07,1.28
	c-1.19,1.09-1.65,2.88-2.63,4.15c-0.56,0.72-1.71,0.91-2.08,1.86c-0.01,0.22-0.01,0.44-0.01,0.67l-0.03,0.26
	c-2.65,0.17-7.67,12.43-10.23,14.03c-0.03,0.17-0.05,0.35-0.08,0.52c-0.1,0-0.18,0.01-0.27,0.01c-0.12,1.71-1.14,2.42-1.85,3.83
	c-0.42,0.85-0.56,1.52-1.14,2.29c0.45-0.03,0.12,0.24-0.07,0.51c0.38-0.02-0.26,0.63-0.36,1.05c-0.35,1.4-1.54,2.35-2.19,3.59
	c-1.41,2.73-2.93,5.06-3.77,8.1c-1.6,0.11-0.97,1.93-0.33,2.34l-0.04,0.26c-1.76,0.11-1.96,1.96-2.05,3.21l-0.27,0.02
	c0.05-0.39-0.12-0.23-0.39-0.15c-2.29,0.79-4.25,1.41-6.17,3.15c-0.5,0.03,0.01,0.34,0.2,0.5l-0.04,0.26
	c-1.67,0.11-2.56,0.29-4.18,1.32c-1.39,0.9-3.17,3.1-4.95,2.86c-0.1,0.01-0.18,0.01-0.27,0.02l-0.04,0.25
	c-0.44,0.03-0.28,0.47-0.38,0.8c-0.06,0.41-1.05,1.04-1.33,1.46c-0.43,0.65-1.1,1.05-1.59,1.68c-0.88,1.14-1.68,2.42-1.92,3.83
	C891.51,585.54,895.1,586.42,896.09,586.24L896.09,586.24z M964.59,539.68l-0.04,0.25c0.36-0.02,0.28-0.1,0.23,0.25
	c-0.08-0.09-0.16-0.16-0.23-0.25C964.28,539.95,964.38,539.87,964.59,539.68L964.59,539.68z M940.34,545.35
	c0.01-0.02,5.42-7.16,6.05-7.91c-0.6,0.13-0.28-0.47-0.22-0.96c0.5-0.1,4.24-5.68,5.54-6.8c0.02-0.12,0.03-0.23,0.05-0.34
	c0.06-0.02,1.01,3.03,1.61,3.66c-0.85,2.29-1.69,4.6-2.54,6.9c-0.37,1.91-0.02,3.81-0.6,5.63c-0.6,1.9-2.89,4.21-4.94,4.79
	c-1.04,0.32-1.85,0.3-2.84,0.76c-1.96,1.22-3.92,2.46-5.88,3.69C933.92,553.57,940.01,547.76,940.34,545.35L940.34,545.35z"/>
<path class="st0" d="M1070.01,532.24c-1.5-0.09-2.84,0.93-4.02,1.84l-1.15,0.83l-4.95,2.91l-4.73,2.78
	c-2.72,1.26-5.03,2.15-7.24,2.76l-1.49,0.55c-0.38,0.18-0.73,0.35-1.41,0.51l-0.09,0.02l-0.03,0.06c-0.1-0.07-0.26-0.18-0.26-0.18
	l-0.25-0.19c-0.76-0.47-0.97-1.64-0.97-3c0-0.85,0.08-1.77,0.16-2.64c0.07-0.88,0.15-1.73,0.15-2.49c0-0.37-0.04-0.69-0.08-1.01
	c0.95-0.33,1.08-2.42,1.2-4.3c0.05-0.82,0.1-1.59,0.21-1.89c0.18-0.46,0.7-0.9,1.16-1.28l0.11-0.09l0.04-0.18
	c0,0-0.04-1.17-0.05-1.34c0.78-0.9,1.9-4.65,1.91-4.7c0.05-0.21,0.08-0.41,0.08-0.6c0-0.24-0.04-0.46-0.09-0.68
	c0.27-0.13,0.37-0.44,0.43-0.63l0.05-0.16l0.04-0.16l0.06-0.02l0.54-0.24c0,0-0.08-0.13-0.15-0.23c0.03-0.06,0.49-1.07,0.59-1.28
	c0.09-0.02,0.19-0.06,0.26-0.16l0.06-0.2l-0.07-0.2c0.34-0.19,0.64-0.62,0.91-1.01l0.35-0.47l1.15-1.12
	c0.74-0.69,1.44-1.35,2.05-2.2l0.58-1.48l0.28-0.72l0.38-0.5c0.48-0.61,1.02-1.3,1.02-2.18c0-0.11-0.01-0.21-0.02-0.33
	c-0.2-1.38-1.4-1.9-2.37-2.31l-0.21-0.09l0.04-0.26l-0.31,0l-0.2-0.01c-0.31-0.01-0.56-0.03-0.74-0.06c0.3-0.36,0.46-0.94,0.55-1.36
	c0.19-0.04,0.33-0.13,0.46-0.26l0.37-0.39l-0.62-0.1l-0.04-0.14l-0.09-0.35l-0.21-0.01l-0.88-0.05l-0.32,0.89
	c-0.25-0.07-0.44-0.21-0.61-0.56l-0.07-0.14l-0.28-0.03l-0.02-0.02l0.02-0.03l0.04-0.23l-0.44-0.18c0.06-0.11,0.13-0.23,0.13-0.23
	l-0.39-0.05l0.02-0.09c0.02-0.09,0.04-0.19,0.04-0.29c0-0.11-0.03-0.22-0.1-0.31l-0.22-0.1c-0.06-0.28-0.27-0.44-0.4-0.52
	l-0.06-0.04l0.07-0.28l-0.31-0.1c-0.29-0.02-0.74-0.18-1.21-0.36c-0.98-0.37-2.08-0.78-2.88-0.3c-0.37,0.23-0.6,0.67-0.73,1.24
	c-0.13-0.05-0.27-0.09-0.41-0.19c0,0-0.14-0.09-0.24-0.16c-0.03-0.12-0.05-0.24-0.05-0.24l-0.43-0.13h-0.41l-0.05,0.25
	c-0.11,0.97-0.29,1.18-1,1.65l-0.66,0.43c0,0,0.37,0.04,0.6,0.07l-0.06,0.09l-0.38,0.71c-1.07,1.99-2.09,3.99-2.09,5.11
	c0,0.13,0.04,0.22,0.07,0.32c-0.31-0.02-1.11-0.07-1.11-0.07l-0.03,0.27c-0.23,1.89-0.75,2.57-1.61,3.7l-0.72,0.97l-0.91,1.73
	l-0.3,0.56c-0.7,0.9-1.2,1.98-1.68,3.02c-0.48,1.04-0.94,2.02-1.6,2.88l-1.36,1.45c-0.52,0.7-0.97,1.63-1.44,2.63
	c-0.56,1.16-1.14,2.37-1.78,3.08l-0.09,0.07l-0.9,0.69c-1.53,1.45-3.57,3.58-4.27,5.83l-0.26,0.06l-0.04,0.03
	c-2.52,1.63-4.8,4.28-6.82,6.62l-0.77,0.89l-1.04,1.3l-0.28,0.35l-1.16,0.82c-0.51,0.32-1.04,0.64-1.54,1.16l-1.24,1.62l-0.16,0.21
	c-0.31,0.28-0.87,0.23-1.46,0.17c-0.55-0.05-1.14-0.07-1.63,0.21c0.48-3.67,1.35-6.67,2.96-10.15c0.09-0.02,0.19-0.05,0.26-0.15
	l0.07-0.22c0-0.1-0.04-0.19-0.06-0.27l-0.04-0.12c-0.02-0.1-0.04-0.21-0.04-0.34c0-1.41,1.17-4.65,1.85-6.12l0.09-0.2l-0.17-0.1
	l0.06-0.1l0.2-0.37l0.21-1.18l0.25-1.42c0.32-1.74,1.04-4.97,2.2-7.3l0.35,0.02l-0.03-0.35l-0.02-0.19
	c-0.04-0.31-0.06-0.62-0.06-0.92c0-1.09,0.28-2.18,0.79-3.29l0.38,0.02l-0.11-0.56c-0.63-2.31-2.87-5.93-6.25-5.95
	c-4.21-0.02-8.48,10.6-9.25,14.41c-0.23,0.04-0.76,0.15-0.76,0.15l-0.2,0.04l-0.02,0.21c-0.11,0.87-0.43,1.6-0.77,2.36l-0.49,1.17
	l-1.4,3.62l-0.79,1.98l0.31,0.08c0,0,0.37,0.1,0.69,0.19c-0.3-0.02-1.18-0.06-1.18-0.06l-0.03,0.27c-0.08,0.69-0.38,1.36-0.65,2.01
	l-0.42,1.03l-0.07,0.4l-0.31,1.86l-0.57,1.09l-0.29,0.58c-0.5,1.28-0.72,2.54-0.94,3.87l-0.24,1.38l-0.21,1.03
	c-0.21,1.02-0.41,2-0.41,2.96c0,0.99,0.25,1.93,0.9,2.83l-0.01,0.06l-1.09-0.3L990,552.4l0.21,0.11c0,0,0.28,0.12,0.46,0.2
	c-0.05,0.45-0.08,0.89-0.08,1.31c0,2.38,0.75,4.42,2.3,6.35l0.47,0.56c0.47,0.54,0.84,0.96,1.1,1.73l0.06,0.18l3.12,0.19l0.01-0.13
	c0.33,0.13,1.88,0.73,1.88,0.73l0.11-0.01l1.55-0.15c1.28-0.07,2.69-0.17,3.41-0.74c0.06,0,0.15,0.01,0.3,0.02l-0.03,0.2l-0.05,0.53
	h0.29c1.39,0.08,2.27-0.7,3.12-1.45l1.02-0.84l0.03-0.12l0.01-0.21c0-0.27-0.09-0.47-0.16-0.66c0.2-0.04,0.44-0.16,0.77-0.34
	l0.52-0.28l-0.03-0.12l-0.12-0.41l-0.21-0.12c0.51-0.04,0.96-0.16,1.33-0.3c0.48-0.18,0.74-0.46,1-0.73l0.57-0.51l1.32-0.74
	c1.18-0.62,2.5-1.33,3.24-2.52c0.2-0.06,0.55-0.28,1.28-1.15l0.05-0.06l0.02-0.18c0.19-0.11,0.32-0.28,0.39-0.43l0.13-0.21h0.01
	c1.64-0.44,2.69-2.13,3.71-3.76c0.67-1.08,1.38-2.21,2.19-2.88l0.09-0.07l0.01-0.08l0.23,0.01l0.03-0.29l0.04-0.35l-0.17-0.16
	l-0.15-0.07c-0.14-0.07-0.3-0.16-0.42-0.26c0.82-0.22,1.56-0.78,1.86-1.48c0.1-0.23,0.14-0.47,0.14-0.7c0-0.26-0.08-0.51-0.2-0.76
	c0.1-0.01,1.25-0.11,1.31-0.12c0.11,0.2,0.21,0.47,0.3,0.76c0.24,0.8,0.58,1.81,1.43,2.39c-0.13-0.01-0.55-0.03-0.55-0.03
	l-0.03,0.23l-0.23-0.01l-0.04,0.27c-0.01,0.11-0.02,0.23-0.02,0.34c0,1.4,1.02,2.65,2.06,3.18l0.03,0.01l-0.02,0.15l-0.1,0.04
	l-0.06,0.24c0,0.31,0.26,0.71,0.59,1.21c0.35,0.52,0.81,1.22,0.81,1.67l-0.02,0.11l-0.13,0.15l-0.03,0.13c0,0.3,0.46,0.8,3.36,2.9
	l0.32,0.24l0.63,0.75c0.22,0.31,0.46,0.61,0.78,0.86c-0.05,0.15-0.16,0.3-0.28,0.44l-0.52,0.65l0.55,0.02
	c0.3,0.02,0.99,0.51,1.55,0.9c0.57,0.41,1.12,0.79,1.55,0.95l0.34,0.12l0.18-1.52c0.34,0.02,1.76,0.1,1.76,0.1l0.44-0.11l0.14-0.42
	c0.25,0.13,0.48,0.31,0.73,0.52l1.18,0.89l0.02-0.51l0.01-0.04c0.55-0.1,1.05-0.53,1.3-0.8c0.18,0,0.79,0.02,0.79,0.02
	c2.29,0.14,3.09-1.02,4.1-2.48l0.4-0.57l0.06-0.62l-0.3,0l-0.22-0.01l-0.13-0.14c-0.17-0.1-0.35,0.01-0.53,0.12l-0.24-0.04
	l-0.01-0.02c0-0.11,0.08-0.44,0.57-1.24c0.11,0.04,0.99,0.33,0.99,0.33l0.04-0.35l0.05-0.11c0.16-0.07,0.63,0.13,1,0.36
	c0.02,0.1,0.04,0.21,0.11,0.28c0.16,0.15,0.36,0.15,0.56,0.12c0.07,0.21,0.18,0.39,0.29,0.52v0.02c0,0.12,0.03,0.24,0.12,0.34
	c0.13,0.14,0.3,0.12,0.43,0.11l0.39-0.02l0.06-0.25l0.04-0.26l-0.08-0.19l-0.2-0.08c-0.02-0.07-0.02-0.09-0.04-0.19l0.06-0.06
	l0.07-0.16c0.11,0.01,0.51,0.03,0.51,0.03v-0.01c0.19,0.03,0.37-0.09,0.5-0.19l0.04-0.02c0.13-0.02,1.09-0.16,1.09-0.16l-0.02-0.53
	l0.06,0.07l0.02,0.08l-0.02,0.08c0.07-0.11,0.45-0.43,2.3-1.38l0.15-0.08l0.44,0.02l0.02-0.27l0.07-0.59l-0.36,0.04
	c0,0-1.09,0.12-1.25,0.14l0.05-0.38l0-0.08c0-0.18-0.07-0.29-0.14-0.36c-0.17-0.18-0.43-0.21-0.71-0.21l0.02-0.02l0.01-0.11
	c0,0,0.04-0.3,0.06-0.51c1.07-0.12,2.28-1.2,2.83-1.93l0.35,0.02l0.13-1.05l-0.24-0.01l0.06-0.26l0.11-0.03l0.32-0.13l1.08-0.5
	c1.35-0.6,2.26-1.02,2.45-1.4l1.29-3.04l-0.04-0.04c0.36-0.48,2.42-2.16,3.03-2.3l0.2-0.04l0.02-0.2l0-0.08
	c0-0.41-0.36-0.93-0.67-1.38c0,0-0.11-0.17-0.19-0.3c0.08-0.12,0.18-0.28,0.33-0.53c0.41-0.68,1.38-2.26,1.68-2.44l0.12-0.07
	l0.1-0.91L1070.01,532.24L1070.01,532.24z"/>
<path class="st1" d="M1071.33,475.53h-48.24v49.96h49.97v-49.96H1071.33L1071.33,475.53z M1069.61,478.97c0,3.07,0,40.02,0,43.09
	c-3.07,0-40.02,0-43.09,0c0-3.07,0-40.02,0-43.09C1029.59,478.97,1066.54,478.97,1069.61,478.97L1069.61,478.97z"/>
<path class="st0" d="M895.45,516.67c-1.59-0.4-3.71-0.79-5.07-0.97l-0.09,0.06l-0.57,0.42l-0.02,0.05
	c-0.24-0.02-0.46,0.02-0.66,0.07l0.01-0.04l-0.23-0.04l-1.01-0.17c-0.24-0.04-0.51,0.17-0.77,0.37l-0.15,0.11l-0.36-0.48l-0.1,0.4
	l-0.04,0.13l-0.08-0.01c-0.02-0.09-0.18-0.13-0.75,0.46c-0.13-0.07-0.47-0.24-0.47-0.24l-0.13,0.17c-0.07,0.08-0.48,0.23-0.64,0.29
	l-0.01,0l-0.03-0.04c-0.05-0.02-0.13-0.03-0.25,0.1l-0.24-0.09l-0.18-0.02l-0.08,0.1c0,0-0.45,0.63-0.52,0.73l-0.05-0.01l0-0.32
	l-0.6-0.1l-0.14,0.45l-0.11-0.02l-0.04,0.1l-0.49-0.26l-0.05,0.25c-0.02,0.05-0.12,0.23-0.86,0.48l-0.1,0.03l-0.03,0.1
	c-0.03,0.1-0.18,0.2-0.31,0.29l-0.25,0.19l-0.01,0.05c-0.66-0.03-1.29,0.23-1.9,0.49l-0.86,0.34l-0.04,0.1
	c-0.17,0.54-0.42,1.33-0.81,1.68l-0.15-0.18l0.08-0.26l-0.23-0.04c-0.32-0.05-0.56,0.42-0.74,0.92l0-0.12l-0.16-0.02l-0.03,0
	l0.02-0.08l-0.21-0.11c-0.21-0.03-0.35,0.08-0.45,0.23l-0.03-0.29l-0.15-0.05c-0.23-0.04-0.75,0.18-1.8,0.66l-1.11,0.48l-0.04,0.1
	c-0.13,0.42-0.46,0.72-0.82,1.04c-0.28,0.25-0.56,0.53-0.77,0.87c-0.69-0.1-1.15,0.01-1.68,0.69l-0.13,0.05
	c-0.09,0.09-0.12,0.21-0.12,0.37c0,0.08,0.01,0.18,0.03,0.27c-0.11-0.02-0.22-0.04-0.22-0.04l0.14,0.35l0.03,0.07
	c-0.05,0.07-0.12,0.1-0.33,0.12l-0.11,0.02c0.05-0.11,0.14-0.32,0.14-0.32l0,0l0.02-0.02l-0.38-0.14l-0.01,0.03
	c-0.05,0.14-0.3,0.34-0.5,0.5l-0.97,0.86l0.75-0.17l0.14-0.03c-0.02,0.13-0.07,0.45-0.09,0.55c-0.77,0.43-2.76,2.8-2.78,2.83
	l-0.24,0.47c0,0-0.1,0.2-0.18,0.37c-0.15,0.02-0.4,0.14-0.95,0.56l-0.01-0.01l-0.03-0.12l-0.15-0.1c-0.34-0.06-0.42,0.21-0.46,0.36
	l-0.22,0.74c-0.21,0.76-0.27,0.91-1.19,1.38l-0.06-0.7l-0.32,0.64c0,0-0.66,1.19-0.75,1.34l-0.74-0.56
	c-0.18,0.11-0.23,0.29-0.28,0.54l-0.2-0.04l-0.04,0.15l-0.09-0.02l-0.07,0.13l-0.61,1.02l-0.57,1.15l-0.67,0.84
	c-0.64,0.77-1.29,1.58-1.48,2.62c-0.76,0.22-1.49,2.98-3.77,7.02l-1.35,2.3l-0.09,0.55l0,0.04c0,0.17-0.02,0.23-0.29,0.37
	l-0.07,0.04l-0.02,0.08c-0.24,0.78-0.42,1.2-0.93,1.8l-0.07,0.15l-0.08,0.24l0.08,0.03c-0.08,0.15-0.45,0.78-0.45,0.78l-0.03,0.21
	c0,0.21,0.1,0.39,0.18,0.54l0.15,0.32l0.18,0.07l0.09,0.02c-0.3,0.65-0.6,1.31-0.6,1.83c0,0.15,0.03,0.3,0.09,0.43
	c0.08,0.18,0.26,0.28,0.46,0.36c-0.19,0.47-0.51,1.25-0.52,1.83l0.14-0.04l-0.1,0.31l0.21,0.09l0.43,0.08
	c-0.02,0.16-0.12,0.89-0.12,0.89l0.09,0.02c-0.05,0.05-0.1,0.12-0.1,0.23c0,0.18,0.06,0.45,0.14,0.81l-0.15-0.08l-0.34,1.42
	l-0.11,0.45l-0.01,1.75c-0.03,0.39-0.25,0.79-0.46,1.14l-0.03,0.04l-0.01,0.21l0.11,0.15l0.05,0.18l0.05,0.2l-0.05,0.02l-0.1,0.34
	l0.47-0.11c0.37-0.09,0.95,0.8,1.26,1.28c0,0,0.14,0.2,0.21,0.31l-0.01,0.02l-0.3,0.22l0.03,0.06l0,0.03c0,0.09,0.07,0.15,0.13,0.2
	l-0.01,0.17l0.09,0.03c-0.01,0.06-0.08,0.6-0.09,0.71l0,0l0,0l-0.01,0.08l0.4,0.03l-0.08,0.05l-0.1-0.01l0.24,0.44l0.08,0.04
	l-0.01,0.09l0.1,0.24c0.52,0.55,0.72,0.91,0.72,1.43c0,0.39-0.11,0.87-0.29,1.58l-0.04,0.16l-0.09,0.1l-0.1,0.13h-0.01l-0.01,0.02
	c-0.15,0.19-0.5,0.66-0.5,0.66l-0.03,0.08l-0.03,0.3l0.18,0.07c0.35,0.06,0.5-0.31,0.61-0.6c0.1,0.05,0.22,0.09,0.25,0.18l0.07,0.2
	l0.09-0.06c0,0,0.17-0.07,0.33-0.13l-0.17,0.55l-0.03,0.11l0.16,0.08c0.03,0.03,0.09,0.18,0.09,0.38c0,0.15-0.03,0.33-0.14,0.5
	l-0.02,0.15c0,0.27,0.19,0.58,0.43,0.99l0.15,0.25l-0.06,0l-0.07,0.22l0.62,0.11l0.07-0.13l0.23-0.43l0.17,0.04
	c0,0,0.51,0.06,0.67,0.08l0.05,0.37l0.17-0.01l1.09,0.01l0.04-0.15c0.13-0.41,0.24-0.5,0.53-0.69c0.1,0,0.25,0,0.25,0
	c0.17-0.02,0.22-0.02,0.27,0.06l0.05,0.07l0.04,0.01v0.01c0,0.19-0.22,0.69-0.3,0.86l-0.2,0.47l0.26,0.04l0.3,0.05l0.05-0.14
	l0.09,0.02l0.07-0.12l0.49-0.8l0.06-0.1l0.01-0.03l0.13,0.07l0.03,0l-0.01,0.15l-0.16,0.91l-0.14,0.79l0.22,0.63l0.27,0.69
	l-0.01,0.02l-0.08,0.24l0.13,0.05l-0.09,0.29l0.27-0.08l0.49-0.12c0.24-0.02,0.78-0.01,0.87,0.25l0.04,0.11l0.47,0.08l0.13-0.16
	c0.06-0.21,0.46-0.16,0.58-0.14c0,0,0.2,0.07,0.34,0.12l-0.06,0.2l0.23,0.04c0.2,0.03,0.31-0.08,0.38-0.22
	c0.11,0.18,0.28,0.34,0.56,0.46l0.22,0.21l0.27,0.24c0.67,0.27,1.34,0.12,1.93-0.02l0.71-0.14l0.32,0.53l0.13-0.45
	c0.11-0.37,0.55-0.55,1.34-0.53c0.3,0.05,0.56-0.36,0.9-0.95l0.1-0.18c0.11-0.02,0.44-0.08,0.57-0.11l-0.03,0.1l0.24,0.03
	c-0.1,0.24-0.26,0.64-0.26,0.64c-0.2,0.41-0.4,0.84-0.46,1.39l-0.02,0.19l0.49,0.08l0.06-0.17c0.1-0.34,0.39-0.7,0.66-0.96
	l0.04,0.01l0.06,0.01l0.24,0.45l0.11,0.24l0.37,0.06l0.61-0.98l0.03-0.1c0.14-0.02,0.61-0.11,0.61-0.11l0.64-0.11l1.31,0.08
	l0.62-0.22c0.33-0.16,0.53-0.25,0.68-0.14l0.23,0.17l0.1-0.34c0.18-0.06,0.39-0.18,0.59-0.33l-0.1,0.19l0.71,0.12l0.03-0.1
	l0.21,0.09l0.4,0.18l0.05-0.23l0.1-0.32l-0.2-0.08l-0.01-0.16l0.01-0.02l0.1,0.06l0.37,0.23l0.06-0.26
	c0.07-0.22,0.29-0.42,0.61-0.52c0.36-0.12,0.74-0.1,0.87,0l0.23,0.17l0.08-0.27c0.12-0.4,0.9-0.63,1.3-0.7l0.16-0.03l2.04-0.47
	l0.33-0.03l0.05-0.14l0.1-0.34l-0.03-0.01l0.08-0.09c0.33-0.02,1.63-0.15,1.98-0.29l0.09-0.04l0.1-0.34
	c0.17-0.03,0.38-0.07,0.57-0.1c0.39,0.08,1.05-0.47,1.26-0.93l0.02,0c0.17,0.12,0.3-0.07,0.53-0.42l0.09-0.12l-0.01,0.05l3.75-1.93
	l0.22-0.16l0.23,0l0.04-0.16c0.1-0.54,0.36-0.93,0.74-1.13c0.36-0.18,0.81-0.17,1.22,0.02l0.32,0.15l-0.04-0.34
	c-0.01-0.19,0.06-1.54,0.15-1.73c0.16-0.18,0.37-0.22,0.62-0.25c0.26-0.04,0.56-0.08,0.82-0.35l0.25-0.35l0.23-0.33l0.6-0.24
	c0.32-0.09,0.68-0.2,0.94-0.49c0.3-0.35,0.4-0.82,0.51-1.27l0.28-0.88c0.29-0.54,2.59-1.83,3.01-1.69l0.23,0.08l0.02-0.13
	c0.47-0.28,2.17-4.55,2.2-4.6l1.03,0.13l0.03-0.12l0-0.03c1.02-0.17,1.79-0.99,2.52-1.81c0.67-0.75,1.08-2.43,1.87-2.59l0.15-0.03
	l0.01-0.16l0-0.12c0-0.29-0.08-0.48-0.24-0.6c-0.31-0.22-0.76-0.04-1.12,0.1l-0.3,0.12l-0.01,0.14c-0.72,0.1-1.41,0.37-1.96,0.65
	l0-0.05l-0.24,0.02c-0.25,0.02-0.47,0.21-0.67,0.38l-0.27,0.2l-0.7,0.28l-0.03-0.06c-0.16-0.07-0.29,0.06-0.38,0.15l-0.06,0.06
	c-1.04,0.89-3.48,2.74-4.36,2.79l-0.17,0.01l-0.02,0.15l-0.18,0l-0.09,0.15c-0.09,0.1-0.65,0.18-1.02,0.17l-0.13,0l-0.07,0.15
	c-0.18,0.35-2.62,1.86-3.03,1.78c-0.31,0-0.37,0.13-0.39,0.24c-0.1-0.03-0.43-0.12-0.43-0.12l-0.11,0.21
	c-0.03,0.21-0.5,0.67-3.26,1.33l0.01-0.04l-0.3-0.05l-0.17,0.01l-0.09,0.15c-0.06,0.1-0.51,0.28-0.7,0.35l-0.44,0.18l0,0.05
	c-0.15,0.01-0.34,0.13-0.72,0.37c-0.31,0.2-0.77,0.5-0.95,0.51l-0.14,0.01l-0.03,0.1c-0.12,0-0.31,0.06-0.73,0.19l-0.84,0.23
	l-0.06,0.11c-0.81-0.06-1.96,0.3-2.69,0.72l-0.02-0.05c-0.08-0.11-0.2-0.11-0.28-0.11l-0.07,0l-0.22-0.04l-0.13,0.15
	c-0.04,0.05-0.28,0.05-0.37,0.05l-0.24,0.01l-0.27-0.4l-0.18,0.31c-0.08,0.12-0.69,0.28-1.02,0.37c0,0-0.58,0.19-0.75,0.25
	c-0.04-0.01-0.11-0.02-0.2-0.03l-0.07-0.12c-0.16-0.08-0.31,0.06-0.5,0.3c-0.13-0.07-0.31-0.16-0.31-0.16l-0.18-0.04l-0.18-0.03
	l-0.06,0.17c-0.03,0.11-0.26,0.14-0.43,0.17l-0.31,0.05l-0.02,0.08c-0.17-0.04-0.59-0.15-0.59-0.15l-1.39,0.31l-0.77-0.06
	l-0.96-0.07c-1.8-0.4-4.01-2.16-4.37-4.31c-0.06-0.32-0.08-0.64-0.08-0.96c0-0.52,0.06-1.05,0.12-1.63l0.01-0.1l0.04-0.71
	c0.02-0.47,0.03-0.91,0.18-1.44l0.61-1.49l0.38-0.83l0.41-1.34l0.58-1.13l0.09-0.84l0.02-0.19l0.14-0.57c0,0,0.05-0.18,0.09-0.35
	l0.01,0.15c0,0.16-0.02,0.38-0.06,0.7l-0.03,0.2l0.48,0.08l0.06-0.14l0.32-0.67l0.61-0.59l1.19-1.49l0.76-1.17
	c0.47-0.78,1.01-1.66,1.52-1.97l0.05-0.03l0.01-0.02l0.1,0.06l0.38,0.22l0.06-0.26c0.04-0.15,0.06-0.3,0.06-0.44
	c0-0.24-0.05-0.48-0.09-0.7l-0.02-0.1c0.11,0.16,0.26,0.32,0.54,0.3c0.64-0.04,2.61-1.84,3.17-2.58l0.22,0.16l0.29,0.3l0.17-0.26
	l0.39-0.49c0.26-0.27,0.57-0.61,0.73-1.07c0.12-0.03,0.62-0.15,0.86-0.2c0.07,0.15,0.18,0.28,0.29,0.36l-0.07,0.21l0.29,0.08
	l0.24,0.04l0.08-0.26l-0.01,0.01c0.14-0.09,0.23-0.26,0.26-0.4l0.07-0.2l0.43-0.4l0.05-0.04l0.18,0.07l0.06,0.01
	c0.14,0.04,0.66,0.61,0.76,0.83l0.23,0.48l0.15-0.5c0.07-0.22,0.2-0.37,0.39-0.45c0.29-0.12,0.7-0.06,0.94,0.07l0.12,0.06l0.13-0.11
	c0.17-0.13,1.65-0.57,1.93-0.6l1.21,0.08c0.49,0.07,1,0.15,1.53,0.05c0.7-0.13,1.37-0.54,2.02-0.94l1.08-0.61l1.5-0.49l1.52-0.5
	c1-0.48,2-0.99,2.79-1.57l1.66-1.42l0.61-0.38c0.41-0.24,0.84-0.49,1.22-0.92c0.48-0.54,0.67-1.23,0.87-1.91l0.4-1.18l0.51-0.83
	c0.39-1.08,0.59-2.14,0.59-3.22c0-0.84-0.12-1.7-0.35-2.6l-0.26-0.85l-0.79-1.03c-0.68-0.8-1.32-1.56-1.32-2.71
	c0-0.17,0.01-0.36,0.05-0.55l0.04-0.24l-1.32,0l-0.05,0.16l-0.05-0.09c-0.52-0.44-0.54-0.7-0.57-1.21c0,0-0.06-0.6-0.07-0.7
	l0.15-0.48l-0.5-0.09l-0.08,0.17l-0.04,0.12l-0.33-0.06l0.18,0.4l-0.05,0.02c-0.31,0.01-0.8-0.29-0.87-0.44l-0.04-0.11l-0.41-0.07
	l-0.06,0.17c-0.04,0.12-0.05,0.12-0.07,0.13l-0.04-0.01l-0.18-0.03l-0.02,0.05c-0.23-0.38-0.41-0.67-0.56-0.77l-0.05-0.01L897.8,518
	c-0.16-0.1-0.58,0.27-0.58,0.28C895.82,517.23,895.45,516.67,895.45,516.67L895.45,516.67z"/>
</svg>
