<?xml version="1.0" encoding="utf-8"?>
<!-- Generator: Adobe Illustrator 24.1.2, SVG Export Plug-In . SVG Version: 6.00 Build 0)  -->
<svg version="1.1" id="Layer_1" xmlns="http://www.w3.org/2000/svg" xmlns:xlink="http://www.w3.org/1999/xlink" x="0px" y="0px"
	 viewBox="0 0 14400 14400" style="enable-background:new 0 0 14400 14400;" xml:space="preserve">
<style type="text/css">
	.st0{fill:#FFFFFF;}
	.st1{fill:#ED1C24;}
	.st2{fill:#8A8C8E;}
	.st3{fill:none;stroke:#58595B;stroke-width:0.1363;stroke-dasharray:1.3629,2.0444,0,0;}
</style>
<path class="st0" d="M7104.64,7220.28c0.26-0.13,0.53-0.25,0.79-0.38c0.94-0.06,1.49-0.46,2.31-0.76c0.23-0.08,0.48-0.16,0.72-0.25
	c0.04,0,0.08,0,0.12,0c-0.26,1.88-1.6,3.74-0.79,5.5c0.16,0.25,0.33,0.5,0.49,0.76c0.26,0.09,0.52,0.19,0.78,0.28
	c0.29,0.13,0.52,0.42,0.82,0.54c0.19-0.01,0.2,0.11,0.32,0.19c0.54,0.36,0.95,0.14,1.5-0.31c0-0.04,0.01-0.08,0.02-0.12
	c0.48-0.03,0.7,0.15,1.21-0.08c0.05-0.38-0.09-0.62,0.02-1.04c-0.18,0.01,0.4-0.34,0.55-0.5c0.22-0.01,0-0.42-0.04-0.57
	c-0.16,0.01-0.13,0.05-0.1-0.11c0.05-0.02,0.1-0.04,0.16-0.06c0.38-0.65,0.76-1.3,1.13-1.96c0.42-0.51,0.84-1.02,1.26-1.53
	c0.11-0.26,0.13-0.44,0.07-0.67c0.75-0.05,0.98-1.77,0.91-2.25c0.27-0.02,1.53-1.34,1.93-1.6c0.4-0.18,0.8-0.36,1.21-0.54
	c0.02-0.01,0.03-0.02,0.05-0.03c0.19-0.01,0.14-0.3,0.19-0.47c0.03-0.19-0.05-0.11-0.23-0.1c0.01-0.04,0.01-0.08,0.02-0.11
	c0.23,0.01,0.46,0.04,0.7,0.06c0.51-0.18,1.02-0.36,1.53-0.55c0.02-0.15,0.27-0.32,0.19-0.4c0.35-0.03,0.71-0.06,1.07-0.08
	c0.65-0.15,2.5-1.02,2.99-1.53c0.08,0,0.16-0.01,0.24-0.01c-0.02,0.16-0.05,0.12,0.11,0.11c0.03-0.18,0.26-0.2,0.39-0.26
	c0.03-0.15-0.01-0.11,0.14-0.12c-0.01,0.04-0.01,0.08-0.02,0.12c0.27-0.02,0.14,2.47,0.55,2.97c0.04,0,0.08-0.01,0.12-0.01
	c-0.06,0.15-0.12,0.31-0.19,0.48c-0.02,0-0.01,0.46-0.1,0.7c0.04,0,0.08,0,0.12-0.01c-0.06,0.39,1.16-0.14,1.35-0.2
	c0.01-0.04,0.01-0.08,0.02-0.12c0,0.08-0.01,0.17-0.01,0.25c-0.07,0.37-0.31,0.64-0.61,0.87c-1.39,1.11-0.76,2.62-0.6,3.82
	c0.02,0.4,0.04,0.81,0.07,1.22c0.11,0.25,0.21,0.49,0.31,0.74c-0.04,0.25-0.08,0.51-0.11,0.77c-0.05,0.6,0.05,1.12,0.25,1.61
	c-0.01,0.04-0.01,0.08-0.02,0.12c0.13-0.01,0.39-0.74,0.86-0.98c-0.01,0.03-0.02,0.05-0.03,0.08c-0.14,0.3-0.29,0.61-0.43,0.91
	c-0.22,0.8-0.11,2.19,0.44,2.59c-0.08,0.59-0.2,1.05,0.43,1.24c0.02-0.12,0.03-0.23,0.05-0.35c0.04-0.29,0.31-0.59,0.45-0.85
	c0.13-0.35,0.28-0.7,0.41-1.06c0.26-0.02-0.19-0.42-0.28-0.56c-0.17,0.01-0.03-0.39-0.04-0.57c0.16-0.01,0.32-0.02,0.49-0.03
	c0.11-0.8-0.08-1.38-0.45-1.93c-0.17,0.01,0.05-0.08,0.14-0.12c0-0.04,0.01-0.08,0.02-0.12c0.17-0.01,0.04,0.03,0.11,0.11
	c-0.01,0.03-0.01,0.07-0.02,0.12c0.15-0.01,0.14-0.01,0.18-0.15c0.38-1.08,0.78-2.14,1.24-3.18c0.19-0.01,0.12-0.1,0.11-0.25
	c0.05-0.38,0.11-0.77,0.16-1.15c0.09-0.93,0.08-2.03,0.45-2.92c-0.15,0.01-0.21-0.99-0.43-1.24c0.02-0.18,0.16-0.25,0.29-0.37
	c0.05-0.35,0.1-0.7,0.14-1.05c0.04-0.26,0.37-0.55,0.58-0.73c0.05-0.39-0.02-0.72,0.04-1.16c-0.2,0.01-0.24-0.08-0.33-0.21
	c-0.16,0.01-0.13,0.05-0.1-0.11c0.24-0.02,0.46-0.35,0.55-0.54c0.09-0.34,0.18-0.68,0.27-1.02c0.71-1.47,1.61-1.71,2.94-2.47
	c0.2-0.14,0.39-0.28,0.59-0.42c0.03-0.22-0.27-0.18-0.45-0.2c0-0.04,0.01-0.08,0.02-0.12c0.36-0.02,2.11-1.55,2.38-1.92
	c0.09-0.24,0.19-0.48,0.29-0.71c0.29-0.11,0.6,0.03,0.81,0.1c0.01-0.04,0.01-0.08,0.02-0.12c0.26-0.13,0.52-0.26,0.78-0.4
	c0.03-0.17,0.09-0.12,0.26-0.13c0.03-0.19-0.18-0.17-0.33-0.21c0.03-0.21,0.23-0.19,0.4-0.26c0-0.04,0.01-0.08,0.02-0.12
	c-0.11,0.01-0.2,0-0.23-0.1c0.09-0.69,0.5-0.75,1.05-0.65c0.01-0.08,0.68-1.1,0.77-1.21c0.17-0.01,0.19-0.34,0.3-0.48
	c-0.03,0.2,0.24,0.02,0.37-0.03c-0.03,0.23,0.3-0.25,0.41-0.37c-0.19,0.01-0.21-0.12-0.33-0.21c0.01-0.04,0.01-0.08,0.02-0.12
	c0.2-0.05,0.42-0.1,0.62-0.15c0-0.04,0.02-0.08,0.02-0.11c1.14-0.08,1.74-0.88,2.8-1.11c0.04-0.25,0.22-0.35,0.43-0.49
	c0.02-0.11,0.04-0.23,0.05-0.35c-0.08,0-0.16,0.01-0.24,0.01c-0.03,0.21-0.39,0.36-0.55,0.5c-0.15,0.01-0.4-0.25-0.56-0.31
	c0-0.04,0.01-0.08,0.02-0.12c0.45-0.03,0.53-0.6,1.02-0.41c0.04,0,0.08-0.01,0.12-0.01c0.02-0.13-0.01-0.15-0.09-0.23
	c0.04-0.29-0.05-0.14-0.07-0.34c0.03-0.17-1.24,0.37-1.5,0.44c0.03-0.19,0.18,0.1,0.04,0.01c0.01-0.04,0.01-0.08,0.02-0.11
	c0.38-0.03,0.59-0.57,0.77-0.81c0.02-0.17-0.13-0.16-0.26-0.19c-0.75-0.17-3.38,0.89-4.19,1.19c-0.62,0.22-1.24,0.45-1.86,0.67
	c-0.42,0.23-0.84,0.46-1.25,0.69c-1.37,0.63-2.8,1.01-4.15,1.7c0.01-0.04,0.01-0.08,0.01-0.12c-0.14,0.01-0.14-0.02-0.22-0.1
	c0.06-0.46,0.15-0.8-0.08-1.15c0.07-0.2,0.15-0.4,0.22-0.6c0.13-1.01,0.27-2.01,0.4-3.02c-0.2,0.01,0.08-0.22,0.17-0.36
	c0.22-0.01,0.04-0.2,0-0.32c-0.38-0.97,0.1-2.14,0.02-3.26c-0.04-0.66-0.33-1-0.01-1.73c-0.18,0.01-0.14-0.07-0.17-0.18
	c-0.29-0.94-0.7-0.61-1.49-0.87c0.01-0.07,0.02-0.16,0.03-0.23c0.17-0.01,0.39-0.19,0.52-0.27c0.07-0.48-0.76-0.8-1.07-0.97
	c-0.01,0.12-0.8,0.24-0.99,0.32c-0.47,0.21-0.97,0.39-1.49,0.35c-0.34-0.02-0.65-0.2-1.05-0.11c-1.1,0.27-3.48,2.52-4.46,3.41
	c0.04,0,0.08-0.01,0.12-0.01c-0.03,0.2,0.28,0.19,0.45,0.2c-0.01,0.08-0.02,0.15-0.03,0.23c-0.16,0.01-0.12-0.03-0.13,0.12
	c-0.33,0.02-1.12,0.34-1.38,0.58c-0.54,0.49-0.74,1.29-1.18,1.86c-0.25,0.33-0.77,0.41-0.93,0.83c-0.01,0.1-0.01,0.2-0.01,0.3
	c-0.01,0.04-0.01,0.08-0.02,0.12c-1.19,0.08-3.45,5.59-4.6,6.31c-0.02,0.08-0.02,0.15-0.04,0.23c-0.04,0-0.08,0-0.12,0.01
	c-0.05,0.77-0.51,1.09-0.83,1.72c-0.19,0.38-0.25,0.68-0.51,1.03c0.2-0.01,0.06,0.11-0.03,0.23c0.17-0.01-0.11,0.28-0.16,0.47
	c-0.16,0.63-0.69,1.06-0.98,1.61c-0.63,1.23-1.32,2.27-1.69,3.65c-0.72,0.05-0.44,0.87-0.15,1.05c-0.01,0.04-0.01,0.08-0.02,0.12
	c-0.79,0.05-0.88,0.88-0.92,1.45c-0.04,0-0.08,0-0.12,0.01c0.02-0.17-0.05-0.1-0.18-0.07c-1.03,0.35-1.91,0.63-2.78,1.41
	c-0.22,0.02,0,0.15,0.09,0.23c0,0.04-0.01,0.08-0.02,0.12c-0.75,0.05-1.15,0.13-1.88,0.59c-0.62,0.41-1.43,1.4-2.22,1.29
	c-0.04,0.01-0.08,0.01-0.12,0.01c0,0.04-0.01,0.07-0.02,0.11c-0.2,0.01-0.13,0.21-0.17,0.36c-0.03,0.18-0.47,0.47-0.6,0.65
	c-0.19,0.29-0.49,0.47-0.71,0.75c-0.4,0.51-0.75,1.09-0.86,1.72C7102.58,7219.96,7104.19,7220.36,7104.64,7220.28L7104.64,7220.28z
	 M7135.43,7199.35c0,0.03-0.01,0.07-0.02,0.11c0.16-0.01,0.13-0.04,0.1,0.11c-0.04-0.04-0.07-0.07-0.1-0.11
	C7135.29,7199.47,7135.34,7199.43,7135.43,7199.35L7135.43,7199.35z M7124.53,7201.89c0.01-0.01,2.44-3.22,2.72-3.56
	c-0.27,0.06-0.13-0.21-0.1-0.43c0.22-0.05,1.91-2.55,2.49-3.06c0.01-0.05,0.01-0.1,0.02-0.15c0.03-0.01,0.45,1.36,0.72,1.64
	c-0.38,1.03-0.76,2.07-1.14,3.1c-0.17,0.86-0.01,1.71-0.27,2.53c-0.27,0.85-1.3,1.89-2.22,2.15c-0.47,0.14-0.83,0.13-1.28,0.34
	c-0.88,0.55-1.76,1.11-2.64,1.66C7121.64,7205.59,7124.38,7202.98,7124.53,7201.89L7124.53,7201.89z"/>
<path class="st0" d="M7182.82,7196c-0.67-0.04-1.27,0.42-1.81,0.83l-0.52,0.37c0,0-2.23,1.31-2.23,1.31l-2.13,1.25
	c-1.22,0.57-2.26,0.96-3.25,1.24c0,0-0.67,0.25-0.67,0.25c-0.17,0.08-0.33,0.16-0.63,0.23l-0.04,0.01c0,0-0.01,0.02-0.01,0.03
	c-0.04-0.03-0.12-0.08-0.12-0.08l-0.11-0.08c-0.35-0.21-0.44-0.74-0.44-1.35c0-0.38,0.04-0.79,0.07-1.19
	c0.03-0.4,0.07-0.78,0.07-1.12c0-0.17-0.02-0.31-0.04-0.45c0.43-0.15,0.49-1.09,0.54-1.93c0.02-0.37,0.04-0.71,0.09-0.85
	c0.08-0.21,0.32-0.4,0.52-0.58l0.05-0.04l0.02-0.08c0,0-0.02-0.53-0.02-0.6c0.35-0.4,0.85-2.09,0.86-2.11
	c0.02-0.1,0.03-0.19,0.03-0.27c0-0.11-0.02-0.21-0.04-0.31c0.12-0.06,0.17-0.2,0.19-0.28l0.03-0.07c0.01-0.03,0.01-0.07,0.02-0.07
	c0.01,0,0.03-0.01,0.03-0.01l0.24-0.11c0,0-0.04-0.06-0.06-0.1c0.01-0.03,0.22-0.48,0.26-0.58c0.04-0.01,0.09-0.02,0.12-0.07
	c0.02-0.03,0.03-0.06,0.03-0.09c0-0.03-0.02-0.06-0.03-0.09c0.15-0.09,0.29-0.28,0.41-0.46l0.16-0.21l0.52-0.5
	c0.33-0.32,0.64-0.61,0.92-0.99c0.01-0.03,0.26-0.67,0.26-0.67s0.12-0.32,0.13-0.33c0,0.01,0.17-0.22,0.17-0.22
	c0.21-0.28,0.46-0.58,0.46-0.98c0-0.05,0-0.1-0.01-0.15c-0.09-0.62-0.63-0.85-1.06-1.04c0,0-0.09-0.04-0.1-0.04
	c0.01-0.03,0.02-0.12,0.02-0.12l-0.14,0l-0.09,0c-0.14-0.01-0.25-0.01-0.33-0.03c0.13-0.16,0.2-0.42,0.25-0.61
	c0.08-0.02,0.15-0.06,0.2-0.12l0.16-0.18c0,0-0.27-0.04-0.28-0.04c0-0.01-0.02-0.06-0.02-0.06l-0.04-0.16l-0.09,0l-0.4-0.02
	c0,0-0.14,0.39-0.15,0.4c-0.11-0.03-0.2-0.1-0.28-0.25l-0.03-0.06c0,0-0.12-0.01-0.12-0.01c0,0-0.01-0.01-0.01-0.01
	c0,0,0.01-0.01,0.01-0.01l0.02-0.1c0,0-0.17-0.07-0.2-0.08c0.03-0.05,0.06-0.11,0.06-0.11s-0.14-0.02-0.18-0.02
	c0-0.02,0.01-0.04,0.01-0.04c0.01-0.04,0.02-0.08,0.02-0.13s-0.01-0.1-0.04-0.14c-0.02-0.03-0.07-0.03-0.1-0.05
	c-0.03-0.12-0.12-0.2-0.18-0.23c0,0-0.02-0.01-0.03-0.02c0.01-0.04,0.03-0.12,0.03-0.12l-0.14-0.05c-0.13-0.01-0.33-0.08-0.54-0.16
	c-0.44-0.16-0.94-0.35-1.29-0.13c-0.17,0.1-0.27,0.3-0.33,0.56c-0.06-0.02-0.12-0.04-0.18-0.08c0,0-0.06-0.04-0.11-0.07
	c-0.01-0.05-0.03-0.11-0.03-0.11l-0.19-0.06h-0.19l-0.02,0.11c-0.05,0.44-0.13,0.53-0.45,0.74l-0.3,0.19c0,0,0.17,0.02,0.27,0.03
	c-0.02,0.02-0.03,0.04-0.03,0.04c0,0-0.17,0.32-0.17,0.32c-0.48,0.9-0.94,1.79-0.94,2.3c0,0.06,0.02,0.1,0.03,0.14
	c-0.14-0.01-0.5-0.03-0.5-0.03l-0.01,0.12c-0.1,0.85-0.34,1.16-0.73,1.66l-0.32,0.44c-0.01,0.01-0.41,0.78-0.41,0.78l-0.13,0.25
	c-0.31,0.4-0.54,0.89-0.75,1.36c-0.22,0.47-0.42,0.91-0.72,1.29c0,0-0.61,0.65-0.61,0.65c-0.23,0.31-0.43,0.73-0.65,1.18
	c-0.25,0.52-0.51,1.07-0.8,1.38c-0.01,0-0.04,0.03-0.04,0.03l-0.4,0.31c-0.69,0.65-1.6,1.61-1.92,2.62c-0.02,0-0.12,0.02-0.12,0.02
	l-0.02,0.01c-1.13,0.73-2.16,1.92-3.06,2.98l-0.34,0.4c0,0-0.47,0.58-0.47,0.58l-0.13,0.16c0.01-0.01-0.52,0.37-0.52,0.37
	c-0.23,0.14-0.47,0.29-0.69,0.52c-0.01,0.01-0.56,0.73-0.56,0.73l-0.07,0.09c-0.14,0.13-0.39,0.1-0.66,0.08
	c-0.25-0.02-0.51-0.03-0.73,0.09c0.21-1.65,0.61-3,1.33-4.56c0.04-0.01,0.08-0.02,0.12-0.07c0.02-0.03,0.03-0.07,0.03-0.1
	c0-0.05-0.02-0.09-0.03-0.12l-0.02-0.06c-0.01-0.04-0.01-0.1-0.01-0.15c0-0.63,0.52-2.09,0.83-2.75l0.04-0.09
	c0,0-0.04-0.02-0.08-0.05c0.02-0.02,0.03-0.05,0.03-0.05l0.09-0.16c0.01-0.02,0.09-0.53,0.09-0.53l0.11-0.64
	c0.14-0.78,0.47-2.24,0.99-3.28l0.16,0.01l-0.02-0.16l-0.01-0.08c-0.02-0.14-0.03-0.28-0.03-0.41c0-0.49,0.13-0.98,0.36-1.48
	l0.17,0.01l-0.05-0.25c-0.28-1.04-1.29-2.66-2.81-2.67c-1.89-0.01-3.81,4.76-4.16,6.48c-0.1,0.02-0.34,0.07-0.34,0.07l-0.09,0.02
	l-0.01,0.09c-0.05,0.39-0.19,0.72-0.35,1.06l-0.22,0.53l-0.63,1.63l-0.35,0.89l0.14,0.04c0,0,0.17,0.05,0.31,0.09
	c-0.13-0.01-0.53-0.03-0.53-0.03l-0.01,0.12c-0.04,0.31-0.17,0.61-0.3,0.9l-0.19,0.46c-0.01,0.02-0.03,0.18-0.03,0.18
	s-0.14,0.83-0.14,0.84c0,0-0.26,0.49-0.26,0.49l-0.13,0.26c-0.22,0.58-0.32,1.14-0.42,1.74l-0.11,0.62l-0.09,0.47
	c-0.09,0.46-0.18,0.9-0.18,1.33c0,0.45,0.11,0.87,0.4,1.27c0,0.01,0,0.02,0,0.03c-0.01,0-0.49-0.14-0.49-0.14l-0.05,0.34l0.09,0.05
	c0,0,0.12,0.05,0.2,0.09c-0.02,0.2-0.04,0.4-0.04,0.59c0,1.07,0.33,1.99,1.03,2.85l0.22,0.25c0.21,0.24,0.38,0.43,0.5,0.78
	l0.03,0.08l1.4,0.08c0,0,0-0.03,0.01-0.06c0.15,0.06,0.84,0.33,0.84,0.33l0.05-0.01l0.7-0.07c0.57-0.03,1.21-0.08,1.53-0.33
	c0.03,0,0.07,0,0.13,0.01c0,0.04-0.01,0.09-0.01,0.09l-0.02,0.24h0.13c0.63,0.04,1.02-0.31,1.41-0.65l0.46-0.38l0.01-0.06
	c0-0.03,0.01-0.06,0.01-0.1c0-0.12-0.04-0.21-0.07-0.3c0.09-0.02,0.2-0.07,0.34-0.15l0.24-0.13l-0.01-0.05l-0.05-0.19
	c-0.03-0.03-0.06-0.04-0.09-0.05c0.23-0.02,0.43-0.07,0.6-0.14c0.22-0.08,0.33-0.21,0.45-0.33l0.25-0.23l0.59-0.33
	c0.53-0.28,1.12-0.6,1.46-1.13c0.09-0.02,0.25-0.12,0.58-0.52l0.02-0.03c0,0,0.01-0.07,0.01-0.08c0.09-0.05,0.15-0.13,0.18-0.19
	l0.06-0.1h0c0.74-0.2,1.21-0.96,1.67-1.69c0.3-0.49,0.62-0.99,0.98-1.29l0.04-0.03c0,0,0-0.02,0-0.03c0.02,0,0.1,0.01,0.1,0.01
	l0.01-0.13l0.02-0.15l-0.07-0.08l-0.07-0.03c-0.06-0.03-0.14-0.07-0.19-0.12c0.37-0.1,0.7-0.35,0.84-0.67
	c0.04-0.1,0.07-0.21,0.07-0.32c0-0.12-0.04-0.23-0.09-0.34c0.05-0.01,0.56-0.05,0.59-0.05c0.05,0.09,0.09,0.21,0.13,0.34
	c0.11,0.36,0.26,0.82,0.64,1.08c-0.06,0-0.25-0.01-0.25-0.01s-0.01,0.08-0.02,0.1c-0.03,0-0.1,0-0.1,0l-0.01,0.12
	c-0.01,0.05-0.01,0.1-0.01,0.15c0,0.63,0.46,1.19,0.93,1.43c0,0,0.01,0,0.01,0.01c0,0.02-0.01,0.04-0.01,0.07
	c-0.01,0.01-0.03,0.01-0.04,0.02c-0.02,0.03-0.03,0.07-0.03,0.11c0,0.14,0.12,0.32,0.27,0.55c0.15,0.24,0.36,0.54,0.36,0.75
	c0,0.02-0.01,0.03-0.01,0.05c-0.03,0.02-0.05,0.05-0.06,0.07c-0.01,0.02-0.01,0.04-0.01,0.06c0,0.13,0.21,0.36,1.51,1.3l0.15,0.11
	c0,0,0.28,0.34,0.28,0.34c0.1,0.14,0.2,0.27,0.35,0.38c-0.03,0.07-0.07,0.13-0.13,0.2l-0.23,0.29l0.25,0.01
	c0.13,0.01,0.45,0.23,0.7,0.41c0.26,0.18,0.51,0.36,0.7,0.42l0.15,0.06c0,0,0.07-0.64,0.08-0.68c0.15,0.01,0.79,0.05,0.79,0.05
	l0.2-0.05c0,0,0.06-0.19,0.06-0.19c0.11,0.06,0.22,0.14,0.33,0.23l0.53,0.4l0.01-0.23c0,0,0-0.01,0-0.02
	c0.25-0.05,0.47-0.24,0.58-0.36c0.08,0,0.36,0.01,0.36,0.01c1.03,0.06,1.39-0.46,1.84-1.12l0.18-0.25l0.03-0.28l-0.14,0l-0.1-0.01
	c-0.02-0.03-0.04-0.05-0.06-0.06c-0.08-0.05-0.16,0-0.24,0.05c-0.04,0-0.11-0.02-0.11-0.02c0,0,0,0,0-0.01
	c0-0.05,0.04-0.2,0.26-0.56c0.04,0.02,0.44,0.15,0.44,0.15l0.02-0.16c0-0.03,0.01-0.05,0.02-0.05c0.07-0.03,0.29,0.06,0.45,0.16
	c0.01,0.05,0.02,0.1,0.05,0.13c0.07,0.07,0.16,0.06,0.25,0.05c0.03,0.09,0.08,0.17,0.13,0.23c0,0,0,0.01,0,0.01
	c0,0.05,0.01,0.11,0.05,0.15c0.06,0.06,0.13,0.05,0.19,0.05l0.18-0.01l0.03-0.11l0.02-0.12l-0.03-0.08
	c-0.03-0.03-0.06-0.03-0.09-0.03c-0.01-0.03-0.01-0.04-0.02-0.08c0.01-0.01,0.03-0.03,0.03-0.03s0.02-0.04,0.03-0.07
	c0.05,0,0.23,0.01,0.23,0.01v0c0.08,0.01,0.16-0.04,0.23-0.09c0,0,0.01,0,0.01-0.01c0.06-0.01,0.49-0.07,0.49-0.07
	s-0.01-0.2-0.01-0.24c0.01,0.01,0.02,0.01,0.03,0.03c0,0.01,0.01,0.03,0.01,0.04c0,0.02-0.01,0.03-0.01,0.04
	c0.03-0.05,0.2-0.19,1.03-0.62c0,0,0.03-0.02,0.07-0.04c0.03,0,0.2,0.01,0.2,0.01l0.01-0.12l0.03-0.27l-0.16,0.02
	c0,0-0.49,0.06-0.56,0.06c0-0.01,0.02-0.17,0.02-0.17c0-0.01,0-0.02,0-0.04c0-0.08-0.03-0.13-0.06-0.16
	c-0.08-0.08-0.19-0.1-0.32-0.09c0,0,0.01-0.01,0.01-0.01l0-0.05c0,0,0.01-0.14,0.03-0.23c0.48-0.06,1.02-0.54,1.27-0.87
	c0.02,0,0.16,0.01,0.16,0.01l0.06-0.48c0,0-0.07,0-0.11,0c0.01-0.04,0.03-0.12,0.03-0.12c0,0,0.05-0.01,0.05-0.01l0.14-0.06
	l0.48-0.23c0.61-0.27,1.02-0.46,1.1-0.63c0,0,0.58-1.37,0.58-1.37s-0.01-0.01-0.01-0.02c0.16-0.22,1.08-0.97,1.36-1.03l0.09-0.02
	l0.01-0.09c0-0.01,0-0.02,0-0.03c0-0.19-0.16-0.42-0.3-0.62c0,0-0.05-0.08-0.09-0.14c0.04-0.05,0.08-0.13,0.15-0.24
	c0.19-0.3,0.62-1.02,0.76-1.1l0.05-0.03l0.05-0.41L7182.82,7196L7182.82,7196z"/>
<path class="st1" d="M7183.41,7170.51h-21.69v22.46h22.46v-22.46H7183.41L7183.41,7170.51z M7182.64,7172.06c0,1.38,0,17.99,0,19.37
	c-1.38,0-17.99,0-19.37,0c0-1.38,0-17.99,0-19.37C7164.65,7172.06,7181.26,7172.06,7182.64,7172.06L7182.64,7172.06z"/>
<path class="st0" d="M7104.35,7189.01c-0.72-0.18-1.67-0.36-2.28-0.43l-0.04,0.03l-0.26,0.19c0,0,0,0.01-0.01,0.02
	c-0.11-0.01-0.2,0.01-0.3,0.03c0-0.01,0.01-0.02,0.01-0.02l-0.1-0.02l-0.46-0.08c-0.11-0.02-0.23,0.08-0.35,0.17
	c0,0-0.04,0.03-0.07,0.05c0,0-0.16-0.21-0.16-0.21l-0.04,0.18c0,0-0.01,0.04-0.02,0.06c-0.01,0-0.04-0.01-0.04-0.01
	c-0.01-0.04-0.08-0.06-0.34,0.21c-0.06-0.03-0.21-0.11-0.21-0.11l-0.06,0.07c-0.03,0.04-0.22,0.1-0.28,0.13l-0.01,0
	c-0.01,0,0-0.01-0.01-0.02c-0.02-0.01-0.06-0.01-0.11,0.05c-0.03-0.01-0.11-0.04-0.11-0.04l-0.08-0.01l-0.03,0.04
	c0,0-0.2,0.28-0.24,0.33c-0.01,0-0.02,0-0.02,0c0-0.03,0-0.14,0-0.14l-0.27-0.05c0,0-0.05,0.18-0.06,0.2
	c-0.02,0-0.05-0.01-0.05-0.01s-0.01,0.02-0.02,0.04c-0.02-0.01-0.22-0.12-0.22-0.12l-0.02,0.11c-0.01,0.02-0.05,0.1-0.38,0.21
	l-0.04,0.02l-0.01,0.04c-0.01,0.05-0.08,0.09-0.14,0.13l-0.11,0.08c0,0,0,0.01,0,0.02c-0.3-0.02-0.58,0.1-0.86,0.22l-0.39,0.15
	l-0.02,0.05c-0.08,0.24-0.19,0.6-0.36,0.75c-0.02-0.03-0.05-0.06-0.07-0.08c0-0.01,0.04-0.12,0.04-0.12l-0.1-0.01
	c-0.14-0.02-0.25,0.19-0.33,0.41c0-0.02,0-0.05,0-0.05l-0.07-0.01c0,0-0.01,0-0.01,0c0.01-0.02,0.01-0.04,0.01-0.04l-0.09-0.05
	c-0.09-0.02-0.15,0.03-0.2,0.1c0-0.03-0.01-0.13-0.01-0.13l-0.07-0.02c-0.1-0.02-0.34,0.08-0.81,0.3l-0.5,0.21l-0.02,0.04
	c-0.06,0.19-0.21,0.32-0.37,0.47c-0.13,0.12-0.25,0.24-0.35,0.39c-0.31-0.04-0.52,0.01-0.76,0.31c-0.02,0.01-0.04,0.01-0.06,0.02
	c-0.04,0.04-0.05,0.09-0.05,0.17c0,0.04,0.01,0.08,0.01,0.12c-0.05-0.01-0.09-0.02-0.09-0.02l0.06,0.16c0,0,0.01,0.02,0.02,0.03
	c-0.02,0.03-0.06,0.04-0.15,0.05c0,0-0.03,0-0.05,0.01c0.02-0.05,0.06-0.14,0.06-0.14h0c0,0,0.01-0.01,0.01-0.01l-0.17-0.07
	c0,0-0.01,0.01-0.01,0.01c-0.02,0.07-0.13,0.15-0.22,0.23l-0.44,0.39l0.34-0.08c0,0,0.04-0.01,0.06-0.01
	c-0.01,0.06-0.03,0.2-0.04,0.25c-0.34,0.19-1.24,1.26-1.25,1.27c-0.01,0.01-0.11,0.21-0.11,0.21s-0.04,0.09-0.08,0.16
	c-0.07,0.01-0.18,0.06-0.43,0.25c0,0,0,0-0.01-0.01l-0.02-0.06l-0.07-0.05c-0.15-0.03-0.19,0.1-0.21,0.16
	c-0.01,0.02-0.1,0.33-0.1,0.33c-0.09,0.34-0.12,0.41-0.54,0.62c0,0-0.02-0.32-0.02-0.32l-0.15,0.29c0,0-0.3,0.54-0.34,0.6
	c0,0-0.33-0.25-0.33-0.25c-0.08,0.05-0.11,0.13-0.12,0.24c0,0-0.09-0.02-0.09-0.02s-0.02,0.05-0.02,0.07
	c-0.02,0-0.04-0.01-0.04-0.01l-0.03,0.06l-0.27,0.46c0,0.01-0.26,0.52-0.26,0.52c0.01-0.01-0.3,0.38-0.3,0.38
	c-0.29,0.35-0.58,0.71-0.67,1.18c-0.34,0.1-0.67,1.34-1.69,3.16l-0.61,1.04c-0.01,0.03-0.04,0.25-0.04,0.25c0,0.01,0,0.01,0,0.02
	c0,0.08-0.01,0.1-0.13,0.17l-0.04,0.02l-0.01,0.03c-0.11,0.35-0.19,0.54-0.42,0.81c-0.02,0.03-0.03,0.07-0.03,0.07l-0.04,0.11
	c0,0,0.02,0.01,0.04,0.01c-0.04,0.07-0.2,0.35-0.2,0.35c-0.01,0.03-0.01,0.06-0.01,0.09c0,0.1,0.04,0.18,0.08,0.24l0.07,0.14
	l0.08,0.03c0,0,0.04,0.01,0.04,0.01c-0.14,0.29-0.27,0.59-0.27,0.82c0,0.07,0.01,0.13,0.04,0.19c0.04,0.08,0.12,0.13,0.21,0.16
	c-0.09,0.21-0.23,0.56-0.23,0.83l0.06-0.02l-0.04,0.14l0.09,0.04c0,0,0.19,0.03,0.19,0.03c-0.01,0.07-0.06,0.4-0.06,0.4
	s0.02,0,0.04,0.01c-0.02,0.02-0.04,0.05-0.04,0.11c0,0.08,0.03,0.2,0.06,0.36c-0.03-0.02-0.07-0.04-0.07-0.04l-0.15,0.64l-0.05,0.2
	c0,0.03,0,0.79,0,0.79c-0.01,0.17-0.11,0.36-0.21,0.51l-0.01,0.02l0,0.09l0.05,0.07l0.02,0.08l0.02,0.09
	c-0.01-0.02-0.02,0.01-0.02,0.01l-0.05,0.15l0.21-0.05c0.17-0.04,0.43,0.36,0.57,0.58c0,0,0.06,0.09,0.09,0.14c0,0,0,0.01,0,0.01
	c-0.01,0.01-0.14,0.1-0.14,0.1l0.01,0.03c0,0,0,0.01,0,0.01c0,0.04,0.03,0.07,0.06,0.09c0,0.01-0.01,0.08-0.01,0.08
	s0.02,0.01,0.04,0.01c0,0.03-0.03,0.27-0.04,0.32l0,0v0c0,0.01-0.01,0.03-0.01,0.03l0.18,0.01c0,0-0.01,0.02-0.04,0.02l-0.05-0.01
	l0.11,0.2c0,0,0.02,0.01,0.03,0.02c0,0.01-0.01,0.03-0.01,0.04c0,0.03,0.01,0.07,0.04,0.11c0.23,0.25,0.32,0.41,0.32,0.64
	c0,0.17-0.05,0.39-0.13,0.71c0,0-0.02,0.07-0.02,0.07c-0.02,0.02-0.04,0.05-0.04,0.05s-0.03,0.04-0.04,0.06h0c0,0,0,0,0,0.01
	c-0.07,0.09-0.23,0.3-0.23,0.3l-0.01,0.04l-0.01,0.13l0.08,0.03c0.16,0.03,0.22-0.14,0.28-0.27c0.04,0.02,0.1,0.04,0.11,0.08
	l0.03,0.09l0.04-0.03c0,0,0.08-0.03,0.15-0.06c-0.01,0.02-0.08,0.25-0.08,0.25l-0.01,0.05l0.07,0.04c0.01,0.01,0.04,0.08,0.04,0.17
	c0,0.07-0.01,0.15-0.06,0.22c-0.01,0.02-0.01,0.05-0.01,0.07c0,0.12,0.08,0.26,0.19,0.44l0.07,0.11c-0.01-0.04-0.02,0-0.02,0
	l-0.03,0.1l0.28,0.05l0.03-0.06c0,0,0.09-0.17,0.11-0.19c0.04,0.01,0.08,0.02,0.08,0.02s0.23,0.03,0.3,0.04
	c0,0.01,0.02,0.16,0.02,0.16l0.08-0.01l0.49,0l0.02-0.07c0.05-0.18,0.11-0.22,0.24-0.31c0.05,0,0.11,0,0.11,0
	c0.08-0.01,0.1-0.01,0.12,0.03l0.02,0.03c0,0,0.01,0,0.01,0c0,0,0,0,0,0c0,0.08-0.1,0.31-0.13,0.39l-0.09,0.21l0.12,0.02l0.13,0.02
	c0,0,0.02-0.05,0.02-0.06c0.02,0,0.04,0.01,0.04,0.01l0.03-0.06l0.22-0.36l0.02-0.05c0,0,0-0.01,0-0.01
	c0.02,0.01,0.06,0.03,0.06,0.03c0.01,0,0.01,0,0.01,0c0,0.01,0,0.07,0,0.07c0,0-0.08,0.41-0.08,0.41l-0.06,0.36
	c0,0.02,0.1,0.28,0.1,0.28s0.11,0.29,0.12,0.31c0,0.01,0,0.01,0,0.01l-0.04,0.11c0,0,0.03,0.01,0.06,0.02
	c-0.01,0.03-0.04,0.13-0.04,0.13l0.12-0.04c0,0,0.2-0.05,0.22-0.05c0.11-0.01,0.35-0.01,0.39,0.11l0.02,0.05l0.21,0.04l0.06-0.07
	c0.03-0.09,0.21-0.07,0.26-0.06c0,0,0.09,0.03,0.15,0.05c-0.01,0.02-0.03,0.09-0.03,0.09l0.1,0.02c0.09,0.02,0.14-0.03,0.17-0.1
	c0.05,0.08,0.13,0.16,0.25,0.21c-0.02-0.02,0.1,0.09,0.1,0.09l0.12,0.11c0.3,0.12,0.6,0.06,0.87-0.01c0,0,0.31-0.06,0.32-0.06
	c0,0,0.14,0.24,0.14,0.24l0.06-0.2c0.05-0.17,0.25-0.24,0.6-0.24c0.13,0.02,0.25-0.16,0.4-0.43c0,0,0.03-0.05,0.05-0.08
	c0.05-0.01,0.19-0.04,0.25-0.05c-0.01,0.02-0.01,0.04-0.01,0.04l0.11,0.02c-0.04,0.11-0.12,0.29-0.12,0.29
	c-0.09,0.19-0.18,0.38-0.21,0.63l-0.01,0.09l0.22,0.04l0.02-0.08c0.05-0.15,0.18-0.31,0.3-0.43c0,0,0.02,0.01,0.02,0.01l0.03,0
	c-0.01-0.03,0.11,0.21,0.11,0.21l0.05,0.11l0.16,0.03l0.27-0.44c0,0,0.01-0.04,0.02-0.04c0.06-0.01,0.27-0.05,0.27-0.05l0.29-0.05
	l0.59,0.03c0.02,0,0.28-0.1,0.28-0.1c0.15-0.07,0.24-0.11,0.3-0.07l0.1,0.07c0,0,0.04-0.14,0.05-0.15c0.08-0.03,0.17-0.08,0.27-0.15
	c-0.02,0.03-0.05,0.08-0.05,0.08l0.32,0.05c0,0,0.01-0.02,0.02-0.04c0.03,0.01,0.09,0.04,0.09,0.04l0.18,0.08l0.02-0.11l0.04-0.15
	c0,0-0.07-0.03-0.09-0.03c0-0.01-0.01-0.07-0.01-0.07c0,0,0,0,0-0.01c0.02,0.01,0.05,0.02,0.05,0.02l0.17,0.1l0.03-0.12
	c0.03-0.1,0.13-0.19,0.27-0.23c0.16-0.06,0.33-0.04,0.39,0l0.1,0.07l0.04-0.12c0.06-0.18,0.41-0.29,0.58-0.32l0.07-0.01l0.92-0.21
	l0.15-0.02l0.02-0.06l0.04-0.15c0,0-0.01,0-0.01,0c0,0,0.03-0.03,0.04-0.04c0.15-0.01,0.74-0.07,0.89-0.13l0.04-0.02
	c0,0,0.04-0.12,0.05-0.15c0.08-0.02,0.17-0.03,0.26-0.05c0.18,0.03,0.47-0.21,0.57-0.42c0,0,0.01,0,0.01,0
	c0.08,0.05,0.13-0.03,0.24-0.19c0,0,0.02-0.03,0.04-0.05c0,0.01,0,0.01,0,0.02l1.69-0.87c0,0,0.07-0.05,0.1-0.07c0.02,0,0.1,0,0.1,0
	l0.02-0.07c0.05-0.25,0.16-0.42,0.33-0.51c0.16-0.08,0.36-0.08,0.55,0.01l0.15,0.07l-0.02-0.15c-0.01-0.08,0.03-0.69,0.07-0.78
	c0.07-0.08,0.16-0.1,0.28-0.11c0.12-0.02,0.25-0.04,0.37-0.16c0.01-0.01,0.11-0.16,0.11-0.16l0.1-0.15
	c-0.01,0.02,0.27-0.11,0.27-0.11c0.14-0.04,0.31-0.09,0.42-0.22c0.13-0.16,0.18-0.37,0.23-0.57l0.13-0.4
	c0.13-0.25,1.16-0.82,1.35-0.76l0.11,0.04c0,0,0-0.03,0.01-0.05c0.21-0.13,0.98-2.04,0.99-2.07c0.01-0.01,0.46,0.06,0.46,0.06
	l0.01-0.05c0,0,0-0.01,0-0.01c0.46-0.08,0.81-0.45,1.13-0.81c0.3-0.34,0.49-1.09,0.84-1.16l0.07-0.01l0.01-0.07
	c0-0.02,0-0.04,0-0.06c0-0.13-0.04-0.22-0.11-0.27c-0.14-0.1-0.34-0.02-0.51,0.05l-0.13,0.05l-0.01,0.06
	c-0.32,0.04-0.64,0.17-0.89,0.29c0-0.01,0-0.02,0-0.02l-0.11,0.01c-0.11,0.01-0.21,0.1-0.3,0.17l-0.12,0.09c0,0-0.3,0.12-0.31,0.13
	c-0.01-0.01,0-0.02-0.01-0.03c-0.07-0.03-0.13,0.03-0.17,0.07l-0.03,0.03c-0.47,0.4-1.56,1.23-1.96,1.25l-0.07,0
	c0,0-0.01,0.04-0.01,0.07c-0.01,0-0.08,0-0.08,0l-0.04,0.07c-0.04,0.04-0.29,0.08-0.46,0.08l-0.06,0l-0.03,0.07
	c-0.08,0.15-1.18,0.84-1.36,0.8c-0.14,0-0.17,0.06-0.17,0.11c-0.05-0.01-0.19-0.06-0.19-0.06l-0.05,0.1c-0.01,0.1-0.23,0.3-1.47,0.6
	c0,0,0-0.02,0-0.02l-0.14-0.02l-0.08,0.01l-0.04,0.07c-0.03,0.05-0.23,0.12-0.31,0.16l-0.2,0.08c0,0,0,0.01,0,0.02
	c-0.07,0-0.15,0.06-0.32,0.17c-0.14,0.09-0.35,0.22-0.42,0.23l-0.06,0.01c0,0-0.01,0.03-0.01,0.05c-0.05,0-0.14,0.03-0.33,0.08
	l-0.38,0.1c0,0-0.02,0.05-0.03,0.05c-0.36-0.03-0.88,0.14-1.2,0.33c-0.01-0.01,0-0.02-0.01-0.02c-0.03-0.05-0.09-0.05-0.12-0.05
	l-0.03,0l-0.1-0.02l-0.06,0.07c-0.02,0.02-0.13,0.02-0.17,0.02c0,0-0.1,0-0.11,0c0,0-0.12-0.18-0.12-0.18l-0.08,0.14
	c-0.03,0.06-0.31,0.13-0.46,0.17c0,0-0.26,0.09-0.34,0.11c-0.02,0-0.05-0.01-0.09-0.02c-0.01-0.02-0.01-0.05-0.03-0.06
	c-0.07-0.04-0.14,0.02-0.22,0.13c-0.06-0.03-0.14-0.07-0.14-0.07c-0.03-0.01-0.08-0.02-0.08-0.02l-0.08-0.01l-0.03,0.08
	c-0.01,0.05-0.12,0.06-0.19,0.07l-0.14,0.02c0,0-0.01,0.02-0.01,0.04c-0.07-0.02-0.26-0.06-0.26-0.06s-0.62,0.14-0.62,0.14
	c0,0-0.34-0.03-0.34-0.03l-0.43-0.03c-0.81-0.18-1.8-0.97-1.97-1.94c-0.02-0.14-0.03-0.29-0.03-0.43c0-0.23,0.02-0.47,0.05-0.73
	l0-0.05c0,0,0.02-0.32,0.02-0.32c0.01-0.21,0.01-0.41,0.08-0.65c0,0,0.27-0.67,0.27-0.67l0.17-0.37c0-0.01,0.18-0.6,0.18-0.6
	c0,0,0.26-0.51,0.26-0.51c0.01-0.03,0.04-0.38,0.04-0.38l0.01-0.08l0.06-0.26c0,0,0.02-0.08,0.04-0.16c0,0.02,0.01,0.03,0.01,0.07
	c0,0.07-0.01,0.17-0.02,0.31l-0.01,0.09l0.22,0.04l0.03-0.06c0,0,0.15-0.3,0.15-0.3c0,0,0.27-0.26,0.27-0.26
	c0.01-0.01,0.53-0.67,0.53-0.67l0.34-0.52c0.21-0.35,0.45-0.74,0.69-0.89l0.02-0.01c0,0,0-0.01,0-0.01
	c0.02,0.01,0.05,0.03,0.05,0.03l0.17,0.1l0.02-0.12c0.02-0.07,0.03-0.13,0.03-0.2c0-0.11-0.02-0.22-0.04-0.31
	c0,0-0.01-0.03-0.01-0.05c0.05,0.07,0.12,0.14,0.24,0.14c0.29-0.02,1.18-0.83,1.42-1.16c0.04,0.03,0.1,0.07,0.1,0.07l0.13,0.14
	l0.08-0.11l0.17-0.22c0.12-0.12,0.25-0.27,0.33-0.48c0.06-0.01,0.28-0.07,0.39-0.09c0.03,0.07,0.08,0.13,0.13,0.16
	c0,0.01-0.03,0.1-0.03,0.1l0.13,0.03l0.11,0.02l0.04-0.12l-0.01,0c0.06-0.04,0.1-0.12,0.12-0.18l0.03-0.09
	c0.01-0.02,0.19-0.18,0.19-0.18s0.02-0.01,0.02-0.02c0.04,0.02,0.08,0.03,0.08,0.03l0.03,0c0.06,0.02,0.3,0.27,0.34,0.37l0.1,0.21
	l0.07-0.23c0.03-0.1,0.09-0.17,0.17-0.2c0.13-0.06,0.32-0.03,0.42,0.03l0.05,0.03l0.06-0.05c0.08-0.06,0.74-0.26,0.87-0.27
	l0.55,0.04c0.22,0.03,0.45,0.07,0.69,0.02c0.32-0.06,0.61-0.24,0.91-0.42l0.48-0.27c0,0,0.67-0.22,0.67-0.22l0.68-0.22
	c0.45-0.22,0.9-0.45,1.25-0.7c0.01,0,0.75-0.64,0.75-0.64c-0.01,0.01,0.27-0.17,0.27-0.17c0.19-0.11,0.38-0.22,0.55-0.41
	c0.21-0.24,0.31-0.55,0.39-0.86l0.18-0.53l0.23-0.37c0.18-0.49,0.26-0.96,0.26-1.45c0-0.38-0.05-0.76-0.16-1.17
	c0,0-0.12-0.38-0.12-0.38c-0.01-0.02-0.36-0.46-0.36-0.46c-0.3-0.36-0.59-0.7-0.59-1.22c0-0.08,0.01-0.16,0.02-0.25l0.02-0.11
	l-0.59,0c0,0-0.01,0.05-0.02,0.07c-0.01-0.01-0.01-0.03-0.02-0.04c-0.24-0.2-0.24-0.31-0.25-0.55c0,0-0.03-0.27-0.03-0.31
	c0.01-0.03,0.06-0.22,0.06-0.22l-0.23-0.04l-0.04,0.07c0,0-0.01,0.03-0.02,0.06c-0.04-0.01-0.15-0.03-0.15-0.03s0.08,0.17,0.08,0.18
	c-0.01,0,0,0.01-0.02,0.01c-0.14,0-0.36-0.13-0.39-0.2l-0.02-0.05l-0.19-0.03l-0.02,0.08c-0.02,0.05-0.02,0.05-0.03,0.06
	c-0.01,0-0.02-0.01-0.02-0.01l-0.08-0.01c0,0-0.01,0.02-0.01,0.02c-0.1-0.17-0.18-0.3-0.26-0.34c0,0-0.01,0-0.02-0.01
	c0-0.02-0.01-0.04-0.03-0.06c-0.07-0.05-0.26,0.12-0.26,0.12C7104.52,7189.25,7104.35,7189.01,7104.35,7189.01L7104.35,7189.01z"/>
<polygon class="st0" points="7313.03,7199.8 7313.03,7181.33 7296.53,7181.33 7296.53,7183.51 7309.6,7183.51 7309.6,7199.8 
	7307.14,7199.8 7307.14,7190.04 7303.72,7190.04 7303.72,7199.8 7301.37,7199.8 7301.37,7190.04 7297.95,7190.04 7297.95,7199.8 
	7294.32,7199.8 7294.32,7201.98 7315.14,7201.98 7315.14,7199.8 7313.03,7199.8 "/>
<path class="st0" d="M7236.94,7193.69c-3.77,0-6.83,2.49-6.83,5.56c0,1.03,0.34,2.03,1,2.9c1.25,1.66,3.43,2.65,5.83,2.65
	c2.4,0,4.59-0.99,5.84-2.65c0.65-0.87,1-1.87,1-2.9c0-1.03-0.34-2.03-1-2.9C7241.53,7194.68,7239.34,7193.69,7236.94,7193.69
	L7236.94,7193.69z M7236.94,7202.63c-1.22,0-2.4-0.71-3.01-1.8c-0.27-0.49-0.41-1.02-0.41-1.58c0-0.55,0.14-1.09,0.42-1.58
	c0.61-1.09,1.79-1.8,3-1.8c1.22,0,2.39,0.71,3.01,1.8c0.27,0.49,0.4,1.03,0.4,1.58C7240.35,7201.08,7238.79,7202.63,7236.94,7202.63
	L7236.94,7202.63z"/>
<path class="st0" d="M7235.77,7190.48c1.06-1.11,1.64-2.55,1.64-4.06c0-1.51-0.57-2.96-1.64-4.06c-1.15-1.21-2.71-1.87-4.4-1.87
	c-3.33,0-6.04,2.66-6.04,5.93c0,1.51,0.59,2.95,1.64,4.06c1.16,1.21,2.72,1.87,4.4,1.87
	C7233.06,7192.35,7234.62,7191.69,7235.77,7190.48L7235.77,7190.48z M7231.38,7190.13c-0.61,0-1.2-0.3-1.66-0.86
	c-0.6-0.71-0.94-1.75-0.94-2.86c0-1.11,0.34-2.15,0.94-2.85c0.46-0.56,1.05-0.86,1.66-0.86c0.61,0,1.2,0.3,1.67,0.86
	c0.59,0.71,0.93,1.75,0.93,2.85C7233.98,7188.47,7232.82,7190.13,7231.38,7190.13L7231.38,7190.13z"/>
<polygon class="st0" points="7243.6,7185.5 7243.6,7180.64 7240.18,7180.64 7240.18,7193.5 7243.6,7193.5 7243.6,7187.68 
	7246.77,7187.68 7246.77,7185.5 7243.6,7185.5 "/>
<polygon class="st0" points="7290.34,7204 7290.34,7195.33 7290.34,7195.2 7274.61,7195.2 7274.61,7197.37 7286.92,7197.37 
	7286.92,7204 7290.34,7204 "/>
<path class="st0" d="M7282.66,7191.36c1.03-1.03,1.61-2.37,1.61-3.79s-0.58-2.76-1.61-3.79c-1.13-1.13-2.67-1.74-4.32-1.74
	c-3.27,0-5.92,2.48-5.92,5.53c0,1.42,0.57,2.76,1.61,3.79c1.13,1.13,2.66,1.74,4.32,1.74
	C7279.99,7193.11,7281.53,7192.49,7282.66,7191.36L7282.66,7191.36z M7278.34,7191.09c-0.63,0-1.25-0.29-1.73-0.81
	c-0.62-0.67-0.98-1.65-0.98-2.69c0-1.04,0.36-2.02,0.98-2.68c0.48-0.52,1.1-0.81,1.73-0.81s1.26,0.29,1.73,0.81
	c0.63,0.67,0.98,1.65,0.98,2.68C7281.06,7189.53,7279.84,7191.09,7278.34,7191.09L7278.34,7191.09z"/>
<polygon class="st0" points="7280.18,7181.33 7280.18,7179.16 7276.5,7179.16 7276.5,7181.33 7271.89,7181.33 7271.89,7183.46 
	7284.81,7183.46 7284.81,7181.33 7280.18,7181.33 "/>
<polygon class="st0" points="7290.34,7185.46 7290.34,7180.64 7286.92,7180.64 7286.92,7193.78 7290.34,7193.78 7290.34,7187.64 
	7293.5,7187.64 7293.5,7185.46 7290.34,7185.46 "/>
<path class="st0" d="M7212.88,7194.35c-4.04,0-7.33,2.35-7.33,5.23c0,0.97,0.37,1.91,1.07,2.73c1.34,1.56,3.68,2.5,6.26,2.5
	c2.56,0,4.91-0.93,6.24-2.5c0.71-0.82,1.07-1.76,1.07-2.73c0-0.97-0.36-1.91-1.07-2.73
	C7217.78,7195.28,7215.44,7194.35,7212.88,7194.35L7212.88,7194.35z M7212.88,7202.65c-1.37,0-2.7-0.65-3.38-1.64
	c-0.31-0.44-0.47-0.93-0.47-1.43c0-0.51,0.16-0.99,0.47-1.44c0.67-0.99,2.01-1.64,3.38-1.64c1.36,0,2.68,0.65,3.37,1.64
	c0.31,0.45,0.46,0.94,0.46,1.44C7216.71,7201.24,7214.96,7202.65,7212.88,7202.65L7212.88,7202.65z"/>
<path class="st0" d="M7221.23,7180.92v2.18h-5.76c1.41,3.94,6.5,4.53,6.5,4.53v2.14c0,0-6.13-0.29-9.1-4.75
	c-2.97,4.46-9.12,4.75-9.12,4.75v-2.14c0,0,5.09-0.59,6.49-4.53h-5.75v-2.18H7221.23L7221.23,7180.92z"/>
<polygon class="st0" points="7214.55,7195.17 7214.55,7192.97 7223.27,7192.97 7223.27,7190.8 7202.44,7190.8 7202.44,7192.97 
	7211.13,7192.97 7211.13,7195.17 7214.55,7195.17 "/>
<polygon class="st0" points="7261.38,7195.07 7252.96,7195.07 7252.96,7183.5 7258.44,7183.5 7258.44,7181.33 7249.53,7181.33 
	7249.53,7197.23 7261.38,7197.23 7261.38,7195.07 "/>
<polygon class="st0" points="7265.07,7180.64 7265.07,7187.42 7263.54,7187.42 7263.54,7180.64 7260.3,7180.64 7260.3,7204.01 
	7263.54,7204.01 7263.54,7189.66 7265.07,7189.66 7265.07,7204.01 7268.32,7204.01 7268.32,7180.64 7265.07,7180.64 "/>
<path class="st0" d="M7208.09,7218.1v0.39c-0.01,0.22-0.03,0.42-0.06,0.61c-0.15,0.71-0.75,1.11-1.63,1.11
	c-0.58,0-1.07-0.19-1.34-0.52c-0.15-0.16-0.24-0.37-0.3-0.6c-0.04-0.19-0.05-0.39-0.06-0.61v-0.39v-5.01v-0.39
	c0.01-0.22,0.02-0.42,0.06-0.61c0.15-0.7,0.75-1.1,1.63-1.1c0.58,0,1.08,0.18,1.35,0.5c0.15,0.17,0.25,0.37,0.3,0.6
	c0.03,0.19,0.05,0.39,0.06,0.61v0.39v1.44h-1.41v-1.75c0-0.15,0-0.23-0.01-0.31c-0.01-0.16-0.12-0.26-0.27-0.26
	c-0.25,0-0.3,0.11-0.3,0.57v5.63c0,0.46,0.05,0.57,0.3,0.57c0.24,0,0.28-0.1,0.28-0.57v-1.87h1.41V7218.1L7208.09,7218.1z"/>
<polygon class="st0" points="7210.68,7211.08 7212.06,7211.08 7212.06,7214.92 7212.63,7214.92 7212.63,7211.08 7214.02,7211.08 
	7214.02,7220.12 7212.63,7220.12 7212.63,7216.14 7212.06,7216.14 7212.06,7220.12 7210.68,7220.12 7210.68,7211.08 "/>
<path class="st0" d="M7218.15,7211.08v7.34c0,0.46,0.05,0.57,0.28,0.57c0.24,0,0.3-0.1,0.3-0.57v-7.34h1.4v7.03v0.39
	c0,0.22-0.03,0.42-0.07,0.61c-0.15,0.71-0.73,1.11-1.63,1.11c-0.58,0-1.06-0.19-1.34-0.52c-0.14-0.16-0.23-0.37-0.29-0.6
	c-0.04-0.19-0.07-0.39-0.07-0.61v-0.39v-7.03H7218.15L7218.15,7211.08z"/>
<polygon class="st0" points="7222.85,7211.08 7224.32,7211.08 7225.11,7215.67 7225.11,7211.08 7226.39,7211.08 7226.39,7220.12 
	7224.92,7220.12 7224.13,7215.54 7224.13,7220.12 7222.85,7220.12 7222.85,7211.08 "/>
<path class="st0" d="M7231,7214.21v-1.42c0-0.15,0-0.23-0.01-0.31c-0.01-0.16-0.12-0.26-0.27-0.26c-0.25,0-0.3,0.11-0.3,0.57v5.63
	c0,0.46,0.05,0.57,0.3,0.57c0.23,0,0.28-0.1,0.28-0.57v-1.78h-0.27v-1.23h1.66v4.72h-0.75l-0.09-0.35
	c-0.19,0.31-0.47,0.45-0.92,0.45c-0.49,0-0.99-0.21-1.25-0.52c-0.15-0.15-0.24-0.37-0.3-0.6c-0.04-0.19-0.05-0.39-0.07-0.61v-0.39
	v-5.01v-0.39c0.01-0.22,0.03-0.42,0.07-0.61c0.15-0.69,0.75-1.1,1.61-1.1c0.57,0,1.06,0.18,1.33,0.5c0.15,0.17,0.24,0.37,0.3,0.6
	c0.05,0.3,0.07,0.35,0.07,1v1.11H7231L7231,7214.21z"/>
<polygon class="st2" points="7235.26,7215.5 7236.62,7215.5 7236.62,7216.64 7235.26,7216.64 7235.26,7215.5 "/>
<path class="st0" d="M7240.79,7216.87l0.26-3.3l0.33,3.3H7240.79L7240.79,7216.87z M7239.17,7220.12h1.37l0.16-2.06h0.79l0.2,2.06
	h1.38l-1.08-9.05h-1.89L7239.17,7220.12L7239.17,7220.12z"/>
<polygon class="st0" points="7245.14,7211.08 7246.62,7211.08 7247.41,7215.67 7247.41,7211.08 7248.68,7211.08 7248.68,7220.12 
	7247.22,7220.12 7246.43,7215.54 7246.43,7220.12 7245.14,7220.12 7245.14,7211.08 "/>
<path class="st0" d="M7253.23,7214.21v-1.42c0-0.15,0-0.23-0.01-0.31c-0.01-0.16-0.12-0.26-0.27-0.26c-0.24,0-0.3,0.11-0.3,0.57
	v5.63c0,0.46,0.05,0.57,0.3,0.57c0.23,0,0.29-0.1,0.29-0.57v-1.78h-0.27v-1.23h1.65v4.72h-0.75l-0.1-0.35
	c-0.19,0.31-0.47,0.45-0.92,0.45c-0.49,0-0.99-0.21-1.25-0.52c-0.15-0.15-0.25-0.37-0.3-0.6c-0.04-0.19-0.05-0.39-0.07-0.61v-0.39
	v-5.01v-0.39c0.01-0.22,0.03-0.42,0.07-0.61c0.15-0.69,0.75-1.1,1.61-1.1c0.57,0,1.06,0.18,1.33,0.5c0.15,0.17,0.24,0.37,0.3,0.6
	c0.05,0.3,0.07,0.35,0.07,1v1.11H7253.23L7253.23,7214.21z"/>
<path class="st0" d="M7263.3,7211.05v7.36c0,0.46,0.06,0.58,0.29,0.58c0.24,0,0.29-0.1,0.29-0.58v-7.36h1.41v7.05v0.39
	c0,0.22-0.03,0.42-0.07,0.61c-0.15,0.71-0.74,1.12-1.63,1.12c-0.59,0-1.07-0.19-1.35-0.52c-0.14-0.16-0.23-0.37-0.29-0.6
	c-0.04-0.19-0.06-0.39-0.06-0.61v-0.39v-7.05H7263.3L7263.3,7211.05z"/>
<polygon class="st0" points="7268.02,7211.05 7269.5,7211.05 7270.29,7215.67 7270.29,7211.05 7271.57,7211.05 7271.57,7220.13 
	7270.1,7220.13 7269.31,7215.52 7269.31,7220.13 7268.02,7220.13 7268.02,7211.05 "/>
<polygon class="st0" points="7274.3,7211.05 7275.68,7211.05 7275.68,7220.13 7274.3,7220.13 7274.3,7211.05 "/>
<polygon class="st0" points="7277.87,7211.05 7279.25,7211.05 7279.79,7216.83 7280.26,7211.05 7281.63,7211.05 7280.62,7220.13 
	7278.94,7220.13 7277.87,7211.05 "/>
<polygon class="st0" points="7283.82,7211.05 7286.45,7211.05 7286.45,7212.29 7285.21,7212.29 7285.21,7214.9 7286.45,7214.9 
	7286.45,7216.13 7285.21,7216.13 7285.21,7218.88 7286.45,7218.88 7286.45,7220.13 7283.82,7220.13 7283.82,7211.05 "/>
<path class="st0" d="M7290.32,7212.29c0.47,0,0.56,0.1,0.56,0.52v1.72c0,0.42-0.09,0.51-0.56,0.51V7212.29L7290.32,7212.29z
	 M7288.93,7220.13h1.38v-3.88c0.47,0,0.56,0.08,0.56,0.5v2.52c0,0.43,0.04,0.62,0.15,0.85h1.36c-0.11-0.28-0.12-0.43-0.12-0.87
	v-2.27c0-0.57-0.11-0.91-0.38-1.1c-0.11-0.08-0.16-0.11-0.37-0.19c0.42-0.21,0.57-0.37,0.65-0.71c0.06-0.24,0.1-0.65,0.1-0.95v-1.06
	c0-0.88-0.11-1.28-0.38-1.55c-0.3-0.28-0.6-0.37-1.31-0.37h-1.64V7220.13L7288.93,7220.13z"/>
<path class="st0" d="M7296.09,7216.79v1.62c0,0.15,0,0.25,0.01,0.32c0.02,0.16,0.11,0.26,0.27,0.26c0.25,0,0.3-0.11,0.3-0.58v-1.09
	c0-0.54-0.05-0.68-0.45-1l-0.73-0.67c-0.64-0.56-0.79-0.87-0.79-1.66v-0.91v-0.4c0.01-0.21,0.03-0.42,0.07-0.61
	c0.15-0.69,0.75-1.1,1.59-1.1c0.55,0,1.03,0.19,1.3,0.51c0.14,0.16,0.25,0.37,0.29,0.59c0.07,0.3,0.07,0.36,0.07,1.01v1.1h-1.35
	v-1.42c0-0.46-0.05-0.57-0.3-0.57c-0.23,0-0.28,0.11-0.28,0.57v0.93c0,0.49,0.05,0.58,0.48,0.96l0.74,0.65
	c0.61,0.53,0.75,0.87,0.75,1.73v1.06v0.39c0,0.22-0.03,0.42-0.07,0.61c-0.14,0.7-0.73,1.12-1.61,1.12c-0.54,0-1.03-0.19-1.3-0.52
	c-0.15-0.15-0.25-0.37-0.3-0.6c-0.04-0.19-0.05-0.39-0.07-0.61v-0.39v-1.31H7296.09L7296.09,7216.79z"/>
<polygon class="st0" points="7300.64,7211.05 7302.03,7211.05 7302.03,7220.13 7300.64,7220.13 7300.64,7211.05 "/>
<polygon class="st0" points="7305.27,7212.29 7304.31,7212.29 7304.31,7211.05 7307.61,7211.05 7307.61,7212.29 7306.63,7212.29 
	7306.63,7220.13 7305.27,7220.13 7305.27,7212.29 "/>
<polygon class="st0" points="7311,7211.05 7311.54,7213.89 7312.06,7211.05 7313.45,7211.05 7312.27,7216.75 7312.27,7220.13 
	7310.85,7220.13 7310.85,7216.71 7309.57,7211.05 7311,7211.05 "/>
<line class="st3" x1="7075.86" y1="7228.42" x2="7136.33" y2="7228.42"/>
</svg>
