<?xml version="1.0" encoding="utf-8"?>
<!-- Generator: Adobe Illustrator 24.1.2, SVG Export Plug-In . SVG Version: 6.00 Build 0)  -->
<svg version="1.1" id="Layer_1" xmlns="http://www.w3.org/2000/svg" xmlns:xlink="http://www.w3.org/1999/xlink" x="0px" y="0px"
	 viewBox="0 0 300 300" style="enable-background:new 0 0 300 300;" xml:space="preserve">
<style type="text/css">
	.st0{fill:#FFFFFF;}
	.st1{fill:#ED1C24;}
	.st2{fill:none;stroke:#58595B;stroke-width:0.1177;stroke-dasharray:1.1766,1.7649,0,0;}
</style>
<path class="st0" d="M71.56,167.94c0.23-0.11,0.46-0.22,0.68-0.33c0.81-0.05,1.29-0.39,1.99-0.65c0.2-0.07,0.41-0.14,0.62-0.21
	c0.04,0,0.07,0,0.1,0c-0.22,1.63-1.38,3.23-0.68,4.75c0.14,0.22,0.29,0.43,0.42,0.65c0.22,0.08,0.45,0.16,0.68,0.24
	c0.25,0.11,0.44,0.36,0.71,0.46c0.16-0.01,0.17,0.1,0.28,0.16c0.46,0.31,0.82,0.12,1.29-0.26c0-0.03,0.01-0.06,0.01-0.1
	c0.41-0.03,0.6,0.13,1.05-0.07c0.04-0.32-0.08-0.53,0.02-0.9c-0.16,0.01,0.35-0.29,0.47-0.43c0.19-0.01,0-0.36-0.03-0.49
	c-0.14,0.01-0.11,0.04-0.09-0.1c0.04-0.02,0.09-0.03,0.14-0.05c0.33-0.56,0.65-1.13,0.98-1.69c0.36-0.44,0.72-0.88,1.09-1.32
	c0.1-0.22,0.11-0.38,0.06-0.58c0.64-0.04,0.85-1.53,0.79-1.95c0.23-0.02,1.32-1.15,1.66-1.38c0.34-0.16,0.69-0.31,1.04-0.47
	c0.01-0.01,0.03-0.01,0.04-0.03c0.17-0.01,0.12-0.26,0.16-0.41c0.02-0.16-0.05-0.1-0.2-0.09c0.01-0.03,0.01-0.07,0.02-0.1
	c0.2,0.01,0.4,0.03,0.6,0.05c0.44-0.16,0.88-0.31,1.32-0.48c0.02-0.13,0.23-0.28,0.16-0.35c0.31-0.03,0.61-0.05,0.92-0.07
	c0.56-0.13,2.15-0.88,2.58-1.32c0.07,0,0.14-0.01,0.21-0.01c-0.02,0.14-0.04,0.1,0.09,0.09c0.02-0.16,0.22-0.17,0.34-0.22
	c0.02-0.13-0.01-0.1,0.12-0.11c-0.01,0.03-0.01,0.07-0.01,0.1c0.23-0.02,0.12,2.13,0.47,2.56c0.03,0,0.07-0.01,0.11-0.01
	c-0.05,0.13-0.11,0.27-0.16,0.41c-0.02,0,0,0.39-0.09,0.6c0.04,0,0.07,0,0.11,0c-0.05,0.34,1-0.12,1.17-0.18
	c0.01-0.04,0.01-0.07,0.01-0.1c0,0.07-0.01,0.15-0.01,0.22c-0.06,0.32-0.27,0.55-0.52,0.75c-1.2,0.95-0.66,2.26-0.51,3.3
	c0.02,0.35,0.04,0.7,0.06,1.05c0.09,0.21,0.18,0.43,0.27,0.64c-0.03,0.22-0.07,0.44-0.09,0.67c-0.04,0.52,0.05,0.97,0.21,1.39
	c-0.01,0.03-0.01,0.07-0.01,0.1c0.11-0.01,0.34-0.64,0.74-0.85c-0.01,0.02-0.02,0.05-0.03,0.07c-0.12,0.26-0.25,0.53-0.37,0.79
	c-0.19,0.69-0.09,1.89,0.38,2.23c-0.07,0.51-0.17,0.91,0.37,1.07c0.01-0.1,0.03-0.2,0.04-0.3c0.03-0.25,0.27-0.51,0.39-0.73
	c0.12-0.3,0.24-0.61,0.36-0.91c0.23-0.01-0.17-0.36-0.24-0.48c-0.15,0.01-0.03-0.33-0.04-0.5c0.14-0.01,0.28-0.02,0.42-0.03
	c0.09-0.69-0.07-1.19-0.39-1.67c-0.15,0.01,0.04-0.07,0.12-0.11c0-0.03,0.01-0.07,0.01-0.1c0.15-0.01,0.03,0.02,0.09,0.1
	c-0.01,0.03-0.01,0.06-0.02,0.1c0.13-0.01,0.12-0.01,0.16-0.13c0.32-0.93,0.67-1.85,1.07-2.75c0.17-0.01,0.1-0.09,0.09-0.22
	c0.04-0.33,0.09-0.66,0.14-0.99c0.07-0.8,0.07-1.75,0.39-2.52c-0.13,0.01-0.18-0.86-0.37-1.07c0.02-0.16,0.14-0.22,0.25-0.32
	c0.04-0.3,0.08-0.6,0.12-0.91c0.03-0.23,0.32-0.47,0.5-0.63c0.05-0.34-0.02-0.62,0.04-1c-0.17,0.01-0.21-0.07-0.28-0.18
	c-0.14,0.01-0.11,0.04-0.09-0.09c0.21-0.01,0.4-0.3,0.47-0.47c0.08-0.29,0.16-0.59,0.23-0.88c0.62-1.27,1.39-1.48,2.54-2.13
	c0.17-0.12,0.34-0.24,0.51-0.36c0.03-0.19-0.23-0.15-0.39-0.17c0-0.04,0.01-0.07,0.01-0.1c0.31-0.02,1.82-1.34,2.06-1.65
	c0.08-0.2,0.17-0.41,0.25-0.62c0.25-0.1,0.52,0.03,0.7,0.08c0.01-0.03,0.01-0.07,0.01-0.1c0.23-0.11,0.45-0.23,0.67-0.34
	c0.02-0.15,0.08-0.1,0.22-0.11c0.02-0.16-0.15-0.15-0.28-0.18c0.03-0.18,0.2-0.17,0.34-0.22c0-0.04,0.01-0.07,0.01-0.1
	c-0.09,0-0.17,0-0.19-0.09c0.08-0.59,0.43-0.64,0.91-0.56c0.01-0.07,0.59-0.95,0.67-1.04c0.14-0.01,0.17-0.29,0.26-0.41
	c-0.03,0.18,0.2,0.02,0.32-0.02c-0.03,0.2,0.26-0.21,0.35-0.32c-0.16,0.01-0.18-0.1-0.29-0.18c0.01-0.03,0.01-0.07,0.01-0.1
	c0.18-0.04,0.36-0.09,0.54-0.13c0-0.04,0.01-0.07,0.01-0.1c0.98-0.06,1.5-0.76,2.41-0.96c0.03-0.22,0.19-0.3,0.37-0.43
	c0.02-0.1,0.03-0.2,0.04-0.3c-0.07,0-0.14,0.01-0.21,0.01c-0.03,0.18-0.33,0.31-0.47,0.43c-0.13,0.01-0.34-0.22-0.48-0.26
	c0-0.04,0.01-0.07,0.02-0.1c0.39-0.03,0.46-0.52,0.88-0.36c0.03,0,0.07-0.01,0.1-0.01c0.01-0.11-0.01-0.13-0.08-0.2
	c0.04-0.25-0.04-0.12-0.06-0.29c0.02-0.15-1.07,0.32-1.29,0.38c0.02-0.16,0.16,0.09,0.03,0.01c0-0.03,0.01-0.07,0.01-0.1
	c0.33-0.02,0.51-0.49,0.67-0.7c0.02-0.14-0.11-0.14-0.23-0.17c-0.65-0.15-2.92,0.77-3.62,1.02c-0.54,0.19-1.07,0.38-1.61,0.57
	c-0.36,0.2-0.72,0.4-1.08,0.6c-1.19,0.55-2.42,0.87-3.58,1.47c0-0.03,0.01-0.07,0.01-0.1c-0.12,0.01-0.12-0.02-0.19-0.09
	c0.06-0.4,0.13-0.69-0.07-0.99c0.06-0.17,0.13-0.34,0.19-0.51c0.11-0.87,0.23-1.74,0.35-2.61c-0.18,0.01,0.07-0.19,0.15-0.31
	c0.19-0.01,0.04-0.17,0-0.27c-0.33-0.83,0.09-1.85,0.02-2.82c-0.03-0.57-0.29-0.86-0.01-1.49c-0.16,0.01-0.12-0.06-0.15-0.16
	c-0.25-0.81-0.6-0.52-1.28-0.75c0.01-0.06,0.02-0.14,0.03-0.2c0.15-0.01,0.33-0.16,0.45-0.23c0.06-0.42-0.66-0.69-0.92-0.83
	c-0.01,0.1-0.69,0.21-0.85,0.28c-0.4,0.18-0.83,0.34-1.29,0.31c-0.29-0.02-0.56-0.17-0.91-0.09c-0.95,0.23-3.01,2.18-3.85,2.94
	c0.03,0,0.07,0,0.1-0.01c-0.02,0.17,0.24,0.16,0.39,0.17c-0.01,0.07-0.02,0.13-0.03,0.2c-0.13,0.01-0.1-0.02-0.12,0.11
	c-0.28,0.02-0.97,0.3-1.19,0.5c-0.46,0.42-0.64,1.12-1.02,1.61c-0.22,0.28-0.67,0.35-0.81,0.72c0,0.09,0,0.17,0,0.26
	c-0.01,0.03-0.01,0.07-0.01,0.1c-1.03,0.06-2.98,4.83-3.97,5.44c-0.02,0.07-0.02,0.13-0.03,0.2c-0.04,0-0.07,0-0.1,0.01
	c-0.04,0.66-0.44,0.94-0.72,1.48c-0.16,0.33-0.22,0.59-0.44,0.89c0.18-0.01,0.05,0.09-0.03,0.2c0.15-0.01-0.1,0.24-0.14,0.41
	c-0.14,0.54-0.6,0.91-0.85,1.39c-0.55,1.06-1.14,1.96-1.46,3.15c-0.62,0.04-0.38,0.75-0.13,0.91c0,0.03-0.01,0.07-0.01,0.1
	c-0.68,0.04-0.76,0.76-0.79,1.25c-0.04,0-0.07,0-0.1,0c0.02-0.15-0.05-0.09-0.15-0.06c-0.89,0.3-1.65,0.55-2.4,1.22
	c-0.19,0.01,0,0.13,0.08,0.19c0,0.03-0.01,0.07-0.01,0.1c-0.65,0.04-0.99,0.11-1.62,0.51c-0.54,0.35-1.23,1.2-1.92,1.11
	c-0.04,0.01-0.07,0.01-0.11,0.01c0,0.03-0.01,0.06-0.01,0.1c-0.17,0.01-0.11,0.18-0.15,0.31c-0.02,0.16-0.41,0.4-0.52,0.57
	c-0.16,0.25-0.42,0.41-0.62,0.65c-0.34,0.44-0.65,0.94-0.75,1.49C69.78,167.66,71.17,168,71.56,167.94L71.56,167.94z M98.14,149.87
	c0,0.03-0.01,0.06-0.01,0.1c0.14-0.01,0.11-0.04,0.09,0.1c-0.03-0.04-0.06-0.06-0.09-0.1C98.02,149.97,98.06,149.94,98.14,149.87
	L98.14,149.87z M88.73,152.06c0,0,2.1-2.78,2.35-3.07c-0.23,0.05-0.11-0.18-0.09-0.37c0.19-0.04,1.65-2.21,2.15-2.64
	c0-0.05,0.01-0.09,0.02-0.13c0.02-0.01,0.39,1.17,0.63,1.42c-0.33,0.89-0.66,1.79-0.99,2.68c-0.15,0.74-0.01,1.48-0.23,2.19
	c-0.23,0.74-1.12,1.63-1.91,1.86c-0.41,0.12-0.72,0.12-1.1,0.3c-0.76,0.47-1.52,0.96-2.28,1.43C86.24,155.25,88.6,153,88.73,152.06
	L88.73,152.06z"/>
<path class="st0" d="M139.05,146.98c-0.58-0.04-1.1,0.36-1.56,0.72l-0.44,0.32c0,0-1.92,1.13-1.92,1.13l-1.84,1.08
	c-1.06,0.49-1.95,0.83-2.81,1.07c0,0-0.58,0.21-0.58,0.21c-0.15,0.07-0.28,0.14-0.55,0.2l-0.04,0.01c0,0-0.01,0.02-0.01,0.02
	c-0.04-0.03-0.1-0.07-0.1-0.07l-0.1-0.07c-0.3-0.18-0.38-0.64-0.38-1.17c0-0.33,0.03-0.68,0.06-1.02c0.03-0.34,0.06-0.67,0.06-0.97
	c0-0.14-0.02-0.27-0.03-0.39c0.37-0.13,0.42-0.94,0.47-1.67c0.02-0.32,0.04-0.62,0.08-0.73c0.07-0.18,0.27-0.35,0.45-0.5l0.04-0.03
	l0.01-0.07c0,0-0.02-0.46-0.02-0.52c0.3-0.35,0.74-1.81,0.74-1.82c0.02-0.08,0.03-0.16,0.03-0.24c0-0.09-0.02-0.18-0.03-0.27
	c0.1-0.05,0.14-0.17,0.17-0.24l0.02-0.06c0.01-0.03,0.01-0.06,0.01-0.06c0.01,0,0.02-0.01,0.02-0.01l0.21-0.09
	c0,0-0.03-0.05-0.06-0.09c0.01-0.02,0.19-0.41,0.23-0.5c0.04-0.01,0.08-0.02,0.1-0.06c0.02-0.03,0.02-0.05,0.02-0.08
	c0-0.03-0.01-0.05-0.02-0.08c0.13-0.07,0.25-0.24,0.35-0.39l0.14-0.18l0.45-0.44c0.29-0.27,0.56-0.53,0.8-0.85
	c0.01-0.03,0.22-0.57,0.22-0.57s0.11-0.28,0.11-0.28c0,0,0.15-0.19,0.15-0.19c0.18-0.24,0.39-0.5,0.39-0.85c0-0.04,0-0.08-0.01-0.13
	c-0.07-0.53-0.54-0.73-0.92-0.9c0,0-0.08-0.03-0.08-0.03c0.01-0.03,0.02-0.1,0.02-0.1l-0.12,0l-0.08,0
	c-0.12-0.01-0.22-0.01-0.29-0.02c0.12-0.14,0.18-0.36,0.21-0.53c0.07-0.02,0.13-0.05,0.18-0.1l0.14-0.15c0,0-0.23-0.04-0.24-0.04
	c0-0.01-0.01-0.05-0.01-0.05l-0.04-0.14l-0.08,0l-0.34-0.02c0,0-0.12,0.34-0.13,0.35c-0.1-0.03-0.17-0.08-0.24-0.22l-0.03-0.05
	c0,0-0.1-0.01-0.1-0.01c0,0-0.01-0.01-0.01-0.01c0,0,0.01-0.01,0.01-0.01l0.02-0.09c0,0-0.15-0.06-0.17-0.07
	c0.02-0.04,0.05-0.09,0.05-0.09s-0.12-0.02-0.15-0.02c0-0.02,0.01-0.03,0.01-0.03c0.01-0.03,0.01-0.07,0.01-0.11
	c0-0.04-0.01-0.08-0.04-0.12c-0.02-0.02-0.06-0.03-0.09-0.04c-0.03-0.11-0.11-0.17-0.15-0.2c0,0-0.01-0.01-0.02-0.02
	c0.01-0.03,0.03-0.11,0.03-0.11l-0.12-0.04c-0.11-0.01-0.29-0.07-0.47-0.14c-0.38-0.14-0.81-0.3-1.12-0.12
	c-0.14,0.09-0.23,0.26-0.28,0.48c-0.05-0.02-0.1-0.03-0.16-0.07c0,0-0.06-0.04-0.09-0.06c-0.01-0.05-0.02-0.09-0.02-0.09l-0.17-0.05
	h-0.16l-0.02,0.1c-0.04,0.38-0.11,0.46-0.39,0.64l-0.26,0.17c0,0,0.14,0.02,0.23,0.03c-0.01,0.02-0.02,0.04-0.02,0.04
	c0,0-0.15,0.28-0.15,0.28c-0.42,0.77-0.81,1.55-0.81,1.98c0,0.05,0.01,0.09,0.03,0.12c-0.12-0.01-0.43-0.03-0.43-0.03l-0.01,0.1
	c-0.09,0.73-0.29,1-0.63,1.44l-0.28,0.38c-0.01,0.01-0.35,0.67-0.35,0.67l-0.12,0.22c-0.27,0.35-0.47,0.77-0.65,1.17
	c-0.19,0.4-0.36,0.79-0.62,1.12c0,0-0.53,0.56-0.53,0.56c-0.2,0.27-0.37,0.63-0.56,1.02c-0.22,0.45-0.44,0.92-0.69,1.2
	c-0.01,0-0.04,0.03-0.04,0.03l-0.35,0.27c-0.59,0.56-1.38,1.39-1.66,2.26c-0.02,0-0.1,0.02-0.1,0.02l-0.02,0.01
	c-0.98,0.63-1.86,1.66-2.65,2.57l-0.3,0.35c0,0-0.4,0.5-0.4,0.5l-0.11,0.14c0.01-0.01-0.45,0.32-0.45,0.32
	c-0.2,0.12-0.41,0.25-0.6,0.45c-0.01,0.01-0.48,0.63-0.48,0.63l-0.06,0.08c-0.12,0.11-0.33,0.09-0.57,0.06
	c-0.21-0.02-0.44-0.03-0.63,0.08c0.18-1.43,0.52-2.59,1.15-3.94c0.03-0.01,0.07-0.02,0.1-0.06c0.02-0.03,0.03-0.06,0.03-0.09
	c0-0.04-0.01-0.07-0.02-0.1l-0.02-0.05c-0.01-0.04-0.01-0.08-0.01-0.13c0-0.55,0.45-1.81,0.72-2.37l0.04-0.08
	c0,0-0.03-0.02-0.07-0.04c0.01-0.02,0.02-0.04,0.02-0.04l0.08-0.14c0-0.02,0.08-0.46,0.08-0.46l0.1-0.55
	c0.12-0.68,0.4-1.93,0.85-2.83l0.14,0.01l-0.01-0.14l-0.01-0.07c-0.02-0.12-0.02-0.24-0.02-0.36c0-0.42,0.11-0.85,0.31-1.28
	l0.15,0.01l-0.04-0.22c-0.24-0.9-1.11-2.3-2.43-2.31c-1.63-0.01-3.29,4.11-3.59,5.59c-0.09,0.02-0.29,0.06-0.29,0.06l-0.08,0.02
	l-0.01,0.08c-0.04,0.34-0.17,0.62-0.3,0.92l-0.19,0.46l-0.54,1.4l-0.31,0.77l0.12,0.03c0,0,0.14,0.04,0.27,0.07
	c-0.11-0.01-0.46-0.03-0.46-0.03l-0.01,0.1c-0.03,0.27-0.15,0.53-0.26,0.78l-0.16,0.4c-0.01,0.02-0.03,0.15-0.03,0.15
	s-0.12,0.72-0.12,0.72c0,0-0.22,0.42-0.22,0.42l-0.11,0.23c-0.19,0.5-0.28,0.99-0.37,1.5l-0.09,0.53l-0.08,0.4
	c-0.08,0.39-0.16,0.78-0.16,1.15c0,0.38,0.09,0.75,0.35,1.1c0,0.01,0,0.01,0,0.02c-0.01,0-0.42-0.12-0.42-0.12L108,154.8l0.08,0.04
	c0,0,0.1,0.04,0.18,0.08c-0.02,0.17-0.03,0.34-0.03,0.51c0,0.92,0.29,1.71,0.89,2.46l0.19,0.22c0.18,0.21,0.33,0.37,0.43,0.67
	l0.02,0.07l1.21,0.07c0,0,0-0.03,0.01-0.05c0.13,0.05,0.73,0.28,0.73,0.28l0.04-0.01l0.6-0.06c0.5-0.03,1.04-0.07,1.32-0.29
	c0.02,0,0.06,0,0.11,0.01c0,0.03-0.01,0.08-0.01,0.08l-0.02,0.21h0.11c0.54,0.03,0.88-0.27,1.21-0.56l0.4-0.33l0.01-0.05
	c0-0.03,0-0.06,0-0.08c0-0.1-0.03-0.18-0.06-0.26c0.08-0.02,0.17-0.06,0.3-0.13l0.2-0.11l-0.01-0.05l-0.05-0.16
	c-0.02-0.02-0.05-0.03-0.08-0.04c0.2-0.02,0.37-0.06,0.52-0.12c0.19-0.07,0.29-0.18,0.39-0.28l0.22-0.2l0.51-0.29
	c0.46-0.24,0.97-0.52,1.26-0.98c0.08-0.02,0.21-0.11,0.5-0.45l0.02-0.03c0,0,0.01-0.06,0.01-0.07c0.07-0.05,0.13-0.11,0.15-0.17
	l0.05-0.08h0c0.64-0.17,1.05-0.83,1.44-1.46c0.26-0.42,0.53-0.86,0.85-1.12l0.03-0.03c0,0,0-0.02,0-0.03c0.02,0,0.09,0,0.09,0
	l0.01-0.11l0.02-0.13l-0.06-0.06l-0.06-0.03c-0.05-0.03-0.12-0.06-0.16-0.1c0.32-0.08,0.61-0.3,0.72-0.58
	c0.04-0.09,0.06-0.18,0.06-0.27c0-0.1-0.03-0.2-0.08-0.29c0.04,0,0.48-0.04,0.51-0.05c0.04,0.08,0.08,0.18,0.11,0.29
	c0.09,0.31,0.22,0.7,0.55,0.93c-0.05,0-0.21-0.01-0.21-0.01s-0.01,0.07-0.01,0.09c-0.02,0-0.09,0-0.09,0l-0.01,0.1
	c-0.01,0.04-0.01,0.09-0.01,0.13c0,0.54,0.39,1.03,0.8,1.23c0,0,0.01,0,0.01,0.01c0,0.01-0.01,0.03-0.01,0.06
	c-0.01,0.01-0.03,0.01-0.04,0.02c-0.02,0.03-0.02,0.06-0.02,0.09c0,0.12,0.1,0.27,0.23,0.47c0.13,0.2,0.31,0.47,0.31,0.65
	c0,0.01-0.01,0.03-0.01,0.04c-0.03,0.02-0.05,0.05-0.05,0.06c-0.01,0.01-0.01,0.03-0.01,0.05c0,0.11,0.18,0.31,1.31,1.13l0.13,0.09
	c0,0,0.24,0.29,0.24,0.29c0.08,0.12,0.18,0.24,0.3,0.33c-0.02,0.06-0.06,0.12-0.11,0.17l-0.2,0.25l0.21,0.01
	c0.12,0.01,0.39,0.2,0.6,0.35c0.22,0.16,0.44,0.31,0.6,0.37l0.13,0.05c0,0,0.06-0.55,0.07-0.59c0.13,0.01,0.68,0.04,0.68,0.04
	l0.17-0.04c0,0,0.05-0.16,0.05-0.16c0.1,0.05,0.19,0.12,0.28,0.2l0.46,0.35l0.01-0.2c0,0,0-0.01,0-0.02
	c0.22-0.04,0.41-0.21,0.5-0.31c0.07,0,0.31,0.01,0.31,0.01c0.89,0.05,1.2-0.4,1.59-0.96l0.16-0.22l0.02-0.24l-0.12,0l-0.09-0.01
	c-0.01-0.02-0.03-0.04-0.05-0.05c-0.07-0.04-0.14,0-0.21,0.04c-0.03,0-0.09-0.01-0.09-0.01c0,0,0,0,0-0.01
	c0-0.04,0.03-0.17,0.22-0.48c0.04,0.01,0.38,0.13,0.38,0.13l0.02-0.13c0-0.03,0.01-0.04,0.02-0.04c0.06-0.03,0.25,0.05,0.39,0.14
	c0.01,0.04,0.01,0.08,0.04,0.11c0.06,0.06,0.14,0.06,0.22,0.05c0.03,0.08,0.07,0.15,0.11,0.2c0,0,0,0,0,0.01
	c0,0.05,0.01,0.09,0.04,0.13c0.05,0.05,0.11,0.05,0.17,0.04l0.15-0.01l0.02-0.1l0.02-0.1l-0.03-0.07c-0.02-0.03-0.05-0.03-0.08-0.03
	c-0.01-0.03-0.01-0.04-0.01-0.07c0.01-0.01,0.02-0.02,0.02-0.02s0.01-0.03,0.03-0.06c0.04,0,0.2,0.01,0.2,0.01v0
	c0.07,0.01,0.14-0.04,0.2-0.07c0,0,0.01,0,0.01-0.01c0.05-0.01,0.43-0.06,0.43-0.06s-0.01-0.18-0.01-0.2
	c0.01,0.01,0.02,0.01,0.03,0.03c0,0.01,0.01,0.02,0.01,0.03c0,0.02-0.01,0.03-0.01,0.03c0.02-0.04,0.18-0.17,0.89-0.54
	c0,0,0.03-0.02,0.06-0.03c0.03,0,0.17,0.01,0.17,0.01l0.01-0.1l0.03-0.23l-0.14,0.02c0,0-0.42,0.05-0.49,0.06
	c0-0.01,0.02-0.15,0.02-0.15c0-0.01,0-0.02,0-0.03c0-0.07-0.03-0.11-0.05-0.14c-0.07-0.07-0.17-0.08-0.27-0.08
	c0,0,0.01-0.01,0.01-0.01l0-0.04c0,0,0.01-0.12,0.02-0.2c0.42-0.05,0.88-0.47,1.1-0.75c0.02,0,0.14,0.01,0.14,0.01l0.05-0.41
	c0,0-0.06,0-0.09,0c0.01-0.03,0.02-0.1,0.02-0.1c0,0,0.04-0.01,0.04-0.01l0.12-0.05l0.42-0.2c0.53-0.23,0.88-0.39,0.95-0.54
	c0,0,0.5-1.18,0.5-1.18s-0.01-0.01-0.01-0.01c0.14-0.19,0.94-0.84,1.18-0.89l0.08-0.02l0.01-0.08c0-0.01,0-0.02,0-0.03
	c0-0.16-0.14-0.36-0.26-0.54c0,0-0.04-0.07-0.08-0.12c0.03-0.05,0.07-0.11,0.13-0.21c0.16-0.26,0.54-0.88,0.65-0.95l0.05-0.03
	l0.04-0.35L139.05,146.98L139.05,146.98z"/>
<path class="st1" d="M139.57,124.97h-18.72v19.39h19.39v-19.39H139.57L139.57,124.97z M138.9,126.31c0,1.19,0,15.53,0,16.72
	c-1.19,0-15.53,0-16.72,0c0-1.19,0-15.53,0-16.72C123.37,126.31,137.71,126.31,138.9,126.31L138.9,126.31z"/>
<path class="st0" d="M71.31,140.94c-0.62-0.15-1.44-0.31-1.97-0.38l-0.03,0.02l-0.22,0.16c0,0,0,0.01-0.01,0.02
	c-0.1-0.01-0.18,0.01-0.26,0.03c0-0.01,0.01-0.02,0.01-0.02l-0.09-0.02l-0.39-0.07c-0.1-0.02-0.2,0.07-0.3,0.15
	c0,0-0.04,0.03-0.06,0.04c0,0-0.14-0.18-0.14-0.18l-0.04,0.16c0,0-0.01,0.04-0.01,0.05c-0.01,0-0.03-0.01-0.03-0.01
	c-0.01-0.03-0.07-0.05-0.29,0.18c-0.05-0.03-0.18-0.1-0.18-0.1l-0.05,0.06c-0.03,0.03-0.19,0.09-0.25,0.11l0,0
	c-0.01,0,0-0.01-0.01-0.01c-0.02-0.01-0.05-0.01-0.1,0.04c-0.03-0.01-0.1-0.03-0.1-0.03l-0.07-0.01l-0.03,0.04
	c0,0-0.17,0.24-0.2,0.29c-0.01,0-0.02,0-0.02,0c0-0.02,0-0.12,0-0.12l-0.23-0.04c0,0-0.05,0.15-0.05,0.17
	c-0.02,0-0.04-0.01-0.04-0.01s-0.01,0.02-0.01,0.04c-0.02-0.01-0.19-0.1-0.19-0.1l-0.02,0.1c-0.01,0.02-0.05,0.09-0.33,0.19
	l-0.04,0.01l-0.01,0.04c-0.01,0.04-0.07,0.08-0.12,0.11l-0.1,0.07c0,0,0,0.01,0,0.02c-0.26-0.01-0.5,0.09-0.74,0.19l-0.33,0.13
	l-0.02,0.04c-0.06,0.21-0.16,0.51-0.31,0.65c-0.02-0.03-0.04-0.05-0.06-0.07c0-0.01,0.03-0.1,0.03-0.1l-0.09-0.01
	c-0.12-0.02-0.22,0.16-0.28,0.36c0-0.02,0-0.05,0-0.05l-0.06-0.01c0,0-0.01,0-0.01,0c0.01-0.02,0.01-0.03,0.01-0.03L63.36,143
	c-0.08-0.01-0.13,0.03-0.17,0.09c0-0.03-0.01-0.11-0.01-0.11l-0.06-0.02c-0.09-0.02-0.29,0.07-0.7,0.26l-0.43,0.18l-0.01,0.04
	c-0.05,0.16-0.18,0.28-0.32,0.4c-0.11,0.1-0.22,0.21-0.3,0.34c-0.27-0.04-0.45,0.01-0.65,0.27c-0.02,0.01-0.04,0.01-0.05,0.02
	c-0.03,0.03-0.05,0.08-0.05,0.14c0,0.03,0.01,0.07,0.01,0.11c-0.04-0.01-0.08-0.01-0.08-0.01l0.05,0.14c0,0,0.01,0.01,0.01,0.03
	c-0.02,0.03-0.05,0.04-0.13,0.04c0,0-0.02,0-0.04,0.01c0.02-0.04,0.06-0.12,0.06-0.12h0c0,0,0-0.01,0-0.01l-0.14-0.06
	c0,0-0.01,0.01-0.01,0.01c-0.02,0.06-0.11,0.13-0.19,0.19l-0.38,0.33l0.29-0.07c0,0,0.03-0.01,0.06-0.01
	c-0.01,0.05-0.03,0.17-0.03,0.21c-0.3,0.17-1.07,1.09-1.08,1.1c-0.01,0.01-0.09,0.18-0.09,0.18s-0.04,0.08-0.07,0.14
	c-0.06,0.01-0.15,0.05-0.37,0.22c0,0,0,0-0.01-0.01l-0.01-0.05l-0.06-0.04c-0.13-0.02-0.16,0.08-0.18,0.14
	c-0.01,0.02-0.09,0.29-0.09,0.29c-0.08,0.29-0.1,0.35-0.46,0.54c0,0-0.02-0.27-0.02-0.27l-0.13,0.25c0,0-0.26,0.46-0.29,0.52
	c0,0-0.28-0.22-0.28-0.22c-0.07,0.04-0.09,0.11-0.11,0.21c0,0-0.08-0.01-0.08-0.01s-0.01,0.04-0.02,0.06
	c-0.02,0-0.04-0.01-0.04-0.01l-0.03,0.05l-0.24,0.4c0,0.01-0.22,0.45-0.22,0.45c0.01-0.01-0.26,0.33-0.26,0.33
	c-0.25,0.3-0.51,0.61-0.58,1.02c-0.29,0.09-0.58,1.16-1.46,2.73l-0.53,0.89c-0.01,0.02-0.03,0.21-0.03,0.21c0,0.01,0,0.01,0,0.02
	c0,0.06-0.01,0.09-0.11,0.14l-0.03,0.02l-0.01,0.03c-0.09,0.3-0.16,0.47-0.36,0.7c-0.01,0.03-0.03,0.06-0.03,0.06l-0.03,0.09
	c0,0,0.02,0.01,0.03,0.01c-0.03,0.06-0.17,0.3-0.17,0.3c-0.01,0.03-0.01,0.06-0.01,0.08c0,0.08,0.04,0.15,0.07,0.21l0.06,0.12
	l0.07,0.03c0,0,0.03,0.01,0.04,0.01c-0.12,0.25-0.23,0.51-0.23,0.71c0,0.06,0.01,0.12,0.03,0.17c0.03,0.07,0.1,0.11,0.18,0.14
	c-0.08,0.18-0.2,0.49-0.2,0.71l0.05-0.02l-0.04,0.12l0.08,0.04c0,0,0.16,0.03,0.17,0.03c-0.01,0.06-0.05,0.35-0.05,0.35
	s0.02,0,0.04,0.01c-0.02,0.02-0.04,0.05-0.04,0.09c0,0.07,0.02,0.17,0.06,0.31c-0.03-0.02-0.06-0.03-0.06-0.03l-0.13,0.55
	l-0.04,0.17c0,0.02,0,0.68,0,0.68c-0.01,0.15-0.09,0.31-0.18,0.44l-0.01,0.02l0,0.08l0.04,0.06l0.02,0.07l0.02,0.08
	c-0.01-0.02-0.02,0.01-0.02,0.01l-0.04,0.13l0.18-0.04c0.14-0.03,0.37,0.31,0.49,0.5c0,0,0.05,0.08,0.08,0.12c0,0,0,0.01,0,0.01
	c-0.01,0.01-0.12,0.09-0.12,0.09l0.01,0.02c0,0,0,0.01,0,0.01c0,0.04,0.03,0.06,0.05,0.08c0,0.01-0.01,0.07-0.01,0.07
	s0.02,0.01,0.03,0.01c0,0.02-0.03,0.23-0.03,0.27l0,0v0c0,0.01-0.01,0.03-0.01,0.03l0.16,0.01c0,0-0.01,0.02-0.03,0.02l-0.04-0.01
	l0.09,0.17c0,0,0.01,0.01,0.03,0.01c0,0.01-0.01,0.02-0.01,0.04c0,0.03,0.01,0.06,0.04,0.09c0.2,0.21,0.28,0.35,0.28,0.56
	c0,0.15-0.04,0.33-0.11,0.61c0,0-0.01,0.06-0.01,0.06c-0.02,0.02-0.03,0.04-0.03,0.04s-0.03,0.04-0.04,0.05h0c0,0,0,0,0,0.01
	c-0.06,0.07-0.2,0.26-0.2,0.26l-0.01,0.03l-0.01,0.12l0.07,0.03c0.14,0.03,0.19-0.12,0.24-0.23c0.04,0.02,0.08,0.03,0.1,0.07
	l0.03,0.08l0.03-0.03c0,0,0.07-0.03,0.13-0.05c0,0.01-0.07,0.21-0.07,0.21l-0.01,0.04l0.06,0.03c0.01,0.01,0.03,0.07,0.03,0.15
	c0,0.06-0.01,0.13-0.05,0.19c-0.01,0.02-0.01,0.04-0.01,0.06c0,0.1,0.07,0.23,0.17,0.38l0.06,0.1c-0.01-0.03-0.02,0-0.02,0
	l-0.03,0.08l0.24,0.04l0.03-0.05c0,0,0.08-0.15,0.09-0.17c0.03,0.01,0.06,0.02,0.06,0.02s0.2,0.02,0.26,0.03
	c0,0.01,0.02,0.14,0.02,0.14l0.07,0l0.42,0l0.02-0.06c0.05-0.16,0.09-0.19,0.2-0.27c0.04,0,0.1,0,0.1,0
	c0.07-0.01,0.08-0.01,0.11,0.02l0.02,0.03c0,0,0.01,0,0.01,0c0,0,0,0,0,0c0,0.07-0.09,0.27-0.11,0.33l-0.08,0.18l0.1,0.01l0.11,0.02
	c0,0,0.02-0.04,0.02-0.06c0.02,0,0.04,0.01,0.04,0.01l0.03-0.05l0.19-0.31l0.02-0.04c0,0,0,0,0-0.01c0.02,0.01,0.05,0.03,0.05,0.03
	c0.01,0,0.01,0,0.01,0c0,0.01,0,0.06,0,0.06c0,0-0.07,0.35-0.07,0.35l-0.06,0.31c0,0.02,0.08,0.24,0.08,0.24s0.1,0.25,0.11,0.27
	c0,0,0,0.01,0,0.01l-0.03,0.09c0,0,0.03,0.01,0.05,0.02c-0.01,0.03-0.03,0.11-0.03,0.11l0.1-0.03c0,0,0.17-0.04,0.19-0.04
	c0.09-0.01,0.31-0.01,0.34,0.09l0.02,0.04l0.18,0.03l0.05-0.06c0.02-0.08,0.18-0.06,0.22-0.05c0,0,0.08,0.03,0.13,0.05
	c0,0.01-0.02,0.08-0.02,0.08l0.09,0.01c0.07,0.01,0.12-0.03,0.15-0.09c0.05,0.07,0.11,0.13,0.22,0.18
	c-0.02-0.01,0.09,0.08,0.09,0.08l0.11,0.09c0.26,0.11,0.52,0.05,0.75-0.01c0,0,0.27-0.05,0.28-0.05c0,0,0.12,0.21,0.12,0.21
	l0.05-0.17c0.04-0.14,0.21-0.21,0.52-0.2c0.12,0.02,0.22-0.14,0.35-0.37c0,0,0.02-0.04,0.04-0.07c0.04-0.01,0.17-0.03,0.22-0.04
	c-0.01,0.02-0.01,0.04-0.01,0.04l0.09,0.01c-0.04,0.09-0.1,0.25-0.1,0.25c-0.08,0.16-0.15,0.33-0.18,0.54l-0.01,0.07l0.19,0.03
	l0.02-0.07c0.04-0.13,0.15-0.27,0.26-0.37c0,0,0.01,0.01,0.01,0.01l0.03,0c-0.01-0.03,0.09,0.18,0.09,0.18l0.04,0.09l0.14,0.02
	l0.24-0.38c0,0,0.01-0.03,0.01-0.04c0.05-0.01,0.24-0.04,0.24-0.04l0.25-0.04l0.51,0.03c0.02,0,0.24-0.09,0.24-0.09
	c0.13-0.06,0.21-0.1,0.26-0.06l0.09,0.06c0,0,0.04-0.12,0.04-0.13c0.07-0.02,0.15-0.07,0.23-0.13c-0.01,0.03-0.04,0.07-0.04,0.07
	l0.27,0.05c0,0,0.01-0.02,0.01-0.04c0.02,0.01,0.08,0.03,0.08,0.03l0.16,0.07l0.02-0.09l0.04-0.13c0,0-0.06-0.02-0.07-0.03
	c0-0.01,0-0.06,0-0.06c0,0,0,0,0-0.01c0.02,0.01,0.04,0.02,0.04,0.02l0.14,0.09l0.02-0.1c0.03-0.09,0.11-0.16,0.24-0.2
	c0.14-0.05,0.28-0.04,0.34,0l0.09,0.06l0.03-0.1c0.05-0.16,0.35-0.25,0.5-0.27l0.06-0.01l0.79-0.18l0.13-0.01l0.02-0.05l0.04-0.13
	c0,0-0.01,0-0.01,0c0,0,0.03-0.03,0.03-0.04c0.13-0.01,0.64-0.06,0.77-0.11l0.03-0.01c0,0,0.03-0.1,0.04-0.13
	c0.07-0.01,0.15-0.03,0.22-0.04c0.15,0.03,0.41-0.18,0.49-0.36c0,0,0.01,0,0.01,0c0.07,0.05,0.11-0.03,0.21-0.16
	c0,0,0.02-0.02,0.03-0.05c0,0,0,0.01,0,0.02l1.46-0.75c0,0,0.06-0.04,0.09-0.06c0.01,0,0.09,0,0.09,0l0.01-0.06
	c0.04-0.21,0.14-0.36,0.29-0.44c0.14-0.07,0.31-0.07,0.47,0.01l0.13,0.06l-0.02-0.13c0-0.07,0.03-0.6,0.06-0.67
	c0.06-0.07,0.14-0.08,0.24-0.1c0.1-0.02,0.22-0.03,0.32-0.14c0.01-0.01,0.09-0.14,0.09-0.14l0.09-0.13
	c-0.01,0.02,0.23-0.09,0.23-0.09c0.12-0.04,0.26-0.08,0.36-0.19c0.11-0.14,0.16-0.32,0.2-0.49l0.11-0.34c0.11-0.21,1-0.71,1.17-0.65
	l0.09,0.03c0,0,0-0.02,0.01-0.05c0.18-0.11,0.84-1.77,0.85-1.79c0.01-0.01,0.4,0.05,0.4,0.05l0.01-0.05c0,0,0-0.01,0-0.01
	c0.4-0.07,0.7-0.38,0.98-0.7c0.26-0.29,0.42-0.94,0.73-1l0.06-0.01l0.01-0.06c0-0.02,0-0.03,0-0.05c0-0.11-0.03-0.19-0.09-0.23
	c-0.12-0.09-0.3-0.01-0.44,0.04l-0.11,0.04l-0.01,0.05c-0.28,0.04-0.55,0.14-0.77,0.25c0-0.01,0-0.02,0-0.02l-0.09,0.01
	c-0.1,0.01-0.18,0.08-0.26,0.15l-0.1,0.08c0,0-0.26,0.11-0.27,0.11c-0.01-0.01,0-0.02-0.01-0.02c-0.06-0.03-0.11,0.02-0.15,0.06
	l-0.02,0.02c-0.4,0.34-1.35,1.06-1.69,1.08l-0.06,0c0,0-0.01,0.03-0.01,0.06c-0.01,0-0.07,0-0.07,0l-0.04,0.06
	c-0.03,0.04-0.25,0.07-0.4,0.07l-0.05,0l-0.03,0.06c-0.07,0.13-1.02,0.72-1.18,0.69c-0.12,0-0.14,0.05-0.15,0.09
	c-0.04-0.01-0.17-0.05-0.17-0.05l-0.04,0.08c-0.01,0.08-0.2,0.26-1.27,0.51c0,0,0-0.02,0-0.02l-0.12-0.02l-0.07,0l-0.03,0.06
	c-0.02,0.04-0.2,0.11-0.27,0.14l-0.17,0.07c0,0,0,0.01,0,0.02c-0.06,0-0.13,0.05-0.28,0.15c-0.12,0.08-0.3,0.19-0.37,0.2l-0.05,0
	c0,0-0.01,0.03-0.01,0.04c-0.05,0-0.12,0.02-0.29,0.07l-0.32,0.09c0,0-0.02,0.04-0.02,0.04c-0.31-0.02-0.76,0.12-1.04,0.28
	c0-0.01,0-0.01-0.01-0.02c-0.03-0.04-0.08-0.04-0.11-0.04l-0.03,0l-0.09-0.02l-0.05,0.06c-0.02,0.02-0.11,0.02-0.14,0.02
	c0,0-0.08,0-0.09,0c0,0-0.11-0.15-0.11-0.15l-0.07,0.12c-0.03,0.05-0.27,0.11-0.4,0.14c0,0-0.23,0.07-0.29,0.1
	c-0.01,0-0.04-0.01-0.08-0.01c-0.01-0.02-0.01-0.04-0.03-0.05c-0.06-0.03-0.12,0.02-0.19,0.12c-0.05-0.03-0.12-0.06-0.12-0.06
	c-0.03-0.01-0.07-0.01-0.07-0.01l-0.07-0.01l-0.02,0.07c-0.01,0.04-0.1,0.05-0.17,0.06l-0.12,0.02c0,0-0.01,0.01-0.01,0.03
	c-0.06-0.02-0.23-0.06-0.23-0.06s-0.54,0.12-0.54,0.12c0,0-0.3-0.02-0.3-0.02l-0.37-0.03c-0.7-0.15-1.55-0.84-1.7-1.67
	c-0.02-0.12-0.03-0.25-0.03-0.37c0-0.2,0.02-0.41,0.04-0.63l0-0.04c0,0,0.02-0.27,0.02-0.27c0.01-0.18,0.01-0.35,0.07-0.56
	c0,0,0.24-0.58,0.24-0.58l0.15-0.32c0-0.01,0.16-0.52,0.16-0.52c0,0,0.23-0.44,0.23-0.44c0.01-0.03,0.03-0.33,0.03-0.33l0.01-0.07
	l0.06-0.22c0,0,0.02-0.07,0.03-0.14c0,0.02,0,0.03,0,0.06c0,0.06-0.01,0.15-0.02,0.27l-0.01,0.08l0.19,0.03l0.02-0.05
	c0,0,0.13-0.26,0.13-0.26c0,0,0.24-0.23,0.24-0.23c0.01-0.01,0.46-0.58,0.46-0.58l0.3-0.45c0.19-0.3,0.39-0.64,0.59-0.77l0.02-0.01
	c0,0,0,0,0-0.01c0.02,0.01,0.04,0.02,0.04,0.02l0.15,0.09l0.02-0.1c0.01-0.06,0.02-0.11,0.02-0.17c0-0.09-0.02-0.19-0.03-0.27
	c0,0,0-0.02-0.01-0.04c0.04,0.06,0.1,0.12,0.21,0.12c0.25-0.02,1.02-0.72,1.23-1c0.04,0.03,0.09,0.06,0.09,0.06l0.11,0.12l0.07-0.1
	l0.15-0.19c0.1-0.1,0.22-0.23,0.28-0.41c0.05-0.01,0.24-0.06,0.33-0.08c0.03,0.06,0.07,0.11,0.11,0.14c0,0.01-0.03,0.08-0.03,0.08
	l0.11,0.03l0.09,0.02l0.03-0.1l-0.01,0c0.06-0.04,0.09-0.1,0.1-0.15l0.03-0.08c0.01-0.01,0.17-0.15,0.17-0.15s0.01-0.01,0.02-0.01
	c0.03,0.01,0.07,0.03,0.07,0.03l0.03,0c0.06,0.01,0.26,0.24,0.3,0.32l0.09,0.19l0.06-0.2c0.03-0.09,0.07-0.15,0.15-0.17
	c0.11-0.05,0.27-0.02,0.36,0.02l0.05,0.03l0.05-0.04c0.07-0.05,0.64-0.22,0.75-0.23l0.47,0.03c0.19,0.03,0.39,0.06,0.59,0.02
	c0.27-0.05,0.53-0.21,0.78-0.36l0.42-0.23c0,0,0.58-0.19,0.58-0.19l0.59-0.19c0.39-0.19,0.78-0.39,1.08-0.61
	c0,0,0.65-0.55,0.65-0.55c-0.01,0.01,0.23-0.15,0.23-0.15c0.16-0.09,0.32-0.19,0.47-0.36c0.19-0.21,0.26-0.48,0.34-0.74l0.16-0.46
	l0.2-0.32c0.15-0.42,0.23-0.83,0.23-1.25c0-0.33-0.04-0.66-0.14-1.01c0,0-0.1-0.33-0.1-0.33c-0.01-0.02-0.31-0.4-0.31-0.4
	c-0.26-0.31-0.51-0.61-0.51-1.05c0-0.07,0.01-0.14,0.02-0.21l0.01-0.09l-0.51,0c0,0-0.01,0.04-0.02,0.06
	c-0.01-0.01-0.01-0.02-0.02-0.04c-0.2-0.17-0.21-0.27-0.22-0.47c0,0-0.02-0.23-0.03-0.27c0.01-0.02,0.06-0.19,0.06-0.19l-0.2-0.03
	l-0.03,0.06c0,0-0.01,0.03-0.01,0.05c-0.03-0.01-0.13-0.02-0.13-0.02s0.07,0.15,0.07,0.15c-0.01,0,0,0.01-0.02,0.01
	c-0.12,0-0.31-0.11-0.34-0.17l-0.02-0.04l-0.16-0.03l-0.02,0.07c-0.01,0.04-0.02,0.05-0.03,0.05c-0.01,0-0.02-0.01-0.02-0.01
	l-0.07-0.01c0,0-0.01,0.01-0.01,0.02c-0.09-0.15-0.16-0.26-0.22-0.3c0,0-0.01,0-0.02-0.01c0-0.02-0.01-0.04-0.03-0.05
	c-0.06-0.04-0.23,0.11-0.23,0.11C71.45,141.15,71.31,140.94,71.31,140.94L71.31,140.94z"/>
<polygon class="st0" points="251.47,150.26 251.47,134.31 237.22,134.31 237.22,136.19 248.5,136.19 248.5,150.26 246.38,150.26 
	246.38,141.83 243.43,141.83 243.43,150.26 241.4,150.26 241.4,141.83 238.44,141.83 238.44,150.26 235.31,150.26 235.31,152.14 
	253.28,152.14 253.28,150.26 251.47,150.26 "/>
<path class="st0" d="M185.77,144.98c-3.25,0-5.9,2.15-5.9,4.8c0,0.89,0.29,1.76,0.86,2.51c1.08,1.44,2.96,2.29,5.04,2.29
	c2.07,0,3.96-0.86,5.04-2.29c0.56-0.75,0.86-1.62,0.86-2.51c0-0.89-0.3-1.76-0.86-2.51C189.73,145.84,187.85,144.98,185.77,144.98
	L185.77,144.98z M185.77,152.7c-1.05,0-2.07-0.61-2.6-1.55c-0.24-0.43-0.36-0.88-0.36-1.36c0-0.48,0.12-0.94,0.36-1.37
	c0.53-0.94,1.54-1.55,2.59-1.55c1.05,0,2.07,0.61,2.6,1.55c0.24,0.43,0.35,0.89,0.35,1.37C188.72,151.36,187.37,152.7,185.77,152.7
	L185.77,152.7z"/>
<path class="st0" d="M184.77,142.21c0.92-0.95,1.42-2.2,1.42-3.51c0-1.31-0.5-2.55-1.42-3.5c-0.99-1.04-2.34-1.61-3.8-1.61
	c-2.87,0-5.22,2.3-5.22,5.12c0,1.31,0.51,2.55,1.42,3.51c1,1.04,2.35,1.61,3.8,1.61C182.43,143.82,183.78,143.25,184.77,142.21
	L184.77,142.21z M180.97,141.91c-0.53,0-1.04-0.26-1.43-0.74c-0.52-0.61-0.81-1.51-0.81-2.47c0-0.96,0.29-1.86,0.81-2.46
	c0.4-0.48,0.91-0.74,1.43-0.74c0.52,0,1.03,0.26,1.44,0.74c0.51,0.61,0.81,1.51,0.81,2.46
	C183.22,140.48,182.21,141.91,180.97,141.91L180.97,141.91z"/>
<polygon class="st0" points="191.52,137.91 191.52,133.72 188.57,133.72 188.57,144.82 191.52,144.82 191.52,139.8 194.26,139.8 
	194.26,137.91 191.52,137.91 "/>
<polygon class="st0" points="231.88,153.89 231.88,146.4 231.88,146.28 218.29,146.28 218.29,148.16 228.92,148.16 228.92,153.89 
	231.88,153.89 "/>
<path class="st0" d="M225.25,142.97c0.89-0.89,1.39-2.05,1.39-3.27c0-1.22-0.5-2.38-1.39-3.27c-0.98-0.97-2.31-1.5-3.73-1.5
	c-2.82,0-5.11,2.14-5.11,4.78c0,1.22,0.5,2.38,1.39,3.27c0.98,0.97,2.3,1.51,3.73,1.51C222.94,144.48,224.27,143.94,225.25,142.97
	L225.25,142.97z M221.52,142.74c-0.54,0-1.08-0.25-1.5-0.7c-0.54-0.58-0.85-1.42-0.85-2.32c0-0.9,0.31-1.74,0.85-2.32
	c0.42-0.45,0.95-0.7,1.5-0.7s1.08,0.25,1.5,0.7c0.54,0.58,0.85,1.42,0.85,2.32C223.87,141.39,222.81,142.74,221.52,142.74
	L221.52,142.74z"/>
<polygon class="st0" points="223.1,134.31 223.1,132.44 219.93,132.44 219.93,134.31 215.95,134.31 215.95,136.15 227.1,136.15 
	227.1,134.31 223.1,134.31 "/>
<polygon class="st0" points="231.88,137.88 231.88,133.72 228.92,133.72 228.92,145.06 231.88,145.06 231.88,139.76 234.61,139.76 
	234.61,137.88 231.88,137.88 "/>
<path class="st0" d="M165,145.55c-3.49,0-6.33,2.03-6.33,4.51c0,0.84,0.32,1.65,0.92,2.36c1.16,1.35,3.17,2.15,5.4,2.15
	c2.21,0,4.24-0.81,5.39-2.15c0.61-0.71,0.92-1.52,0.92-2.36c0-0.84-0.31-1.65-0.92-2.36C169.24,146.36,167.22,145.55,165,145.55
	L165,145.55z M165,152.72c-1.18,0-2.33-0.56-2.91-1.42c-0.27-0.38-0.41-0.8-0.41-1.23c0-0.44,0.14-0.86,0.41-1.25
	c0.58-0.86,1.74-1.42,2.91-1.42c1.17,0,2.32,0.56,2.91,1.42c0.27,0.39,0.4,0.81,0.4,1.25C168.31,151.5,166.8,152.72,165,152.72
	L165,152.72z"/>
<path class="st0" d="M172.21,133.96v1.88h-4.97c1.22,3.4,5.61,3.91,5.61,3.91v1.85c0,0-5.29-0.25-7.86-4.1
	c-2.56,3.85-7.87,4.1-7.87,4.1v-1.85c0,0,4.39-0.51,5.61-3.91h-4.97v-1.88H172.21L172.21,133.96z"/>
<polygon class="st0" points="166.45,146.26 166.45,144.36 173.97,144.36 173.97,142.48 155.99,142.48 155.99,144.36 163.49,144.36 
	163.49,146.26 166.45,146.26 "/>
<polygon class="st0" points="206.87,146.17 199.6,146.17 199.6,136.19 204.34,136.19 204.34,134.31 196.65,134.31 196.65,148.04 
	206.87,148.04 206.87,146.17 "/>
<polygon class="st0" points="210.06,133.72 210.06,139.57 208.74,139.57 208.74,133.72 205.95,133.72 205.95,153.89 208.74,153.89 
	208.74,141.5 210.06,141.5 210.06,153.89 212.86,153.89 212.86,133.72 210.06,133.72 "/>
<path class="st0" d="M160.87,166.06v0.34c-0.01,0.19-0.02,0.36-0.05,0.53c-0.13,0.61-0.65,0.96-1.41,0.96
	c-0.5,0-0.92-0.16-1.16-0.44c-0.13-0.14-0.21-0.32-0.26-0.52c-0.03-0.17-0.04-0.34-0.06-0.53v-0.34v-4.32v-0.34
	c0.01-0.19,0.02-0.36,0.06-0.53c0.13-0.61,0.65-0.95,1.41-0.95c0.5,0,0.93,0.15,1.16,0.43c0.13,0.14,0.21,0.32,0.26,0.52
	c0.03,0.16,0.04,0.34,0.05,0.53v0.34v1.24h-1.22v-1.51c0-0.13,0-0.2-0.01-0.27c-0.01-0.14-0.11-0.22-0.24-0.22
	c-0.21,0-0.26,0.09-0.26,0.49v4.86c0,0.4,0.04,0.5,0.26,0.5c0.2,0,0.25-0.08,0.25-0.5v-1.62h1.22V166.06L160.87,166.06z"/>
<polygon class="st0" points="163.1,159.99 164.3,159.99 164.3,163.31 164.79,163.31 164.79,159.99 165.98,159.99 165.98,167.8 
	164.79,167.8 164.79,164.36 164.3,164.36 164.3,167.8 163.1,167.8 163.1,159.99 "/>
<path class="st0" d="M169.55,159.99v6.33c0,0.4,0.05,0.5,0.24,0.5c0.21,0,0.26-0.08,0.26-0.5v-6.33h1.21v6.07v0.34
	c0,0.19-0.03,0.36-0.06,0.53c-0.13,0.61-0.63,0.96-1.41,0.96c-0.5,0-0.91-0.16-1.16-0.44c-0.12-0.14-0.2-0.32-0.25-0.52
	c-0.04-0.17-0.06-0.34-0.06-0.53v-0.34v-6.07H169.55L169.55,159.99z"/>
<polygon class="st0" points="173.61,159.99 174.88,159.99 175.56,163.96 175.56,159.99 176.66,159.99 176.66,167.8 175.4,167.8 
	174.72,163.84 174.72,167.8 173.61,167.8 173.61,159.99 "/>
<path class="st0" d="M180.65,162.7v-1.23c0-0.13,0-0.2-0.01-0.27c-0.01-0.14-0.11-0.22-0.23-0.22c-0.21,0-0.26,0.09-0.26,0.49v4.86
	c0,0.4,0.05,0.5,0.26,0.5c0.2,0,0.25-0.08,0.25-0.5v-1.53h-0.23v-1.06h1.43v4.07h-0.64l-0.08-0.3c-0.17,0.27-0.41,0.39-0.8,0.39
	c-0.42,0-0.85-0.18-1.08-0.44c-0.13-0.13-0.21-0.32-0.26-0.52c-0.04-0.17-0.05-0.34-0.06-0.53v-0.34v-4.32v-0.34
	c0.01-0.19,0.02-0.36,0.06-0.53c0.13-0.6,0.65-0.95,1.39-0.95c0.49,0,0.91,0.15,1.15,0.43c0.13,0.14,0.21,0.32,0.26,0.52
	c0.05,0.26,0.06,0.3,0.06,0.87v0.96H180.65L180.65,162.7z"/>
<path class="st0" d="M189.1,164.99l0.22-2.85l0.28,2.85H189.1L189.1,164.99z M187.7,167.8h1.18l0.14-1.78h0.68l0.17,1.78h1.19
	l-0.94-7.81h-1.63L187.7,167.8L187.7,167.8z"/>
<polygon class="st0" points="192.86,159.99 194.13,159.99 194.81,163.96 194.81,159.99 195.91,159.99 195.91,167.8 194.65,167.8 
	193.97,163.84 193.97,167.8 192.86,167.8 192.86,159.99 "/>
<path class="st0" d="M199.84,162.7v-1.23c0-0.13,0-0.2-0.01-0.27c-0.01-0.14-0.11-0.22-0.23-0.22c-0.21,0-0.26,0.09-0.26,0.49v4.86
	c0,0.4,0.05,0.5,0.26,0.5c0.2,0,0.25-0.08,0.25-0.5v-1.53h-0.23v-1.06h1.43v4.07h-0.64l-0.08-0.3c-0.16,0.27-0.41,0.39-0.8,0.39
	c-0.42,0-0.85-0.18-1.08-0.44c-0.13-0.13-0.21-0.32-0.26-0.52c-0.04-0.17-0.05-0.34-0.06-0.53v-0.34v-4.32v-0.34
	c0.01-0.19,0.02-0.36,0.06-0.53c0.13-0.6,0.64-0.95,1.39-0.95c0.49,0,0.91,0.15,1.15,0.43c0.13,0.14,0.21,0.32,0.26,0.52
	c0.05,0.26,0.06,0.3,0.06,0.87v0.96H199.84L199.84,162.7z"/>
<path class="st0" d="M208.53,159.97v6.35c0,0.4,0.05,0.5,0.25,0.5c0.21,0,0.25-0.09,0.25-0.5v-6.35h1.21v6.09v0.34
	c0,0.19-0.02,0.36-0.06,0.53c-0.13,0.61-0.64,0.96-1.41,0.96c-0.51,0-0.92-0.17-1.17-0.45c-0.12-0.14-0.2-0.32-0.25-0.52
	c-0.03-0.17-0.05-0.34-0.05-0.53v-0.34v-6.09H208.53L208.53,159.97z"/>
<polygon class="st0" points="212.61,159.97 213.88,159.97 214.57,163.96 214.57,159.97 215.67,159.97 215.67,167.8 214.4,167.8 
	213.72,163.83 213.72,167.8 212.61,167.8 212.61,159.97 "/>
<polygon class="st0" points="218.03,159.97 219.22,159.97 219.22,167.8 218.03,167.8 218.03,159.97 "/>
<polygon class="st0" points="221.11,159.97 222.3,159.97 222.77,164.96 223.17,159.97 224.36,159.97 223.49,167.8 222.03,167.8 
	221.11,159.97 "/>
<polygon class="st0" points="226.25,159.97 228.51,159.97 228.51,161.04 227.44,161.04 227.44,163.3 228.51,163.3 228.51,164.35 
	227.44,164.35 227.44,166.73 228.51,166.73 228.51,167.8 226.25,167.8 226.25,159.97 "/>
<path class="st0" d="M231.86,161.04c0.4,0,0.48,0.08,0.48,0.45v1.48c0,0.36-0.08,0.44-0.48,0.44V161.04L231.86,161.04z
	 M230.66,167.8h1.2v-3.35c0.4,0,0.48,0.07,0.48,0.43v2.18c0,0.37,0.03,0.54,0.13,0.73h1.18c-0.09-0.24-0.11-0.37-0.11-0.75v-1.96
	c0-0.49-0.09-0.79-0.33-0.95c-0.09-0.07-0.14-0.1-0.32-0.17c0.37-0.18,0.49-0.32,0.56-0.61c0.05-0.21,0.08-0.56,0.08-0.82v-0.91
	c0-0.76-0.09-1.11-0.33-1.34c-0.26-0.24-0.52-0.32-1.13-0.32h-1.42V167.8L230.66,167.8z"/>
<path class="st0" d="M236.84,164.93v1.4c0,0.13,0,0.21,0.01,0.28c0.01,0.13,0.09,0.22,0.23,0.22c0.21,0,0.26-0.1,0.26-0.5v-0.94
	c0-0.47-0.05-0.59-0.39-0.86l-0.63-0.58c-0.55-0.48-0.68-0.75-0.68-1.43v-0.78v-0.35c0.01-0.18,0.02-0.36,0.06-0.53
	c0.13-0.59,0.65-0.95,1.37-0.95c0.47,0,0.89,0.16,1.13,0.44c0.12,0.14,0.21,0.32,0.25,0.51c0.06,0.26,0.06,0.31,0.06,0.87v0.95
	h-1.16v-1.23c0-0.4-0.05-0.49-0.26-0.49c-0.2,0-0.25,0.1-0.25,0.49v0.8c0,0.42,0.05,0.51,0.41,0.83l0.64,0.56
	c0.53,0.46,0.64,0.75,0.64,1.49v0.92v0.34c0,0.19-0.03,0.36-0.06,0.53c-0.12,0.6-0.63,0.96-1.39,0.96c-0.47,0-0.89-0.17-1.12-0.45
	c-0.13-0.13-0.21-0.32-0.26-0.52c-0.04-0.17-0.05-0.34-0.06-0.53v-0.34v-1.13H236.84L236.84,164.93z"/>
<polygon class="st0" points="240.77,159.97 241.97,159.97 241.97,167.8 240.77,167.8 240.77,159.97 "/>
<polygon class="st0" points="244.76,161.04 243.94,161.04 243.94,159.97 246.78,159.97 246.78,161.04 245.94,161.04 245.94,167.8 
	244.76,167.8 244.76,161.04 "/>
<polygon class="st0" points="249.71,159.97 250.18,162.43 250.63,159.97 251.82,159.97 250.8,164.89 250.8,167.8 249.58,167.8 
	249.58,164.86 248.47,159.97 249.71,159.97 "/>
<line class="st2" x1="46.72" y1="174.96" x2="98.92" y2="174.96"/>
</svg>
