<?xml version="1.0" encoding="utf-8"?>
<!-- Generator: Adobe Illustrator 24.1.2, SVG Export Plug-In . SVG Version: 6.00 Build 0)  -->
<svg version="1.1" id="Layer_1" xmlns="http://www.w3.org/2000/svg" xmlns:xlink="http://www.w3.org/1999/xlink" x="0px" y="0px"
	 viewBox="0 0 200 100" style="enable-background:new 0 0 200 100;" xml:space="preserve">
<style type="text/css">
	.st0{fill:#FFFFFF;}
	.st1{fill:#ED1C24;}
	.st2{fill:none;stroke:#58595B;stroke-width:0.1114;stroke-dasharray:1.1138,1.6707,0,0;}
</style>
<path class="st0" d="M21.62,69.13c0.21-0.11,0.43-0.21,0.64-0.31c0.77-0.05,1.22-0.37,1.88-0.62c0.19-0.07,0.39-0.13,0.59-0.2
	c0.03,0,0.06,0,0.1,0c-0.21,1.54-1.3,3.05-0.65,4.49c0.13,0.2,0.27,0.41,0.4,0.62c0.21,0.08,0.43,0.15,0.64,0.23
	c0.24,0.11,0.42,0.34,0.67,0.44c0.15-0.01,0.16,0.09,0.26,0.15c0.44,0.29,0.78,0.11,1.22-0.25c0-0.03,0.01-0.06,0.01-0.1
	c0.39-0.03,0.57,0.12,0.99-0.06c0.04-0.31-0.07-0.5,0.02-0.85c-0.15,0.01,0.33-0.27,0.45-0.41c0.18-0.01,0-0.34-0.03-0.47
	c-0.13,0.01-0.1,0.04-0.09-0.09c0.04-0.02,0.09-0.03,0.13-0.05c0.31-0.53,0.62-1.07,0.93-1.6c0.34-0.42,0.69-0.83,1.03-1.25
	c0.09-0.21,0.11-0.36,0.06-0.55c0.61-0.04,0.8-1.45,0.74-1.84c0.22-0.01,1.25-1.09,1.58-1.31c0.33-0.15,0.66-0.29,0.99-0.44
	c0.01-0.01,0.03-0.01,0.04-0.03c0.16-0.01,0.11-0.25,0.15-0.39c0.02-0.15-0.04-0.09-0.19-0.08c0.01-0.03,0.01-0.06,0.01-0.09
	c0.19,0.01,0.38,0.03,0.57,0.05c0.42-0.15,0.83-0.3,1.25-0.45c0.02-0.13,0.22-0.26,0.16-0.33c0.29-0.02,0.58-0.05,0.87-0.07
	c0.53-0.12,2.04-0.84,2.44-1.25c0.07,0,0.13-0.01,0.2-0.01c-0.02,0.13-0.04,0.1,0.09,0.09c0.02-0.15,0.21-0.16,0.32-0.21
	c0.02-0.13-0.01-0.09,0.12-0.1c-0.01,0.03-0.01,0.06-0.01,0.1c0.22-0.02,0.11,2.02,0.45,2.42c0.03,0,0.07,0,0.1-0.01
	c-0.05,0.13-0.1,0.26-0.15,0.39c-0.02,0,0,0.37-0.08,0.57c0.03,0,0.07,0,0.1,0c-0.05,0.32,0.95-0.12,1.1-0.17
	c0.01-0.03,0.01-0.06,0.01-0.1c0,0.07-0.01,0.14-0.01,0.21c-0.06,0.3-0.25,0.52-0.49,0.71c-1.13,0.9-0.62,2.14-0.49,3.12
	c0.02,0.33,0.04,0.66,0.05,0.99c0.09,0.2,0.17,0.4,0.26,0.61c-0.03,0.21-0.06,0.42-0.09,0.63c-0.04,0.49,0.04,0.92,0.2,1.31
	c0,0.03-0.01,0.06-0.01,0.09c0.1-0.01,0.32-0.6,0.7-0.8c-0.01,0.02-0.02,0.04-0.03,0.07c-0.12,0.25-0.23,0.5-0.35,0.75
	c-0.18,0.65-0.09,1.79,0.36,2.12c-0.06,0.48-0.16,0.86,0.35,1.02c0.01-0.1,0.03-0.19,0.04-0.28c0.03-0.24,0.26-0.48,0.37-0.7
	c0.11-0.29,0.23-0.57,0.34-0.86c0.21-0.01-0.16-0.34-0.23-0.46c-0.14,0.01-0.03-0.31-0.03-0.47c0.13-0.01,0.26-0.02,0.4-0.03
	c0.09-0.65-0.06-1.13-0.37-1.58c-0.14,0.01,0.04-0.07,0.11-0.1c0-0.03,0.01-0.06,0.01-0.1c0.14-0.01,0.03,0.02,0.09,0.09
	c0,0.03-0.01,0.06-0.01,0.09c0.13-0.01,0.11-0.01,0.15-0.12c0.31-0.88,0.64-1.75,1.02-2.6c0.16-0.01,0.09-0.09,0.09-0.2
	c0.04-0.31,0.09-0.63,0.13-0.94c0.07-0.76,0.07-1.66,0.37-2.39c-0.12,0.01-0.17-0.81-0.35-1.01c0.02-0.15,0.13-0.21,0.24-0.3
	c0.04-0.29,0.08-0.57,0.12-0.86c0.03-0.21,0.3-0.45,0.47-0.6c0.04-0.32-0.01-0.59,0.03-0.95c-0.16,0.01-0.2-0.07-0.27-0.17
	c-0.13,0.01-0.1,0.04-0.09-0.09c0.2-0.01,0.38-0.29,0.45-0.44c0.07-0.28,0.15-0.56,0.22-0.83c0.58-1.2,1.31-1.4,2.4-2.01
	c0.16-0.12,0.32-0.23,0.48-0.34c0.03-0.18-0.22-0.15-0.37-0.16c0-0.03,0.01-0.06,0.01-0.1c0.3-0.02,1.73-1.27,1.95-1.57
	c0.08-0.19,0.16-0.39,0.23-0.58c0.24-0.09,0.49,0.02,0.66,0.08c0.01-0.03,0.01-0.06,0.01-0.1c0.21-0.11,0.42-0.22,0.63-0.32
	c0.02-0.14,0.08-0.1,0.21-0.11c0.02-0.15-0.15-0.14-0.27-0.17c0.03-0.17,0.18-0.16,0.32-0.21c0-0.03,0.01-0.06,0.01-0.1
	c-0.09,0-0.16,0-0.18-0.08c0.08-0.56,0.41-0.61,0.86-0.53c0.01-0.07,0.56-0.9,0.63-0.99c0.14-0.01,0.16-0.28,0.25-0.39
	c-0.02,0.17,0.19,0.02,0.3-0.02c-0.03,0.19,0.25-0.2,0.34-0.3c-0.15,0.01-0.17-0.1-0.27-0.17c0.01-0.03,0.01-0.06,0.01-0.1
	c0.17-0.04,0.34-0.08,0.51-0.13c0-0.03,0.01-0.06,0.01-0.09c0.93-0.06,1.42-0.72,2.28-0.9c0.03-0.21,0.18-0.29,0.35-0.4
	c0.02-0.09,0.03-0.19,0.04-0.28c-0.07,0-0.13,0.01-0.2,0.01c-0.02,0.17-0.31,0.29-0.45,0.4c-0.12,0.01-0.33-0.21-0.46-0.25
	c0-0.03,0.01-0.06,0.01-0.1c0.37-0.02,0.44-0.49,0.83-0.34c0.03,0,0.06-0.01,0.1-0.01c0.01-0.11-0.01-0.13-0.07-0.19
	c0.04-0.24-0.04-0.11-0.06-0.28c0.02-0.14-1.01,0.3-1.22,0.36c0.02-0.15,0.15,0.08,0.03,0.01c0-0.03,0.01-0.06,0.01-0.09
	c0.31-0.02,0.48-0.46,0.63-0.67c0.02-0.14-0.1-0.13-0.22-0.16c-0.61-0.14-2.76,0.73-3.43,0.97c-0.51,0.18-1.02,0.36-1.52,0.54
	c-0.34,0.19-0.68,0.38-1.02,0.57c-1.12,0.52-2.29,0.83-3.39,1.39c0-0.03,0.01-0.06,0.01-0.09c-0.11,0.01-0.11-0.02-0.18-0.08
	c0.05-0.38,0.12-0.66-0.06-0.94c0.06-0.16,0.12-0.32,0.18-0.49c0.11-0.82,0.22-1.64,0.33-2.47c-0.17,0.01,0.07-0.18,0.14-0.29
	c0.18-0.01,0.04-0.16,0-0.26c-0.31-0.79,0.08-1.75,0.02-2.67c-0.03-0.54-0.27-0.82,0-1.41c-0.15,0.01-0.11-0.06-0.14-0.15
	c-0.24-0.77-0.57-0.5-1.21-0.71c0.01-0.06,0.02-0.13,0.03-0.19c0.14-0.01,0.32-0.16,0.42-0.22c0.05-0.39-0.62-0.66-0.87-0.79
	c-0.01,0.1-0.65,0.2-0.81,0.27c-0.38,0.17-0.79,0.32-1.22,0.29c-0.28-0.02-0.53-0.16-0.86-0.09c-0.9,0.22-2.85,2.06-3.65,2.79
	c0.03,0,0.06,0,0.1-0.01c-0.02,0.16,0.23,0.15,0.37,0.16c-0.01,0.06-0.02,0.13-0.03,0.19c-0.13,0.01-0.09-0.02-0.11,0.1
	c-0.27,0.02-0.91,0.28-1.13,0.47c-0.44,0.4-0.6,1.06-0.96,1.52c-0.21,0.27-0.63,0.33-0.76,0.68c0,0.08,0,0.16,0,0.25
	c-0.01,0.03-0.01,0.06-0.01,0.1c-0.97,0.06-2.82,4.57-3.76,5.15c-0.01,0.06-0.02,0.13-0.03,0.19c-0.04,0-0.07,0-0.1,0.01
	c-0.04,0.63-0.42,0.89-0.68,1.4c-0.15,0.31-0.21,0.56-0.42,0.84c0.17-0.01,0.05,0.09-0.03,0.19c0.14-0.01-0.09,0.23-0.13,0.39
	c-0.13,0.51-0.57,0.86-0.8,1.32c-0.52,1-1.08,1.86-1.38,2.98c-0.59,0.04-0.36,0.71-0.12,0.86c0,0.03-0.01,0.06-0.01,0.1
	c-0.65,0.04-0.72,0.72-0.75,1.18c-0.03,0-0.07,0-0.1,0c0.02-0.14-0.04-0.09-0.14-0.05c-0.84,0.29-1.56,0.52-2.27,1.16
	c-0.18,0.01,0,0.12,0.07,0.18c0,0.03-0.01,0.06-0.01,0.1c-0.62,0.04-0.94,0.11-1.54,0.49c-0.51,0.33-1.16,1.14-1.82,1.05
	c-0.04,0-0.07,0.01-0.1,0.01c0,0.03-0.01,0.06-0.01,0.09c-0.16,0.01-0.11,0.17-0.14,0.29c-0.02,0.15-0.39,0.38-0.49,0.54
	c-0.16,0.24-0.4,0.39-0.58,0.62c-0.32,0.42-0.62,0.89-0.71,1.41C19.93,68.87,21.25,69.2,21.62,69.13L21.62,69.13z M46.78,52.03
	c0,0.03-0.01,0.06-0.01,0.09c0.13-0.01,0.1-0.03,0.09,0.09c-0.03-0.03-0.06-0.06-0.09-0.09C46.67,52.13,46.7,52.1,46.78,52.03
	L46.78,52.03z M37.87,54.11c0,0,1.99-2.63,2.22-2.91c-0.22,0.05-0.1-0.17-0.08-0.35c0.18-0.04,1.56-2.09,2.04-2.5
	c0-0.04,0.01-0.08,0.02-0.13c0.02-0.01,0.37,1.11,0.59,1.34c-0.31,0.84-0.62,1.69-0.93,2.53c-0.14,0.7-0.01,1.4-0.22,2.07
	c-0.22,0.7-1.06,1.55-1.81,1.76c-0.39,0.12-0.68,0.11-1.05,0.28c-0.72,0.45-1.44,0.91-2.16,1.36C35.51,57.13,37.75,55,37.87,54.11
	L37.87,54.11z"/>
<path class="st0" d="M85.51,49.3c-0.55-0.03-1.04,0.34-1.48,0.68l-0.42,0.3c0,0-1.82,1.07-1.82,1.07l-1.74,1.02
	c-1,0.47-1.85,0.79-2.66,1.01c0,0-0.55,0.2-0.55,0.2c-0.14,0.07-0.27,0.13-0.52,0.19l-0.03,0.01c0,0-0.01,0.01-0.01,0.02
	c-0.04-0.03-0.1-0.07-0.1-0.07l-0.09-0.07c-0.28-0.17-0.36-0.6-0.36-1.1c0-0.31,0.03-0.65,0.06-0.97c0.03-0.32,0.06-0.64,0.06-0.91
	c0-0.14-0.01-0.25-0.03-0.37c0.35-0.12,0.4-0.89,0.44-1.58c0.02-0.3,0.04-0.58,0.08-0.69c0.07-0.17,0.26-0.33,0.43-0.47l0.04-0.03
	l0.01-0.06c0,0-0.02-0.43-0.02-0.49c0.28-0.33,0.7-1.71,0.7-1.73c0.02-0.08,0.03-0.15,0.03-0.22c0-0.09-0.02-0.17-0.03-0.25
	c0.1-0.05,0.14-0.16,0.16-0.23l0.02-0.06c0.01-0.03,0.01-0.06,0.01-0.06c0.01,0,0.02-0.01,0.02-0.01l0.2-0.09
	c0,0-0.03-0.05-0.05-0.08c0.01-0.02,0.18-0.39,0.22-0.47c0.04-0.01,0.07-0.02,0.1-0.06c0.02-0.03,0.02-0.05,0.02-0.07
	c0-0.03-0.01-0.05-0.02-0.07c0.12-0.07,0.24-0.23,0.33-0.37l0.13-0.17l0.42-0.41c0.27-0.26,0.53-0.5,0.75-0.81
	c0.01-0.02,0.21-0.54,0.21-0.54s0.1-0.26,0.1-0.27c0,0,0.14-0.18,0.14-0.18c0.17-0.23,0.37-0.48,0.37-0.8c0-0.04,0-0.08-0.01-0.12
	c-0.07-0.51-0.51-0.7-0.87-0.85c0,0-0.07-0.03-0.08-0.03c0.01-0.03,0.02-0.1,0.02-0.1l-0.11,0l-0.07,0c-0.11,0-0.21-0.01-0.27-0.02
	c0.11-0.13,0.17-0.35,0.2-0.5c0.07-0.02,0.12-0.05,0.17-0.1l0.13-0.14c0,0-0.22-0.03-0.23-0.04c0-0.01-0.01-0.05-0.01-0.05
	l-0.04-0.13l-0.07,0l-0.32-0.02c0,0-0.12,0.32-0.12,0.33c-0.09-0.03-0.16-0.08-0.23-0.21l-0.03-0.05c0,0-0.1-0.01-0.1-0.01
	c0,0-0.01-0.01-0.01-0.01c0,0,0.01-0.01,0.01-0.01l0.02-0.08c0,0-0.14-0.06-0.16-0.06c0.02-0.04,0.05-0.09,0.05-0.09
	s-0.12-0.02-0.15-0.02c0-0.02,0.01-0.03,0.01-0.03c0.01-0.03,0.01-0.07,0.01-0.11c0-0.04-0.01-0.08-0.04-0.11
	c-0.02-0.02-0.06-0.03-0.08-0.04c-0.03-0.1-0.1-0.16-0.15-0.19c0,0-0.01-0.01-0.02-0.01c0.01-0.03,0.02-0.1,0.02-0.1l-0.11-0.04
	c-0.11-0.01-0.27-0.07-0.44-0.13c-0.36-0.13-0.77-0.29-1.06-0.11c-0.14,0.08-0.22,0.25-0.27,0.46c-0.05-0.02-0.1-0.03-0.15-0.07
	c0,0-0.05-0.03-0.09-0.06c-0.01-0.04-0.02-0.09-0.02-0.09l-0.16-0.05h-0.15l-0.02,0.09c-0.04,0.36-0.11,0.43-0.37,0.6l-0.24,0.16
	c0,0,0.14,0.02,0.22,0.03c-0.01,0.02-0.02,0.03-0.02,0.03c0,0-0.14,0.26-0.14,0.26c-0.39,0.73-0.77,1.47-0.77,1.88
	c0,0.05,0.01,0.08,0.03,0.12c-0.12-0.01-0.41-0.02-0.41-0.02l-0.01,0.1c-0.09,0.69-0.28,0.94-0.59,1.36l-0.27,0.36
	c-0.01,0.01-0.33,0.64-0.33,0.64l-0.11,0.21c-0.26,0.33-0.44,0.73-0.62,1.11c-0.18,0.38-0.34,0.74-0.59,1.06c0,0-0.5,0.53-0.5,0.53
	c-0.19,0.26-0.35,0.6-0.53,0.96c-0.21,0.43-0.42,0.87-0.65,1.13c-0.01,0-0.04,0.03-0.04,0.03l-0.33,0.25
	c-0.56,0.53-1.31,1.31-1.57,2.14c-0.02,0-0.1,0.02-0.1,0.02l-0.02,0.01c-0.93,0.6-1.76,1.57-2.5,2.43l-0.28,0.33
	c0,0-0.38,0.48-0.38,0.48l-0.1,0.13c0.01-0.01-0.43,0.3-0.43,0.3c-0.19,0.12-0.38,0.24-0.57,0.42c-0.01,0.01-0.45,0.59-0.45,0.59
	l-0.06,0.08c-0.11,0.1-0.32,0.08-0.54,0.06c-0.2-0.02-0.42-0.03-0.6,0.08c0.17-1.35,0.5-2.45,1.09-3.73
	c0.03-0.01,0.07-0.02,0.1-0.05c0.02-0.03,0.03-0.05,0.03-0.08c0-0.04-0.01-0.07-0.02-0.1l-0.01-0.05c-0.01-0.03-0.01-0.08-0.01-0.13
	c0-0.52,0.43-1.71,0.68-2.25l0.03-0.07c0,0-0.03-0.02-0.06-0.04c0.01-0.02,0.02-0.04,0.02-0.04l0.07-0.13
	c0-0.02,0.08-0.43,0.08-0.43l0.09-0.52c0.12-0.64,0.38-1.83,0.81-2.68l0.13,0.01l-0.01-0.13l-0.01-0.07
	c-0.02-0.11-0.02-0.23-0.02-0.34c0-0.4,0.1-0.8,0.29-1.21l0.14,0.01l-0.04-0.2c-0.23-0.85-1.05-2.18-2.3-2.19
	c-1.54-0.01-3.12,3.89-3.4,5.29c-0.08,0.02-0.28,0.05-0.28,0.05l-0.08,0.01l-0.01,0.08c-0.04,0.32-0.16,0.59-0.28,0.87l-0.18,0.43
	l-0.51,1.33l-0.29,0.73l0.12,0.03c0,0,0.14,0.04,0.25,0.07c-0.11-0.01-0.43-0.02-0.43-0.02l-0.01,0.1c-0.03,0.26-0.14,0.5-0.24,0.74
	l-0.15,0.38c-0.01,0.02-0.03,0.15-0.03,0.15s-0.11,0.68-0.11,0.68c0,0-0.21,0.4-0.21,0.4l-0.11,0.21c-0.18,0.47-0.26,0.93-0.35,1.42
	l-0.09,0.5l-0.08,0.38c-0.08,0.37-0.15,0.74-0.15,1.08c0,0.36,0.09,0.71,0.33,1.04c0,0.01,0,0.01,0,0.02c-0.01,0-0.4-0.11-0.4-0.11
	l-0.04,0.28l0.08,0.04c0,0,0.1,0.04,0.17,0.07c-0.02,0.16-0.03,0.33-0.03,0.48c0,0.87,0.27,1.62,0.84,2.33l0.18,0.2
	c0.17,0.2,0.31,0.35,0.4,0.64l0.02,0.07l1.15,0.07c0,0,0-0.03,0-0.05c0.12,0.05,0.69,0.27,0.69,0.27l0.04,0l0.57-0.05
	c0.47-0.03,0.99-0.06,1.25-0.27c0.02,0,0.06,0,0.11,0.01c0,0.03-0.01,0.07-0.01,0.07l-0.02,0.2h0.11c0.51,0.03,0.84-0.25,1.15-0.53
	l0.38-0.31l0.01-0.05c0-0.03,0-0.05,0-0.08c0-0.1-0.03-0.17-0.06-0.24c0.07-0.01,0.16-0.06,0.28-0.13l0.19-0.1l-0.01-0.04
	l-0.04-0.15c-0.02-0.02-0.05-0.03-0.08-0.04c0.19-0.02,0.35-0.06,0.49-0.11c0.18-0.07,0.27-0.17,0.37-0.27l0.21-0.19l0.49-0.27
	c0.43-0.23,0.92-0.49,1.19-0.93c0.07-0.02,0.2-0.1,0.47-0.42l0.02-0.03c0,0,0.01-0.06,0.01-0.07c0.07-0.04,0.12-0.1,0.14-0.16
	l0.05-0.08h0c0.6-0.16,0.99-0.78,1.36-1.38c0.25-0.4,0.51-0.81,0.8-1.06l0.03-0.03c0,0,0-0.02,0-0.03c0.02,0,0.08,0,0.08,0
	l0.01-0.11l0.02-0.13l-0.06-0.06l-0.06-0.03c-0.05-0.03-0.11-0.06-0.15-0.1c0.3-0.08,0.57-0.29,0.68-0.54
	c0.03-0.08,0.05-0.17,0.05-0.26c0-0.09-0.03-0.19-0.07-0.28c0.04,0,0.46-0.04,0.48-0.04c0.04,0.07,0.08,0.17,0.11,0.28
	c0.09,0.29,0.21,0.67,0.52,0.88c-0.05,0-0.2-0.01-0.2-0.01s-0.01,0.07-0.01,0.08c-0.02,0-0.08,0-0.08,0l-0.01,0.1
	c-0.01,0.04-0.01,0.08-0.01,0.12c0,0.51,0.37,0.98,0.76,1.17c0,0,0,0,0.01,0.01c0,0.01,0,0.03-0.01,0.05
	c-0.01,0.01-0.03,0.01-0.04,0.02c-0.01,0.03-0.02,0.06-0.02,0.09c0,0.12,0.1,0.26,0.22,0.45c0.13,0.19,0.29,0.45,0.29,0.61
	c0,0.01-0.01,0.03-0.01,0.04c-0.03,0.02-0.04,0.04-0.05,0.06c-0.01,0.01-0.01,0.03-0.01,0.05c0,0.11,0.17,0.29,1.24,1.07l0.12,0.09
	c0,0,0.23,0.28,0.23,0.28c0.08,0.11,0.17,0.22,0.28,0.31c-0.02,0.05-0.06,0.11-0.1,0.16l-0.19,0.24l0.2,0.01
	c0.11,0.01,0.36,0.19,0.57,0.33c0.21,0.15,0.41,0.29,0.57,0.35l0.13,0.05c0,0,0.06-0.52,0.07-0.56c0.12,0.01,0.64,0.04,0.64,0.04
	l0.16-0.04c0,0,0.05-0.15,0.05-0.15c0.09,0.05,0.18,0.11,0.27,0.19l0.43,0.33l0.01-0.19c0,0,0-0.01,0-0.02
	c0.2-0.04,0.38-0.19,0.48-0.29c0.06,0,0.29,0.01,0.29,0.01c0.84,0.05,1.13-0.38,1.51-0.91l0.15-0.21l0.02-0.23l-0.11,0l-0.08-0.01
	c-0.01-0.02-0.03-0.04-0.05-0.05c-0.06-0.04-0.13,0-0.19,0.04c-0.03,0-0.09-0.01-0.09-0.01c0,0,0,0,0-0.01
	c0-0.04,0.03-0.16,0.21-0.45c0.04,0.01,0.36,0.12,0.36,0.12l0.02-0.13c0-0.02,0.01-0.04,0.02-0.04c0.06-0.03,0.23,0.05,0.37,0.13
	c0.01,0.04,0.01,0.08,0.04,0.1c0.06,0.05,0.13,0.05,0.21,0.04c0.03,0.08,0.07,0.14,0.11,0.19c0,0,0,0,0,0.01
	c0,0.04,0.01,0.09,0.04,0.12c0.05,0.05,0.11,0.04,0.16,0.04l0.15,0l0.02-0.09l0.01-0.1l-0.03-0.07c-0.02-0.03-0.05-0.03-0.07-0.03
	c-0.01-0.03-0.01-0.03-0.01-0.07c0.01-0.01,0.02-0.02,0.02-0.02s0.01-0.03,0.03-0.06c0.04,0,0.19,0.01,0.19,0.01v0
	c0.07,0.01,0.13-0.03,0.19-0.07c0,0,0.01,0,0.01-0.01c0.05-0.01,0.4-0.06,0.4-0.06s-0.01-0.17-0.01-0.19
	c0.01,0.01,0.02,0.01,0.02,0.02c0,0.01,0.01,0.02,0.01,0.03c0,0.02,0,0.03-0.01,0.03c0.02-0.04,0.17-0.16,0.85-0.51
	c0,0,0.03-0.02,0.05-0.03c0.03,0,0.16,0.01,0.16,0.01l0.01-0.1l0.03-0.22l-0.13,0.02c0,0-0.4,0.05-0.46,0.05
	c0-0.01,0.02-0.14,0.02-0.14c0-0.01,0-0.02,0-0.03c0-0.06-0.03-0.11-0.05-0.13c-0.06-0.06-0.16-0.08-0.26-0.08
	c0,0,0.01-0.01,0.01-0.01l0-0.04c0,0,0.01-0.11,0.02-0.19c0.39-0.05,0.84-0.44,1.04-0.71c0.02,0,0.13,0.01,0.13,0.01l0.05-0.39
	c0,0-0.06,0-0.09,0c0.01-0.03,0.02-0.1,0.02-0.1c0,0,0.04-0.01,0.04-0.01l0.12-0.05l0.4-0.19c0.5-0.22,0.83-0.37,0.9-0.51
	c0,0,0.47-1.12,0.47-1.12s-0.01-0.01-0.01-0.01c0.13-0.18,0.89-0.79,1.11-0.85l0.07-0.02l0.01-0.07c0-0.01,0-0.02,0-0.03
	c0-0.15-0.13-0.34-0.25-0.51c0,0-0.04-0.06-0.07-0.11c0.03-0.04,0.07-0.1,0.12-0.19c0.15-0.25,0.51-0.83,0.62-0.9l0.04-0.03
	l0.04-0.33L85.51,49.3L85.51,49.3z"/>
<path class="st1" d="M85.99,28.46H68.27v18.35h18.35V28.46H85.99L85.99,28.46z M85.36,29.73c0,1.13,0,14.7,0,15.83
	c-1.13,0-14.7,0-15.83,0c0-1.13,0-14.7,0-15.83C70.66,29.73,84.23,29.73,85.36,29.73L85.36,29.73z"/>
<path class="st0" d="M21.38,43.58c-0.58-0.15-1.36-0.29-1.86-0.36l-0.03,0.02l-0.21,0.15c0,0,0,0.01-0.01,0.02
	c-0.09-0.01-0.17,0.01-0.24,0.03c0,0,0.01-0.02,0.01-0.02l-0.08-0.02l-0.37-0.06c-0.09-0.02-0.19,0.06-0.28,0.14
	c0,0-0.04,0.03-0.06,0.04c0,0-0.13-0.18-0.13-0.18l-0.04,0.15c0,0-0.01,0.04-0.01,0.05c-0.01,0-0.03,0-0.03,0
	c-0.01-0.03-0.07-0.05-0.28,0.17c-0.05-0.03-0.17-0.09-0.17-0.09l-0.05,0.06c-0.03,0.03-0.18,0.09-0.23,0.11l0,0
	c-0.01,0,0-0.01-0.01-0.01c-0.02-0.01-0.05-0.01-0.09,0.04c-0.02-0.01-0.09-0.03-0.09-0.03l-0.07-0.01L17,43.81
	c0,0-0.17,0.23-0.19,0.27c-0.01,0-0.02,0-0.02,0c0-0.02,0-0.12,0-0.12l-0.22-0.04c0,0-0.04,0.14-0.05,0.16
	c-0.02,0-0.04-0.01-0.04-0.01s-0.01,0.02-0.01,0.04c-0.02-0.01-0.18-0.1-0.18-0.1l-0.02,0.09c-0.01,0.02-0.04,0.09-0.31,0.18
	l-0.04,0.01l-0.01,0.04c-0.01,0.04-0.06,0.07-0.11,0.11l-0.09,0.07c0,0,0,0.01,0,0.02c-0.24-0.01-0.48,0.09-0.7,0.18l-0.32,0.12
	l-0.02,0.04c-0.06,0.2-0.15,0.49-0.3,0.62c-0.02-0.03-0.04-0.05-0.06-0.07c0-0.01,0.03-0.1,0.03-0.1l-0.08-0.01
	c-0.12-0.02-0.2,0.15-0.27,0.34c0-0.02,0-0.04,0-0.04l-0.06-0.01c0,0-0.01,0-0.01,0c0.01-0.02,0.01-0.03,0.01-0.03l-0.08-0.04
	c-0.08-0.01-0.13,0.03-0.17,0.08c0-0.02-0.01-0.11-0.01-0.11l-0.06-0.02c-0.08-0.01-0.27,0.07-0.66,0.24l-0.41,0.18l-0.01,0.04
	c-0.05,0.15-0.17,0.26-0.3,0.38c-0.1,0.09-0.21,0.19-0.28,0.32c-0.25-0.04-0.42,0.01-0.62,0.26c-0.01,0.01-0.03,0.01-0.05,0.02
	c-0.03,0.03-0.04,0.08-0.04,0.14c0,0.03,0,0.07,0.01,0.1c-0.04-0.01-0.08-0.01-0.08-0.01l0.05,0.13c0,0,0.01,0.01,0.01,0.03
	c-0.02,0.02-0.05,0.04-0.12,0.04c0,0-0.02,0-0.04,0.01c0.02-0.04,0.05-0.12,0.05-0.12h0c0,0,0-0.01,0-0.01l-0.14-0.05
	c0,0-0.01,0.01-0.01,0.01c-0.02,0.05-0.11,0.12-0.18,0.18l-0.36,0.32l0.28-0.06c0,0,0.03-0.01,0.05-0.01
	c-0.01,0.05-0.03,0.16-0.03,0.2c-0.28,0.16-1.01,1.03-1.02,1.04c-0.01,0.01-0.09,0.17-0.09,0.17s-0.04,0.08-0.07,0.13
	c-0.05,0.01-0.15,0.05-0.35,0.2c0,0,0,0,0,0L9.2,49.31l-0.06-0.04c-0.13-0.02-0.15,0.08-0.17,0.13c-0.01,0.02-0.08,0.27-0.08,0.27
	c-0.08,0.28-0.1,0.33-0.44,0.51c0,0-0.02-0.26-0.02-0.26l-0.12,0.24c0,0-0.24,0.44-0.28,0.49c0,0-0.27-0.21-0.27-0.21
	c-0.07,0.04-0.09,0.11-0.1,0.2c0,0-0.08-0.01-0.08-0.01s-0.01,0.04-0.01,0.05c-0.02,0-0.03-0.01-0.03-0.01l-0.02,0.05L7.3,51.1
	c0,0.01-0.21,0.42-0.21,0.42c0.01-0.01-0.24,0.31-0.24,0.31c-0.24,0.28-0.48,0.58-0.55,0.96c-0.28,0.08-0.54,1.09-1.38,2.58
	l-0.5,0.85c-0.01,0.02-0.03,0.2-0.03,0.2c0,0,0,0.01,0,0.02c0,0.06-0.01,0.08-0.1,0.14l-0.03,0.02l-0.01,0.03
	c-0.09,0.29-0.15,0.44-0.34,0.66c-0.01,0.03-0.03,0.06-0.03,0.06l-0.03,0.09c0,0,0.02,0.01,0.03,0.01
	c-0.03,0.05-0.16,0.29-0.16,0.29c-0.01,0.03-0.01,0.05-0.01,0.08c0,0.08,0.03,0.14,0.07,0.2l0.06,0.12l0.07,0.03
	c0,0,0.03,0.01,0.03,0.01c-0.11,0.24-0.22,0.48-0.22,0.67c0,0.06,0.01,0.11,0.03,0.16c0.03,0.07,0.1,0.1,0.17,0.13
	c-0.07,0.17-0.19,0.46-0.19,0.67l0.05-0.02l-0.03,0.12l0.08,0.04c0,0,0.15,0.03,0.16,0.03C3.96,60,3.92,60.27,3.92,60.27
	s0.02,0,0.03,0.01c-0.02,0.02-0.04,0.04-0.04,0.09c0,0.07,0.02,0.16,0.05,0.3c-0.02-0.01-0.06-0.03-0.06-0.03l-0.12,0.52l-0.04,0.16
	c0,0.02,0,0.64,0,0.64c-0.01,0.14-0.09,0.29-0.17,0.42L3.57,62.4l0,0.08l0.04,0.05l0.02,0.06l0.02,0.07
	c-0.01-0.02-0.02,0.01-0.02,0.01L3.58,62.8l0.17-0.04c0.14-0.03,0.35,0.29,0.46,0.47c0,0,0.05,0.07,0.08,0.11c0,0,0,0.01,0,0.01
	c-0.01,0.01-0.11,0.08-0.11,0.08l0.01,0.02c0,0,0,0.01,0,0.01c0,0.03,0.03,0.05,0.05,0.08c0,0.01,0,0.06,0,0.06s0.01,0.01,0.03,0.01
	c0,0.02-0.03,0.22-0.03,0.26l0,0v0c0,0.01,0,0.03,0,0.03l0.15,0.01c0,0-0.01,0.01-0.03,0.02l-0.04-0.01l0.09,0.16
	c0,0,0.01,0.01,0.03,0.01c0,0.01-0.01,0.02-0.01,0.03c0,0.03,0.01,0.06,0.04,0.09c0.19,0.2,0.26,0.33,0.26,0.53
	c0,0.14-0.04,0.32-0.1,0.58c0,0-0.01,0.05-0.01,0.06c-0.02,0.02-0.03,0.04-0.03,0.04s-0.03,0.03-0.04,0.05h0c0,0,0,0,0,0.01
	c-0.06,0.07-0.19,0.24-0.19,0.24l-0.01,0.03l-0.01,0.11l0.07,0.03c0.13,0.02,0.18-0.11,0.23-0.22c0.04,0.02,0.08,0.03,0.09,0.07
	l0.03,0.07l0.03-0.02c0,0,0.06-0.03,0.12-0.05c0,0.01-0.06,0.2-0.06,0.2l-0.01,0.04l0.06,0.03c0.01,0.01,0.03,0.07,0.03,0.14
	c0,0.05-0.01,0.12-0.05,0.18c-0.01,0.02-0.01,0.04-0.01,0.06c0,0.1,0.07,0.21,0.16,0.36l0.06,0.09c-0.01-0.03-0.02,0-0.02,0
	l-0.02,0.08l0.23,0.04l0.03-0.05c0,0,0.08-0.14,0.09-0.16c0.03,0.01,0.06,0.02,0.06,0.02s0.19,0.02,0.25,0.03
	c0,0.01,0.02,0.13,0.02,0.13l0.06,0l0.4,0l0.02-0.05c0.04-0.15,0.09-0.18,0.19-0.25c0.04,0,0.09,0,0.09,0
	c0.06-0.01,0.08-0.01,0.1,0.02l0.02,0.02c0,0,0.01,0,0.01,0c0,0,0,0,0,0c0,0.07-0.08,0.25-0.11,0.32L6.4,67.16l0.09,0.01l0.11,0.02
	c0,0,0.01-0.04,0.02-0.05c0.01,0,0.03,0.01,0.03,0.01l0.02-0.05l0.18-0.29l0.02-0.04c0,0,0,0,0-0.01c0.02,0.01,0.05,0.02,0.05,0.02
	c0.01,0,0.01,0,0.01,0c0,0.01,0,0.05,0,0.05c0,0-0.06,0.33-0.06,0.33l-0.05,0.29c0,0.02,0.08,0.23,0.08,0.23S7,67.93,7,67.95
	c0,0,0,0.01,0,0.01l-0.03,0.09c0,0,0.02,0.01,0.05,0.02c-0.01,0.02-0.03,0.11-0.03,0.11l0.1-0.03c0,0,0.16-0.04,0.18-0.04
	c0.09-0.01,0.29-0.01,0.32,0.09l0.02,0.04l0.17,0.03l0.05-0.06c0.02-0.08,0.17-0.06,0.21-0.05c0,0,0.08,0.03,0.12,0.04
	c0,0.01-0.02,0.07-0.02,0.07l0.08,0.01c0.07,0.01,0.11-0.03,0.14-0.08c0.04,0.07,0.11,0.13,0.2,0.17c-0.02-0.01,0.08,0.08,0.08,0.08
	l0.1,0.09c0.25,0.1,0.49,0.05,0.71-0.01c0,0,0.25-0.05,0.26-0.05c0,0,0.12,0.2,0.12,0.2l0.05-0.17c0.04-0.14,0.2-0.2,0.49-0.19
	c0.11,0.02,0.21-0.13,0.33-0.35c0,0,0.02-0.04,0.04-0.07c0.04-0.01,0.16-0.03,0.21-0.04c0,0.02-0.01,0.04-0.01,0.04l0.09,0.01
	c-0.04,0.09-0.1,0.23-0.1,0.23c-0.07,0.15-0.15,0.31-0.17,0.51l-0.01,0.07l0.18,0.03l0.02-0.06c0.04-0.13,0.14-0.26,0.25-0.35
	c0,0,0.01,0.01,0.01,0.01l0.02,0c-0.01-0.03,0.09,0.17,0.09,0.17l0.04,0.09l0.13,0.02l0.22-0.36c0,0,0.01-0.03,0.01-0.04
	c0.05-0.01,0.22-0.04,0.22-0.04l0.24-0.04l0.48,0.03c0.02,0,0.23-0.08,0.23-0.08c0.12-0.06,0.2-0.09,0.25-0.05l0.09,0.06
	c0,0,0.03-0.11,0.04-0.12c0.06-0.02,0.14-0.06,0.22-0.12c-0.01,0.03-0.04,0.07-0.04,0.07l0.26,0.04c0,0,0.01-0.02,0.01-0.04
	c0.02,0.01,0.08,0.03,0.08,0.03l0.15,0.07l0.02-0.09L14,67.82c0,0-0.05-0.02-0.07-0.03c0-0.01,0-0.06,0-0.06c0,0,0,0,0,0
	c0.02,0.01,0.04,0.02,0.04,0.02l0.14,0.09l0.02-0.1c0.03-0.08,0.11-0.15,0.22-0.19c0.13-0.05,0.27-0.04,0.32,0l0.08,0.06l0.03-0.1
	c0.05-0.15,0.33-0.23,0.48-0.26l0.06-0.01l0.75-0.17l0.12-0.01l0.02-0.05l0.04-0.12c0,0-0.01,0-0.01,0c0,0,0.02-0.03,0.03-0.03
	c0.12-0.01,0.6-0.06,0.73-0.11l0.03-0.01c0,0,0.03-0.1,0.04-0.12c0.06-0.01,0.14-0.03,0.21-0.04c0.14,0.03,0.39-0.17,0.46-0.34
	c0,0,0.01,0,0.01,0c0.06,0.04,0.11-0.03,0.19-0.15c0,0,0.02-0.02,0.03-0.04c0,0,0,0.01,0,0.02l1.38-0.71c0,0,0.06-0.04,0.08-0.06
	c0.01,0,0.09,0,0.09,0l0.01-0.06c0.04-0.2,0.13-0.34,0.27-0.41c0.13-0.07,0.3-0.06,0.45,0.01l0.12,0.05l-0.02-0.13
	c0-0.07,0.02-0.56,0.06-0.63c0.06-0.07,0.13-0.08,0.23-0.09c0.1-0.02,0.21-0.03,0.3-0.13c0.01-0.01,0.09-0.13,0.09-0.13l0.08-0.12
	c-0.01,0.02,0.22-0.09,0.22-0.09c0.12-0.03,0.25-0.07,0.34-0.18c0.11-0.13,0.15-0.3,0.18-0.46l0.1-0.32c0.11-0.2,0.95-0.67,1.1-0.62
	l0.09,0.03c0,0,0-0.02,0.01-0.04c0.17-0.1,0.8-1.67,0.81-1.69c0-0.01,0.38,0.05,0.38,0.05l0.01-0.04c0,0,0-0.01,0-0.01
	c0.38-0.06,0.66-0.36,0.93-0.66c0.25-0.28,0.4-0.89,0.69-0.95l0.05-0.01l0.01-0.06c0-0.02,0-0.03,0-0.05c0-0.11-0.03-0.18-0.09-0.22
	c-0.11-0.08-0.28-0.01-0.41,0.04l-0.11,0.04l-0.01,0.05c-0.26,0.04-0.52,0.14-0.72,0.24c0-0.01,0-0.02,0-0.02l-0.09,0.01
	c-0.09,0.01-0.17,0.08-0.25,0.14l-0.1,0.07c0,0-0.25,0.1-0.26,0.1c-0.01-0.01,0-0.02-0.01-0.02c-0.06-0.03-0.11,0.02-0.14,0.06
	l-0.02,0.02c-0.38,0.32-1.28,1.01-1.6,1.02l-0.06,0c0,0-0.01,0.03-0.01,0.05c-0.01,0-0.06,0-0.06,0l-0.03,0.05
	c-0.03,0.04-0.24,0.07-0.37,0.06l-0.05,0l-0.03,0.06c-0.06,0.13-0.96,0.68-1.11,0.65c-0.11,0-0.13,0.05-0.14,0.09
	c-0.04-0.01-0.16-0.05-0.16-0.05l-0.04,0.08c-0.01,0.08-0.19,0.25-1.2,0.49c0,0,0-0.01,0-0.01l-0.11-0.02l-0.07,0l-0.03,0.06
	c-0.02,0.04-0.19,0.1-0.26,0.13l-0.16,0.07c0,0,0,0.01,0,0.02c-0.05,0-0.13,0.05-0.26,0.14c-0.11,0.07-0.28,0.18-0.35,0.19l-0.05,0
	c0,0-0.01,0.03-0.01,0.04c-0.04,0-0.12,0.02-0.27,0.07l-0.31,0.08c0,0-0.02,0.04-0.02,0.04c-0.3-0.02-0.72,0.11-0.98,0.27
	c0-0.01,0-0.01-0.01-0.02c-0.03-0.04-0.07-0.04-0.1-0.04l-0.03,0l-0.08-0.02l-0.05,0.06c-0.02,0.02-0.1,0.02-0.14,0.02
	c0,0-0.08,0-0.09,0c0,0-0.1-0.15-0.1-0.15l-0.06,0.11c-0.03,0.05-0.25,0.1-0.37,0.14c0,0-0.21,0.07-0.28,0.09
	c-0.01,0-0.04-0.01-0.07-0.01c-0.01-0.02-0.01-0.04-0.03-0.05c-0.06-0.03-0.11,0.02-0.18,0.11c-0.05-0.03-0.12-0.06-0.12-0.06
	c-0.02-0.01-0.06-0.01-0.06-0.01l-0.07-0.01l-0.02,0.06c-0.01,0.04-0.09,0.05-0.16,0.06l-0.12,0.02c0,0,0,0.01-0.01,0.03
	c-0.06-0.02-0.22-0.05-0.22-0.05s-0.51,0.11-0.51,0.11c0,0-0.28-0.02-0.28-0.02l-0.35-0.02c-0.66-0.15-1.47-0.79-1.61-1.58
	c-0.02-0.12-0.03-0.23-0.03-0.35c0-0.19,0.02-0.39,0.04-0.6l0-0.04c0,0,0.02-0.26,0.02-0.26c0-0.17,0.01-0.34,0.06-0.53
	c0,0,0.22-0.55,0.22-0.55l0.14-0.31c0-0.01,0.15-0.49,0.15-0.49c0,0,0.21-0.41,0.21-0.41c0.01-0.03,0.03-0.31,0.03-0.31l0.01-0.07
	l0.05-0.21c0,0,0.02-0.07,0.03-0.13c0,0.02,0,0.03,0,0.05c0,0.06,0,0.14-0.02,0.26l-0.01,0.07l0.18,0.03l0.02-0.05
	c0,0,0.12-0.24,0.12-0.25c0,0,0.22-0.22,0.22-0.22c0.01-0.01,0.44-0.55,0.44-0.55l0.28-0.43c0.18-0.29,0.37-0.61,0.56-0.73
	l0.02-0.01c0,0,0,0,0,0c0.02,0.01,0.04,0.02,0.04,0.02l0.14,0.08l0.02-0.1c0.01-0.05,0.02-0.11,0.02-0.16
	c0-0.09-0.02-0.18-0.03-0.26c0,0,0-0.02-0.01-0.04c0.04,0.06,0.09,0.12,0.2,0.11c0.23-0.02,0.96-0.68,1.16-0.95
	c0.03,0.02,0.08,0.06,0.08,0.06l0.1,0.11l0.06-0.09l0.14-0.18c0.1-0.1,0.21-0.22,0.27-0.39c0.05-0.01,0.23-0.05,0.32-0.08
	c0.03,0.06,0.07,0.1,0.1,0.13c0,0.01-0.02,0.08-0.02,0.08l0.1,0.03l0.09,0.02l0.03-0.1l0,0c0.05-0.03,0.08-0.1,0.1-0.14l0.02-0.08
	c0.01-0.01,0.16-0.15,0.16-0.15s0.01-0.01,0.02-0.01c0.03,0.01,0.07,0.02,0.07,0.02l0.02,0c0.05,0.01,0.24,0.22,0.28,0.3l0.08,0.18
	l0.06-0.18c0.02-0.08,0.07-0.14,0.14-0.17c0.11-0.05,0.26-0.02,0.34,0.02l0.04,0.02l0.05-0.04c0.06-0.05,0.61-0.21,0.71-0.22
	l0.45,0.03c0.18,0.03,0.37,0.05,0.56,0.02c0.26-0.05,0.5-0.2,0.74-0.34l0.4-0.22c0,0,0.55-0.18,0.55-0.18l0.56-0.18
	c0.37-0.18,0.74-0.36,1.02-0.58c0,0,0.61-0.52,0.61-0.52c-0.01,0,0.22-0.14,0.22-0.14c0.15-0.09,0.31-0.18,0.45-0.34
	c0.18-0.2,0.25-0.45,0.32-0.7l0.15-0.43l0.19-0.3c0.15-0.4,0.21-0.79,0.21-1.18c0-0.31-0.04-0.62-0.13-0.95c0,0-0.09-0.31-0.09-0.31
	c-0.01-0.02-0.29-0.38-0.29-0.38c-0.25-0.29-0.49-0.57-0.49-0.99c0-0.06,0.01-0.13,0.02-0.2l0.01-0.09l-0.49,0
	c0,0-0.01,0.04-0.02,0.06c-0.01-0.01-0.01-0.02-0.02-0.04c-0.19-0.16-0.2-0.26-0.21-0.45c0,0-0.02-0.22-0.03-0.26
	c0-0.02,0.05-0.18,0.05-0.18l-0.18-0.03l-0.03,0.06c0,0-0.01,0.03-0.01,0.05c-0.03,0-0.12-0.02-0.12-0.02s0.06,0.14,0.07,0.15
	c-0.01,0,0,0.01-0.02,0.01c-0.11,0-0.3-0.11-0.32-0.16l-0.02-0.04l-0.15-0.03l-0.02,0.06c-0.01,0.04-0.02,0.04-0.03,0.05
	c-0.01,0-0.02,0-0.02,0l-0.06-0.01c0,0,0,0.01-0.01,0.02c-0.08-0.14-0.15-0.24-0.21-0.28c0,0-0.01,0-0.02-0.01
	c0-0.02-0.01-0.04-0.02-0.05c-0.06-0.04-0.21,0.1-0.21,0.1C21.52,43.78,21.38,43.58,21.38,43.58L21.38,43.58z"/>
<polygon class="st0" points="191.91,52.4 191.91,37.31 178.43,37.31 178.43,39.08 189.11,39.08 189.11,52.4 187.1,52.4 187.1,44.42 
	184.31,44.42 184.31,52.4 182.39,52.4 182.39,44.42 179.59,44.42 179.59,52.4 176.62,52.4 176.62,54.18 193.63,54.18 193.63,52.4 
	191.91,52.4 "/>
<path class="st0" d="M129.73,47.4c-3.08,0-5.58,2.04-5.58,4.54c0,0.84,0.28,1.66,0.82,2.37c1.02,1.36,2.8,2.17,4.77,2.17
	c1.96,0,3.75-0.81,4.77-2.17c0.53-0.71,0.81-1.53,0.81-2.37c0-0.84-0.28-1.66-0.81-2.37C133.48,48.22,131.69,47.4,129.73,47.4
	L129.73,47.4z M129.73,54.71c-1,0-1.96-0.58-2.46-1.47c-0.22-0.4-0.34-0.84-0.34-1.29c0-0.45,0.11-0.89,0.34-1.29
	c0.5-0.89,1.46-1.47,2.45-1.47c1,0,1.96,0.58,2.46,1.47c0.22,0.4,0.33,0.84,0.33,1.29C132.52,53.44,131.24,54.71,129.73,54.71
	L129.73,54.71z"/>
<path class="st0" d="M128.78,44.78c0.87-0.9,1.34-2.08,1.34-3.32c0-1.24-0.47-2.42-1.34-3.32c-0.94-0.99-2.21-1.53-3.59-1.53
	c-2.72,0-4.94,2.17-4.94,4.84c0,1.24,0.48,2.41,1.34,3.32c0.95,0.98,2.23,1.52,3.6,1.52C126.57,46.31,127.84,45.77,128.78,44.78
	L128.78,44.78z M125.19,44.5c-0.5,0-0.98-0.25-1.36-0.7c-0.49-0.58-0.77-1.43-0.77-2.33c0-0.9,0.28-1.76,0.77-2.33
	c0.38-0.46,0.86-0.7,1.36-0.7c0.49,0,0.98,0.25,1.36,0.7c0.48,0.58,0.76,1.43,0.76,2.33C127.31,43.14,126.36,44.5,125.19,44.5
	L125.19,44.5z"/>
<polygon class="st0" points="135.17,40.71 135.17,36.74 132.38,36.74 132.38,47.25 135.17,47.25 135.17,42.5 137.76,42.5 
	137.76,40.71 135.17,40.71 "/>
<polygon class="st0" points="173.37,55.83 173.37,48.75 173.37,48.64 160.51,48.64 160.51,50.42 170.57,50.42 170.57,55.83 
	173.37,55.83 "/>
<path class="st0" d="M167.1,45.5c0.84-0.84,1.32-1.94,1.32-3.1c0-1.16-0.47-2.26-1.32-3.1c-0.93-0.92-2.18-1.42-3.53-1.42
	c-2.67,0-4.84,2.03-4.84,4.52c0,1.16,0.47,2.26,1.31,3.1c0.92,0.92,2.18,1.43,3.53,1.43C164.92,46.93,166.17,46.42,167.1,45.5
	L167.1,45.5z M163.57,45.28c-0.52,0-1.02-0.24-1.42-0.66c-0.51-0.55-0.8-1.34-0.8-2.19c0-0.85,0.29-1.65,0.8-2.19
	c0.4-0.43,0.9-0.66,1.42-0.66c0.52,0,1.03,0.24,1.42,0.66c0.51,0.54,0.8,1.34,0.8,2.19C165.79,44,164.79,45.28,163.57,45.28
	L163.57,45.28z"/>
<polygon class="st0" points="165.06,37.31 165.06,35.53 162.06,35.53 162.06,37.31 158.3,37.31 158.3,39.04 168.85,39.04 
	168.85,37.31 165.06,37.31 "/>
<polygon class="st0" points="173.37,40.68 173.37,36.74 170.57,36.74 170.57,47.48 173.37,47.48 173.37,42.46 175.95,42.46 
	175.95,40.68 173.37,40.68 "/>
<path class="st0" d="M110.07,47.95c-3.3,0-5.99,1.92-5.99,4.27c0,0.79,0.3,1.56,0.87,2.23c1.1,1.28,3,2.04,5.12,2.04
	c2.1,0,4.01-0.76,5.1-2.04c0.58-0.67,0.87-1.44,0.87-2.23c0-0.79-0.29-1.56-0.87-2.23C114.08,48.71,112.16,47.95,110.07,47.95
	L110.07,47.95z M110.07,54.73c-1.12,0-2.21-0.53-2.76-1.34c-0.26-0.36-0.39-0.76-0.39-1.17c0-0.41,0.13-0.81,0.39-1.18
	c0.55-0.81,1.64-1.34,2.76-1.34c1.11,0,2.19,0.53,2.75,1.34c0.26,0.37,0.38,0.77,0.38,1.18C113.2,53.58,111.77,54.73,110.07,54.73
	L110.07,54.73z"/>
<path class="st0" d="M116.89,36.97v1.78h-4.71c1.15,3.22,5.31,3.7,5.31,3.7v1.75c0,0-5.01-0.23-7.44-3.88
	c-2.43,3.65-7.45,3.88-7.45,3.88v-1.75c0,0,4.16-0.48,5.31-3.7h-4.7v-1.78H116.89L116.89,36.97z"/>
<polygon class="st0" points="111.44,48.61 111.44,46.82 118.56,46.82 118.56,45.04 101.54,45.04 101.54,46.82 108.64,46.82 
	108.64,48.61 111.44,48.61 "/>
<polygon class="st0" points="149.7,48.53 142.82,48.53 142.82,39.08 147.3,39.08 147.3,37.31 140.02,37.31 140.02,50.3 149.7,50.3 
	149.7,48.53 "/>
<polygon class="st0" points="152.72,36.74 152.72,42.29 151.47,42.29 151.47,36.74 148.83,36.74 148.83,55.84 151.47,55.84 
	151.47,44.11 152.72,44.11 152.72,55.84 155.37,55.84 155.37,36.74 152.72,36.74 "/>
<path class="st0" d="M106.16,67.36v0.32c-0.01,0.18-0.02,0.34-0.05,0.5c-0.13,0.58-0.61,0.91-1.34,0.91c-0.47,0-0.87-0.16-1.1-0.42
	c-0.12-0.13-0.2-0.3-0.24-0.49c-0.03-0.16-0.04-0.32-0.05-0.5v-0.32v-4.09v-0.32c0.01-0.18,0.02-0.34,0.05-0.5
	c0.13-0.58,0.61-0.9,1.33-0.9c0.48,0,0.88,0.14,1.1,0.41c0.12,0.14,0.2,0.3,0.24,0.49c0.03,0.15,0.04,0.32,0.05,0.5v0.32v1.18H105
	v-1.43c0-0.12,0-0.19-0.01-0.26c-0.01-0.13-0.1-0.21-0.22-0.21c-0.2,0-0.24,0.09-0.24,0.47v4.6c0,0.38,0.04,0.47,0.24,0.47
	c0.19,0,0.23-0.08,0.23-0.47v-1.53h1.15V67.36L106.16,67.36z"/>
<polygon class="st0" points="108.27,61.61 109.4,61.61 109.4,64.75 109.87,64.75 109.87,61.61 111,61.61 111,69.01 109.87,69.01 
	109.87,65.75 109.4,65.75 109.4,69.01 108.27,69.01 108.27,61.61 "/>
<path class="st0" d="M114.37,61.61v6c0,0.38,0.04,0.47,0.23,0.47c0.2,0,0.24-0.08,0.24-0.47v-6h1.14v5.74v0.32
	c0,0.18-0.02,0.34-0.06,0.5c-0.12,0.58-0.6,0.91-1.33,0.91c-0.48,0-0.86-0.16-1.1-0.42c-0.11-0.13-0.19-0.3-0.23-0.49
	c-0.03-0.16-0.06-0.32-0.06-0.5v-0.32v-5.74H114.37L114.37,61.61z"/>
<polygon class="st0" points="118.22,61.61 119.42,61.61 120.07,65.37 120.07,61.61 121.11,61.61 121.11,69.01 119.91,69.01 
	119.27,65.26 119.27,69.01 118.22,69.01 118.22,61.61 "/>
<path class="st0" d="M124.88,64.17v-1.16c0-0.12,0-0.19-0.01-0.26c-0.01-0.13-0.1-0.21-0.22-0.21c-0.2,0-0.24,0.09-0.24,0.47v4.6
	c0,0.38,0.04,0.47,0.24,0.47c0.19,0,0.23-0.08,0.23-0.47v-1.45h-0.22v-1.01h1.35v3.86h-0.61l-0.08-0.29
	c-0.16,0.26-0.39,0.37-0.75,0.37c-0.4,0-0.81-0.17-1.02-0.42c-0.12-0.12-0.2-0.3-0.24-0.49c-0.03-0.16-0.04-0.32-0.06-0.5v-0.32
	v-4.09v-0.32c0.01-0.18,0.02-0.34,0.06-0.5c0.12-0.56,0.61-0.9,1.32-0.9c0.47,0,0.86,0.14,1.09,0.41c0.12,0.14,0.2,0.3,0.24,0.49
	c0.04,0.24,0.06,0.29,0.06,0.82v0.91H124.88L124.88,64.17z"/>
<path class="st0" d="M132.88,66.35l0.21-2.7l0.27,2.7H132.88L132.88,66.35z M131.56,69.01h1.12l0.13-1.68h0.64l0.17,1.68h1.13
	l-0.89-7.39h-1.54L131.56,69.01L131.56,69.01z"/>
<polygon class="st0" points="136.44,61.61 137.64,61.61 138.29,65.37 138.29,61.61 139.33,61.61 139.33,69.01 138.13,69.01 
	137.49,65.26 137.49,69.01 136.44,69.01 136.44,61.61 "/>
<path class="st0" d="M143.05,64.17v-1.16c0-0.12,0-0.19-0.01-0.26c-0.01-0.13-0.1-0.21-0.22-0.21c-0.2,0-0.24,0.09-0.24,0.47v4.6
	c0,0.38,0.04,0.47,0.24,0.47c0.19,0,0.23-0.08,0.23-0.47v-1.45h-0.22v-1.01h1.35v3.86h-0.61l-0.08-0.29
	c-0.16,0.26-0.39,0.37-0.75,0.37c-0.4,0-0.81-0.17-1.02-0.42c-0.12-0.12-0.2-0.3-0.24-0.49c-0.03-0.16-0.04-0.32-0.06-0.5v-0.32
	v-4.09v-0.32c0.01-0.18,0.02-0.34,0.06-0.5c0.12-0.56,0.61-0.9,1.32-0.9c0.47,0,0.86,0.14,1.09,0.41c0.12,0.14,0.2,0.3,0.24,0.49
	c0.04,0.24,0.06,0.29,0.06,0.82v0.91H143.05L143.05,64.17z"/>
<path class="st0" d="M151.27,61.59v6.01c0,0.38,0.05,0.47,0.24,0.47c0.2,0,0.24-0.08,0.24-0.47v-6.01h1.15v5.76v0.32
	c0,0.18-0.02,0.34-0.06,0.5c-0.12,0.58-0.6,0.91-1.33,0.91c-0.48,0-0.87-0.16-1.1-0.42c-0.11-0.13-0.19-0.3-0.23-0.49
	c-0.03-0.16-0.05-0.32-0.05-0.5v-0.32v-5.76H151.27L151.27,61.59z"/>
<polygon class="st0" points="155.13,61.59 156.34,61.59 156.99,65.37 156.99,61.59 158.03,61.59 158.03,69.01 156.83,69.01 
	156.18,65.25 156.18,69.01 155.13,69.01 155.13,61.59 "/>
<polygon class="st0" points="160.26,61.59 161.39,61.59 161.39,69.01 160.26,69.01 160.26,61.59 "/>
<polygon class="st0" points="163.18,61.59 164.31,61.59 164.75,66.32 165.13,61.59 166.26,61.59 165.43,69.01 164.05,69.01 
	163.18,61.59 "/>
<polygon class="st0" points="168.04,61.59 170.19,61.59 170.19,62.61 169.18,62.61 169.18,64.74 170.19,64.74 170.19,65.74 
	169.18,65.74 169.18,68 170.19,68 170.19,69.01 168.04,69.01 168.04,61.59 "/>
<path class="st0" d="M173.35,62.61c0.38,0,0.46,0.08,0.46,0.42v1.4c0,0.34-0.08,0.42-0.46,0.42V62.61L173.35,62.61z M172.22,69.01
	h1.13v-3.17c0.38,0,0.46,0.07,0.46,0.41v2.06c0,0.35,0.03,0.51,0.12,0.7h1.11c-0.09-0.23-0.1-0.35-0.1-0.71v-1.86
	c0-0.47-0.09-0.75-0.31-0.9c-0.09-0.07-0.13-0.09-0.3-0.16c0.35-0.17,0.47-0.3,0.53-0.58c0.05-0.2,0.08-0.53,0.08-0.78v-0.87
	c0-0.72-0.09-1.05-0.31-1.27c-0.25-0.23-0.49-0.31-1.07-0.31h-1.34V69.01L172.22,69.01z"/>
<path class="st0" d="M178.07,66.28v1.32c0,0.13,0,0.2,0.01,0.26c0.01,0.13,0.09,0.21,0.22,0.21c0.2,0,0.25-0.09,0.25-0.47v-0.89
	c0-0.44-0.04-0.56-0.37-0.82l-0.6-0.55c-0.52-0.46-0.64-0.71-0.64-1.36v-0.74v-0.33c0.01-0.17,0.02-0.34,0.06-0.5
	c0.12-0.56,0.61-0.9,1.3-0.9c0.45,0,0.85,0.15,1.07,0.41c0.11,0.13,0.2,0.3,0.24,0.49c0.05,0.24,0.05,0.29,0.05,0.83v0.9h-1.1v-1.16
	c0-0.38-0.04-0.47-0.25-0.47c-0.19,0-0.23,0.09-0.23,0.47v0.76c0,0.4,0.04,0.48,0.39,0.79l0.6,0.53c0.5,0.43,0.61,0.71,0.61,1.42
	v0.87v0.32c0,0.18-0.02,0.34-0.06,0.5c-0.11,0.57-0.6,0.91-1.31,0.91c-0.44,0-0.84-0.16-1.06-0.42c-0.13-0.12-0.2-0.3-0.25-0.49
	c-0.03-0.16-0.04-0.32-0.06-0.5v-0.32v-1.07H178.07L178.07,66.28z"/>
<polygon class="st0" points="181.79,61.59 182.92,61.59 182.92,69.01 181.79,69.01 181.79,61.59 "/>
<polygon class="st0" points="185.57,62.61 184.79,62.61 184.79,61.59 187.48,61.59 187.48,62.61 186.68,62.61 186.68,69.01 
	185.57,69.01 185.57,62.61 "/>
<polygon class="st0" points="190.25,61.59 190.7,63.92 191.12,61.59 192.25,61.59 191.29,66.25 191.29,69.01 190.13,69.01 
	190.13,66.22 189.08,61.59 190.25,61.59 "/>
<line class="st2" x1="-1.9" y1="75.79" x2="47.51" y2="75.79"/>
</svg>
