<?xml version="1.0" encoding="utf-8"?>
<!-- Generator: Adobe Illustrator 16.0.0, SVG Export Plug-In . SVG Version: 6.00 Build 0)  -->
<!DOCTYPE svg PUBLIC "-//W3C//DTD SVG 1.1//EN" "http://www.w3.org/Graphics/SVG/1.1/DTD/svg11.dtd">
<svg version="1.1" id="Layer_1" xmlns="http://www.w3.org/2000/svg" xmlns:xlink="http://www.w3.org/1999/xlink" x="0px" y="0px"
	 width="500px" height="480px" viewBox="0 0 500 480" enable-background="new 0 0 500 480" xml:space="preserve">
<g>
	<g>
		<path fill="#FFFFFF" d="M245.103,4.302L203.58,4.166v59.981l-49.796-0.028v0.028h-0.104v142.752l91.423-0.135
			c55.907,0,101.218-45.315,101.218-101.228C346.32,49.626,301.01,4.302,245.103,4.302z M226.479,86.863l15.817-0.075
			c10.354,0,18.742,8.392,18.742,18.749c0,10.363-8.389,18.754-18.742,18.754h-15.817V86.863z M245.779,183.433l-68.54,0.015V86.863
			h26.341l-0.03,60.33l39.391-0.158c22.916,0,41.497-18.576,41.497-41.498c0-22.916-18.581-41.492-41.497-41.492h-16.461V27.646
			h19.3c43.021,0,77.899,34.864,77.899,77.891C323.679,148.569,288.801,183.433,245.779,183.433z"/>
	</g>
	<g>
		<g>
			<path fill="#FFFFFF" d="M54.231,349.252H15.425v-46.416h37.689v-10.33c0-5.143-5.142-5.143-5.142-5.143H0v77.514h59.373v-10.482
				C59.373,349.252,54.231,349.252,54.231,349.252z"/>
			<path fill="#FFFFFF" d="M105.311,268.064H95.027v48.254H79.746V276.27c0-5.143-5.142-5.143-5.142-5.143H64.321v130.666h10.284
				c5.142,0,5.142-5.143,5.142-5.143v-64.861h15.281v79.5h10.283c5.128,0,5.142-5.115,5.142-5.137V273.207
				C110.452,268.064,105.311,268.064,105.311,268.064z"/>
			<path fill="#FFFFFF" d="M242.218,334.834h-46.784v-10.572h28.548v-10.33l0,0c0-5.143-5.142-5.143-5.142-5.143h-53.996v-20.064
				h58.849v-10.482h-0.007c0-5.143-5.143-5.143-5.143-5.143h-69.124v51.162h30.151v10.572h-52.22v10.176l0,0
				c0,5.143,5.142,5.143,5.142,5.143h114.867v-10.178l0,0C247.359,334.834,242.218,334.834,242.218,334.834z"/>
			<path fill="#FFFFFF" d="M362.58,268.064h-10.134v23.896h-22.679v15.318h22.679v11.947h-22.679v15.473h22.679v20.986h10.127
				c5.153,0,5.142-5.143,5.142-5.143h0.012v-77.336h-0.005C367.722,268.064,362.58,268.064,362.58,268.064z"/>
			<path fill="#FFFFFF" d="M322.905,338.75L322.905,338.75v-56.51l0,0c0-5.137-5.142-5.137-5.142-5.137H307.48v20.064h-28.376
				v-14.945c-0.016-5.119-5.142-5.119-5.142-5.119h-10.286v66.787h54.087C322.905,343.891,322.905,338.75,322.905,338.75z
				 M307.48,328.572h-28.376v-16.086h28.376V328.572z"/>
			<path fill="#FFFFFF" d="M454.018,353.117h29.592v22.748H493.7c4.892,0,5.13-4.643,5.139-5.096v-97.111h-0.027
				c0-5.141-5.142-5.141-5.142-5.141h-10.061v69.635h-29.592V353.117z"/>
			<path fill="#FFFFFF" d="M500,406.146L500,406.146v-10.432h-45.982v-16.693c0-5.143-5.142-5.143-5.142-5.143h-10.381v37.41h56.363
				C500,411.289,500,406.146,500,406.146z"/>
			<path fill="#FFFFFF" d="M444.732,338.152h-55.227v9.822c0,5.143,5.142,5.143,5.142,5.143l0,0h22.089c1.886,0,3.627,0,5.368,0
				l-17.406,34.346h12.806c2.568,0,3.885-2.619,3.885-2.619l0,0l16.092-32.035L444.732,338.152z"/>
			<path fill="#FFFFFF" d="M428.631,329.902c15.687,0,28.403-12.717,28.403-28.4c0-15.686-12.717-28.402-28.403-28.402
				s-28.401,12.717-28.401,28.402C400.229,317.186,412.944,329.902,428.631,329.902z M428.631,287.299
				c7.846,0,14.201,6.359,14.201,14.203c0,7.842-6.355,14.201-14.201,14.201c-7.841,0-14.199-6.359-14.199-14.201
				C414.432,293.658,420.79,287.299,428.631,287.299z"/>
			<path fill="#FFFFFF" d="M330.182,352.16c-17.259,0-31.251,13.99-31.251,31.252c0,17.258,13.992,31.246,31.251,31.246
				c17.258,0,31.25-13.988,31.25-31.246C361.432,366.15,347.439,352.16,330.182,352.16z M330.182,400.459
				c-9.416,0-17.05-7.631-17.05-17.047s7.634-17.053,17.05-17.053c9.417,0,17.048,7.637,17.048,17.053
				S339.599,400.459,330.182,400.459z"/>
			<path fill="#FFFFFF" d="M187.865,354.766c-16.455,0-29.795,13.338-29.795,29.793s13.34,29.797,29.795,29.797
				c16.453,0,29.795-13.342,29.795-29.797S204.318,354.766,187.865,354.766z M187.865,400.152c-8.612,0-15.593-6.979-15.593-15.594
				c0-8.609,6.98-15.594,15.593-15.594s15.593,6.984,15.593,15.594C203.458,393.174,196.478,400.152,187.865,400.152z"/>
		</g>
		<g>
			<path fill="#FFFFFF" d="M24.632,444.898c-1.501-1.584-3.291-2.82-5.365-3.715c-2.079-0.891-4.361-1.338-6.848-1.338H0v35.381
				h12.418c2.487,0,4.769-0.457,6.848-1.365c2.074-0.908,3.864-2.154,5.365-3.738c1.501-1.586,2.662-3.455,3.482-5.613
				c0.818-2.152,1.226-4.479,1.226-6.973v-0.104c0-2.494-0.408-4.811-1.226-6.949C27.294,448.344,26.133,446.484,24.632,444.898z
				 M22.017,457.639c0,1.58-0.233,3.016-0.704,4.293c-0.471,1.283-1.124,2.393-1.958,3.338c-0.834,0.941-1.841,1.67-3.025,2.172
				c-1.179,0.51-2.484,0.762-3.911,0.762H7.006v-21.332h5.412c1.427,0,2.732,0.26,3.911,0.783c1.184,0.521,2.191,1.254,3.025,2.199
				c0.834,0.941,1.487,2.07,1.958,3.385s0.704,2.746,0.704,4.299V457.639z"/>
			<path fill="#FFFFFF" d="M51.119,441.748c-0.82-2.154-3.025-2.154-3.025-2.154h-4.256l-13.645,35.633h4.769
				c2.373,0,3.163-2.152,3.163-2.152l0,0l2.121-5.781h13.465l2.911,7.934h7.326l-12.824-33.479H51.119z M42.747,460.418
				l4.232-11.473l4.229,11.473H42.747z"/>
			<path fill="#FFFFFF" d="M92.232,470.453c0-2.152-2.154-2.152-2.154-2.152H74.945v-7.432h15.013v-4.768
				c0.002-2.154-2.151-2.154-2.151-2.154H74.945v-7.18h17.059V442l0,0c0-2.154-2.151-2.154-2.151-2.154H68.032v35.381h24.201
				V470.453z"/>
			<path fill="#FFFFFF" d="M123.144,470.123c1.501-1.586,2.659-3.455,3.479-5.613c0.82-2.152,1.229-4.479,1.229-6.973v-0.104
				c0-2.494-0.408-4.811-1.229-6.949c-0.82-2.141-1.979-4-3.479-5.586c-1.501-1.584-3.291-2.82-5.368-3.715
				c-2.079-0.891-4.36-1.338-6.848-1.338H98.509v35.381h12.419c2.487,0,4.769-0.457,6.848-1.365
				C119.853,472.953,121.643,471.707,123.144,470.123z M114.841,467.441c-1.182,0.51-2.486,0.762-3.913,0.762h-5.412v-21.332h5.412
				c1.427,0,2.731,0.26,3.913,0.783c1.182,0.521,2.191,1.254,3.025,2.199c0.832,0.941,1.485,2.07,1.956,3.385
				s0.704,2.746,0.704,4.299v0.102c0,1.58-0.233,3.016-0.704,4.293c-0.471,1.283-1.124,2.393-1.956,3.338
				C117.032,466.211,116.022,466.939,114.841,467.441z"/>
			<path fill="#FFFFFF" d="M198.445,439.846L198.445,439.846h-4.76v21.783L180.236,442c-1.473-2.154-3.678-2.154-3.678-2.154h-4.256
				v35.381h4.762c2.153,0,2.153-2.152,2.153-2.152v-20.34l15.423,22.492h5.958V442C200.599,439.846,198.445,439.846,198.445,439.846
				z"/>
			<path fill="#FFFFFF" d="M149.787,475.834c10.106,0,18.297-8.191,18.297-18.297c0-10.107-8.19-18.297-18.297-18.297
				s-18.297,8.189-18.297,18.297C131.49,467.643,139.681,475.834,149.787,475.834z M149.787,446.424
				c6.14,0,11.113,4.973,11.113,11.113c0,6.139-4.974,11.113-11.113,11.113s-11.113-4.975-11.113-11.113
				C138.674,451.396,143.647,446.424,149.787,446.424z"/>
			<path fill="#FFFFFF" d="M240.388,453.947h-5.568h-7.649c-2.151,0-2.151,2.154-2.151,2.154v4.768h9.885
				c-1.417,4.514-5.627,7.781-10.603,7.781c-6.138,0-11.116-4.975-11.116-11.113c0-6.141,4.979-11.113,11.116-11.113
				c1.479,0,2.888,0.293,4.177,0.82v-0.006c0.027,0.02,0.056,0.029,0.084,0.043c0.128,0.051,0.251,0.107,0.375,0.162
				c1.82,0.686,3.069-0.572,3.069-0.572l3.641-3.684c-3.118-2.471-7.06-3.947-11.346-3.947c-10.106,0-18.3,8.189-18.3,18.297
				c0,10.105,8.193,18.297,18.3,18.297c10.104,0,18.297-8.191,18.297-18.297c0-0.5-0.026-0.994-0.063-1.482
				C242.213,453.951,240.388,453.947,240.388,453.947z"/>
			<g>
				<path fill="#FFFFFF" d="M288.377,439.846h-4.671v13.998h-12.92v-11.662c0-2.336-2.333-2.336-2.333-2.336h-4.674v35.381h4.669
					c2.336,0,2.336-2.334,2.336-2.334h0.002v-11.869h12.92v14.203h4.671c2.335,0,2.335-2.334,2.335-2.334l0,0v-30.711
					C290.712,439.846,288.377,439.846,288.377,439.846z"/>
				<path fill="#FFFFFF" d="M360.385,457.766c-0.867-0.826-1.93-1.535-3.193-2.127c-1.261-0.586-2.696-1.119-4.31-1.59
					c-1.368-0.404-2.501-0.76-3.396-1.063c-0.9-0.303-1.606-0.625-2.121-0.959c-0.521-0.336-0.877-0.719-1.072-1.139
					c-0.201-0.42-0.299-0.918-0.299-1.492v-0.102c0-0.871,0.343-1.609,1.025-2.195c0.681-0.592,1.704-0.887,3.067-0.887
					c1.366,0,2.732,0.313,4.098,0.938c0.723,0.33,1.452,0.727,2.191,1.184v-0.004c1.99,1.371,3.109-0.424,3.109-0.43l2.521-4.064
					c-1.636-1.445-3.434-2.559-5.389-3.334c-1.958-0.773-4.103-1.164-6.438-1.164c-1.637,0-3.138,0.256-4.496,0.76
					c-1.359,0.504-2.529,1.23-3.508,2.172c-0.979,0.947-1.741,2.064-2.284,3.361c-0.541,1.301-0.812,2.754-0.812,4.373v0.102
					c0,1.754,0.252,3.217,0.751,4.396c0.503,1.18,1.209,2.168,2.121,2.959c0.913,0.789,2.022,1.455,3.33,1.996
					s2.767,1.025,4.38,1.463c1.338,0.373,2.424,0.729,3.261,1.064c0.837,0.334,1.489,0.676,1.96,1.012
					c0.471,0.334,0.793,0.699,0.961,1.086c0.167,0.387,0.249,0.834,0.249,1.338v0.102c0,1.045-0.403,1.865-1.205,2.453
					c-0.804,0.586-1.935,0.885-3.389,0.885c-1.82,0-3.496-0.387-5.028-1.166c-1.014-0.512-2.009-1.156-2.99-1.906v0.014
					c-1.484-1.234-2.563,0.191-2.573,0.201l-3.058,4.07c1.911,1.92,4.034,3.342,6.37,4.27c2.335,0.928,4.715,1.389,7.142,1.389
					c1.729,0,3.303-0.242,4.725-0.732c1.422-0.488,2.643-1.193,3.669-2.121c1.022-0.928,1.822-2.074,2.394-3.439
					c0.573-1.361,0.859-2.922,0.859-4.676v-0.098c0-1.553-0.221-2.881-0.661-3.994C361.904,459.561,361.252,458.59,360.385,457.766z
					"/>
				<path fill="#FFFFFF" d="M391.933,443.23c-1.047-1.078-2.319-1.912-3.82-2.5c-1.501-0.592-3.208-0.885-5.119-0.885h-13.01v35.381
					h4.671c2.335,0,2.335-2.334,2.335-2.334v-8.279h5.321c1.788,0,3.466-0.262,5.027-0.783c1.562-0.523,2.926-1.307,4.093-2.35
					c1.168-1.045,2.084-2.346,2.753-3.893c0.667-1.553,1-3.357,1-5.412v-0.098c0-1.822-0.279-3.482-0.839-4.979
					C393.78,445.598,392.979,444.311,391.933,443.23z M388.089,452.33c0,1.514-0.485,2.787-1.455,3.816
					c-0.974,1.025-2.337,1.539-4.097,1.539h-5.548v-10.814h5.412c1.758,0,3.146,0.457,4.163,1.365
					c1.016,0.91,1.524,2.242,1.524,3.99V452.33z"/>
				<path fill="#FFFFFF" d="M405.36,439.846h-4.671v35.381h4.671c2.335,0,2.335-2.334,2.335-2.334v-30.711
					C407.695,439.846,405.36,439.846,405.36,439.846z"/>
				<path fill="#FFFFFF" d="M430.076,472.893v-25.867h9.691v-4.844c0-2.336-2.336-2.336-2.336-2.336h-24.049v7.18h9.688v28.201
					h4.671C430.076,475.227,430.076,472.893,430.076,472.893z"/>
				<path fill="#FFFFFF" d="M497.684,468.203h-13.559v-26.021c0-2.336-2.336-2.336-2.336-2.336h-4.671v35.381H500v-4.969
					C499.82,468.207,497.684,468.203,497.684,468.203z"/>
				<path fill="#FFFFFF" d="M315.241,439.24c-10.106,0-18.299,8.189-18.299,18.297c0,10.105,8.192,18.297,18.299,18.297
					s18.297-8.191,18.297-18.297C333.538,447.43,325.348,439.24,315.241,439.24z M315.241,468.65
					c-6.139,0-11.115-4.975-11.115-11.113c0-6.141,4.977-11.113,11.115-11.113c6.138,0,11.113,4.973,11.113,11.113
					C326.354,463.676,321.379,468.65,315.241,468.65z"/>
				<path fill="#FFFFFF" d="M460.038,441.742c-0.82-2.152-3.027-2.152-3.027-2.152h-4.254l-13.646,35.637h4.769
					c2.373,0,3.163-2.152,3.163-2.152l2.123-5.781h13.463l2.913,7.934h7.324l-12.824-33.484H460.038z M451.666,460.418l4.23-11.479
					l4.23,11.479H451.666z"/>
			</g>
		</g>
	</g>
</g>
</svg>
