<?xml version="1.0" encoding="utf-8"?>
<!-- Generator: Adobe Illustrator 16.0.0, SVG Export Plug-In . SVG Version: 6.00 Build 0)  -->
<!DOCTYPE svg PUBLIC "-//W3C//DTD SVG 1.1//EN" "http://www.w3.org/Graphics/SVG/1.1/DTD/svg11.dtd">
<svg version="1.1" id="Layer_3" xmlns="http://www.w3.org/2000/svg" xmlns:xlink="http://www.w3.org/1999/xlink" x="0px" y="0px"
	 width="150px" height="150px" viewBox="-572.455 -456.164 150 150" enable-background="new -572.455 -456.164 150 150"
	 xml:space="preserve">
<g>
	<g>
		<path fill="none" stroke="#000000" stroke-width="2" stroke-linecap="round" stroke-linejoin="round" stroke-miterlimit="10" d="
			M-843.225-603.443v9.5c0,0.766-0.623,1.387-1.387,1.387h-29.974c-6.51,0.018-11.792,5.328-11.774,11.839
			c0.012,4.217,2.245,7.919,5.587,9.999c-0.769,0.478-1.489,1.049-2.143,1.707c-2.229,2.236-3.452,5.208-3.443,8.366
			c0.009,3.154,1.246,6.115,3.481,8.339c0.643,0.639,1.347,1.195,2.099,1.665c-0.767,0.476-1.484,1.046-2.137,1.702
			c-2.229,2.237-3.452,5.208-3.443,8.367c0.009,3.153,1.246,6.114,3.481,8.339c2.228,2.215,5.183,3.435,8.325,3.435h0.025h0.004
			h21.094c-2.187,2.229-3.39,5.172-3.381,8.293v12.629"/>
		<path fill="none" stroke="#000000" stroke-width="2" stroke-linecap="round" stroke-linejoin="round" stroke-miterlimit="10" d="
			M-839.685-507.876v-9.499c0-0.765,0.623-1.388,1.387-1.388h29.974c6.51-0.018,11.792-5.328,11.773-11.839
			c-0.011-4.22-2.247-7.923-5.593-10.003c3.366-2.09,5.606-5.824,5.595-10.068l0,0c-0.01-3.154-1.246-6.115-3.481-8.34
			c-0.645-0.641-1.351-1.199-2.106-1.667c3.361-2.092,5.598-5.824,5.587-10.065c-0.01-3.154-1.246-6.115-3.481-8.339
			c-2.229-2.216-5.183-3.434-8.319-3.434h-0.035h-21.095c2.186-2.228,3.387-5.167,3.381-8.29c0-0.001,0-0.002,0-0.003v-12.63"/>
	</g>
	
		<line fill="none" stroke="#000000" stroke-width="2" stroke-linecap="round" stroke-linejoin="round" stroke-miterlimit="10" x1="-872.643" y1="-540.605" x2="-802.144" y2="-540.605"/>
	
		<line fill="none" stroke="#000000" stroke-width="2" stroke-linecap="round" stroke-linejoin="round" stroke-miterlimit="10" x1="-880.779" y1="-550.642" x2="-810.28" y2="-550.642"/>
	
		<line fill="none" stroke="#000000" stroke-width="2" stroke-linecap="round" stroke-linejoin="round" stroke-miterlimit="10" x1="-872.636" y1="-560.681" x2="-802.136" y2="-560.681"/>
	
		<line fill="none" stroke="#000000" stroke-width="2" stroke-linecap="round" stroke-linejoin="round" stroke-miterlimit="10" x1="-880.773" y1="-570.719" x2="-810.273" y2="-570.719"/>
	
		<line fill="none" stroke="#000000" stroke-width="2" stroke-linecap="round" stroke-linejoin="round" stroke-miterlimit="10" x1="-872.636" y1="-582.525" x2="-829.479" y2="-582.525"/>
	
		<line fill="none" stroke="#000000" stroke-width="2" stroke-linecap="round" stroke-linejoin="round" stroke-miterlimit="10" x1="-853.43" y1="-528.8" x2="-810.272" y2="-528.8"/>
</g>
<g>
	<path fill="none" stroke="#000000" stroke-width="2" stroke-linecap="round" stroke-linejoin="round" stroke-miterlimit="10" d="
		M-637.006-591.507c-9.708-5.361-22.868-3.375-31.021,3.966c-8.153-7.341-21.313-9.327-31.022-3.966
		c-8.494,4.679-13.772,13.596-13.772,23.28c0,2.8,0.458,5.561,1.348,8.215c4.18,18.92,40.339,41.808,41.877,42.782
		c0.481,0.299,1.021,0.455,1.569,0.455c0.548,0,1.088-0.156,1.568-0.455c1.539-0.974,37.697-23.862,41.878-42.782
		c0.89-2.655,1.348-5.416,1.348-8.215C-623.233-577.911-628.512-586.828-637.006-591.507z"/>
	
		<polyline fill="none" stroke="#000000" stroke-width="2" stroke-linecap="round" stroke-linejoin="round" stroke-miterlimit="10" points="
		-721.676,-553.201 -687.183,-553.201 -678.65,-567.273 -670.116,-543.506 -661.582,-558.558 -649.444,-558.558 	"/>
</g>
<g>
	
		<rect x="-480.439" y="-602.507" transform="matrix(0.7071 0.7071 -0.7071 0.7071 -550.9672 159.1865)" fill="none" stroke="#000000" stroke-width="2" stroke-linecap="round" stroke-linejoin="round" stroke-miterlimit="10" width="25.594" height="34.023"/>
	
		<rect x="-540.087" y="-542.86" transform="matrix(0.7071 0.7071 -0.7071 0.7071 -526.2704 218.8333)" fill="none" stroke="#000000" stroke-width="2" stroke-linecap="round" stroke-linejoin="round" stroke-miterlimit="10" width="25.593" height="34.024"/>
	
		<rect x="-508.684" y="-570.072" transform="matrix(0.7071 0.7071 -0.7071 0.7071 -536.7577 193.4692)" fill="none" stroke="#000000" stroke-width="2" stroke-linecap="round" stroke-linejoin="round" stroke-miterlimit="10" width="13.518" height="37.719"/>
	
		<line fill="none" stroke="#000000" stroke-width="2" stroke-linecap="round" stroke-linejoin="round" stroke-miterlimit="10" x1="-493.709" y1="-587.505" x2="-465.744" y2="-559.539"/>
	
		<line fill="none" stroke="#000000" stroke-width="2" stroke-linecap="round" stroke-linejoin="round" stroke-miterlimit="10" x1="-529.299" y1="-551.915" x2="-501.333" y2="-523.949"/>
	
		<line fill="none" stroke="#000000" stroke-width="2" stroke-linecap="round" stroke-linejoin="round" stroke-miterlimit="10" x1="-479.286" y1="-591.949" x2="-461.189" y2="-573.852"/>
	
		<line fill="none" stroke="#000000" stroke-width="2" stroke-linecap="round" stroke-linejoin="round" stroke-miterlimit="10" x1="-506.751" y1="-565.313" x2="-487.825" y2="-546.387"/>
	
		<line fill="none" stroke="#000000" stroke-width="2" stroke-linecap="round" stroke-linejoin="round" stroke-miterlimit="10" x1="-515.735" y1="-556.328" x2="-496.81" y2="-537.403"/>
</g>
<g>
	<path fill="none" stroke="#000000" stroke-width="2" stroke-linecap="round" stroke-linejoin="round" stroke-miterlimit="10" d="
		M-336.143-521.231c2.303,3.55,7.564,6.034,13.688,6.034s11.386-2.483,13.688-6.034c-1.315-1.365-2.129-3.217-2.129-5.262
		c0-0.071,0.009-0.139,0.011-0.21c-2.738,2.26-6.9,3.707-11.571,3.707s-8.833-1.446-11.571-3.707
		c0.002,0.071,0.011,0.139,0.011,0.21C-334.014-524.448-334.828-522.596-336.143-521.231z"/>
	<path fill="none" stroke="#000000" stroke-width="2" stroke-linecap="round" stroke-linejoin="round" stroke-miterlimit="10" d="
		M-308.766-521.231c-2.303,3.55-7.564,6.034-13.688,6.034s-11.386-2.483-13.688-6.034c-1.38,1.432-3.315,2.327-5.46,2.327v15.066
		h5.752c2.436,3.323,7.519,5.609,13.396,5.609c5.878,0,10.96-2.287,13.396-5.609h5.752v-15.066
		C-305.451-518.904-307.386-519.799-308.766-521.231z"/>
	
		<line fill="none" stroke="#000000" stroke-width="2" stroke-linecap="round" stroke-linejoin="round" stroke-miterlimit="10" x1="-350.167" y1="-515.197" x2="-341.604" y2="-515.197"/>
	
		<line fill="none" stroke="#000000" stroke-width="2" stroke-linecap="round" stroke-linejoin="round" stroke-miterlimit="10" x1="-350.167" y1="-507.537" x2="-341.604" y2="-507.537"/>
	
		<line fill="none" stroke="#000000" stroke-width="2" stroke-linecap="round" stroke-linejoin="round" stroke-miterlimit="10" x1="-303.306" y1="-515.197" x2="-294.742" y2="-515.197"/>
	
		<line fill="none" stroke="#000000" stroke-width="2" stroke-linecap="round" stroke-linejoin="round" stroke-miterlimit="10" x1="-303.306" y1="-507.537" x2="-294.742" y2="-507.537"/>
	<path fill="none" stroke="#000000" stroke-width="2" stroke-linecap="round" stroke-linejoin="round" stroke-miterlimit="10" d="
		M-341.604-613.091v10.184h5.752c2.436,3.323,7.519,5.609,13.396,5.609c5.878,0,10.96-2.287,13.396-5.609h5.752v-10.184"/>
	
		<line fill="none" stroke="#000000" stroke-width="2" stroke-linecap="round" stroke-linejoin="round" stroke-miterlimit="10" x1="-350.167" y1="-606.607" x2="-341.604" y2="-606.607"/>
	
		<line fill="none" stroke="#000000" stroke-width="2" stroke-linecap="round" stroke-linejoin="round" stroke-miterlimit="10" x1="-303.306" y1="-606.607" x2="-294.742" y2="-606.607"/>
	<path fill="none" stroke="#000000" stroke-width="2" stroke-linecap="round" stroke-linejoin="round" stroke-miterlimit="10" d="
		M-336.143-545.998c2.303,3.55,7.564,6.033,13.688,6.033s11.386-2.482,13.688-6.033c-1.315-1.364-2.129-3.217-2.129-5.262
		c0-0.071,0.009-0.139,0.011-0.209c-2.738,2.259-6.9,3.707-11.571,3.707s-8.833-1.447-11.571-3.707
		c0.002,0.07,0.011,0.138,0.011,0.209C-334.014-549.215-334.828-547.362-336.143-545.998z"/>
	<path fill="none" stroke="#000000" stroke-width="2" stroke-linecap="round" stroke-linejoin="round" stroke-miterlimit="10" d="
		M-308.766-545.998c-2.303,3.551-7.564,6.033-13.688,6.033s-11.386-2.482-13.688-6.033c-1.38,1.431-3.315,2.326-5.46,2.326v15.067
		h5.752c2.436,3.323,7.519,5.609,13.396,5.609c5.878,0,10.96-2.286,13.396-5.609h5.752v-15.067
		C-305.451-543.672-307.386-544.566-308.766-545.998z"/>
	
		<line fill="none" stroke="#000000" stroke-width="2" stroke-linecap="round" stroke-linejoin="round" stroke-miterlimit="10" x1="-350.167" y1="-539.965" x2="-341.604" y2="-539.965"/>
	
		<line fill="none" stroke="#000000" stroke-width="2" stroke-linecap="round" stroke-linejoin="round" stroke-miterlimit="10" x1="-350.167" y1="-532.305" x2="-341.604" y2="-532.305"/>
	
		<line fill="none" stroke="#000000" stroke-width="2" stroke-linecap="round" stroke-linejoin="round" stroke-miterlimit="10" x1="-303.306" y1="-539.965" x2="-294.742" y2="-539.965"/>
	
		<line fill="none" stroke="#000000" stroke-width="2" stroke-linecap="round" stroke-linejoin="round" stroke-miterlimit="10" x1="-303.306" y1="-532.305" x2="-294.742" y2="-532.305"/>
	<path fill="none" stroke="#000000" stroke-width="2" stroke-linecap="round" stroke-linejoin="round" stroke-miterlimit="10" d="
		M-336.143-570.766c2.303,3.55,7.564,6.033,13.688,6.033s11.386-2.483,13.688-6.033c-1.315-1.364-2.129-3.217-2.129-5.263
		c0-0.07,0.009-0.138,0.011-0.208c-2.738,2.259-6.9,3.707-11.571,3.707s-8.833-1.447-11.571-3.707
		c0.002,0.07,0.011,0.138,0.011,0.208C-334.014-573.983-334.828-572.13-336.143-570.766z"/>
	<path fill="none" stroke="#000000" stroke-width="2" stroke-linecap="round" stroke-linejoin="round" stroke-miterlimit="10" d="
		M-308.766-570.766c-2.303,3.55-7.564,6.033-13.688,6.033s-11.386-2.483-13.688-6.033c-1.38,1.432-3.315,2.328-5.46,2.328v15.065
		h5.752c2.436,3.323,7.519,5.61,13.396,5.61c5.878,0,10.96-2.287,13.396-5.61h5.752v-15.065
		C-305.451-568.438-307.386-569.333-308.766-570.766z"/>
	
		<line fill="none" stroke="#000000" stroke-width="2" stroke-linecap="round" stroke-linejoin="round" stroke-miterlimit="10" x1="-350.167" y1="-564.732" x2="-341.604" y2="-564.732"/>
	
		<line fill="none" stroke="#000000" stroke-width="2" stroke-linecap="round" stroke-linejoin="round" stroke-miterlimit="10" x1="-350.167" y1="-557.072" x2="-341.604" y2="-557.072"/>
	
		<line fill="none" stroke="#000000" stroke-width="2" stroke-linecap="round" stroke-linejoin="round" stroke-miterlimit="10" x1="-303.306" y1="-564.732" x2="-294.742" y2="-564.732"/>
	
		<line fill="none" stroke="#000000" stroke-width="2" stroke-linecap="round" stroke-linejoin="round" stroke-miterlimit="10" x1="-303.306" y1="-557.072" x2="-294.742" y2="-557.072"/>
	<path fill="none" stroke="#000000" stroke-width="2" stroke-linecap="round" stroke-linejoin="round" stroke-miterlimit="10" d="
		M-336.143-595.533c2.303,3.551,7.564,6.034,13.688,6.034s11.386-2.483,13.688-6.034c-1.315-1.365-2.129-3.217-2.129-5.263
		c0-0.07,0.009-0.138,0.011-0.208c-2.738,2.26-6.9,3.707-11.571,3.707s-8.833-1.446-11.571-3.707
		c0.002,0.07,0.011,0.138,0.011,0.208C-334.014-598.75-334.828-596.897-336.143-595.533z"/>
	<path fill="none" stroke="#000000" stroke-width="2" stroke-linecap="round" stroke-linejoin="round" stroke-miterlimit="10" d="
		M-308.766-595.533c-2.303,3.551-7.564,6.034-13.688,6.034s-11.386-2.483-13.688-6.034c-1.38,1.432-3.315,2.326-5.46,2.326v15.067
		h5.752c2.436,3.322,7.519,5.609,13.396,5.609c5.878,0,10.96-2.287,13.396-5.609h5.752v-15.067
		C-305.451-593.207-307.386-594.101-308.766-595.533z"/>
	
		<line fill="none" stroke="#000000" stroke-width="2" stroke-linecap="round" stroke-linejoin="round" stroke-miterlimit="10" x1="-350.167" y1="-589.499" x2="-341.604" y2="-589.499"/>
	
		<line fill="none" stroke="#000000" stroke-width="2" stroke-linecap="round" stroke-linejoin="round" stroke-miterlimit="10" x1="-350.167" y1="-581.839" x2="-341.604" y2="-581.839"/>
	
		<line fill="none" stroke="#000000" stroke-width="2" stroke-linecap="round" stroke-linejoin="round" stroke-miterlimit="10" x1="-303.306" y1="-589.499" x2="-294.742" y2="-589.499"/>
	
		<line fill="none" stroke="#000000" stroke-width="2" stroke-linecap="round" stroke-linejoin="round" stroke-miterlimit="10" x1="-303.306" y1="-581.839" x2="-294.742" y2="-581.839"/>
</g>
<g>
	<path fill="none" stroke="#000000" stroke-width="2" stroke-linecap="round" stroke-linejoin="round" stroke-miterlimit="10" d="
		M-787.685-349.962v-49.799c0-6.949-5.653-12.603-12.602-12.603h-44.318c-3.762,0-7.14,1.658-9.452,4.28
		c-2.311-2.623-5.691-4.28-9.451-4.28h-19.114c-6.949,0-12.602,5.654-12.602,12.603v49.799"/>
	
		<line fill="none" stroke="#000000" stroke-width="2" stroke-linecap="round" stroke-linejoin="round" stroke-miterlimit="10" x1="-895.224" y1="-395.219" x2="-787.685" y2="-395.219"/>
	
		<line fill="none" stroke="#000000" stroke-width="2" stroke-linecap="round" stroke-linejoin="round" stroke-miterlimit="10" x1="-895.224" y1="-383.51" x2="-787.685" y2="-383.51"/>
	
		<line fill="none" stroke="#000000" stroke-width="2" stroke-linecap="round" stroke-linejoin="round" stroke-miterlimit="10" x1="-870.11" y1="-383.51" x2="-895.224" y2="-367.833"/>
	
		<line fill="none" stroke="#000000" stroke-width="2" stroke-linecap="round" stroke-linejoin="round" stroke-miterlimit="10" x1="-812.799" y1="-383.51" x2="-787.685" y2="-367.833"/>
	
		<line fill="none" stroke="#000000" stroke-width="2" stroke-linecap="round" stroke-linejoin="round" stroke-miterlimit="10" x1="-854.057" y1="-408.084" x2="-854.057" y2="-395.219"/>
</g>
<g>
	<path fill="none" stroke="#000000" stroke-width="2" stroke-linecap="round" stroke-linejoin="round" stroke-miterlimit="10" d="
		M-650.67-427.663c0-5.242-3.958-9.491-8.84-9.491h-25.888c-4.883,0-8.84,4.25-8.84,9.491v28.01c0,0.184,0.016,0.364,0.025,0.544
		c-0.016,0.336-0.025,0.672-0.025,1.011c0,12.032,9.752,21.785,21.784,21.785s21.784-9.753,21.784-21.785
		c0-0.339-0.01-0.675-0.025-1.011c0.01-0.18,0.025-0.36,0.025-0.544V-427.663z"/>
	
		<line fill="none" stroke="#000000" stroke-width="2" stroke-linecap="round" stroke-linejoin="round" stroke-miterlimit="10" x1="-693.851" y1="-416.303" x2="-651.059" y2="-416.303"/>
	
		<line fill="none" stroke="#000000" stroke-width="2" stroke-linecap="round" stroke-linejoin="round" stroke-miterlimit="10" x1="-694.239" y1="-407.901" x2="-679.576" y2="-407.901"/>
	
		<line fill="none" stroke="#000000" stroke-width="2" stroke-linecap="round" stroke-linejoin="round" stroke-miterlimit="10" x1="-665.333" y1="-407.901" x2="-650.67" y2="-407.901"/>
	
		<circle fill="none" stroke="#000000" stroke-width="2" stroke-linecap="round" stroke-linejoin="round" stroke-miterlimit="10" cx="-672.455" cy="-408.678" r="6.732"/>
	<path fill="none" stroke="#000000" stroke-width="2" stroke-linecap="round" stroke-linejoin="round" stroke-miterlimit="10" d="
		M-653.526-387.318c-4.475-3.518-11.29-5.767-18.928-5.767s-14.454,2.249-18.928,5.767"/>
	<path fill="none" stroke="#000000" stroke-width="2" stroke-linecap="round" stroke-linejoin="round" stroke-miterlimit="10" d="
		M-694.239-397.057H-698c-2.936,0-5.315-2.38-5.315-5.316c0-2.937,2.38-5.317,5.315-5.317h3.761"/>
	<path fill="none" stroke="#000000" stroke-width="2" stroke-linecap="round" stroke-linejoin="round" stroke-miterlimit="10" d="
		M-667.139-376.968v8.433c0,2.936-2.379,5.316-5.316,5.316s-5.316-2.38-5.316-5.316v-8.433"/>
	<path fill="none" stroke="#000000" stroke-width="2" stroke-linecap="round" stroke-linejoin="round" stroke-miterlimit="10" d="
		M-650.67-397.057h3.761c2.936,0,5.315-2.38,5.315-5.316c0-2.937-2.379-5.317-5.315-5.317h-3.761"/>
	<path fill="none" stroke="#000000" stroke-width="2" stroke-linecap="round" stroke-linejoin="round" stroke-miterlimit="10" d="
		M-667.139-370.093h8.585c15.469,0,28.009,12.539,28.009,28.008v16.912h-83.82v-16.912c0-15.469,12.541-28.008,28.009-28.008h8.585"
		/>
	<g>
		
			<line fill="none" stroke="#000000" stroke-width="2" stroke-linecap="round" stroke-linejoin="round" stroke-miterlimit="10" x1="-698.259" y1="-347.633" x2="-698.259" y2="-325.173"/>
		
			<polyline fill="none" stroke="#000000" stroke-width="2" stroke-linecap="round" stroke-linejoin="round" stroke-miterlimit="10" points="
			-646.651,-325.173 -646.651,-347.633 -662.262,-347.633 -662.262,-341.149 -646.651,-341.149 		"/>
	</g>
</g>
<g>
	<path fill="none" stroke="#000000" stroke-width="2" stroke-linecap="round" stroke-linejoin="round" stroke-miterlimit="10" d="
		M-548.839-360.079c3.71-4.707,9.432-7.499,15.432-7.499h14.145c6.001,0,11.722,2.792,15.433,7.499"/>
	<path fill="none" stroke="#000000" stroke-width="2" stroke-linecap="round" stroke-linejoin="round" stroke-miterlimit="10" d="
		M-503.718-359.996v-1.761c0-11.071-9.005-20.077-20.076-20.077h-4.917c-11.071,0-20.078,9.006-20.078,20.077v1.679
		c-2.735,0.354-4.855,2.699-4.855,5.53v1.82c0,3.809,3.008,6.928,6.776,7.105c3.308,7.028,10.312,11.506,18.156,11.506h4.917
		c7.844,0,14.851-4.48,18.159-11.511c3.683-0.226,6.608-3.292,6.608-7.03v-1.55C-499.026-357.052-501.041-359.432-503.718-359.996z"
		/>
	<g>
		<path d="M-532.846-356.377c0,0.98-0.795,1.775-1.774,1.775c-0.981,0-1.776-0.794-1.776-1.775c0-0.98,0.795-1.775,1.776-1.775
			C-533.641-358.152-532.846-357.357-532.846-356.377z"/>
		<path d="M-516.272-356.377c0,0.98-0.795,1.775-1.776,1.775c-0.981,0-1.775-0.794-1.775-1.775c0-0.98,0.794-1.775,1.775-1.775
			C-517.068-358.152-516.272-357.357-516.272-356.377z"/>
	</g>
	<path fill="none" stroke="#000000" stroke-width="2" stroke-linecap="round" stroke-linejoin="round" stroke-miterlimit="10" d="
		M-526.334-342.785c-3.812,0-7.056-2.584-7.968-6.174h15.935C-519.28-345.37-522.524-342.785-526.334-342.785z"/>
	<path fill="none" stroke="#000000" stroke-width="2" stroke-linecap="round" stroke-linejoin="round" stroke-miterlimit="10" d="
		M-491.08-360.079c3.71-4.707,9.432-7.499,15.433-7.499h14.145c6,0,11.723,2.792,15.433,7.499"/>
	<path fill="none" stroke="#000000" stroke-width="2" stroke-linecap="round" stroke-linejoin="round" stroke-miterlimit="10" d="
		M-445.958-359.996v-1.761c0-11.071-9.006-20.077-20.076-20.077h-4.917c-11.07,0-20.077,9.006-20.077,20.077v1.679
		c-2.735,0.354-4.855,2.699-4.855,5.53v1.82c0,3.809,3.008,6.928,6.776,7.105c3.308,7.028,10.312,11.506,18.156,11.506h4.917
		c7.843,0,14.85-4.48,18.159-11.511c3.683-0.226,6.609-3.292,6.609-7.03v-1.55C-441.266-357.052-443.28-359.432-445.958-359.996z"/>
	<g>
		<path d="M-475.085-356.377c0,0.98-0.795,1.775-1.776,1.775c-0.979,0-1.775-0.794-1.775-1.775c0-0.98,0.796-1.775,1.775-1.775
			C-475.881-358.152-475.085-357.357-475.085-356.377z"/>
		<path d="M-458.513-356.377c0,0.98-0.795,1.775-1.776,1.775c-0.98,0-1.774-0.794-1.774-1.775c0-0.98,0.794-1.775,1.774-1.775
			C-459.308-358.152-458.513-357.357-458.513-356.377z"/>
	</g>
	<path fill="none" stroke="#000000" stroke-width="2" stroke-linecap="round" stroke-linejoin="round" stroke-miterlimit="10" d="
		M-468.575-342.785c-3.811,0-7.055-2.584-7.967-6.174h15.935C-461.521-345.37-464.764-342.785-468.575-342.785z"/>
	<g>
		<g>
			<path fill="none" stroke="#000000" stroke-width="2" stroke-linecap="round" stroke-linejoin="round" stroke-miterlimit="10" d="
				M-521.532-406.454c3.711-4.707,9.432-7.499,15.432-7.499h14.146c6,0,11.723,2.792,15.433,7.499"/>
			<path fill="none" stroke="#000000" stroke-width="2" stroke-linecap="round" stroke-linejoin="round" stroke-miterlimit="10" d="
				M-476.409-406.372v-1.761c0-11.07-9.006-20.077-20.076-20.077h-4.917c-11.071,0-20.077,9.006-20.077,20.077v1.679
				c-2.735,0.355-4.855,2.699-4.855,5.53v1.819c0,3.81,3.008,6.929,6.777,7.105c3.307,7.028,10.311,11.506,18.155,11.506h4.917
				c7.843,0,14.851-4.48,18.158-11.511c3.683-0.226,6.61-3.292,6.61-7.03v-1.551C-471.718-403.426-473.733-405.807-476.409-406.372z
				"/>
			<g>
				<path d="M-505.537-402.752c0,0.981-0.796,1.774-1.775,1.774c-0.98,0-1.776-0.793-1.776-1.774c0-0.979,0.796-1.774,1.776-1.774
					C-506.333-404.526-505.537-403.73-505.537-402.752z"/>
				<path d="M-488.965-402.752c0,0.981-0.796,1.774-1.775,1.774c-0.98,0-1.775-0.793-1.775-1.774c0-0.979,0.795-1.774,1.775-1.774
					C-489.761-404.526-488.965-403.73-488.965-402.752z"/>
			</g>
			<path fill="none" stroke="#000000" stroke-width="2" stroke-linecap="round" stroke-linejoin="round" stroke-miterlimit="10" d="
				M-499.027-389.16c-3.811,0-7.055-2.585-7.967-6.174h15.935C-491.973-391.745-495.215-389.16-499.027-389.16z"/>
		</g>
		<g>
			<path fill="none" stroke="#000000" stroke-width="2" stroke-linecap="round" stroke-linejoin="round" stroke-miterlimit="10" d="
				M-474.206-393.557c2.386,2.724,5.854,4.35,9.639,4.35c1.388,0,2.516-1.129,2.516-2.518v-17.285
				c0-5.876-4.777-10.656-10.649-10.656h-1.199"/>
			<path fill="none" stroke="#000000" stroke-width="2" stroke-linecap="round" stroke-linejoin="round" stroke-miterlimit="10" d="
				M-481.65-421.76c0.837-0.838,1.996-1.356,3.274-1.356l0,0c2.557,0,4.629,2.073,4.629,4.63v1.471c0,2.001-1.27,3.705-3.047,4.351"
				/>
			<path fill="none" stroke="#000000" stroke-width="2" stroke-linecap="round" stroke-linejoin="round" stroke-miterlimit="10" d="
				M-524.154-419.665h-1.198c-5.872,0-10.649,4.78-10.649,10.656v17.285c0,1.388,1.128,2.518,2.516,2.518
				c3.784,0,7.253-1.626,9.638-4.35"/>
			<path fill="none" stroke="#000000" stroke-width="2" stroke-linecap="round" stroke-linejoin="round" stroke-miterlimit="10" d="
				M-516.403-421.76c-0.837-0.838-1.995-1.356-3.272-1.356l0,0c-2.558,0-4.629,2.073-4.629,4.63v1.471
				c0,2.001,1.27,3.705,3.046,4.351"/>
		</g>
	</g>
</g>
<g>
	<g>
		<path fill="none" stroke="#000000" stroke-width="2" stroke-linecap="round" stroke-linejoin="round" stroke-miterlimit="10" d="
			M-342.765-392.852c0-2.181,0.646-4.361,1.938-6.416c2.55-4.051,4.748-6.965,4.748-11.195c0-4.229-1.686-8.204-4.748-11.195
			c-3.061-2.99-7.13-4.638-11.458-4.638c-4.33,0-8.397,1.647-11.458,4.638c-9.585,9.362-11.015,22.065-11.015,28.806
			c0,6.739,1.43,19.443,11.015,28.805c3.061,2.989,7.129,4.637,11.458,4.637c4.328,0,8.397-1.648,11.458-4.637
			c3.062-2.991,4.748-6.966,4.748-11.195c0-4.229-2.198-7.145-4.748-11.194C-342.115-388.486-342.765-390.668-342.765-392.852z"/>
		<path fill="none" stroke="#000000" stroke-width="2" stroke-linecap="round" stroke-linejoin="round" stroke-miterlimit="10" d="
			M-336.079-407.388c0,0,3.58,2.312,5.369,9.247c1.789,6.934,2.907,17.468,2.907,62.109"/>
		
			<line fill="none" stroke="#000000" stroke-width="2" stroke-linecap="round" stroke-linejoin="round" stroke-miterlimit="10" x1="-336.079" y1="-336.032" x2="-336.079" y2="-374.43"/>
		<path fill="none" stroke="#000000" stroke-width="2" stroke-linecap="round" stroke-linejoin="round" stroke-miterlimit="10" d="
			M-346.655-400.312c0.799,1.66,2.725,3.218,4.698,3.281"/>
		<path fill="none" stroke="#000000" stroke-width="2" stroke-linecap="round" stroke-linejoin="round" stroke-miterlimit="10" d="
			M-346.655-386.773c0.799-1.66,2.289-3.179,4.261-3.24"/>
	</g>
	<g>
		<path fill="none" stroke="#000000" stroke-width="2" stroke-linecap="round" stroke-linejoin="round" stroke-miterlimit="10" d="
			M-302.144-392.852c0-2.181-0.647-4.361-1.939-6.416c-2.55-4.051-4.748-6.965-4.748-11.195c0-4.229,1.686-8.204,4.748-11.195
			c3.061-2.99,7.13-4.638,11.458-4.638c4.331,0,8.397,1.647,11.458,4.638c9.585,9.362,11.015,22.065,11.015,28.806
			c0,6.739-1.43,19.443-11.015,28.805c-3.061,2.989-7.127,4.637-11.458,4.637c-4.328,0-8.397-1.648-11.458-4.637
			c-3.062-2.991-4.748-6.966-4.748-11.195c0-4.229,2.198-7.145,4.748-11.194C-302.794-388.486-302.144-390.668-302.144-392.852z"/>
		<path fill="none" stroke="#000000" stroke-width="2" stroke-linecap="round" stroke-linejoin="round" stroke-miterlimit="10" d="
			M-308.831-407.388c0,0-3.579,2.312-5.369,9.247c-1.789,6.934-2.907,17.468-2.907,62.109"/>
		
			<line fill="none" stroke="#000000" stroke-width="2" stroke-linecap="round" stroke-linejoin="round" stroke-miterlimit="10" x1="-308.831" y1="-336.032" x2="-308.831" y2="-374.43"/>
		<path fill="none" stroke="#000000" stroke-width="2" stroke-linecap="round" stroke-linejoin="round" stroke-miterlimit="10" d="
			M-298.254-400.312c-0.799,1.66-2.725,3.218-4.698,3.281"/>
		<path fill="none" stroke="#000000" stroke-width="2" stroke-linecap="round" stroke-linejoin="round" stroke-miterlimit="10" d="
			M-298.254-386.773c-0.799-1.66-2.289-3.179-4.261-3.24"/>
	</g>
</g>
</svg>
