<?xml version="1.0" encoding="utf-8"?>
<!-- Generator: Adobe Illustrator 16.0.0, SVG Export Plug-In . SVG Version: 6.00 Build 0)  -->
<!DOCTYPE svg PUBLIC "-//W3C//DTD SVG 1.1//EN" "http://www.w3.org/Graphics/SVG/1.1/DTD/svg11.dtd">
<svg version="1.1" id="Layer_1" xmlns="http://www.w3.org/2000/svg" xmlns:xlink="http://www.w3.org/1999/xlink" x="0px" y="0px"
	 width="308px" height="100px" viewBox="0 0 308 100" enable-background="new 0 0 308 100" xml:space="preserve">
<g>
	<g>
		<g>
			<path fill="#3F77BC" d="M135.943,41.243h-14.971V23.336h14.541v-3.985c0-1.983-1.984-1.983-1.984-1.983h-18.507V47.27h22.905
				v-4.043C137.927,41.243,135.943,41.243,135.943,41.243z"/>
			<path fill="#3F77BC" d="M155.649,9.922h-3.969v18.615h-5.894V13.087c0-1.983-1.984-1.983-1.984-1.983h-3.967v50.409h3.967
				c1.984,0,1.984-1.983,1.984-1.983V34.505h5.894v30.671h3.969c1.978,0,1.983-1.973,1.983-1.982V11.905
				C157.632,9.922,155.649,9.922,155.649,9.922z"/>
			<path fill="#3F77BC" d="M208.466,35.68h-18.049v-4.077h11.014v-3.985l0,0c0-1.984-1.985-1.984-1.985-1.984h-20.829v-7.742h22.702
				v-4.044h-0.002c0-1.984-1.984-1.984-1.984-1.984h-26.667v19.739h11.632v4.077h-20.146v3.926l0,0c0,1.984,1.985,1.984,1.985,1.984
				h44.312v-3.926l0,0C210.449,35.68,208.466,35.68,208.466,35.68z"/>
			<path fill="#3F77BC" d="M254.898,9.922h-3.907v9.219h-8.75v5.91h8.75v4.61h-8.75v5.968h8.75v8.096h3.907
				c1.988,0,1.984-1.983,1.984-1.983h0.004V11.905h-0.002C256.885,9.922,254.898,9.922,254.898,9.922z"/>
			<path fill="#3F77BC" d="M239.595,37.19L239.595,37.19V15.392l0,0c0-1.983-1.984-1.983-1.984-1.983h-3.967v7.742h-10.947v-5.767
				c-0.005-1.974-1.982-1.975-1.982-1.975h-3.969v25.766h20.866C239.595,39.174,239.595,37.19,239.595,37.19z M233.643,33.265
				h-10.947V27.06h10.947V33.265z"/>
			<path fill="#3F77BC" d="M290.176,42.734h11.416v8.776h3.893c1.889,0,1.979-1.792,1.984-1.966V12.081h-0.012
				c0-1.983-1.984-1.983-1.984-1.983h-3.881V36.96h-11.416V42.734z"/>
			<path fill="#3F77BC" d="M307.916,63.193L307.916,63.193v-4.026h-17.74v-6.44c0-1.983-1.984-1.983-1.984-1.983h-4.004v14.433
				h21.746C307.916,65.177,307.916,63.193,307.916,63.193z"/>
			<path fill="#3F77BC" d="M286.594,36.96h-21.305v3.79c0,1.984,1.982,1.984,1.982,1.984v0h8.521c0.729,0,1.398,0,2.07,0
				l-6.715,13.251h4.939c0.992,0,1.5-1.012,1.5-1.012l0,0l6.207-12.358L286.594,36.96z"/>
			<path fill="#3F77BC" d="M280.381,33.778c6.053,0,10.959-4.906,10.959-10.957c0-6.052-4.906-10.958-10.959-10.958
				c-6.051,0-10.955,4.906-10.955,10.958C269.426,28.873,274.33,33.778,280.381,33.778z M280.381,17.343
				c3.027,0,5.48,2.453,5.48,5.479c0,3.025-2.453,5.478-5.48,5.478c-3.025,0-5.477-2.453-5.477-5.478
				C274.904,19.795,277.355,17.343,280.381,17.343z"/>
			<path fill="#3F77BC" d="M242.401,42.365c-6.658,0-12.056,5.398-12.056,12.055c0,6.659,5.398,12.056,12.056,12.056
				c6.659,0,12.056-5.396,12.056-12.056C254.457,47.763,249.06,42.365,242.401,42.365z M242.401,60.998
				c-3.633,0-6.576-2.944-6.576-6.578c0-3.632,2.943-6.576,6.576-6.576c3.632,0,6.577,2.944,6.577,6.576
				C248.978,58.054,246.033,60.998,242.401,60.998z"/>
			<path fill="#3F77BC" d="M187.498,43.37c-6.348,0-11.494,5.146-11.494,11.494s5.146,11.494,11.494,11.494
				c6.348,0,11.495-5.146,11.495-11.494S193.845,43.37,187.498,43.37z M187.498,60.88c-3.323,0-6.015-2.693-6.015-6.016
				s2.692-6.016,6.015-6.016c3.321,0,6.015,2.693,6.015,6.016S190.819,60.88,187.498,60.88z"/>
		</g>
		<g>
			<path fill="#3F77BC" d="M124.524,78.143c-0.579-0.611-1.269-1.089-2.07-1.433c-0.801-0.345-1.683-0.518-2.642-0.518h-4.791v13.65
				h4.791c0.959,0,1.84-0.176,2.642-0.526s1.491-0.833,2.07-1.443c0.58-0.611,1.026-1.333,1.343-2.165
				c0.315-0.832,0.474-1.729,0.474-2.69v-0.04c0-0.962-0.158-1.854-0.474-2.681C125.551,79.472,125.104,78.754,124.524,78.143z
				 M123.516,83.056c0,0.611-0.091,1.165-0.272,1.658c-0.182,0.494-0.433,0.924-0.755,1.287c-0.322,0.363-0.71,0.644-1.167,0.838
				c-0.456,0.195-0.958,0.292-1.509,0.292h-2.088v-8.228h2.088c0.55,0,1.053,0.101,1.509,0.302c0.457,0.202,0.845,0.484,1.167,0.848
				c0.322,0.364,0.574,0.8,0.755,1.308c0.181,0.507,0.272,1.059,0.272,1.657V83.056z"/>
			<path fill="#3F77BC" d="M134.743,76.926c-0.317-0.831-1.167-0.831-1.167-0.831h-1.642l-5.265,13.748h1.84
				c0.916,0,1.221-0.831,1.221-0.831l0,0l0.818-2.23h5.194l1.124,3.062h2.825l-4.946-12.917H134.743z M131.514,84.129l1.632-4.427
				l1.631,4.427H131.514z"/>
			<path fill="#3F77BC" d="M150.604,88.002c0-0.831-0.832-0.831-0.832-0.831h-5.837v-2.867h5.791v-1.841
				c0.001-0.829-0.831-0.829-0.831-0.829h-4.96v-2.77h6.582v-1.842l0,0c0-0.83-0.832-0.83-0.832-0.83h-8.418v13.65h9.337V88.002z"/>
			<path fill="#3F77BC" d="M162.529,87.873c0.579-0.611,1.026-1.333,1.342-2.165c0.315-0.832,0.474-1.729,0.474-2.69v-0.04
				c0-0.962-0.159-1.854-0.474-2.681c-0.316-0.825-0.763-1.543-1.342-2.154s-1.27-1.089-2.071-1.433
				c-0.802-0.345-1.683-0.518-2.641-0.518h-4.792v13.65h4.792c0.958,0,1.839-0.176,2.641-0.526
				C161.259,88.966,161.95,88.483,162.529,87.873z M159.325,86.839c-0.456,0.195-0.958,0.292-1.508,0.292h-2.09v-8.228h2.09
				c0.55,0,1.053,0.101,1.508,0.302c0.456,0.202,0.845,0.484,1.167,0.848c0.322,0.364,0.573,0.8,0.754,1.308
				c0.183,0.507,0.273,1.059,0.273,1.657v0.038c0,0.611-0.091,1.165-0.273,1.658c-0.181,0.494-0.432,0.924-0.754,1.287
				C160.17,86.364,159.781,86.645,159.325,86.839z"/>
			<path fill="#3F77BC" d="M191.579,76.192L191.579,76.192h-1.836v8.404l-5.188-7.574c-0.568-0.83-1.42-0.83-1.42-0.83h-1.641v13.65
				h1.838c0.83,0,0.83-0.831,0.83-0.831v-7.847l5.95,8.678h2.297v-12.82C192.409,76.192,191.579,76.192,191.579,76.192z"/>
			<path fill="#3F77BC" d="M172.807,90.076c3.9,0,7.06-3.16,7.06-7.059c0-3.897-3.16-7.06-7.06-7.06
				c-3.899,0-7.059,3.162-7.059,7.06C165.748,86.916,168.908,90.076,172.807,90.076z M172.807,78.729
				c2.37,0,4.289,1.921,4.289,4.288c0,2.368-1.919,4.288-4.289,4.288c-2.367,0-4.288-1.92-4.288-4.288
				C168.519,80.65,170.44,78.729,172.807,78.729z"/>
			<path fill="#3F77BC" d="M207.761,81.634h-2.149h-2.951c-0.831,0-0.831,0.83-0.831,0.83v1.84h3.813
				c-0.546,1.74-2.171,3.002-4.09,3.002c-2.368,0-4.287-1.92-4.287-4.288c0-2.367,1.919-4.288,4.287-4.288
				c0.57,0,1.114,0.112,1.61,0.316v-0.001c0.013,0.007,0.021,0.011,0.034,0.016c0.047,0.021,0.096,0.043,0.145,0.064
				c0.702,0.265,1.183-0.221,1.185-0.222l1.404-1.421c-1.205-0.953-2.725-1.524-4.378-1.524c-3.898,0-7.059,3.162-7.059,7.06
				c0,3.898,3.161,7.059,7.059,7.059c3.899,0,7.059-3.16,7.059-7.059c0-0.193-0.011-0.383-0.025-0.571
				C208.464,81.634,207.761,81.634,207.761,81.634z"/>
			<g>
				<path fill="#3F77BC" d="M226.272,76.192h-1.802v5.402h-4.984v-4.501c0-0.901-0.901-0.901-0.901-0.901h-1.802v13.65h1.802
					c0.901,0,0.901-0.901,0.901-0.901l0,0v-4.579h4.984v5.48h1.802c0.901,0,0.901-0.901,0.901-0.901l0,0V77.094
					C227.173,76.192,226.272,76.192,226.272,76.192z"/>
				<path fill="#3F77BC" d="M254.055,83.104c-0.334-0.318-0.746-0.591-1.232-0.818s-1.041-0.432-1.662-0.614
					c-0.529-0.156-0.966-0.293-1.312-0.409c-0.346-0.117-0.619-0.24-0.82-0.37c-0.199-0.131-0.336-0.277-0.412-0.439
					c-0.076-0.162-0.114-0.354-0.114-0.575v-0.039c0-0.338,0.132-0.62,0.395-0.848c0.262-0.228,0.659-0.342,1.185-0.342
					c0.527,0,1.053,0.12,1.579,0.36c0.279,0.128,0.561,0.281,0.848,0.457v-0.001c0.768,0.529,1.197-0.164,1.199-0.166l0.975-1.567
					c-0.635-0.558-1.326-0.987-2.082-1.287c-0.754-0.298-1.582-0.448-2.483-0.448c-0.631,0-1.21,0.098-1.735,0.293
					c-0.523,0.195-0.975,0.474-1.353,0.839c-0.378,0.364-0.671,0.796-0.879,1.296c-0.21,0.501-0.315,1.063-0.315,1.687v0.039
					c0,0.677,0.098,1.241,0.292,1.697c0.193,0.456,0.465,0.835,0.818,1.14c0.351,0.306,0.779,0.563,1.284,0.771
					c0.505,0.209,1.067,0.397,1.689,0.566c0.516,0.143,0.936,0.279,1.257,0.408c0.324,0.131,0.576,0.261,0.756,0.392
					c0.184,0.13,0.307,0.27,0.371,0.419c0.066,0.148,0.098,0.321,0.098,0.516v0.04c0,0.402-0.154,0.718-0.467,0.946
					c-0.309,0.227-0.744,0.34-1.306,0.34c-0.701,0-1.349-0.148-1.938-0.448c-0.392-0.197-0.776-0.445-1.154-0.735v0.004
					c-0.573-0.476-0.989,0.074-0.993,0.078l-1.18,1.57c0.738,0.742,1.556,1.29,2.457,1.648c0.9,0.356,1.819,0.535,2.755,0.535
					c0.667,0,1.275-0.094,1.824-0.282c0.547-0.188,1.02-0.461,1.414-0.819c0.395-0.357,0.703-0.8,0.924-1.326
					s0.332-1.128,0.332-1.804v-0.039c0-0.598-0.086-1.111-0.256-1.54S254.389,83.424,254.055,83.104z"/>
				<path fill="#3F77BC" d="M266.223,77.499c-0.402-0.416-0.895-0.737-1.473-0.965c-0.58-0.229-1.238-0.342-1.975-0.342h-5.02v13.65
					h1.801c0.902,0,0.902-0.901,0.902-0.901v-3.193h2.053c0.691,0,1.338-0.102,1.939-0.302c0.602-0.203,1.129-0.506,1.578-0.907
					c0.451-0.403,0.807-0.904,1.063-1.503c0.26-0.598,0.389-1.293,0.389-2.086v-0.039c0-0.702-0.109-1.343-0.326-1.92
					C266.936,78.412,266.627,77.915,266.223,77.499z M264.74,81.009c0,0.586-0.186,1.075-0.561,1.472
					c-0.375,0.397-0.9,0.595-1.58,0.595h-2.141v-4.172h2.09c0.678,0,1.213,0.176,1.604,0.525c0.393,0.352,0.588,0.866,0.588,1.542
					V81.009z"/>
				<path fill="#3F77BC" d="M271.404,76.192h-1.803v13.65h1.803c0.9,0,0.9-0.901,0.9-0.901V77.094
					C272.305,76.192,271.404,76.192,271.404,76.192z"/>
				<path fill="#3F77BC" d="M280.939,88.941v-9.979h3.738v-1.868c0-0.901-0.9-0.901-0.9-0.901h-9.279v2.77h3.74v10.881h1.801
					C280.939,89.843,280.939,88.941,280.939,88.941z"/>
				<path fill="#3F77BC" d="M307.021,87.131h-5.23V77.094c0-0.901-0.9-0.901-0.9-0.901h-1.805v13.65h8.83v-1.917
					C307.846,87.134,307.021,87.131,307.021,87.131z"/>
				<path fill="#3F77BC" d="M236.637,75.958c-3.899,0-7.06,3.162-7.06,7.06c0,3.898,3.161,7.059,7.06,7.059
					c3.898,0,7.059-3.16,7.059-7.059C243.696,79.12,240.536,75.958,236.637,75.958z M236.637,87.306
					c-2.368,0-4.288-1.92-4.288-4.288c0-2.367,1.92-4.288,4.288-4.288s4.287,1.921,4.287,4.288
					C240.924,85.386,239.005,87.306,236.637,87.306z"/>
				<path fill="#3F77BC" d="M292.498,76.925c-0.316-0.83-1.166-0.83-1.166-0.83h-1.643l-5.266,13.748h1.842
					c0.914,0,1.221-0.831,1.221-0.831l0.816-2.23h5.195l1.123,3.062h2.824L292.5,76.925H292.498z M289.27,84.129l1.631-4.427
					l1.633,4.427H289.27z"/>
			</g>
		</g>
	</g>
	<g>
		<path fill="#3F77BC" d="M45.096,0H24.614v29.585L0.053,29.573v0.012H0v70.414L45.096,100C72.67,100,95.02,77.58,95.02,50.003
			C95.02,22.425,72.67,0,45.096,0z M35.908,40.792l7.802-0.037c5.107,0,9.244,4.138,9.244,9.249c0,5.11-4.137,9.248-9.244,9.248
			h-7.802V40.792z M45.428,88.423L11.621,88.43V40.792h12.993l-0.017,29.757l19.429-0.079c11.305,0,20.47-9.163,20.47-20.467
			c0-11.305-9.165-20.466-20.47-20.466h-8.118V11.582h9.52c21.221,0,38.423,17.197,38.423,38.421
			C83.851,71.227,66.648,88.423,45.428,88.423z"/>
	</g>
</g>
</svg>
