<svg id="Layer_1" data-name="Layer 1" xmlns="http://www.w3.org/2000/svg" viewBox="0 0 252.06 252.06"><defs><style>.cls-1{fill:#aea077;}</style></defs><path class="cls-1" d="M239.39,61.16A126,126,0,0,0,61.15,239.39,126,126,0,0,0,239.39,61.16ZM150.27,270.87A120.59,120.59,0,0,1,65,65a120.59,120.59,0,1,1,85.27,205.87" transform="translate(-24.24 -24.24)"/><path class="cls-1" d="M139.41,49H148v6.54h3.1V38.7h0a.61.61,0,0,1,.57-.61h1.52v17.5h3.11v-20h-5.68A2.75,2.75,0,0,0,148,38.35h0v8.22h-6.76a.45.45,0,0,1-.4-.45h0v-8h5.59V35.61h-9V47.14a1.91,1.91,0,0,0,1.91,1.9" transform="translate(-24.24 -24.24)"/><path class="cls-1" d="M191.08,55.91a5.25,5.25,0,0,0,7.06-2.28,5,5,0,0,0,0-4.23l2.3,1.1,1.07-2.23-4-1.9,1-2.13-3.05-1.46-1,2.13-4-1.91-1.07,2.23,2.31,1.11A4.94,4.94,0,0,0,188.42,49a5.25,5.25,0,0,0,2.66,6.93Zm.29-5.51a2.18,2.18,0,1,1,.74,3.35,2.46,2.46,0,0,1-.74-3.35" transform="translate(-24.24 -24.24)"/><path class="cls-1" d="M201.3,60.82l3.79-7.93h0a.62.62,0,0,1,.78-.31l2.81,1.35,1.07-2.23-4-1.92a2.75,2.75,0,0,0-3.55,1.34h0l-3.94,8.24,3.05,1.46" transform="translate(-24.24 -24.24)"/><path class="cls-1" d="M196.53,62.94h0l-2.06,4.3,3.05,1.46,2.5-5.22a1.91,1.91,0,0,0-.91-2.54h0l-12-5.76L186,57.41l10.34,5a.45.45,0,0,1,.16.58" transform="translate(-24.24 -24.24)"/><path class="cls-1" d="M234.14,96.75l-.93-1.18,11-8.62a1.9,1.9,0,0,0,.31-2.67l-8.64-11-1.95,1.53,7.49,9.51a.48.48,0,0,1-.11.6h0l-10.15,8-1.45-1.84,7.25-5.7-2-2.49-7.25,5.7-1.29-1.65,7.24-5.69-2-2.5-7.24,5.7-1.87-2.37-1.94,1.53,11.53,14.66,1.95-1.52" transform="translate(-24.24 -24.24)"/><path class="cls-1" d="M95.19,52.74l1.26,2.2-6.79,3.87,3.23,5.67a1.89,1.89,0,0,0,2.6.7h0l10-5.7,3.24,5.68,2.93-1.67-8.35-14.67h0a.59.59,0,0,1,.19-.82l2.7-1.54L105,44.32l-3.85,2.19a2.75,2.75,0,0,0-.93,3.69h0l4.06,7.14-8.37,4.77a.43.43,0,0,1-.57-.19l-1.5-2.63,6.79-3.87-3.7-6.5-9.73,5.54,1.22,2.15,6.79-3.87" transform="translate(-24.24 -24.24)"/><path class="cls-1" d="M69.43,94.81h0l-3-2.3-2.07,2.67,3.75,2.92a1.91,1.91,0,0,0,2.67-.34h0L79.3,86.91l-2-1.52L70,94.77a.45.45,0,0,1-.6,0" transform="translate(-24.24 -24.24)"/><path class="cls-1" d="M59.45,95.62l1.91,1.5a7.55,7.55,0,0,0,.83-8,7.55,7.55,0,0,0,7.57-2.76l1-1.33,1.66,1.3,2.08-2.66L63.33,74.91l-2.08,2.66,7.63,6-.81,1c-1.85,2.37-5.78,2.39-10-.87l-1-.79L55,85.57l-.09.11,1,.78c4.19,3.26,5.32,6.84,3.51,9.16" transform="translate(-24.24 -24.24)"/><path class="cls-1" d="M252.53,135.74A2.67,2.67,0,1,0,250,133a2.67,2.67,0,0,0,2.56,2.76" transform="translate(-24.24 -24.24)"/><path class="cls-1" d="M47,135.74a2.66,2.66,0,1,0-1.52-3.45A2.66,2.66,0,0,0,47,135.74" transform="translate(-24.24 -24.24)"/><polyline class="cls-1" points="217.7 165.67 214.73 164.09 207.75 177.18 210.71 178.76 213.21 174.09 224.93 180.35 226.93 176.61 215.21 170.35 217.7 165.67"/><path class="cls-1" d="M60.57,207.48,69,202.3l-2.21-3.62-9.62,5.88c-3.29,2-3.23,5-1.43,8l3,5,2.86-1.74L59.35,212c-1.46-2.38-1.09-3.1,1.22-4.51" transform="translate(-24.24 -24.24)"/><path class="cls-1" d="M69.55,224.85c-1.8-2.14-1.55-2.9.52-4.65l7.58-6.39-2.74-3.25-8.61,7.27c-2.95,2.49-2.43,5.47-.21,8.11l3.77,4.46,2.56-2.16-2.87-3.39" transform="translate(-24.24 -24.24)"/><polyline class="cls-1" points="147.7 231.76 140.44 221.06 136.44 221.9 146.7 236.76 150.63 235.94 154.04 218.2 150.03 219.04 147.7 231.76"/><polyline class="cls-1" points="114.44 233.1 109.9 220.9 105.24 220.19 102.76 236.66 106.46 237.22 108.21 225.6 112.89 238.19 117.35 238.86 119.83 222.39 116.14 221.83 114.44 233.1"/><path class="cls-1" d="M193.53,250.76c-1.92.87-3.14.27-4.27-1.63l8.33-3.75-1.37-3.06-8.34,3.75c-.71-2.11-.4-3.43,1.41-4.31l5.55-2.49-1.37-3.05-5.36,2.41c-4.92,2.28-6.26,5.32-3.78,10.82S190,256,195,253.81l5.35-2.4-1.38-3.08-5.39,2.43" transform="translate(-24.24 -24.24)"/><path class="cls-1" d="M116.35,251.44c-.69,1.83-2.16,2.55-4.23,1.79s-2.67-2.16-2.14-3.9l3.72-10.09-4-1.47L106,248h0c-1.28,3.62.56,6.71,5,8.35s7.86.48,9.24-3.1h0L124,243l-4-1.47-3.64,9.88" transform="translate(-24.24 -24.24)"/><path class="cls-1" d="M72.34,232.75l3.19,2.55,3.62-2,5.18,4.14-1.16,4,3.2,2.55,5.06-17.27L88.06,224l-15.72,8.77Zm13,1.18-3-2.42L86.8,229l-1.45,4.91" transform="translate(-24.24 -24.24)"/><polyline class="cls-1" points="227.19 155.88 220.16 147.29 218.92 151.41 223.49 156.97 216.61 159.08 215.37 163.19 225.92 159.94 233.09 162.1 234.32 158.04 227.19 155.88"/><path class="cls-1" d="M214.89,229.3a5.19,5.19,0,0,0-7.33-1.37h0l-8.5,5.82,9.41,13.74,3.51-2.39-7.52-11,4.4-3a1.94,1.94,0,0,1,2,3.21l-3.75,2.57L218,241l3.77-2.58-7.21-2.7a5.16,5.16,0,0,0,.32-6.39" transform="translate(-24.24 -24.24)"/><polyline class="cls-1" points="37.92 165.33 23.05 173.06 25.04 176.88 39.91 169.16 37.92 165.33"/><path class="cls-1" d="M51.67,187.18a8.13,8.13,0,0,0,.43-4.9,27.19,27.19,0,0,1-.41-4c0-1.07.18-1.54,1.08-1.76s1.72.78,2.14,2.18c.61,2,.52,3.14-.93,3.55l1.38,4.31a4.32,4.32,0,0,0,2.74-2c1.39-2.41.36-5.83,0-6.81-1.43-4.47-4-6-6.61-5.46s-3.28,2.55-3.34,4.72c-.07,3.18,1,5.85.17,7.14a1.57,1.57,0,0,1-2.26.66,4.31,4.31,0,0,1-1.34-2.08,3.93,3.93,0,0,1-.09-2.95,2,2,0,0,1,1.17-1.05l-1.46-4.56A5.58,5.58,0,0,0,41.11,178a10,10,0,0,0,.32,4.84,13,13,0,0,0,2.92,5.37c2,1.87,5.92,1.67,7.32-1.07" transform="translate(-24.24 -24.24)"/><polyline class="cls-1" points="203.44 183.61 217.29 193.04 219.72 189.48 205.86 180.05 203.44 183.61"/><polyline class="cls-1" points="126.64 222.42 126.81 239.17 131.13 239.13 130.96 222.37 126.64 222.42"/><path class="cls-1" d="M230.73,218.18a8,8,0,0,0-4.48,2,29.16,29.16,0,0,1-3.26,2.3c-.92.53-1.43.59-2.06-.09s-.16-1.87.85-2.93c1.48-1.52,2.48-2,3.55-.93l3.09-3.31a4.38,4.38,0,0,0-3.12-1.39c-2.78,0-5.27,2.54-6,3.29-3.19,3.44-3.26,6.4-1.53,8.43s3.84,1.62,5.75.61c2.82-1.49,4.64-3.7,6.15-3.64a1.56,1.56,0,0,1,1.68,1.64,4.31,4.31,0,0,1-1.16,2.2,3.94,3.94,0,0,1-2.52,1.51,1.92,1.92,0,0,1-1.49-.5L223,230.9a5.61,5.61,0,0,0,5,1,10.18,10.18,0,0,0,4.06-2.65,13,13,0,0,0,3.25-5.17c.65-2.68-1.43-6-4.51-5.86" transform="translate(-24.24 -24.24)"/><path class="cls-1" d="M238.63,150.27a88.36,88.36,0,1,0-88.36,88.36,88.37,88.37,0,0,0,88.36-88.36Zm-88.36,83.54a83.54,83.54,0,1,1,83.54-83.54,83.54,83.54,0,0,1-83.54,83.54" transform="translate(-24.24 -24.24)"/><path class="cls-1" d="M136.51,108.79H109.67v60.36c0,26.86,25.43,38.63,40.3,38.63,8.54,0,19.64-3.9,28.25-11.46s13.69-17.58,13.69-33.2c0-15.47-4.39-29.49-6.87-37.35-2.95-9.35-6.28-19.31-4-28.09S189.2,86,189.2,86s-11.27-.35-18.1,6.57c-4.16,4.22-6.35,9.94-6.43,17.51-.1,9.58,3.87,16.33,7.77,24.32,4.22,8.67,9.57,17.06,9.57,30.82,0,14.15-5.55,23.37-10.24,28-5.77,5.78-12.42,7.93-16.54,8l-.45,0a12.75,12.75,0,0,0,1-1.86,10.7,10.7,0,0,0,.13-6.25,7.43,7.43,0,0,0-4.07-4.22,6.7,6.7,0,0,0-5.56,0,5.42,5.42,0,0,0-3,3.88,5.58,5.58,0,0,0-.08.57,4.59,4.59,0,0,0,1,3.44,3,3,0,0,1,3-1.92A2.17,2.17,0,0,1,149,196a2.76,2.76,0,0,1,.15,2.84,4.91,4.91,0,0,1-4,2.38c-2.63.14-6.73-1.24-7.57-5.53a7.47,7.47,0,0,1,5.76-8.85c-1.35-2.59-2.12-5.93.55-8.88a6.83,6.83,0,0,1,9.74-.79,5.91,5.91,0,0,1,3.24-5.25,4.75,4.75,0,0,1,6.15,2.66,5.14,5.14,0,0,1-2.28,6,6.39,6.39,0,0,1-5.31.11c4.57,11.12,21.47.84,21.24-17.49-.13-10.39-4.73-19-8.86-26.81-3.89-7.36-7.55-13.79-7.47-22.24a16.38,16.38,0,0,1,2.54-9s-16.29,8.51-16.11,24.95c.13,11.86,4.73,18.07,9.62,23.71,3.37,3.89,14,12.88,11.53,17.37-1-3.7-4.94-5.8-8.34-5.94a11.68,11.68,0,0,0-9.19,4.22,11.2,11.2,0,0,0-11.88,6.08c-1.2-.44-2-3.07-2-5.87V108.79Zm-3.23,30.79h-3.13V129.15h-2.61v10.43h-3.13V129.15h-2.6v10.43h-3.13V129.15h-2.61v10.43h-3.13v-11a2.55,2.55,0,0,1,2.55-2.56h6.05v-4h3.13v4h6.06a2.55,2.55,0,0,1,2.55,2.56v11" transform="translate(-24.24 -24.24)"/><path class="cls-1" d="M197.87,169.15c0,23.69-16.25,38.42-34.82,44.1A116.41,116.41,0,0,0,150,218a117,117,0,0,0-13.11-4.75c-18.58-5.68-34.83-20.41-34.83-44.1V108.83h-5.9v60.32c0,15.24,7,39.73,39.66,49.5a99.59,99.59,0,0,1,14.16,5.7,101.17,101.17,0,0,1,14.15-5.7c32.66-9.77,39.66-34.26,39.66-49.5V108.83h-5.91v60.32" transform="translate(-24.24 -24.24)"/><polyline class="cls-1" points="85.66 66.61 82.95 66.61 82.95 78.59 85.66 78.59 85.66 66.61"/><path class="cls-1" d="M115.94,102.83h3.69v-2.4h-2.8c-1.77,0-2-.49-2-2.44V90.86h-2.68V99c0,2.77,1.65,3.87,3.83,3.87" transform="translate(-24.24 -24.24)"/><path class="cls-1" d="M124,102.83h4.43l1-2.75h4.19l1,2.75h2.59l-4.31-12h-2.73l-3.44,9.57h-1.82c-1.77,0-2-.49-2-2.44V90.86h-2.69V99c0,2.77,1.65,3.87,3.83,3.87Zm7.52-8.58,1.22,3.41h-2.45l1.23-3.41" transform="translate(-24.24 -24.24)"/><path class="cls-1" d="M100.8,100.82a2.26,2.26,0,0,1-1.78-.59,1.45,1.45,0,0,1-.4-1h-3a4.17,4.17,0,0,0,1.69,3.08,5.76,5.76,0,0,0,3,.83,7.37,7.37,0,0,0,3.77-.81,3.7,3.7,0,0,0,.76-5.22,4.7,4.7,0,0,0-2.84-1.36,14.93,14.93,0,0,1-2.45-.59c-.64-.22-.89-.46-.84-1.12s.79-1,1.71-1c1.33,0,2,.33,1.94,1.41h2.85a3.41,3.41,0,0,0-.7-2.31c-1.17-1.47-3.42-1.52-4.07-1.52-2.94,0-4.33,1.41-4.53,3.31A3,3,0,0,0,98,97.23c1.89.75,3.68.63,4.3,1.45a1.22,1.22,0,0,1,0,1.68,2.49,2.49,0,0,1-1.5.46" transform="translate(-24.24 -24.24)"/></svg>