<?xml version="1.0" encoding="utf-8"?>
<!-- Generator: Adobe Illustrator 16.0.3, SVG Export Plug-In . SVG Version: 6.00 Build 0)  -->
<!DOCTYPE svg PUBLIC "-//W3C//DTD SVG 1.1//EN" "http://www.w3.org/Graphics/SVG/1.1/DTD/svg11.dtd">
<svg version="1.1" id="레이어_1_xA0_이미지_1_"
	 xmlns="http://www.w3.org/2000/svg" xmlns:xlink="http://www.w3.org/1999/xlink" x="0px" y="0px" width="178px" height="48px"
	 viewBox="0 0 178 48" enable-background="new 0 0 178 48" xml:space="preserve">
<g>
	<g>
		<path fill="#7C0019" d="M145.237,16.973v0.004h-16.368v3.148c0,0,15.862,0,16.197,0c0,0.324,0,5.882,0,5.882h3.665v-9.034h-0.17
			H145.237L145.237,16.973z"/>
		<path fill="#7C0019" d="M135.491,15.441c3.599,0,6.528-2.786,6.528-6.208c0-1.153-0.367-2.25-1.032-3.203c0.479,0,2.219,0,2.219,0
			V3.016c0,0-5.673,0-5.998,0c0-0.294,0-2.318,0-2.318h-0.173h-3.4c0,0,0,2.024,0,2.318c-0.324,0-6.125,0-6.125,0v3.015
			c0,0,1.918,0,2.413,0c-0.682,0.955-1.056,2.051-1.056,3.203C128.867,12.596,131.898,15.441,135.491,15.441L135.491,15.441z
			 M135.491,12.449c-1.701,0-3.083-1.39-3.083-3.097c0-1.707,1.382-3.099,3.083-3.099s3.081,1.392,3.081,3.099
			C138.572,11.059,137.192,12.449,135.491,12.449L135.491,12.449z"/>
		<path fill="#7C0019" d="M148.71,2.559h-0.174h-3.493v13.034h3.667c-0.002,0,0-4.433,0-4.749c0.295,0,2.438,0,2.438,0v-3.26
			c0,0-2.144,0-2.438,0C148.71,7.264,148.71,2.559,148.71,2.559L148.71,2.559z"/>
		<path fill="#7C0019" d="M68.533,8.629V4.824l-0.01-1.921V2.731h-0.172h-17.98v3.195c0,0,14.207,0,14.54,0c0,0.323,0,5.851,0,5.851
			c0,0.076-0.049,7.308-1.104,9.137c-0.193,0-4.323,0-4.635,0c0-0.328,0-8.271,0-8.271h-3.493c0,0,0,7.943,0,8.271
			c-0.326,0-7.815,0-7.815,0v3.193h22.974v-3.193c0,0-3.031,0-3.445,0C67.674,20.016,68.533,16.62,68.533,8.629L68.533,8.629z"/>
		<path fill="#7C0019" d="M173.514,20.914c0.27-0.82,1.161-4.142,1.161-12.44V5.755l0.025-2.853V2.731h-0.17h-18.019v3.195
			c0,0,14.206,0,14.54,0c0,0.323,0,5.719,0,5.719c0,1.6-0.196,7.771-1.141,9.269c-0.167,0-1.539,0-1.813,0c0-0.328,0-8.174,0-8.174
			h-3.493c0,0,0,7.846,0,8.174c-0.284,0-2.354,0-2.641,0c0-0.328,0-8.174,0-8.174h-3.489c0,0,0,7.846,0,8.174
			c-0.316,0-4.472,0-4.472,0v3.193h22.975v-3.193C176.979,20.914,173.994,20.914,173.514,20.914L173.514,20.914z"/>
		<path fill="#7C0019" d="M91.774,2.44c0,0,0,3.847,0,4.161c-0.313,0-3.89,0-3.89,0v3.031c0,0,3.578,0,3.89,0c0,0.298,0,3.2,0,3.5
			c-0.313,0-3.89,0-3.89,0v3.029c0,0,3.578,0,3.89,0c0,0.29,0,2.198,0,2.338c-1.347,1.34-4.608,1.265-4.64,1.262
			c0,0-7.817,0-8.145,0c0-0.315,0-5.722,0-6.039c0.327,0,7.39,0,7.39,0V2.536H75.08v3.08c0,0,7.481,0,7.809,0
			c0,0.31,0,4.599,0,4.908c-0.328,0-7.565,0-7.565,0s0,0.032,0,0.059c-0.025,0-0.06,0-0.06,0v9.501
			c0.108,2.56,2.492,2.838,2.516,2.84c0.021,0,8.932-0.065,8.932-0.065c2.985,0,4.55-0.552,5.063-0.771c0,0.627,0,3.621,0,3.621
			h3.666V2.44h-0.17H91.774L91.774,2.44z"/>
		<path fill="#7C0019" d="M119.061,2.477c0,0,0,7.99,0,8.319c-0.279,0-2.039,0-2.318,0c0-0.329,0-8.319,0-8.319h-3.356
			c0,0,0,15.751,0,15.948c-1.503,0.973-4.159,0.909-4.188,0.909c0,0-3.957,0-4.273,0c0-0.331,0-13.293,0-13.621
			c0.323,0,5.518,0,5.518,0V2.641h-9.165v16.905c0.032,2.655,2.487,2.938,2.514,2.94c0.037,0.002,2.485,0.056,4.993-0.062
			c2.453-0.118,3.835-0.501,4.603-0.843c0,0.472,0,4.099,0,4.099h3.356c0,0,0-11.303,0-11.634c0.279,0,2.039,0,2.318,0
			c0,0.331,0,11.634,0,11.634h3.356V2.477h-0.171H119.061L119.061,2.477z"/>
		<path fill="#7C0019" d="M58.319,39.931c-0.307-0.23-0.594-0.448-1.216-1.102c0,0-2.625-2.908-3.027-3.351
			c0.102-0.126,3.056-3.737,3.057-3.737l0.173-0.186h-0.222h-1.268l-3.32,4.105v-4.105H52.4h-1.406v8.672h1.501v-4.438l3.467,3.856
			c0.286,0.388,0.802,0.582,1.526,0.582h1.239l-0.294-0.211C58.435,40.02,58.319,39.931,58.319,39.931L58.319,39.931z"/>
		<path fill="#7C0019" d="M63.075,31.301c-1.322-0.009-2.46,0.437-3.38,1.32c-0.92,0.886-1.387,1.97-1.387,3.226
			c0,1.323,0.463,2.435,1.375,3.304c0.886,0.85,1.986,1.282,3.269,1.282c1.283,0,2.393-0.449,3.304-1.33
			c0.914-0.88,1.376-1.999,1.376-3.319c0-1.211-0.429-2.259-1.274-3.121C65.481,31.769,64.376,31.311,63.075,31.301 M63.015,39.299
			c-0.905,0-1.669-0.379-2.264-1.124c-0.558-0.694-0.84-1.515-0.84-2.444c0-0.96,0.285-1.758,0.844-2.375
			c0.558-0.612,1.308-0.923,2.234-0.923c0.905,0,1.657,0.374,2.238,1.111c0.531,0.687,0.802,1.523,0.802,2.495
			c0,0.944-0.273,1.73-0.813,2.339C64.655,38.99,63.914,39.299,63.015,39.299L63.015,39.299z"/>
		<path fill="#7C0019" d="M79.708,36.083c0.181,0,2.788,0.002,2.788,0.002v-1.138c0,0-2.607,0.002-2.788,0.002
			c0-0.17,0-2.082,0-2.249c0.613-0.014,3.414-0.002,3.443-0.002l0.097,0.002v-1.166l-5.051-0.002v0.098l0.001,8.598h5.406
			l0.184-1.221c0,0-3.896,0.004-4.08,0.004C79.708,38.835,79.708,36.255,79.708,36.083L79.708,36.083z"/>
		<path fill="#7C0019" d="M134.839,36.083c0.181,0,2.784,0.002,2.784,0.002v-1.138c0,0-2.604,0.002-2.784,0.002
			c0-0.17,0-2.082,0-2.249c0.609-0.014,3.41-0.002,3.441-0.002l0.096,0.002v-1.166l-5.05-0.002v0.098l0.004,8.598h5.404l0.184-1.221
			c0,0-3.895,0.004-4.079,0.004C134.839,38.835,134.839,36.255,134.839,36.083L134.839,36.083z"/>
		<path fill="#7C0019" d="M89.741,31.532h-1.389l-3.548,8.695h1.342c0,0,1.149-3.068,1.194-3.188c0.126,0,3.004,0,3.13,0
			c0.046,0.118,1.218,3.188,1.218,3.188h1.665l-3.547-8.695H89.741 M89.989,35.888c-0.235,0-1.994,0-2.232,0
			c0.088-0.225,0.979-2.478,1.126-2.857C89.032,33.414,89.903,35.663,89.989,35.888L89.989,35.888z"/>
		<path fill="#7C0019" d="M107.043,31.54H106l0.008,5.36c0,1.6-0.374,2.464-2.338,2.464h-0.23c-1.302,0-1.967-0.829-1.967-2.464
			c0-0.004,0.008-5.36,0.008-5.36H99.97l-0.007,5.364c0,0.65,0.027,1.098,0.081,1.364c0.09,0.492,0.294,0.913,0.604,1.251
			c0.571,0.621,1.385,0.938,2.419,0.938h0.976c1.034,0,1.847-0.317,2.417-0.94c0.313-0.336,0.517-0.757,0.604-1.251
			c0.055-0.265,0.081-0.71,0.081-1.362l-0.004-5.364H107.043L107.043,31.54z"/>
		<path fill="#7C0019" d="M116.359,31.54l-0.007,0.096c0,0-0.01,5.782-0.01,6.293c-0.32-0.409-5.03-6.389-5.03-6.389h-1.306v8.711
			h1.131c0,0,0.009-6.001,0.009-6.515c0.319,0.413,5.1,6.509,5.1,6.509l1.255,0.006V31.54h-0.104H116.359L116.359,31.54z"/>
		<polygon fill="#7C0019" points="120.442,31.54 120.44,40.251 121.943,40.251 121.945,31.54 121.847,31.54 120.442,31.54 		"/>
		<polygon fill="#7C0019" points="156.554,31.54 156.558,33.463 156.558,38.342 156.565,40.251 158.066,40.251 158.068,38.34 
			158.068,33.461 158.07,31.636 158.07,31.54 157.972,31.54 156.554,31.54 		"/>
		<path fill="#7C0019" d="M130.387,31.54c0,0-2.324,6.361-2.491,6.827c-0.169-0.466-2.448-6.827-2.448-6.827h-1.713l3.247,8.715
			l1.362-0.002l3.366-8.713h-0.141H130.387L130.387,31.54z"/>
		<path fill="#7C0019" d="M153.63,35.835c-0.009-0.006-1.168-0.574-1.168-0.574l-0.999-0.49c-0.731-0.385-1.104-0.802-1.104-1.245
			c0-0.371,0.163-0.644,0.51-0.835c0.263-0.152,0.639-0.223,1.104-0.206c0.76,0.019,1.54,0.246,1.947,0.561l0.155,0.122v-1.544
			l-0.068-0.022c-0.61-0.192-1.272-0.289-1.961-0.289c-0.9,0-1.664,0.178-2.265,0.529c-0.719,0.413-1.084,1.024-1.084,1.817
			c0,0.807,0.403,1.477,1.203,1.994c0.008,0.005,0.431,0.212,0.431,0.212l1.738,0.854c0.731,0.384,1.102,0.832,1.102,1.335
			c0,0.381-0.197,0.685-0.603,0.926c-0.359,0.217-0.747,0.324-1.156,0.32c-0.936-0.006-1.811-0.241-2.609-0.697l-0.17-0.102
			l0.224,1.52l0.056,0.02c0.707,0.264,1.498,0.396,2.351,0.396c1.068,0,1.984-0.277,2.637-0.799
			c0.618-0.501,0.933-1.164,0.933-1.977C154.833,36.956,154.428,36.342,153.63,35.835L153.63,35.835z"/>
		<path fill="#7C0019" d="M159.662,31.505v0.094l-0.005,1.051c0,0,2.253,0,2.43,0.002c0,0.188,0,7.574,0,7.574h1.505
			c0,0,0.004-7.386,0.004-7.574c0.176,0,2.478,0.004,2.478,0.004v-1.15H159.662L159.662,31.505z"/>
		<path fill="#7C0019" d="M173.362,31.519c0,0-2.228,3.429-2.381,3.665c-0.149-0.237-2.33-3.679-2.33-3.679h-0.054h-1.679
			c0,0,3.101,4.88,3.133,4.926c0,0.059-0.011,3.795-0.011,3.795h1.513c0,0,0.003-3.734,0.003-3.793
			c0.034-0.048,3.268-4.914,3.268-4.914H173.362L173.362,31.519z"/>
		<path fill="#7C0019" d="M75.198,38.266c0,0-1.441-1.804-1.806-2.258c0.299-0.108,0.822-0.345,1.217-0.761
			c0.437-0.453,0.657-0.974,0.657-1.536c0-0.639-0.241-1.162-0.716-1.562c-0.499-0.408-1.187-0.615-2.049-0.615h-2.792h-0.097
			l-0.001,8.693h1.55v-0.132c-0.038-0.29-0.042-0.739-0.042-1.77c0,0,0-5.521,0-5.709c1.419-0.013,1.984,0.165,2.204,0.318
			c0.298,0.213,0.442,0.518,0.439,0.933c-0.005,0.961-0.708,1.536-2.152,1.754l-0.163,0.022l3.045,3.902
			c0.362,0.453,0.89,0.681,1.573,0.681h1.244l-0.258-0.175C76.432,39.63,75.756,38.979,75.198,38.266L75.198,38.266z"/>
		<path fill="#7C0019" d="M145.932,38.266c0,0-1.443-1.804-1.808-2.258c0.301-0.108,0.822-0.345,1.22-0.761
			c0.437-0.453,0.656-0.974,0.656-1.536c0-0.639-0.242-1.162-0.719-1.562c-0.496-0.408-1.186-0.615-2.05-0.615h-2.79h-0.097v8.693
			h1.549v-0.132c-0.039-0.29-0.041-0.716-0.041-1.77c0,0,0-5.521,0-5.709c1.42-0.013,1.982,0.165,2.203,0.318
			c0.299,0.211,0.439,0.518,0.439,0.933c-0.007,0.961-0.708,1.536-2.152,1.754l-0.163,0.022l3.048,3.902
			c0.359,0.453,0.891,0.681,1.57,0.681h1.244l-0.257-0.175C147.166,39.63,146.487,38.979,145.932,38.266L145.932,38.266z"/>
	</g>
	<g>
		<path fill="#D7C9B1" d="M36.703,0.612v24.951c0,0,0.195,9.014-6.051,14.213c0,0-5.145,4.177-10.863,6.829h-0.062
			c-5.924-2.55-10.767-6.829-10.767-6.829c-6.245-5.199-6.149-14.213-6.149-14.213V0.612H36.703L36.703,0.612z"/>
		<path fill="#7C0019" d="M36.703,0.001H2.201v25.562c-0.003,0.374-0.026,9.355,6.371,14.681l-0.015-0.012
			c0.2,0.179,4.984,4.373,10.929,6.934l0.116,0.049h0.321l0.122-0.057c5.722-2.652,10.938-6.867,10.992-6.908
			c6.405-5.331,6.287-14.318,6.277-14.699V0.001H36.703 M36.092,1.222c0,1.163,0,24.341,0,24.341c0,0.006,0,0.022,0,0.055
			c0,0.754-0.135,8.947-5.83,13.688c-0.046,0.035-5.015,4.047-10.509,6.641c-5.663-2.492-10.34-6.588-10.388-6.629l-0.013-0.012
			c-5.863-4.881-5.931-13.415-5.931-13.728c0-0.006,0-23.193,0-24.356C4.578,1.222,34.938,1.222,36.092,1.222L36.092,1.222z"/>
		<polygon fill="#7C0019" points="36.569,14.028 2.812,14.028 2.812,0.612 36.569,0.612 36.569,14.028 		"/>
		<polygon fill="#D7C9B1" points="3.492,1.303 3.492,1.553 36.104,1.553 36.104,1.303 3.492,1.303 		"/>
		<polygon fill="#D7C9B1" points="3.492,8.285 3.492,8.534 36.104,8.534 36.104,8.285 3.492,8.285 		"/>
		<polygon fill="#D7C9B1" points="3.417,12.453 3.417,12.703 36.031,12.703 36.031,12.453 3.417,12.453 		"/>
		<path fill="#7C0019" d="M17.008,41.856h0.449c0.063,0,0.04-0.056,0.04-0.056c-0.183-0.809-0.088-1.439-0.053-1.626
			c0,0,0.019-0.057-0.047-0.057h-0.443c-0.06,0-0.038,0.046-0.038,0.046c0.15,0.62,0.092,1.404,0.053,1.633
			C16.969,41.797,16.942,41.856,17.008,41.856L17.008,41.856z"/>
		<path fill="#7C0019" d="M18.67,40.068C17.956,40.137,18,40.975,18,40.975c0.044,0.758,0.83,0.9,0.83,0.9
			c-0.214,0.58-0.787,0.754-0.787,0.754c-0.136,0.053-0.037,0.093-0.037,0.093c0.172,0.054,0.421-0.044,0.421-0.044
			c1.049-0.472,1.076-1.57,1.076-1.57C19.524,39.988,18.67,40.068,18.67,40.068 M18.925,41.61c-0.341,0.01-0.423-0.521-0.423-0.521
			c-0.089-0.586,0.138-0.619,0.138-0.619c0.24-0.074,0.344,0.423,0.344,0.423C19.102,41.465,18.925,41.61,18.925,41.61L18.925,41.61
			z"/>
		<path fill="#7C0019" d="M21.317,40.747c0,0-0.095-0.696-0.746-0.687c0,0-0.645-0.018-0.675,0.875c0,0-0.025,0.943,0.791,0.902
			C20.687,41.838,21.485,41.787,21.317,40.747 M20.698,41.54c-0.309,0.111-0.342-0.518-0.342-0.518
			c-0.032-0.603,0.212-0.661,0.212-0.661c0.249-0.061,0.317,0.382,0.317,0.382C20.997,41.427,20.698,41.54,20.698,41.54
			L20.698,41.54z"/>
		<path fill="#7C0019" d="M21.509,42.078c0.688,0.138,0.871-0.352,0.871-0.352C22.599,41.035,21.735,41,21.735,41l0.139-0.891
			c0,0,0.867,0.044,1.1-0.072c0,0,0.054-0.037,0.023,0.094c0,0-0.048,0.298-0.331,0.316l-0.426,0.035l-0.041,0.253
			c0,0,0.737-0.017,0.724,0.78c0,0-0.027,0.616-0.748,0.767c0,0-0.337,0.075-0.726-0.084c0,0-0.058-0.027-0.027-0.075
			C21.421,42.123,21.449,42.065,21.509,42.078L21.509,42.078z"/>
		<path fill="#7C0019" d="M18.97,25.396c0.054-0.064,0.125-0.019,0.184,0c0.055,0.017,0.057,0.124,0.089,0.182
			c0.017,0.039,0.125,0.147,0.135,0.181c0.088,0.401,0,0.927-0.181,1.229c-0.05,0.095-0.134,0.143-0.192,0.145
			c-0.076,0.009-0.1-0.104-0.126-0.145c-0.116-0.16-0.029-0.545,0-0.725c0.03-0.229-0.151-0.602-0.035-0.771
			C18.844,25.493,18.967,25.396,18.97,25.396L18.97,25.396z"/>
		<path fill="#7C0019" d="M13.521,25.82c0.097-0.03,0.237,0.02,0.296,0l0.131-0.054c0.151-0.097,0.302-0.068,0.455-0.053
			c0.076,0.008,0.305,0.106,0.379,0.109c0.121,0.015,0.695,0.075,1.304,0.163c-0.005-0.002,0.325-0.043,0.242-0.135
			c0.052,0.059-0.009-0.05-0.133-0.093l-0.043-0.045c0.005-0.007-0.105-0.092,0.09-0.16c-0.074,0.024,0.13-0.029,0.169-0.072
			c0.08-0.085-0.036-0.175-0.036-0.175c-0.289-0.099-0.613,0.088-1.046,0.043c-0.213-0.018-0.516-0.142-0.815-0.09
			c-0.328,0.057-0.809,0.242-1.038,0.42C13.477,25.68,13.367,25.871,13.521,25.82L13.521,25.82z"/>
		<path fill="#7C0019" d="M17.167,23.459c0.295-0.016,0.308,0.288,0.314,0.257c-0.033,0.216-0.568,0.238-0.695,0.407
			c-0.375,0.488-0.219,0.954-1.103,1.003c0,0-0.178-0.042-0.109-0.116c0.056-0.058,0.268-0.114,0.348-0.163
			c0.115-0.064,0.105-0.248,0.181-0.362c0.015-0.03,0.114-0.063,0.139-0.089c0.249-0.334,0.277-0.674,0.714-0.873
			C16.974,23.512,17.134,23.466,17.167,23.459L17.167,23.459z"/>
		<path fill="#7C0019" d="M19.996,22.15c0.102-0.058,0.201,0,0.267,0.06c0.04,0.025,0.362,0.802,0.376,0.877
			c0.042,0.283,0.073,0.934-0.003,1.141c-0.108,0.29-0.377,0.515-0.318,1.032c0.031,0.301,0.165,0.538,0.292,0.802
			c0.016,0.043,0.148,0.301,0.156,0.355c0.049,0.277-0.103,0.636-0.126,0.86c-0.067,0.558,0.156,1.067,0.066,1.601
			c-0.037,0.229-0.111,0.346-0.238,0.485l-0.1,0.087c-0.026,0.057-0.078,0.074-0.128,0.114l-0.061,0.063
			c-0.095,0.021-0.104,0.076-0.144,0.082c-0.239,0.054-0.288-0.086-0.272-0.055c-0.244-0.685,0.163-1.482-0.045-2.144
			c-0.047-0.15-0.227-0.303-0.25-0.464c-0.084-0.595,0.47-0.905,0.463-1.304c0-0.283-0.374-0.65-0.458-0.93
			c-0.106-0.331-0.175-0.958-0.032-1.367c0.034-0.098,0.163-0.265,0.197-0.399c0.068-0.255,0.173-0.466,0.21-0.635
			c0.013-0.052,0.045-0.126,0.073-0.177C19.931,22.22,19.979,22.159,19.996,22.15L19.996,22.15z"/>
		<path fill="#7C0019" d="M27.06,20.736c0.4-0.046,0.581,0.114,0.393,0.454l-0.078,0.074c-0.033,0.011-0.139,0.15-0.161,0.17
			c-0.192,0.143-0.376,0.23-0.523,0.411c-0.05,0.061-0.091,0.214-0.154,0.268c-0.101,0.073-0.482,0.24-0.581,0.258
			c-0.482,0.079-1.143-0.406-1.213-0.685c-0.063-0.24,0-0.472,0.104-0.528c0.162-0.082,0.595-0.038,0.74-0.054
			c0.374-0.028,0.607-0.008,0.894-0.106C26.655,20.941,26.853,20.761,27.06,20.736L27.06,20.736z"/>
		<path fill="#7C0019" d="M24.998,20.575c0,0,0.227,0.095,0.431,0.046c0.143-0.035,0.409-0.157,0.544-0.182
			c0.082-0.021,0.196,0.023,0.275,0c0.221-0.068,0.627-0.499,0.14-0.545c-0.177-0.018-0.705,0.182-0.868,0.228
			c-0.165,0.041-0.268,0.069-0.404,0.141c-0.037,0.021-0.226,0.176-0.203,0.149C24.913,20.412,24.788,20.516,24.998,20.575
			L24.998,20.575z"/>
		<path fill="#7C0019" d="M21.516,21.393c-0.143-0.019-0.143-0.259-0.5-0.182c-0.25,0.053-0.318,0.419-0.683,0.411l-0.181-0.09
			c-0.158-0.038-0.271,0.019-0.411-0.049c-0.641-0.301,0.498-1.836,0.865-1.817c0.019,0,0.208,0.07,0.231,0.09
			c0.114,0.101,0.114,0.527,0.222,0.683c0.083,0.109,0.211,0.1,0.321,0.182c0.116,0.086,0.335,0.389,0.361,0.547
			C21.742,21.168,21.802,21.431,21.516,21.393L21.516,21.393z"/>
		<path fill="#7C0019" d="M27.434,33.815C27.441,33.805,27.441,33.803,27.434,33.815L27.434,33.815z"/>
		<path fill="#7C0019" d="M32.537,20.297C32.537,20.289,32.537,20.288,32.537,20.297L32.537,20.297z"/>
		<rect x="27.432" y="33.815" fill="#7C0019" width="0.001" height="0"/>
		<path fill="#7C0019" d="M32.537,20.297c0,0.002,0.001,0.005,0.001,0.008c0,0.002,0.002,0.002,0.002,0.003
			C32.538,20.302,32.538,20.299,32.537,20.297L32.537,20.297z"/>
		<path fill="#7C0019" d="M26.796,19.863c0.004-0.007,0.008-0.017,0.01-0.023C26.795,19.864,26.793,19.868,26.796,19.863
			L26.796,19.863z"/>
		<path fill="#7C0019" d="M24.03,27.629c-0.001-0.002-0.007-0.002-0.009-0.004C24.03,27.631,24.032,27.631,24.03,27.629
			L24.03,27.629z"/>
		<path fill="#7C0019" d="M18.758,21.506c-0.249,0.14-0.789,0.354-0.902,0.593c-0.064,0.126-0.064,0.235-0.115,0.388
			c-0.006,0.017-0.074,0.042-0.095,0.088c-0.264,0-0.496-0.015-0.725,0.045c-0.18,0.051-0.437,0.241-0.636,0.274
			c-0.405,0.069-0.714-0.109-1.092-0.045c-0.169,0.029-0.277,0.205-0.416,0.273c-0.118,0.059-0.166,0.059-0.259,0.143l-0.084,0.097
			c-0.013,0.036-0.055,0.128-0.081,0.171c-0.082,0.123-0.116,0.249-0.136,0.383c-0.019,0.13-0.095,0.44-0.162,0.568
			c-0.032,0.061-0.205,0.2-0.229,0.257c-0.013,0.04-0.051,0.079,0,0.136c-0.058-0.063-0.046,0.063,0.281,0.08
			c0.36,0.008,1.145-0.231,1.145-0.231l0.378-0.203c0.072-0.057,0.365-0.277,0.428-0.355c0.275-0.34,1.008-1.581,1.58-1.254
			l0.103,0.072c0.136,0.229-0.035,0.885-0.138,1.034l-0.129,0.153c-0.102,0.034-0.174,0.297-0.189,0.421
			c-0.023,0.195,0.033,0.371,0.048,0.481c0.029,0.234,0.055,0.531-0.091,0.822c-0.032,0.057-0.115,0.158-0.093,0.315
			c0.027,0.18,0.281,0.311,0.317,0.457c0.021,0.073,0.086,0.087,0,0.229c-0.048,0.074-0.257,0.206-0.317,0.273
			c-0.083,0.082-0.01,0.214,0.044,0.266c0.157,0.142,0.287,0.159,0.41,0.324c0.174,0.223,0.164,0.417,0.548,0.454
			c0.301,0.029,0.726,0.044,0.547-0.366l-0.091-0.153c-0.107-0.267-0.294-0.505-0.32-0.798c-0.035-0.373,0.265-0.563,0.14-0.863
			c-0.102-0.232-0.555-0.205-0.593-0.505c-0.02-0.17,0.15-0.523,0.183-0.685c0.036-0.218-0.022-0.356,0.047-0.545
			c0.046-0.133,0.245-0.285,0.266-0.452c0.043-0.298-0.189-0.487-0.087-0.816c0.049-0.168,0.314-0.151,0.412-0.276
			c0.126-0.17,0.057-0.402,0.134-0.639c0.008-0.027,0.073-0.168,0.086-0.192c-0.009-0.011,0.051-0.305,0.051-0.305
			C18.886,21.438,18.772,21.512,18.758,21.506 M15.877,23.907c-0.255,0.059-0.279-0.483-0.89-0.273
			c-0.033,0.012-0.205,0.169-0.219,0.195c-0.072,0.163-0.034,0.576-0.114,0.616c0,0-0.238,0.059-0.192-0.242
			c0.073-0.478,0.166-0.568,0.407-0.769c0.033-0.028,0.123-0.094,0.17-0.106c0.288-0.065,0.821,0.045,0.918,0.193
			C16.04,23.641,15.866,23.91,15.877,23.907L15.877,23.907z"/>
		<path fill="#7C0019" d="M32.538,20.305c-0.043-0.223-0.646-0.206-0.89-0.503c-0.091-0.118-0.023-0.183,0-0.271
			c0.068-0.259,0.621-0.106,0.75-0.336c0.052-0.096,0.071-0.381,0.037-0.42c-0.346-0.425-1.076-0.224-1.592-0.429
			c-0.248-0.102-0.558-0.309-0.819-0.407c-0.328-0.125-0.581-0.144-0.909-0.274c-0.076-0.031-0.221-0.138-0.299-0.17
			c-0.366-0.146-0.654-0.176-1.018-0.331c-0.043-0.018-0.154-0.081-0.202-0.098c-0.146-0.063-0.191-0.073-0.346-0.128
			c-0.563-0.207-1.279-0.384-2.094-0.334c-0.358,0.02-0.768-0.045-1.318,0.111c-0.192,0.046-0.458,0.212-0.636,0.268
			c-0.126,0.038-0.234,0.059-0.348,0.11c-0.159,0.063-0.299,0.158-0.516,0.208c-0.626,0.14-1.459-0.014-2.093,0.091
			c-0.551,0.088-0.868,0.435-1.32,0.591c-0.138,0.046-0.195,0.032-0.33,0.082c-0.08,0.027-0.267,0.076-0.331,0.112
			c-0.189,0.096-0.311,0.126-0.524,0.215c-0.106,0.048-0.232,0.147-0.336,0.194c-0.152,0.075-0.161,0.097-0.288,0.189l-0.103,0.075
			c0,0-0.223,0.194-0.25,0.228c-0.088,0.093-0.173,0.22-0.25,0.317c-0.231,0.27-0.579,0.608-0.866,0.817
			c-0.104,0.074-0.178,0.06-0.27,0.139c-0.11,0.083-0.204,0.172-0.309,0.25c-0.239,0.171-0.477,0.286-0.739,0.429l-0.169,0.112
			c-0.222,0.147-0.213,0.207-0.443,0.351c-0.15,0.101-0.216,0.256-0.355,0.375c-0.091,0.07-0.196,0.292-0.257,0.388
			c-0.287,0.418-0.393,1.035-0.597,1.554c-0.061,0.147-0.558,0.864-0.681,0.908l-0.091,0.087c-0.07,0.06-0.07,0.077-0.135,0.141
			c-0.147,0.131-0.295,0.206-0.408,0.365c-0.093,0.123-0.147,0.27-0.232,0.407c-0.129,0.212-0.344,0.448-0.452,0.683
			c-0.044,0.086-0.076,0.173-0.106,0.255c-0.012,0.012-0.02,0.028-0.024,0.028c-0.055,0.07-0.15,0.363-0.15,0.363
			c-0.101,0.234-0.342,0.365-0.659,0.818c-0.372,0.027-1.651-0.298-2.521-0.71c0.195,0.216,1.171,0.873,2.314,0.999
			c-0.076,0.11-0.082,0.226-0.218,0.261c-0.459,0.112-1.253-0.138-2.322-0.509c0.063,0.147,1.003,0.698,2.393,0.782
			c-0.206,0.244-2.115,0.183-3.607-0.224c-0.057,0.157,1.866,0.584,2.921,0.569c-0.181,0.093-0.655,0.201-0.96,0.311
			c-0.481-0.054-1.153-0.137-1.284-0.187c0.031,0.098,0.507,0.227,0.9,0.319c-0.378,0.134-0.94,0.213-1.157,0.258
			c0.158,0.042,0.766-0.058,1.408-0.211c0.561,0.108,1.418,0.22,1.89,0.199c-0.118,0.059-0.563,0.346-0.913,0.55
			c-0.896,0.085-1.873,0.16-2.082,0.185c0.118,0.019,0.905,0.031,1.742,0.011c-0.513,0.3-1.058,0.61-1.321,0.73
			c0.391-0.098,1.083-0.363,1.792-0.745c0.705-0.025,1.365-0.082,1.64-0.181c-0.095,0.205-0.663,1.187-1.194,1.414
			c0.229-0.037,0.963-0.246,1.408-1.357c0.159,0.067,0.337,0.109,0.547,0.12c0.117,0.178,0.394,0.629,0.92,0.655
			c0.106,0.307,1.081,1.896,2.449,1.274c-0.396-0.213-0.634-0.438-0.829-1.071c0.607-0.038,2.215,0.843,2.698,2.75
			c-0.381-0.13-0.857-0.35-0.907-0.54c-0.104,0.442-0.172,1.01,0.802,1.991c0.019,0.211,0.016,0.463,0.06,0.701
			c0.162,0.166,0.348,0.292,0.519,0.439c0.013,0.274-0.026,0.657,0.701,0.868c0.246,0.203,1.04,0.422,1.155,0.558
			c0.237,0.076,0.587,0.091,0.843,0.076c0,0,0.345-0.059,0.437-0.19c0.172-0.009,0.406-0.015,1.459-1.136
			c0.221-0.266,0-1.718,0.053-2.069c0.104-0.255,0.149-0.491,0.29-0.806c0,0,0.144-0.313,0.413-0.437
			c0.018-0.011,0.034-0.011,0.056-0.017c0.607-0.137,1.397,0.431,1.772,0.59c0.135,0.058,0.207,0.026,0.317,0.095
			c0.053,0.027,0.128,0.151,0.183,0.181c0.134,0.075,0.263,0.056,0.412,0.134c0.218,0.122,0.66,0.762,1.044,0.689
			c0.12-0.03,0.214-0.304,0.317-0.37c0.179-0.11,0.43-0.101,0.591-0.224c0.183-0.145,0.108-0.308,0.135-0.505
			c0-0.007,0.085-0.1,0.094-0.137c0.089-0.013,0.287-0.002,0.41-0.041c0.016-0.007,0.068-0.067,0.09-0.091
			c0.078-0.081,0.021-0.17,0-0.234c-0.027-0.072-0.213-0.159-0.271-0.224c-0.137-0.137-0.371-0.333-0.458-0.5
			c-0.042-0.083,0.011-0.098-0.046-0.185c-0.06-0.095-0.22-0.192-0.268-0.314c-0.175-0.392-0.105-1.261-0.184-1.383
			c-0.071-0.118-0.161-0.102-0.232-0.211c-0.151-0.241,0.036-1.012,0.049-1.318c0.013-0.246-0.227-0.093-0.227-0.093
			c-0.199,0.492-0.178,0.708-0.226,1.411c-0.008,0.062-0.092,0.435-0.092,0.502c-0.002,0.245,0.14,0.661,0.044,0.955
			c-0.032,0.095-0.23,0.279-0.5,0.272c-0.102,0-0.611-0.132-0.726-0.182c-0.023-0.012-0.131-0.135-0.138-0.137
			c-0.254-0.201-0.307-0.013-0.317,0.086c-0.009,0.106,0.034,0.126,0.055,0.186c0.009,0.058,0.111,0.274,0.101,0.294
			c-0.003,0.022-0.092,0.262-0.565-0.02c-0.356-0.217-0.708-0.811-0.727-0.912c-0.049-0.226,0.021-0.399,0.065-0.478
			c0.178-0.162,0.388,0.063,0.567,0.157c0.044,0.024,0.155,0.102,0.21,0.111c0.103,0.019,0.271-0.017,0.294-0.017
			c0.69-0.042,1.405,0.207,1.527-0.257c0.077-0.291-0.209-0.446-0.259-0.568c-0.065-0.146-0.032-0.157-0.07-0.317
			c-0.005-0.012-0.053-0.118-0.063-0.132c-0.071-0.12-0.02-0.227-0.089-0.362c-0.073-0.147-0.277-0.238-0.363-0.364
			c-0.117-0.17-0.117-0.379-0.275-0.503c-0.233-0.19-1.165-0.468-1.274-0.685c-0.177-0.344,0.041-0.975-0.044-1.407
			c-0.047-0.252-0.129-0.39-0.284-0.547c-0.06-0.06-0.088-0.151-0.066-0.234c0.04-0.15,0.121-0.108,0.166-0.448
			c0.029-0.187-0.017-0.397,0-0.59c0.001-0.031,0.09-0.329,0.095-0.364c0.042-0.509-0.025-1.04-0.137-1.407
			c-0.053-0.179-0.219-0.334-0.273-0.504c-0.048-0.142,0.009-0.223-0.048-0.365c-0.046-0.124-0.205-0.211-0.268-0.313
			c-0.124-0.183-0.087-0.491-0.276-0.594c-0.139-0.078-0.188,0.03-0.179,0c-0.046,0.165-0.036,0.329,0.044,0.545
			c0.034,0.092,0.205,0.226,0.231,0.319c0.035,0.167-0.027,0.371,0,0.547l0.087,0.181c0.07,0.456-0.178,1.063-0.362,1.316
			c-0.13,0.17-0.521,0.386-0.545,0.638c-0.019,0.157,0.044,0.163,0.084,0.228c0.059,0.083,0.248,0.193,0.275,0.273
			c0.021,0.058,0.044,0.046,0.068,0.107l0.024,0.121c0.031,0.318-0.384,0.392-0.183,0.772c0.058,0.11,0.252,0.11,0.361,0.181
			c0.207,0.13,0.6,0.5,0.637,0.814c0.018,0.14-0.001,0.874-0.042,0.958c-0.095,0.204-0.606,0.282-0.547,0.684
			c0.063,0.439,1.218,0.315,1.542,0.545c0.155,0.106,0.186,0.343,0.232,0.551c0.026,0.112-0.087,0.152-0.138,0.177
			c-0.122,0.069-0.209,0.017-0.364,0.048c-0.376,0.076-0.975,0.246-1.132,0.547c-0.197,0.348,0.035,0.825-0.048,1.225
			c-0.083,0.362-0.354,0.803-0.551,1.095c-0.12,0.178-0.273,0.354-0.33,0.606c-0.134,0.534-0.041,1.167-0.079,1.799l-0.008,0.004
			c0,0,0.023,0.326-0.198,0.566c-0.25,0.273-1.113,1.084-1.728,1.084c-0.228-0.008-0.322-0.083-0.57-0.264
			c-0.157-0.013-0.517-0.101-0.725-0.317c-0.065-0.113-0.744-0.804-0.317-1c0.401-0.184,1.05,0.218,1.351,0.412
			c0.122,0,1,0.044,1.932-1.178c-0.044-0.641-0.097-1.459-0.167-1.609c-0.096-0.311-0.627-0.867-0.74-1.198
			c-0.07-0.27-0.196-0.799-0.115-1.165c-0.034-0.406-0.293-0.497-0.4-0.827c-0.03-0.084-0.065-0.149-0.083-0.175
			c-0.033-0.12-0.055-0.226-0.128-0.337c-0.163-0.247-0.32-0.3-0.468-0.542c-0.155-0.252-0.128-0.564-0.365-0.729
			c-0.131-0.084-0.307-0.097-0.454-0.181c-0.106-0.061-0.24-0.216-0.364-0.271c-0.143-0.064-0.184-0.083-0.329-0.147
			c-0.072-0.033-0.2-0.091-0.262-0.126c-0.064-0.035-0.129-0.004-0.182-0.048c-0.175-0.146-0.05-0.283-0.136-0.542
			c-0.008-0.031-0.077-0.033-0.092-0.091c-0.073-0.02-0.2-0.135-0.299-0.066c-0.137,0.1-0.174,0.07-0.258,0.279
			c-0.05,0.137-0.143,0.54-0.235,0.639c-0.082,0.099-0.186,0.234-0.314,0.324c-0.121,0.063-0.226,0.056-0.226,0.056l-0.341,0.049
			l-0.168,0.262c0,0-0.187-0.025-0.284-0.025c-0.027,0.064-0.252,0.235-0.323,0.296c-0.289,0.17-0.465,0.05-0.485-0.011
			c-0.013-0.056-0.104-0.169,0.09-0.285c0.667-0.188,1.484-1.08,1.553-1.272c-0.085,0.13-1.466,0.893-1.721,0.995
			c0.274-0.651,1.965-1.604,2.068-1.717c-0.433,0.065-1.873,0.937-2.124,1.321c-0.24,0.388-0.522,0.279-0.787,0.268
			c-0.259-0.008-0.236,0.271-0.249,0.44c-0.003,0.165-0.13,0.503-0.023,0.564c0.177,0.151,0.642-0.467,0.791-0.134
			c0.081,0.37-0.876,0.352-0.869,0.652c-0.045,0.157,0.884,0.213,1.055,0.38c-0.298,0.218-1.03,0.287-1.247,0.299
			c-0.135,0.01-0.258,0.006-0.328-0.004c-0.121-0.023-0.279-0.134-0.418-0.36c-0.266-0.48,0.182-0.812,0.188-0.936
			c0.012-0.128-0.049-0.059-0.058-0.262c-0.008-0.2,0.219-0.235,0.276-0.276c0.064-0.046-0.017-0.104-0.002-0.298
			c0.118-0.442,0.839-0.952,0.655-1.095c-0.168-0.089-0.518,0.297-0.653,0.474c-0.497,0.64-1.075,0.438-1.271,0.446
			c-0.438,0.025-0.36-0.456-0.055-0.421c0.353-0.073,0.327-0.56,0.578-0.512c0.081,0.356-0.314,0.405-0.13,0.486
			c0.252,0.099,0.277-0.229,0.356-0.368c0.075-0.141,0.43-0.443,0.39-0.521c-0.103-0.038-0.365,0.151-0.482,0.241
			c-0.289-0.719,0.437-1.267,0.473-1.479c0.238-0.378,1.569-0.856,1.595-1.428l0.036-0.033c0,0,0.024-0.014,0.065,0.053
			c0,0,0,0,0.003,0c0.009,0.033,0.016,0.07,0.026,0.11c0.003,0.045-0.003,0.088-0.003,0.088l0.007-0.054
			c0.01,0.088,0.006,0.165,0.01,0.146v0.085c0.012,0.054,0.079,0.079,0.089,0.085c0.029-0.006,0.103-0.029,0.17-0.106
			c0.011-0.014,0.089-0.086,0.089-0.104c0.127-0.094,0.151-0.105,0.24-0.233c0.229-0.334-0.212-0.822-0.089-1.271
			c0.084-0.298,0.362-0.652,0.362-0.652c0.075-0.17-0.044-0.167-0.044-0.167c-0.175-0.031-0.298,0.155-0.271,0.129
			c-0.225,0.213-0.293,0.314-0.457,0.598c0,0-0.136,0.126-0.176-0.045c-0.079-0.282,0.24-0.835,0.34-0.907
			c0.187-0.128,0.377-0.184,0.611-0.279c0.119-0.049,0.294-0.238,0.411-0.27c0.057-0.019,0.121-0.031,0.181,0
			c0,0,0.087,0.064,0.046,0.27c0,0-0.089,0.246-0.058,0.336c0.02,0.061,0.012,0.12,0.149,0.12c0.328,0.006,1.057-0.069,1.271-0.184
			c0.048-0.019,0.096-0.091,0.139-0.132c0.068-0.069,0.051-0.171,0-0.181l-0.139-0.046c0.106-0.017-0.617-0.021-0.499-0.044
			c-0.127,0.023,0.17-0.334,0.135-0.505c-0.015-0.081-0.157-0.114-0.182-0.177c-0.014-0.042-0.091-0.103,0-0.139l0.105-0.044
			c0.035-0.026,0.072-0.069,0.122-0.091c0.229-0.106,0.64-0.053,0.819,0c0.019,0.011,0.313,0.091,0.411,0.363
			c0.024,0.078,0.046,0.164,0.089,0.229c0.139,0.188,0.539,0.257,0.773,0.033c0.047-0.044,0.104-0.15,0.139-0.212
			c0.233-0.537-0.113-0.901-0.549-1.049c-0.176-0.064-0.461-0.082-0.681-0.139c-0.156-0.042-0.063-0.174-0.019-0.213l0.066-0.059
			c0.087-0.128,0.357-0.242,0.456-0.272c0.241-0.091,0.477-0.182,0.818-0.043c0.05,0.017,0.183,0.122,0.221,0.133
			c0.259,0.063,0.357,0.082,0.596-0.042c0.096-0.047,0.082-0.059,0.091-0.089c0.084-0.243-0.085-0.405-0.079-0.378
			c-0.051-0.327,0.885,0.076,1.031-0.13c0.138-0.187,0.048-0.544,0.229-0.681c0.021-0.012,0.127-0.086,0.137-0.09
			c0.174-0.036,0.327,0.036,0.465,0.09l0.148,0.071c0.294,0.122,0.55,0.187,0.709,0.428c0.1,0.159,0.082,0.389,0.179,0.549
			c0.042,0.067,0.139,0.114,0.189,0.182c0.042,0.05,0.122,0.083,0.177,0.114c0.084,0.053,0.117,0.074,0.226,0.109
			c0.081,0.031,0.195,0.153,0.273,0.185c0.278,0.112,0.61,0.098,0.911,0.09c0.178-0.008,0.283,0.098,0.452,0.045
			c0.087-0.028,0.063-0.183,0.008-0.247c-0.108-0.139-0.191-0.106-0.371-0.207c-0.071-0.043-0.158-0.183-0.229-0.227
			c-0.207-0.133-0.509-0.153-0.634-0.365c-0.017-0.032-0.041-0.094-0.044-0.132l-0.051-0.097c-0.25-0.508-0.331-0.812-0.089-0.908
			c0.15-0.057,0.479-0.025,0.641-0.09c0.036-0.021,0.107-0.122,0.134-0.138c0.361-0.171,1.04-0.372,1.412-0.18
			c0.113,0.052,0,0.342,0.043,0.452c0.023,0.05,0.106,0.134,0.201,0.163c0.781,0.21,1.562,0.177,2.134,0.446
			c0.342,0.162,0.603,0.414,0.911,0.681c0.264,0.235-0.049,0.501,0.222,0.58c-0.185,0.023-0.342,0.045-0.375-0.051
			c-0.008-0.023-0.065-0.109-0.091-0.133c-0.204-0.194-0.441-0.494-0.725-0.592c-0.147-0.054-0.212-0.006-0.367-0.047l-0.183-0.063
			c-0.198-0.053-0.212-0.036-0.406-0.075c-0.085-0.018-0.28-0.123-0.367-0.132c-0.386-0.059-0.603,0.099-0.955,0
			c-0.164-0.048-0.373-0.307-0.505-0.375c-0.163-0.094-0.314-0.126-0.498-0.183c-0.074-0.021-0.112-0.021-0.167,0.006
			c-0.101,0.06-0.068,0.149-0.016,0.225c0.03,0.039,0.056,0.107,0.091,0.13c0.129,0.093,0.385,0.093,0.456,0.227
			c0.201,0.396-0.094,0.536-0.137,0.653c-0.021,0.073-0.077,0.13,0,0.227c0.043,0.05,0.133,0.114,0.185,0.133
			c0.184,0.079,0.33,0.049,0.501,0.138c0.122,0.065,0.251,0.287,0.409,0.322c0.365,0.078,0.45-0.192,0.635-0.231
			c0.264-0.058,0.427,0.08,0.73,0c0.1-0.027,0.156-0.145,0.226-0.179c0.174-0.092,0.347-0.106,0.457-0.049
			c0,0,0.117,0.057-0.047,0.138c-0.095,0.053-0.174,0.053-0.271,0.103c-0.066,0.034-0.125,0.127-0.136,0.143
			c-0.031,0.063-0.053,0.158-0.051,0.164c0.029,0.052,0.068,0.08,0.092,0.094c0.318,0.109,0.641-0.096,0.913-0.138
			c0.201-0.031,0.764,0,0.927,0.123c0,0,0.15,0.031,0.053,0.305c-0.061,0.164-0.32,0.282-0.417,0.423
			c-0.058,0.078-0.121,0.227-0.18,0.304c-0.096,0.125-0.113,0.12-0.21,0.236l-0.066,0.096c-0.039,0.117-0.502,0.51-0.59,0.642
			c-0.052,0.079-0.077,0.159-0.131,0.244c-0.083,0.12-0.144,0.139-0.187,0.211c-0.133,0.192-0.394,0.581-0.61,0.679
			c-0.097,0.042-0.231-0.004-0.366-0.031c-0.091-0.023-0.19-0.192-0.27-0.229c-0.318-0.145-0.672-0.104-0.953-0.273
			c-0.14-0.083-0.269-0.328-0.37-0.456c-0.065-0.084-0.125-0.236-0.225-0.276c-0.164-0.055-0.559-0.002-0.636,0.137
			c-0.151,0.286,0.242,1.021,0.274,1.324c0.023,0.257-0.095,0.373,0,0.587c0.044,0.11,0.214,0.138,0.27,0.229
			c0.247,0.389,0.031,0.936,0.091,1.455c0.022,0.161,0.118,0.361,0.09,0.594c-0.038,0.363-0.506,0.676-0.318,1.227
			c0.008,0.022,0.096,0.087,0.103,0.095c0.071,0.033,0.187,0.02,0.263-0.004c0.152-0.054,0.299-0.355,0.457-0.452
			c0.016-0.02,0.068-0.046,0.097-0.046c0.017-0.031,0.06-0.033,0.084-0.044c0.067-0.052,0.094-0.054,0.134-0.139
			c0.063-0.147,0.042-0.293,0.09-0.503c0.047-0.174,0.208-0.482,0.229-0.683c0.057-0.557-0.349-1.646-0.059-1.827
			c0.111-0.067,0.222-0.198,0.413-0.228c0.084-0.02,0.358,0.065,0.477,0.061c-0.001,0.004-0.002,0.004-0.002,0.006
			c-0.148,0.346,0.397,1.256,0.355,1.76c-0.107,1.223-0.905,1.899-1.595,2.55c-0.08,0.078-0.011,0.167,0.047,0.228
			c0.136,0.13,0.47,0.074,0.641,0.046c0.25-0.051,0.361-0.165,0.544-0.229c0.067-0.025,0.151,0.017,0.226,0
			c0.188-0.051,0.349-0.305,0.455-0.46c0,0,0.222-0.239,0.27,0.079l0.005,0.018c0,0.295-0.053,0.62,0,0.906
			c0.053,0.343,0.677,1.369,1,1.414c0.757,0.112-0.018-0.842-0.049-0.91c-0.124-0.289-0.245-0.803-0.227-1.182
			c0.005-0.141,0.12-0.422,0.136-0.552c0.008-0.064-0.026-0.214,0-0.267c0.06-0.122,0.462-0.162,0.548-0.321
			c0.023-0.046-0.011-0.127,0-0.181c0.019-0.107,0.098-0.313,0.184-0.407c0.053-0.066,0.132-0.105,0.227,0
			c0.078,0.089,0.099,0.292,0.229,0.438l0.111,0.122c0.134,0.087,0.352-0.029,0.295-0.016c0.141-0.039,0.124-0.183,0.184-0.232
			c0.009-0.007,0.088-0.041,0.088-0.041c0.329-0.338-0.402-0.645-0.41-0.957c-0.006-0.351,0.078-0.753-0.043-1.136
			c-0.029-0.097-0.208-0.232-0.229-0.319c-0.049-0.22,0.065-0.452,0.091-0.589c0.05-0.292-0.048-0.738,0.046-0.867
			c0.055-0.069,0.142-0.122,0.317-0.092c0.116,0.022,0.192,0.21,0.273,0.274c0.297,0.238,0.644,0.372,1.139,0.316
			c0.061-0.002,0.111-0.094,0.123-0.12c0.032-0.092,0.025-0.208-0.032-0.288c-0.18-0.241-0.873-0.424-0.91-0.542
			c-0.028-0.09-0.137-0.21-0.016-0.27c-0.066,0.038,0.426-0.014,0.604-0.051c0.232-0.051,0.249-0.281,0.409-0.364
			c0.227-0.118,0.559-0.014,0.687-0.226c0.075-0.138,0.015-0.333,0.088-0.456c0.09-0.162,0.36-0.195,0.5-0.323
			C32.567,20.49,32.547,20.35,32.538,20.305 M14.252,30.942c-0.09-0.099-0.014-0.293,0.15-0.374
			c0.305-0.144,0.429,0.022,0.495,0.103c0.295,0.458,0.678,1.05,0.961,1.286C15.596,31.983,14.619,31.684,14.252,30.942
			 M16.754,35.543c-0.159,0-1.171-0.853-1.019-1.382c0.301,0.223,0.974,0.692,1.06,0.683C16.885,34.896,16.956,35.482,16.754,35.543
			 M17.933,35.547c-0.133-0.117-1.114-1.153-0.868-1.635c0.269,0.271,1.019,0.961,1.287,1.028
			C18.427,35.137,18.415,35.68,17.933,35.547 M18.038,31.586c0.172,0.259,0.408,0.408,0.395,0.965
			c-0.016,0.134,0.028,0.161,0.142,0.149c0.103-0.027,0.047-0.667,0.356-0.628c0.265,0.04,0.086,0.408,0.216,0.819
			c0.048,0.147,0.346,0.674,0.267,1.579c-0.008,0.231-0.453,0.536-0.705,0.357c-0.208-0.126-0.208-0.279-0.327-1.235
			c-0.051-0.564-0.738-0.759-1.03-1.015c-0.292-0.216-0.126-0.322-0.179-0.714c-0.167-0.565-0.828-0.829-0.607-1.207
			c0.068-0.093,0.135-0.183,0.344-0.102C16.921,30.835,17.59,31.053,18.038,31.586 M13.351,29.8
			c-0.018,0.008-0.02,0.011,0.006-0.002C13.355,29.798,13.353,29.8,13.351,29.8c0.067-0.029,0.361-0.169,0.439-0.196
			c0.311-0.11,0.476,0.055,0.762-0.104c0.067-0.04,0.143-0.149,0.205-0.201c0.054-0.049,0.153-0.042,0.216-0.088
			c0.159-0.106,0.454-0.446,0.659-0.481c0.116-0.022,0.115,0.008,0.175,0.014c0,0.012,0.087-0.018,0.065,0.157
			c-0.055,0.336,0.737-0.004,1.257,0.12c0.353,0.084,0.698,0.204,0.607,0.431c0.012-0.024-0.104,0.07-0.131,0.088
			c-0.243,0.178-0.433-0.018-0.556-0.033c-0.213-0.025-0.364,0.039-0.581,0.012c0-0.004-0.261-0.087-0.261-0.087
			c-0.166-0.01-0.403,0.077-0.53,0.087c-0.239,0.018-0.354-0.066-0.568-0.043c-0.106,0.012-0.275,0.149-0.351,0.175
			c-0.07,0.025-0.152,0.051-0.221,0.073c-0.046,0.01-0.165,0.076-0.219,0.102c-0.217,0.105-0.347,0.105-0.614,0.176l-0.156,0.043
			C13.214,30.087,13.246,29.856,13.351,29.8 M12.539,31.098c0.359-0.085,0.466,0.01,0.636,0.416c0.127,0.24,0.395,0.562,0.497,0.712
			c-0.414,0.048-1.07-0.515-1.253-0.823C12.301,31.251,12.479,31.131,12.539,31.098 M7.981,29.391
			c0.472-0.132,0.888-0.268,1.063-0.368c0.063-0.003,0.125-0.003,0.188-0.007c0.026,0.125,0.075,0.253,0.149,0.377
			c0.017,0.027,0.032,0.052,0.048,0.072C9.145,29.474,8.569,29.437,7.981,29.391 M8.964,30.217c0.242-0.146,0.473-0.303,0.693-0.464
			c0.1,0.115,0.208,0.226,0.333,0.33C9.861,30.116,9.462,30.167,8.964,30.217L8.964,30.217z"/>
		<path fill="#D7C9B1" d="M13.351,29.8c0.002,0,0.005-0.002,0.006-0.002C13.331,29.811,13.333,29.808,13.351,29.8L13.351,29.8z"/>
		<path fill="#D7C9B1" d="M9.57,7.218C9.396,7.084,9.229,6.961,8.873,6.585c0,0-1.507-1.667-1.737-1.921
			C7.194,4.593,8.888,2.52,8.888,2.519l0.101-0.104H8.861H8.135L6.231,4.77V2.415H6.175H5.369v4.975h0.862V4.842l1.987,2.211
			C8.383,7.275,8.68,7.389,9.094,7.389h0.711l-0.17-0.122C9.638,7.269,9.57,7.218,9.57,7.218L9.57,7.218z"/>
		<path fill="#D7C9B1" d="M13.648,2.268c-0.758-0.005-1.411,0.249-1.938,0.758c-0.528,0.506-0.797,1.129-0.797,1.849
			c0,0.758,0.266,1.397,0.789,1.895c0.508,0.489,1.138,0.736,1.874,0.736c0.736,0,1.375-0.258,1.897-0.763
			c0.522-0.504,0.789-1.146,0.789-1.905c0-0.694-0.246-1.296-0.73-1.788C15.029,2.535,14.393,2.272,13.648,2.268 M13.611,6.856
			c-0.517,0-0.957-0.216-1.296-0.646c-0.32-0.397-0.482-0.868-0.482-1.401c0-0.551,0.162-1.01,0.483-1.363
			c0.32-0.35,0.75-0.529,1.281-0.529c0.52,0,0.952,0.214,1.284,0.637c0.306,0.392,0.46,0.874,0.46,1.432
			c0,0.541-0.156,0.992-0.467,1.339C14.555,6.675,14.128,6.856,13.611,6.856L13.611,6.856z"/>
		<path fill="#D7C9B1" d="M25.679,5.01c0.103,0,1.6,0.002,1.6,0.002V4.359c0,0-1.497,0.002-1.6,0.002c0-0.097,0-1.193,0-1.29
			c0.351-0.008,1.957,0,1.975,0h0.055V2.402L24.811,2.4v0.057l0.002,4.933h3.099l0.105-0.701c0,0-2.234,0.001-2.339,0.001
			C25.679,6.591,25.679,5.11,25.679,5.01L25.679,5.01z"/>
		<path fill="#D7C9B1" d="M32.634,2.4h-0.797l-2.035,4.989h0.77c0,0,0.66-1.761,0.685-1.831c0.072,0,1.725,0,1.796,0
			c0.025,0.069,0.698,1.831,0.698,1.831h0.956L32.671,2.4H32.634 M32.774,4.898c-0.134,0-1.142,0-1.277,0
			c0.049-0.128,0.56-1.421,0.646-1.638C32.226,3.479,32.727,4.771,32.774,4.898L32.774,4.898z"/>
		<path fill="#D7C9B1" d="M21.812,6.263c0,0-0.827-1.035-1.036-1.296c0.172-0.061,0.47-0.196,0.699-0.436
			c0.25-0.26,0.375-0.558,0.375-0.882c0-0.365-0.138-0.667-0.412-0.892c-0.285-0.237-0.68-0.355-1.175-0.355h-1.6h-0.056v4.988
			h0.889V7.312c-0.023-0.167-0.025-0.424-0.025-1.016c0,0,0-3.166,0-3.274c0.814-0.008,1.137,0.095,1.264,0.185
			c0.17,0.122,0.253,0.296,0.252,0.535c-0.002,0.551-0.407,0.881-1.234,1.005L19.66,4.76l1.748,2.237
			c0.208,0.262,0.511,0.392,0.902,0.392h0.712l-0.147-0.101C22.52,7.045,22.131,6.671,21.812,6.263L21.812,6.263z"/>
		<path fill="#D7C9B1" d="M18.677,10.636c0.049,0,0.763,0,0.763,0v-0.311c0,0-0.713,0-0.763,0c0-0.046,0-0.568,0-0.613
			c0.167-0.004,0.932,0,0.941,0h0.024V9.392l-1.379-0.001v0.025l0.001,2.352h1.476l0.051-0.335c0,0-1.064,0.003-1.115,0.003
			C18.677,11.387,18.677,10.683,18.677,10.636L18.677,10.636z"/>
		<path fill="#D7C9B1" d="M7.323,9.393H7.037l0.003,1.466c0,0.438-0.102,0.673-0.639,0.673H6.337c-0.357,0-0.537-0.227-0.537-0.673
			c0-0.001,0.001-1.466,0.001-1.466H5.388v1.467c0,0.178,0.006,0.299,0.021,0.373c0.024,0.135,0.081,0.249,0.166,0.343
			c0.154,0.169,0.377,0.254,0.661,0.254h0.267c0.282,0,0.506-0.085,0.66-0.254c0.084-0.094,0.141-0.208,0.165-0.343
			c0.015-0.074,0.021-0.195,0.021-0.373V9.393H7.323L7.323,9.393z"/>
		<path fill="#D7C9B1" d="M10.905,9.393l-0.001,0.025c0,0-0.002,1.581-0.002,1.721c-0.089-0.11-1.376-1.746-1.376-1.746H9.168v2.38
			h0.311c0,0,0.001-1.639,0.001-1.78c0.087,0.113,1.395,1.779,1.395,1.779l0.343,0.001v-2.38H11.19H10.905L10.905,9.393z"/>
		<polygon fill="#D7C9B1" points="12.972,9.393 12.972,11.773 13.382,11.773 13.383,9.393 13.357,9.393 12.972,9.393 		"/>
		<polygon fill="#D7C9B1" points="27.854,9.393 27.854,9.918 27.854,11.251 27.857,11.773 28.267,11.773 28.267,11.251 
			28.267,9.918 28.267,9.418 28.267,9.393 28.241,9.393 27.854,9.393 		"/>
		<path fill="#D7C9B1" d="M16.553,9.393c0,0-0.635,1.738-0.681,1.866c-0.046-0.128-0.669-1.866-0.669-1.866h-0.468l0.888,2.382
			h0.373l0.919-2.382h-0.038H16.553L16.553,9.393z"/>
		<path fill="#D7C9B1" d="M25.844,10.568c-0.001-0.002-0.32-0.157-0.32-0.157l-0.272-0.135c-0.201-0.105-0.302-0.218-0.302-0.34
			c0-0.101,0.047-0.176,0.14-0.228c0.073-0.042,0.175-0.06,0.303-0.057c0.208,0.005,0.421,0.068,0.531,0.154l0.042,0.033V9.416
			l-0.017-0.005c-0.167-0.052-0.349-0.079-0.537-0.079c-0.245,0-0.454,0.047-0.618,0.144c-0.197,0.112-0.296,0.281-0.296,0.497
			c0,0.221,0.111,0.404,0.329,0.545c0.001,0.001,0.118,0.058,0.118,0.058l0.474,0.233c0.201,0.105,0.302,0.227,0.302,0.366
			c0,0.104-0.054,0.187-0.164,0.253c-0.099,0.06-0.206,0.088-0.315,0.088c-0.257-0.002-0.497-0.066-0.714-0.192l-0.047-0.028
			l0.061,0.415l0.016,0.006c0.191,0.073,0.41,0.109,0.643,0.109c0.291,0,0.54-0.076,0.718-0.219
			c0.171-0.137,0.256-0.319,0.256-0.539C26.173,10.872,26.062,10.706,25.844,10.568L25.844,10.568z"/>
		<path fill="#D7C9B1" d="M29.827,9.384v0.026l-0.001,0.285c0,0,0.615,0,0.665,0.002c0,0.051,0,2.07,0,2.07h0.409
			c0,0,0.001-2.019,0.001-2.07c0.05,0,0.679,0,0.679,0V9.384H29.827L29.827,9.384z"/>
		<path fill="#D7C9B1" d="M34.261,9.387c0,0-0.607,0.938-0.649,1.001c-0.042-0.064-0.638-1.004-0.638-1.004H32.96H32.5
			c0,0,0.847,1.333,0.857,1.346c0,0.016-0.003,1.038-0.003,1.038h0.412c0,0,0.001-1.022,0.001-1.037
			c0.01-0.015,0.892-1.344,0.892-1.344H34.261L34.261,9.387z"/>
		<path fill="#D7C9B1" d="M22.876,11.231c0,0-0.394-0.494-0.494-0.617c0.083-0.03,0.225-0.094,0.333-0.207
			c0.12-0.125,0.179-0.268,0.179-0.421c0-0.175-0.065-0.318-0.196-0.427c-0.137-0.112-0.325-0.168-0.559-0.168h-0.765H21.35v2.376
			h0.423v-0.037c-0.01-0.08-0.01-0.195-0.01-0.483c0,0,0-1.508,0-1.56c0.386-0.005,0.541,0.044,0.6,0.088
			c0.083,0.057,0.122,0.14,0.121,0.253c-0.001,0.264-0.193,0.419-0.587,0.478l-0.044,0.008l0.832,1.065
			c0.099,0.123,0.242,0.187,0.428,0.187h0.342l-0.072-0.049C23.212,11.605,23.028,11.426,22.876,11.231L22.876,11.231z"/>
	</g>
</g>
</svg>
