<?xml version="1.0" standalone="no"?>
<!DOCTYPE svg PUBLIC "-//W3C//DTD SVG 20010904//EN"
 "http://www.w3.org/TR/2001/REC-SVG-20010904/DTD/svg10.dtd">
<svg version="1.0" xmlns="http://www.w3.org/2000/svg"
 width="630.000000pt" height="153.000000pt" viewBox="0 0 630.000000 153.000000"
 preserveAspectRatio="xMidYMid meet">
<metadata>
Created by potrace 1.10, written by Peter Selinger 2001-2011
</metadata>
<g transform="translate(0.000000,153.000000) scale(0.100000,-0.100000)"
fill="#000000" stroke="none">
<path d="M639 1434 c-17 -19 -19 -36 -19 -206 0 -158 2 -188 16 -199 12 -10
64 -13 210 -14 191 -1 194 -1 209 22 12 17 15 59 15 196 0 233 14 220 -230
221 -171 1 -182 0 -201 -20z m306 -118 c48 -48 41 -95 -25 -163 -20 -22 -41
-33 -59 -33 -37 0 -107 54 -132 101 -18 36 -18 42 -5 68 9 16 25 31 37 34 22
6 69 -11 69 -25 0 -16 27 -7 50 17 29 31 35 31 65 1z"/>
<path d="M2693 1252 c-30 -10 -85 -62 -105 -101 -22 -40 -23 -118 -3 -141 8
-9 16 -27 17 -41 3 -24 2 -24 -72 -24 l-75 0 -3 -42 c-2 -30 1 -43 10 -43 7 0
143 -1 301 -2 l288 -3 6 23 c3 12 2 34 -1 48 -7 26 -8 26 -76 20 -74 -8 -94 2
-67 32 61 70 39 185 -48 254 -28 22 -130 34 -172 20z m122 -88 c25 -16 55 -71
55 -99 0 -23 -29 -76 -54 -97 -48 -40 -134 -9 -156 57 -18 56 -4 102 44 136
43 32 66 32 111 3z"/>
<path d="M5844 1253 c-8 -6 -9 -60 -5 -183 4 -96 5 -183 3 -192 -3 -12 -16
-18 -45 -20 -37 -3 -42 -6 -48 -35 -8 -42 -1 -51 46 -55 35 -3 40 -6 43 -29 3
-23 9 -28 40 -32 20 -2 40 -1 45 2 4 4 6 129 5 277 l-3 269 -35 3 c-19 1 -40
-1 -46 -5z"/>
<path d="M1760 1203 l0 -43 112 2 c97 3 113 1 116 -13 4 -21 -76 -42 -163 -43
-59 -1 -60 -2 -63 -30 -2 -16 1 -32 7 -35 6 -4 50 -3 98 1 81 7 145 26 158 48
10 17 43 11 80 -14 25 -17 56 -26 103 -31 37 -3 76 -8 87 -10 31 -6 47 9 43
41 -3 29 -3 29 -88 35 -107 7 -130 15 -130 41 0 19 5 20 108 17 l107 -4 0 40
0 40 -287 1 -288 1 0 -44z"/>
<path d="M3982 1220 c-106 -76 -123 -195 -42 -294 26 -32 106 -66 155 -66 127
0 222 121 191 243 -12 48 -59 117 -80 117 -8 0 -19 7 -26 15 -9 11 -33 15 -85
15 -64 0 -76 -3 -113 -30z m158 -77 c79 -46 67 -147 -21 -184 -25 -10 -35 -9
-65 7 -19 11 -44 35 -55 54 -21 34 -21 35 -3 68 37 68 89 88 144 55z"/>
<path d="M5459 1217 c-20 -17 -43 -44 -53 -59 -20 -34 -21 -108 -1 -134 24
-32 18 -43 -27 -46 -43 -3 -43 -3 -46 -45 l-3 -42 98 -3 98 -3 0 -70 0 -70 45
0 45 0 0 70 0 70 70 3 c108 3 115 7 115 47 0 33 -2 35 -35 35 -42 0 -56 22
-31 49 23 26 21 105 -4 146 -11 18 -36 45 -54 59 -30 23 -44 26 -108 26 -68 0
-75 -2 -109 -33z m184 -87 c31 -35 33 -51 11 -89 -16 -27 -65 -61 -88 -61 -6
0 -28 14 -49 31 -31 25 -37 37 -37 68 0 37 23 70 60 84 29 12 75 -3 103 -33z"/>
<path d="M3654 1229 c-6 -11 -8 -368 -1 -375 1 -1 20 -4 42 -6 l40 -3 3 67 3
67 32 3 c30 3 32 5 32 43 0 36 -3 40 -30 45 -30 5 -30 5 -35 85 l-5 80 -37 3
c-21 2 -39 -2 -44 -9z"/>
<path d="M4377 1233 c-3 -5 -4 -93 -3 -198 l1 -190 45 0 45 0 0 65 0 65 38 3
c33 3 37 6 39 33 0 16 1 35 2 42 1 7 -16 14 -39 17 l-40 5 -1 70 c0 39 -1 76
-2 83 -2 13 -78 17 -85 5z"/>
<path d="M4647 1233 c-4 -3 -7 -75 -7 -158 0 -205 -9 -197 202 -188 l156 6 4
161 c2 92 0 167 -6 174 -5 8 -24 12 -45 10 -35 -3 -36 -4 -39 -50 l-3 -48 -78
0 c-85 0 -104 10 -94 48 3 12 0 29 -7 37 -12 15 -71 21 -83 8z m269 -197 c14
-56 6 -61 -91 -61 l-90 0 -3 34 c-2 20 2 37 10 42 7 5 48 9 90 9 74 0 78 -1
84 -24z"/>
<path d="M5135 1215 c-3 -8 -7 -21 -9 -29 -3 -8 -17 -16 -33 -18 -25 -3 -28
-7 -28 -43 0 -38 2 -40 32 -43 67 -7 68 -62 2 -72 -32 -5 -34 -7 -34 -45 0
-38 2 -40 35 -45 29 -4 35 -9 33 -27 -3 -30 37 -57 69 -47 33 10 36 19 26 78
-4 30 -4 105 0 167 6 71 5 119 -1 127 -14 18 -86 16 -92 -3z"/>
<path d="M3164 1196 c-3 -14 -3 -34 1 -47 7 -21 9 -22 126 -15 l119 7 0 -31
c0 -24 -11 -42 -49 -79 -42 -41 -58 -50 -113 -60 -34 -7 -70 -16 -78 -20 -32
-17 -23 -91 11 -91 26 0 112 27 166 52 88 41 153 152 153 261 l0 47 -165 0
-165 0 -6 -24z"/>
<path d="M2028 1033 c-11 -3 -18 -14 -18 -29 0 -13 -6 -24 -12 -25 -7 0 -69
-1 -138 -2 l-125 -2 -3 -26 c-5 -45 11 -49 168 -39 85 5 205 5 294 0 82 -5
153 -7 158 -4 4 3 8 21 8 40 l0 34 -134 0 -135 0 -3 28 c-3 28 -22 36 -60 25z"/>
<path d="M162 957 c-21 -22 -22 -32 -22 -205 0 -240 -19 -222 228 -222 167 0
191 2 204 18 13 14 15 49 13 204 -2 166 -4 190 -20 208 -17 19 -31 20 -200 20
-177 0 -182 -1 -203 -23z m280 -109 c10 -20 27 -40 39 -43 16 -5 19 -12 14
-28 -5 -12 -7 -38 -7 -57 1 -41 -10 -57 -48 -65 -16 -3 -31 -13 -34 -21 -8
-20 -43 -17 -77 6 -16 12 -34 20 -41 18 -41 -8 -75 55 -44 81 7 6 16 26 20 43
8 41 23 58 51 58 13 0 33 11 46 25 32 34 60 28 81 -17z"/>
<path d="M345 769 c-12 -18 4 -59 23 -59 23 0 42 19 42 41 0 26 -52 40 -65 18z"/>
<path d="M1116 961 c-14 -16 -16 -43 -14 -222 l3 -204 206 -3 207 -2 7 27 c6
22 9 231 5 375 0 9 -7 24 -16 32 -13 13 -45 16 -198 16 -165 0 -185 -2 -200
-19z m214 -190 l26 -30 28 18 c32 21 62 17 77 -11 23 -43 9 -48 -150 -48 -176
0 -187 7 -121 72 36 37 44 40 78 35 24 -4 46 -17 62 -36z"/>
<path d="M643 946 c-12 -7 -14 -21 -9 -80 4 -39 2 -116 -4 -170 -5 -55 -9
-101 -6 -103 2 -2 31 24 65 57 l62 60 88 0 c67 0 92 -4 101 -15 7 -8 18 -15
24 -16 6 0 29 -22 51 -48 22 -26 43 -43 46 -39 3 5 0 32 -8 61 -9 34 -13 93
-11 169 1 64 -1 120 -5 124 -10 11 -375 11 -394 0z m68 -79 c-13 -13 -26 -3
-16 12 3 6 11 8 17 5 6 -4 6 -10 -1 -17z m183 1 c19 -27 20 -57 2 -80 -19 -26
-86 -24 -109 2 -21 25 -21 35 0 71 14 24 24 29 55 29 27 0 41 -6 52 -22z"/>
<path d="M2034 882 c-6 -4 -14 -17 -18 -29 -7 -22 -11 -23 -132 -23 l-124 0 0
-35 c0 -44 17 -52 72 -36 57 17 66 5 45 -60 -16 -49 -16 -53 2 -93 10 -23 36
-56 59 -74 37 -30 45 -32 116 -32 64 0 83 4 111 23 44 30 69 63 84 109 11 34
10 40 -15 78 -36 54 -25 66 50 50 31 -6 60 -9 66 -5 15 9 13 75 -2 76 -7 1
-63 0 -125 -1 l-112 -2 -16 31 c-15 30 -38 39 -61 23z m60 -136 c38 -16 66
-51 66 -83 0 -37 -44 -75 -93 -80 -36 -4 -48 -1 -75 22 -62 52 -27 134 66 154
1 1 18 -5 36 -13z"/>
<path d="M3335 800 c-91 -44 -133 -115 -100 -170 8 -14 17 -32 21 -40 6 -17
69 -60 87 -60 7 0 21 -7 31 -15 27 -21 193 -20 220 0 11 8 28 15 37 15 10 0
38 21 63 46 41 40 46 51 46 90 0 40 -5 50 -46 89 -25 25 -53 45 -62 45 -10 0
-26 7 -36 15 -14 11 -46 15 -110 14 -79 0 -99 -4 -151 -29z m263 -77 c63 -41
65 -63 10 -103 -37 -27 -48 -30 -120 -30 -83 0 -118 11 -152 49 -16 18 -17 25
-7 44 22 42 59 55 154 56 67 1 94 -3 115 -16z"/>
<path d="M4835 810 c-28 -10 -68 -36 -92 -60 -36 -35 -43 -48 -43 -80 0 -33 7
-46 48 -87 57 -57 101 -74 201 -80 74 -5 98 1 187 44 49 23 79 70 79 123 0 61
-26 93 -103 130 -54 26 -72 30 -145 29 -52 0 -100 -7 -132 -19z m257 -93 c73
-54 -2 -127 -130 -127 -100 0 -178 51 -153 99 14 25 51 48 87 54 61 10 166 -4
196 -26z"/>
<path d="M3919 805 c-3 -3 -4 -51 -1 -108 3 -76 8 -106 21 -119 14 -15 44 -17
268 -19 138 0 257 2 262 6 14 8 14 72 0 80 -6 4 -111 6 -234 6 l-224 -2 -3 78
-3 78 -40 3 c-23 2 -43 0 -46 -3z"/>
<path d="M2487 793 c-4 -3 -7 -50 -7 -102 0 -95 10 -129 44 -153 6 -4 122 -8
257 -8 272 0 273 0 267 62 l-3 33 -225 0 c-124 0 -231 4 -239 9 -10 6 -11 24
-6 73 5 44 3 68 -5 78 -13 15 -71 21 -83 8z"/>
<path d="M5370 706 c0 -103 10 -139 44 -153 11 -5 131 -8 266 -7 l245 2 0 48
0 48 -215 -3 c-118 -1 -223 1 -233 5 -16 6 -18 16 -15 78 l3 71 -47 3 -48 3 0
-95z"/>
<path d="M636 481 c-13 -15 -16 -34 -14 -87 3 -64 5 -69 26 -72 13 -2 32 -12
43 -23 24 -24 40 -24 46 1 5 20 37 36 63 31 8 -1 25 -14 36 -29 l21 -26 26 28
c42 45 107 33 107 -20 0 -17 -6 -24 -20 -24 -11 0 -20 5 -20 10 0 18 -22 11
-46 -15 -31 -33 -59 -32 -93 5 l-27 30 -22 -30 c-16 -22 -31 -30 -52 -30 -17
0 -30 5 -30 10 0 18 -41 52 -56 46 -25 -10 -13 -50 16 -54 14 -2 33 -12 43
-23 23 -25 48 -24 54 1 4 16 14 20 49 20 32 0 44 -4 44 -14 0 -8 5 -18 10 -21
16 -10 50 5 50 21 0 10 12 14 44 14 44 0 56 -10 56 -46 0 -17 -36 -19 -46 -3
-4 7 -15 1 -30 -17 -27 -30 -80 -38 -94 -13 -5 8 -15 23 -23 33 -14 19 -15 18
-28 -10 -11 -23 -22 -30 -49 -32 -29 -2 -38 2 -55 28 -11 16 -25 30 -32 30
-30 0 -27 -98 4 -132 14 -16 38 -18 203 -18 247 0 230 -16 230 226 -1 242 17
224 -228 224 -172 0 -190 -2 -206 -19z"/>
<path d="M1812 382 c-31 -20 -62 -77 -62 -115 0 -31 7 -46 35 -74 34 -34 38
-35 83 -28 26 4 56 8 67 8 25 1 35 14 35 47 0 44 -27 72 -68 68 -37 -3 -59
-28 -23 -28 25 0 34 -14 26 -40 -9 -27 -64 -27 -88 0 -25 29 -22 82 6 108 28
27 47 28 78 3 26 -19 49 -18 49 4 0 38 -99 71 -138 47z"/>
<path d="M2035 356 c-29 -31 -35 -45 -35 -81 0 -36 6 -50 34 -79 28 -30 40
-36 75 -36 35 0 47 6 72 32 24 27 29 41 29 83 0 70 -29 105 -93 112 -44 5 -49
3 -82 -31z m114 -28 c32 -34 34 -55 11 -93 -27 -43 -66 -47 -98 -10 -29 33
-28 66 3 99 29 32 57 33 84 4z"/>
<path d="M2294 376 c-11 -8 -29 -33 -39 -55 -16 -37 -17 -46 -5 -82 17 -52 52
-79 101 -79 95 0 143 121 78 199 -25 30 -103 40 -135 17z m102 -48 c13 -13 24
-35 24 -49 0 -33 -39 -79 -67 -79 -58 0 -82 89 -37 134 22 22 52 20 80 -6z"/>
<path d="M2555 380 l-50 -5 -3 -98 c-3 -110 -3 -110 78 -111 48 -1 61 7 93 56
21 33 22 66 2 104 -21 43 -60 61 -120 54z m46 -41 c51 -27 43 -122 -11 -134
-16 -4 -34 -4 -40 0 -11 7 -14 128 -3 138 9 10 32 8 54 -4z"/>
<path d="M2858 367 c-16 -13 -28 -28 -28 -35 0 -7 -4 -12 -10 -12 -5 0 -10
-20 -10 -44 0 -37 6 -51 35 -82 l35 -37 62 7 c35 4 67 11 71 15 5 5 7 30 5 57
l-3 49 -47 3 c-37 2 -48 0 -48 -12 0 -8 13 -17 30 -21 35 -8 37 -15 12 -38
-42 -38 -102 -4 -102 56 0 59 58 98 94 62 19 -19 56 -20 56 -1 0 8 -12 24 -26
35 -36 28 -91 27 -126 -2z"/>
<path d="M3136 375 c-9 -9 -19 -28 -22 -43 -7 -27 -14 -45 -47 -110 -22 -45
-21 -54 5 -50 13 2 29 15 36 31 10 21 20 27 43 27 25 0 33 -6 42 -30 11 -28
40 -41 50 -22 5 9 -65 188 -80 203 -7 7 -15 5 -27 -6z m34 -96 c0 -10 -6 -19
-13 -19 -22 0 -27 11 -16 32 12 22 29 15 29 -13z"/>
<path d="M3534 354 c-47 -49 -48 -108 -3 -159 35 -39 57 -43 129 -21 39 11 45
17 48 44 5 50 -13 72 -58 72 -47 0 -61 -16 -25 -30 20 -7 26 -16 23 -33 -5
-34 -54 -36 -84 -3 -29 31 -30 59 -3 97 24 34 54 37 85 8 12 -12 27 -18 33
-14 34 20 -21 75 -77 75 -27 0 -42 -8 -68 -36z"/>
<path d="M4660 360 c-26 -26 -30 -36 -30 -85 0 -49 4 -59 30 -85 22 -22 40
-30 66 -30 48 0 70 13 100 62 24 37 25 45 15 79 -26 86 -121 117 -181 59z
m110 -28 c47 -38 18 -132 -41 -132 -54 0 -78 84 -37 127 26 28 48 29 78 5z"/>
<path d="M4906 369 c-16 -12 -26 -30 -26 -46 0 -31 36 -62 71 -63 31 0 54 -23
45 -45 -8 -23 -63 -19 -78 5 -15 24 -36 26 -45 4 -9 -24 43 -64 82 -64 40 0
85 34 85 64 0 35 -24 59 -71 70 -34 9 -44 16 -44 31 0 26 40 32 65 10 19 -17
50 -15 50 4 0 18 -52 51 -80 51 -15 0 -39 -9 -54 -21z"/>
<path d="M5394 381 c-13 -13 0 -30 24 -33 27 -3 27 -3 30 -90 3 -80 5 -88 22
-88 21 0 20 -3 24 115 1 49 2 50 39 59 35 9 52 35 25 37 -46 3 -160 3 -164 0z"/>
<path d="M3287 373 c-6 -11 -7 -165 -1 -185 3 -10 12 -18 20 -18 11 0 14 15
14 59 0 65 14 87 30 47 5 -14 13 -26 17 -26 5 0 17 -18 27 -41 15 -30 25 -39
40 -37 20 3 21 10 21 103 0 93 -1 100 -20 100 -18 0 -20 -7 -20 -54 0 -59 -18
-79 -35 -39 -36 79 -77 119 -93 91z"/>
<path d="M3919 353 c-20 -49 -27 -67 -49 -116 -22 -49 -20 -82 3 -75 6 3 18
16 25 31 23 48 80 46 105 -3 27 -53 49 -10 23 45 -9 18 -16 39 -16 47 0 7 -7
22 -15 32 -8 11 -15 30 -15 43 0 35 -47 32 -61 -4z m51 -73 c0 -21 -33 -29
-45 -10 -9 15 4 30 26 30 12 0 19 -7 19 -20z"/>
<path d="M4076 334 c-8 -59 -8 -128 0 -148 7 -19 43 -22 45 -3 2 18 2 18 -6
70 -6 47 -6 48 14 37 12 -6 27 -23 36 -39 23 -46 65 -90 79 -85 9 3 13 33 14
105 1 82 -2 101 -14 106 -24 9 -33 -15 -27 -69 5 -40 3 -48 -11 -48 -9 0 -16
4 -16 9 0 5 -15 31 -32 59 -45 69 -73 71 -82 6z"/>
<path d="M4400 274 l0 -105 28 3 c24 3 27 7 27 43 0 40 0 40 43 43 l42 3 0
-41 c0 -38 20 -63 37 -46 8 8 7 195 0 203 -16 15 -37 -9 -37 -42 0 -34 -1 -35
-40 -35 -36 0 -40 3 -40 24 0 40 -11 56 -36 56 -24 0 -24 -1 -24 -106z"/>
<path d="M5097 373 c-4 -3 -7 -51 -7 -105 0 -97 0 -99 23 -96 17 2 23 11 27
38 4 28 10 36 30 38 53 6 66 12 82 40 16 27 16 30 -2 60 -19 31 -23 32 -83 32
-35 0 -67 -3 -70 -7z m108 -53 c0 -18 -6 -26 -23 -28 -34 -5 -54 15 -41 40 7
13 19 18 37 16 21 -2 27 -8 27 -28z"/>
<path d="M5304 367 c-3 -8 -4 -54 -2 -103 3 -89 3 -89 31 -92 l27 -3 0 90 c0
49 -3 96 -6 105 -7 19 -43 21 -50 3z"/>
<path d="M5630 366 c0 -9 -9 -33 -20 -53 -11 -21 -20 -45 -20 -53 0 -8 -7 -24
-15 -34 -19 -26 -19 -52 0 -60 11 -4 20 3 28 22 24 55 60 56 104 5 27 -33 32
-36 38 -20 4 10 0 36 -10 60 -10 23 -23 56 -30 72 -7 17 -15 39 -17 50 -4 25
-58 35 -58 11z m50 -89 c0 -13 -31 -20 -42 -9 -6 6 -8 18 -5 27 6 13 10 13 27
3 11 -7 20 -16 20 -21z"/>
<path d="M5780 293 c0 -110 8 -124 78 -131 56 -5 85 8 75 34 -4 11 -17 15 -47
12 l-41 -3 -5 85 c-5 84 -5 85 -32 88 l-28 3 0 -88z"/>
<path d="M3744 258 c-7 -11 21 -38 41 -38 20 0 48 27 41 38 -4 7 -22 12 -41
12 -19 0 -37 -5 -41 -12z"/>
</g>
</svg>
