<?xml version="1.0" encoding="UTF-8"?>
<svg width="246px" height="44px" viewBox="0 0 246 44" version="1.1" xmlns="http://www.w3.org/2000/svg" xmlns:xlink="http://www.w3.org/1999/xlink">
    <!-- Generator: Sketch 52.5 (67469) - http://www.bohemiancoding.com/sketch -->
    <title>Group 3</title>
    <desc>Created with Sketch.</desc>
    <defs>
        <polygon id="path-1" points="0 0 246 0 246 44 0 44"></polygon>
    </defs>
    <g id="pres" stroke="none" stroke-width="1" fill="none" fill-rule="evenodd">
        <g id="Desktop-HD-Copy-339" transform="translate(-39.000000, -425.000000)">
            <g id="Group-3" transform="translate(39.000000, 425.000000)">
                <mask id="mask-2" fill="white">
                    <use xlink:href="#path-1"></use>
                </mask>
                <g id="Clip-2"></g>
                <path d="M246,36.9029409 L246,42.8642644 L211.753271,42.8642644 L211.753271,38.2090736 L228.419692,25.4348088 C236.353863,19.2464117 237.780563,16.5211616 237.780563,13.3984409 C237.780563,9.0840443 234.470218,6.01799993 228.762307,6.01799993 C221.513366,6.01799993 218.37433,10.1056911 217.746818,16.0670146 L211.353676,13.6825588 C212.381522,6.30174981 218.146043,0 228.876635,0 C238.979346,0 244.743867,5.45050018 244.743867,13.114691 C244.743867,17.8269263 243.08888,21.5741912 233.728009,28.6705142 L222.997416,36.9029409 L246,36.9029409 Z M206.845288,5.67720566 C198.397564,14.4775001 193.032268,26.1727057 190.007189,42.8642644 L182.986536,42.8642644 C185.898026,26.9672789 191.263322,15.5558232 199.082425,6.92666198 L178.820393,6.92666198 L178.820393,16.124059 L172.541579,16.124059 L172.541579,1.13536753 L206.845288,1.13536753 L206.845288,5.67720566 Z M147.142538,18.3381177 C154.220171,18.3381177 158.158397,15.7262203 158.158397,11.9793235 C158.158397,8.17538225 154.163192,5.62052929 147.085559,5.62052929 C140.065276,5.62052929 136.12668,8.17538225 136.12668,11.9793235 C136.12668,15.7262203 140.121885,18.3381177 147.142538,18.3381177 Z M159.300201,30.9986617 C159.300201,26.7976179 155.304256,23.5611764 147.142538,23.5611764 C138.923471,23.5611764 134.984875,26.7976179 134.984875,30.9986617 C134.984875,35.1997056 138.98045,38.3791027 147.199518,38.3791027 C155.361605,38.3791027 159.300201,35.1997056 159.300201,30.9986617 Z M165.863911,31.1690589 C165.863911,37.9249557 159.870733,44 147.085559,44 C134.186056,44 128.421166,38.0383084 128.421166,31.2824116 C128.421166,26.3997792 131.845838,22.6528823 138.067303,20.8926026 C132.47372,19.3030881 129.56297,16.0099702 129.56297,11.6385292 C129.56297,5.50717655 135.555777,0 147.199518,0 C159.071914,0 164.722107,5.39345579 164.722107,11.5251765 C164.722107,15.8399411 161.811357,19.132691 156.217774,20.8359263 C162.496217,22.5391616 165.863911,26.229382 165.863911,31.1690589 Z M118.261475,0.567499749 L118.261475,42.8642644 L111.697765,42.8642644 L111.697765,10.9573087 C109.642814,13.1713674 106.503777,14.0796614 101.024522,14.1367058 L101.024522,8.00498511 C108.558728,8.00498511 112.211688,5.79092643 112.83957,0.567499749 L118.261475,0.567499749 Z M90.2946694,42.8642644 L97.7149174,42.8642644 L97.7149174,35.4267791 L90.2946694,35.4267791 L90.2946694,42.8642644 Z M82.6468744,1.13536753 L82.6468744,42.8642644 L76.0831646,42.8642644 L76.0831646,24.412794 L51.7108595,24.412794 L51.7108595,42.8642644 L45.1471497,42.8642644 L45.1471497,1.13536753 L51.7108595,1.13536753 L51.7108595,18.3947941 L76.0831646,18.3947941 L76.0831646,1.13536753 L82.6468744,1.13536753 Z M30.0794767,42.8642644 L37.4997248,42.8642644 L37.4997248,35.4267791 L30.0794767,35.4267791 L30.0794767,42.8642644 Z M6.56370982,7.04001472 L6.56370982,18.9622938 L28.824084,18.9622938 L28.824084,24.6398675 L6.56370982,24.6398675 L6.56370982,42.8642644 L0,42.8642644 L0,1.13536753 L30.9360149,1.13536753 L30.9360149,7.04001472 L6.56370982,7.04001472 Z" id="Fill-1" fill="#000000" mask="url(#mask-2)"></path>
            </g>
        </g>
    </g>
</svg>