<?xml version="1.0" encoding="UTF-8"?>
<svg width="233px" height="22px" viewBox="0 0 233 22" version="1.1" xmlns="http://www.w3.org/2000/svg" xmlns:xlink="http://www.w3.org/1999/xlink">
    <!-- Generator: Sketch 52.5 (67469) - http://www.bohemiancoding.com/sketch -->
    <title>Group 3</title>
    <desc>Created with Sketch.</desc>
    <defs>
        <polygon id="path-1" points="0 0 232.91986 0 232.91986 21.8506545 0 21.8506545"></polygon>
    </defs>
    <g id="pres" stroke="none" stroke-width="1" fill="none" fill-rule="evenodd">
        <g id="Desktop-HD-Copy-351" transform="translate(-37.000000, -39.000000)">
            <g id="Group-3" transform="translate(37.000000, 39.000000)">
                <mask id="mask-2" fill="white">
                    <use xlink:href="#path-1"></use>
                </mask>
                <g id="Clip-2"></g>
                <path d="M232.91986,0.617563636 L232.91986,21.2332 L227.840969,21.2332 L217.543497,3.61883636 L217.347056,3.61883636 L217.402896,21.2332 L214.260398,21.2332 L214.260398,0.617563636 L219.339288,0.617563636 L229.63676,18.2319273 L229.833383,18.2319273 L229.776997,0.617563636 L232.91986,0.617563636 Z M209.42833,18.3719273 L209.42833,21.2332 L194.107807,21.2332 L194.107807,0.617563636 L209.315923,0.617563636 L209.315923,3.47865455 L197.334521,3.47865455 L197.334521,9.25647273 L208.2777,9.25647273 L208.2777,12.0052 L197.334521,12.0052 L197.334521,18.3719273 L209.42833,18.3719273 Z M170.756696,15.5399273 L173.98341,14.3337455 C174.544538,16.9984727 176.256115,19.0459273 180.66147,19.0459273 C184.505515,19.0459273 186.245467,17.6437455 186.245467,15.8204727 C186.245467,10.1828364 171.542094,15.0339273 171.542094,6.17065455 C171.542094,2.43992727 175.077655,-7.27272727e-05 180.072331,-7.27272727e-05 C185.627953,-7.27272727e-05 188.546183,2.91701818 189.191526,6.25483636 L185.964812,7.46047273 C185.40332,4.82410909 183.888365,2.80465455 180.015946,2.80465455 C176.564963,2.80465455 174.825193,4.20738182 174.825193,6.03029091 C174.825193,11.6679273 189.52802,6.81683636 189.52802,15.6804727 C189.52802,19.4106545 185.992459,21.8506545 180.605084,21.8506545 C174.320087,21.8506545 171.401857,18.9341091 170.756696,15.5399273 Z M166.334426,0.617563636 L166.334426,21.2332 L161.255535,21.2332 L150.958063,3.61883636 L150.761622,3.61883636 L150.817462,21.2332 L147.674963,21.2332 L147.674963,0.617563636 L152.753854,0.617563636 L163.051326,18.2319273 L163.247767,18.2319273 L163.191563,0.617563636 L166.334426,0.617563636 Z M137.107204,11.6686545 L133.852479,3.08574545 L130.56938,11.6686545 L137.107204,11.6686545 Z M138.201449,14.5575636 L129.474953,14.5575636 L126.949604,21.2332 L123.666869,21.2332 L131.775851,0.617563636 L136.040788,0.617563636 L144.149952,21.2332 L140.726798,21.2332 L138.201449,14.5575636 Z M120.153134,0.617563636 L120.153134,21.2332 L116.926239,21.2332 L116.926239,12.1175636 L104.945019,12.1175636 L104.945019,21.2332 L101.718305,21.2332 L101.718305,0.617563636 L104.945019,0.617563636 L104.945019,9.14410909 L116.926239,9.14410909 L116.926239,0.617563636 L120.153134,0.617563636 Z M85.6096567,18.2879273 L85.6096567,21.2332 L69.2512742,21.2332 L69.2512742,18.9892 L81.126271,3.56265455 L69.5317472,3.56265455 L69.5317472,0.617563636 L85.3290017,0.617563636 L85.3290017,2.86156364 L73.4540048,18.2879273 L85.6096567,18.2879273 Z M66.8654342,3.56283636 L59.1491508,3.56283636 L59.1491508,21.2332 L55.9224373,21.2332 L55.9224373,3.56283636 L48.3198347,3.56283636 L48.3198347,0.617563636 L66.8654342,0.617563636 L66.8654342,3.56283636 Z M41.9220657,21.2332 L45.1487792,21.2332 L45.1487792,0.617563636 L41.9220657,0.617563636 L41.9220657,21.2332 Z M29.0701422,9.95774545 C31.8479533,9.95774545 33.2788753,8.89174545 33.2788753,6.70410909 C33.2788753,4.48829091 31.8479533,3.42229091 29.0701422,3.42229091 L22.19546,3.42229091 L22.19546,9.95774545 L29.0701422,9.95774545 Z M36.8984693,21.2332 L33.4753155,21.2332 L32.80178,16.6332 C32.4092632,13.9126545 31.2868253,12.6224727 28.7614763,12.6224727 L22.19546,12.6224727 L22.19546,21.2332 L18.9687464,21.2332 L18.9687464,0.617563636 L29.2664006,0.617563636 C34.0364436,0.617563636 36.6460072,2.83338182 36.6460072,6.45174545 C36.6460072,9.08810909 35.2150852,10.7432 33.0826169,11.4162909 C34.6817863,12.0612 35.6359767,13.3795636 36.0286754,15.7919273 L36.8984693,21.2332 Z M3.22678626,3.53465455 L3.22678626,9.42465455 L14.1697831,9.42465455 L14.1697831,12.2295636 L3.22678626,12.2295636 L3.22678626,21.2332 L-0.000109133489,21.2332 L-0.000109133489,0.617563636 L15.2080064,0.617563636 L15.2080064,3.53465455 L3.22678626,3.53465455 Z" id="Fill-1" fill="#000000" mask="url(#mask-2)"></path>
            </g>
        </g>
    </g>
</svg>