<svg xmlns="http://www.w3.org/2000/svg" viewBox="0 0 74 74">
    <defs>
        <style>
            .cls-1{fill:none}.cls-2{fill:#3c3c3b}
        </style>
    </defs>
    <g id="review_couple_s" transform="translate(-364 -297)">
        <path id="사각형_1861" d="M0 0h74v74H0z" class="cls-1" data-name="사각형 1861" transform="translate(364 297)"/>
        <path id="패스_1619" d="M72 68.1c0-4-.3-18.2-2.8-22.9l-.9.5.9-.5a7.232 7.232 0 0 0-4.5-3.5l-6.8-1.8v-2.2a8.7 8.7 0 0 0 2.7-2.7 5.659 5.659 0 0 0 2.5-.8 5.99 5.99 0 0 0 2.4-2.6 3.5 3.5 0 0 0-.1-3.3 4.036 4.036 0 0 0-1.3-1.3 11.819 11.819 0 0 0-9.6-12.8 4.931 4.931 0 0 0-5.3 2.1 6.655 6.655 0 0 0-4.1 1.9c-1.8 1.8-2.4 4.8-2 8.9a2.949 2.949 0 0 0-1.4 1.3 3.779 3.779 0 0 0-.1 3.3 5.99 5.99 0 0 0 2.4 2.6 6.093 6.093 0 0 0 2.5.8 8.7 8.7 0 0 0 2.7 2.7V40l-6.8 1.8a7.161 7.161 0 0 0-5 4.7L31 44.8v-2.3a9.2 9.2 0 0 0 2.6-2.6 5.659 5.659 0 0 0 2.5-.8c2.4-1.4 3.4-4 2.3-5.8a4.036 4.036 0 0 0-1.3-1.3 11.819 11.819 0 0 0-9.6-12.8 5.413 5.413 0 0 0-5.3 2 5.663 5.663 0 0 0-3.6 1.3c-2.1 1.8-3.1 5-3 9.7a2.836 2.836 0 0 0-.9 1 3.779 3.779 0 0 0-.1 3.3 6.527 6.527 0 0 0 1 1.5v8.6h-.2a7.38 7.38 0 0 0-4 2.7c-.6.8-1.2 1.7-2 2.6C6.3 56.3 2 61.9 2 65.4v2.8H0v2h74v-2h-2zm-8.3-37.3a4.25 4.25 0 0 1-1.6 1.7c-.1.1-.3.1-.4.2a9.6 9.6 0 0 0 .6-3.3v-.8a1.494 1.494 0 0 1 1.4.7 1.946 1.946 0 0 1 0 1.5zM45 32.4a3.748 3.748 0 0 1-1.6-1.7 1.911 1.911 0 0 1 0-1.5 1.75 1.75 0 0 1 1.4-.7v.8a9.6 9.6 0 0 0 .6 3.3c-.1 0-.2-.1-.4-.2zm1.9-3.1v-2.8h-1.8c-.3-3.2.2-5.6 1.5-7a4.14 4.14 0 0 1 3.1-1.3 1.231 1.231 0 0 0 1-.5 3.177 3.177 0 0 1 3.4-1.6 9.886 9.886 0 0 1 8.1 10.4h-.6c-3.4-4.2-10.9-5.7-11.3-5.7a.876.876 0 0 0-1 .5l-1.6 2.6 1.7 1.1 1.3-2c1.9.5 7.6 2 9.7 5.3v1.1c0 3.6-2.6 7.5-6.7 7.5s-6.8-4-6.8-7.6zm3.6 12.3a.993.993 0 0 0 .7-1v-2.1a8.967 8.967 0 0 0 4.6 0v2.1a1.087 1.087 0 0 0 .7 1l2.3.6c-.7 1-2.7 2-5.4 2-2.6 0-4.7-1-5.4-2zm-7.5 2l3.2-.9c.9 2 3.8 3.5 7.4 3.5s6.5-1.4 7.4-3.5l3.2.9a4.936 4.936 0 0 1 3.2 2.6c2.2 4.3 2.5 18.2 2.5 22H43.4V54.6a8.79 8.79 0 0 0-3.9-7.4.1.1 0 0 1-.1-.1 4.761 4.761 0 0 1 3.6-3.5zm-13.2 2.8l2.3.6c-.7 1-2.7 2-5.4 2-2.6 0-4.7-1-5.4-2l3-.8v-2.9a8.524 8.524 0 0 0 2.3.3 6.722 6.722 0 0 0 2.4-.4v2.1a1.373 1.373 0 0 0 .8 1.1zm5.4-9.2c-.1.1-.3.1-.4.2a9.6 9.6 0 0 0 .6-3.3v-.8a1.494 1.494 0 0 1 1.4.7c.5 1-.2 2.4-1.6 3.2zM20 23.9a3.694 3.694 0 0 1 2.7-.9 1 1 0 0 0 1.1-.5 3.177 3.177 0 0 1 3.4-1.6 9.886 9.886 0 0 1 8.1 10.4h-.6c-3.4-4.2-10.9-5.7-11.3-5.7a.876.876 0 0 0-1 .5l-1.6 2.6 1.7 1.1 1.3-2c1.9.5 7.6 2 9.7 5.3v1.1c0 3.6-2.6 7.5-6.7 7.5s-6.7-3.9-6.7-7.5v-2.8h-2.3c0-4.5 1.1-6.5 2.2-7.5zm-3.4 11.6a1.911 1.911 0 0 1 0-1.5 1.75 1.75 0 0 1 1.4-.7v.8a9.6 9.6 0 0 0 .6 3.3c-.1-.1-.3-.1-.4-.2a3.291 3.291 0 0 1-1.6-1.7zm1.1 3.7a6.529 6.529 0 0 0 2 .5 8.7 8.7 0 0 0 2.7 2.7v2.2l-4.6 1.2v-6.6zM4 65.4C4 62.6 8.2 57 11.2 53c.7-1 1.4-1.9 2-2.7a5.463 5.463 0 0 1 2.9-2l3.2-.9c.9 2 3.8 3.5 7.4 3.5s6.5-1.5 7.4-3.5l3.3.9a3.087 3.087 0 0 1 1 .5 6.715 6.715 0 0 1 3 5.7v13.6h-3.2v-5l-8.9-.9s-8.9-.9-15.5-1.5l-.2 2c5.4.5 12.2 1.2 14.6 1.4V68H4.1L4 65.4zm26.2-1l6 .6v3.2h-6z" class="cls-2" data-name="패스 1619" transform="translate(364 297)"/>
    </g>
</svg>
