<svg xmlns="http://www.w3.org/2000/svg" viewBox="0 0 74 74">
    <defs>
        <style>
            .cls-1{fill:none}.cls-2{fill:#3c3c3b}
        </style>
    </defs>
    <g id="review_family_s" transform="translate(-462 -297)">
        <path id="사각형_1863" d="M0 0h74v74H0z" class="cls-1" data-name="사각형 1863" transform="translate(462 297)"/>
        <path id="패스_1621" d="M57 68.1l16.4-8.6a.876.876 0 0 0 .5-1l-3.3-19.9a8.174 8.174 0 0 0-5.9-6.8L57.9 30v-2.3a9.2 9.2 0 0 0 2.6-2.6 5.659 5.659 0 0 0 2.5-.8 5.99 5.99 0 0 0 2.4-2.6 3.5 3.5 0 0 0-.1-3.3 4.036 4.036 0 0 0-1.3-1.3 11.819 11.819 0 0 0-9.6-12.8 4.931 4.931 0 0 0-5.3 2.1A6.655 6.655 0 0 0 45 8.3c-1.8 1.8-2.4 4.8-2 8.9a2.949 2.949 0 0 0-1.4 1.3c-1.1 1.9 0 4.5 2.3 5.8a6.093 6.093 0 0 0 2.5.8 9.2 9.2 0 0 0 2.6 2.6V30l-6.8 1.8a7.133 7.133 0 0 0-4.8 4.3h-.6a11.758 11.758 0 0 0-4.3.8c-.3-.1-.7-.3-1-.4l-6.8-1.8v-2.2a8.7 8.7 0 0 0 2.7-2.7 5.659 5.659 0 0 0 2.5-.8 5.99 5.99 0 0 0 2.4-2.6 3.5 3.5 0 0 0-.1-3.3 4.036 4.036 0 0 0-1.3-1.3A11.819 11.819 0 0 0 21.3 9a5.413 5.413 0 0 0-5.3 2 5.663 5.663 0 0 0-3.6 1.3c-2.1 1.8-3.1 5-3 9.7a2.836 2.836 0 0 0-.9 1 3.779 3.779 0 0 0-.1 3.3 6.527 6.527 0 0 0 1 1.5v8.6h-.2a7.931 7.931 0 0 0-5.8 6.8L.1 64a.921.921 0 0 0 .7 1.1l12.1 3H0v2h74v-2zm-27.8-2.7v2.7h-6.9l1-4.9zm1.4-1.6l-3.9-1.4a11.464 11.464 0 0 1 5-4.5v2.4a.945.945 0 0 0 1 1h8.7a.945.945 0 0 0 1-1V58a11.313 11.313 0 0 1 4.9 4.3l-4.2 1.5a.961.961 0 0 0-.7.9v3.4H31.2v-3.4a.961.961 0 0 0-.6-.9zm7.2-6.8a11.529 11.529 0 0 1 2.6.3v2h-6.7v-2a10.074 10.074 0 0 1 2.5-.3zm6.6 8.4l6.1-2.2 1.2 4.9h-7.2v-2.7zm19.2-44.5a4.25 4.25 0 0 1-1.6 1.7c-.1.1-.3.1-.4.2a9.6 9.6 0 0 0 .6-3.3v-.8a1.494 1.494 0 0 1 1.4.7 1.339 1.339 0 0 1 0 1.5zM45 22.5c-1.4-.8-2.1-2.2-1.6-3.1a1.75 1.75 0 0 1 1.4-.7v.8a9.6 9.6 0 0 0 .6 3.3c-.1-.1-.3-.2-.4-.3zm1.9-3v-2.8H45c-.3-3.2.2-5.6 1.5-7a4.14 4.14 0 0 1 3.1-1.3 1.231 1.231 0 0 0 1-.5A3.07 3.07 0 0 1 54 6.3a9.886 9.886 0 0 1 8.1 10.4h-.6c-3.4-4.2-11-5.7-11.3-5.7a.876.876 0 0 0-1 .5l-1.6 2.6 1.7 1.1 1.3-2c1.9.5 7.6 2 9.7 5.3v1.1c0 3.6-2.6 7.5-6.7 7.5-4.2-.1-6.7-4-6.7-7.6zm3.5 12.2a.993.993 0 0 0 .7-1v-2.1a8.6 8.6 0 0 0 2.4.4 6.723 6.723 0 0 0 2.4-.4v2.1a1.087 1.087 0 0 0 .7 1l2.3.6c-.7 1-2.7 2-5.4 2-2.6 0-4.7-1-5.4-2zm-7.5 2l3.3-.9c.9 2 3.8 3.5 7.4 3.5s6.5-1.5 7.4-3.5l3.3.9a6.149 6.149 0 0 1 4.4 5.2l3.2 19.2-18.2 9.5-1.3-5.3 12.8-9.2-1.2-1.6L50.7 61l-1.6.6a13.138 13.138 0 0 0-7.6-6.1 8.763 8.763 0 0 0 2.3-2.4 7.283 7.283 0 0 0 2.4-.7 5.53 5.53 0 0 0 2.3-2.5 3.372 3.372 0 0 0-.1-3.1 3.907 3.907 0 0 0-1.7-1.4c-.5-4.4-2.8-7.6-6.4-8.8-.3-.1-.5-.1-.8-.2a5.725 5.725 0 0 1 3.4-2.7zm2.5 14v-.6a1.782 1.782 0 0 1 1.3.6 1.467 1.467 0 0 1 0 1.3 3.814 3.814 0 0 1-1.5 1.6.367.367 0 0 1-.3.1 7.579 7.579 0 0 0 .5-3zm-5.6-9.2c3.5 1.1 4.6 4.3 5 6.6h-.3a22.338 22.338 0 0 1-10.4-2.6L33 44.2a22.522 22.522 0 0 0 10.5 2.9v.6c0 3.5-2.5 7.2-6.4 7.2-4 0-6.4-3.7-6.4-7.2v-2.6h-.9a.6.6 0 0 1-.4-.1c.4-2.7 1.9-7 7.8-7a13.177 13.177 0 0 1 2.6.5zm-12.5 9.2a1.375 1.375 0 0 1 1.3-.6v.6a10.474 10.474 0 0 0 .5 3c-.1 0-.2-.1-.3-.1-1.3-.7-2-2-1.5-2.9zm-3.7-11.2l2.3.6c-.7 1-2.7 2-5.4 2-2.6 0-4.7-1-5.4-2l2.3-.6a.993.993 0 0 0 .7-1v-2.1a8.967 8.967 0 0 0 4.6 0v2.1a1.517 1.517 0 0 0 .9 1zm7-10.8a4.25 4.25 0 0 1-1.6 1.7c-.1.1-.3.1-.4.2a9.6 9.6 0 0 0 .6-3.3v-.8a1.494 1.494 0 0 1 1.4.7 1.339 1.339 0 0 1 0 1.5zM13.8 14.1a3.61 3.61 0 0 1 2.7-.9 1 1 0 0 0 1.1-.5 3.177 3.177 0 0 1 3.4-1.6 9.886 9.886 0 0 1 8.1 10.4h-.6c-3.4-4.2-10.9-5.7-11.3-5.7a.876.876 0 0 0-1 .5l-1.6 2.6 1.7 1.1 1.3-2c1.9.5 7.6 2 9.7 5.3v1.1c0 3.6-2.6 7.5-6.7 7.5s-6.7-3.9-6.7-7.5v-2.8h-2.3c0-4.6 1.2-6.6 2.2-7.5zm-3.4 11.6a1.911 1.911 0 0 1 0-1.5 1.75 1.75 0 0 1 1.4-.7v.8a9.6 9.6 0 0 0 .6 3.3c-.1-.1-.3-.1-.4-.2a5.1 5.1 0 0 1-1.6-1.7zm1.2 3.7a6.529 6.529 0 0 0 2 .5 8.7 8.7 0 0 0 2.7 2.7v2.2L11.6 36zM5.5 43.7a6.275 6.275 0 0 1 4.4-5.2l3.2-.9c.9 2 3.8 3.5 7.4 3.5s6.5-1.4 7.4-3.5l2.5.7a10.582 10.582 0 0 0-3.3 7.1 3.435 3.435 0 0 0-1.6 1.3c-1.1 1.8-.1 4.3 2.2 5.6a5.134 5.134 0 0 0 2.4.7 8.763 8.763 0 0 0 2.3 2.4 13.506 13.506 0 0 0-7.7 6.2l-1.8-.6-13.6-5-.7 1.9 12.8 4.7-1.1 5.4-18.1-4.6z" class="cls-2" data-name="패스 1621" transform="translate(462 297)"/>
    </g>
</svg>
