<svg xmlns="http://www.w3.org/2000/svg" viewBox="0 0 74 74">
    <defs>
        <style>
            .cls-1,.cls-2{fill:none}.cls-2{stroke:#3c3c3b;stroke-miterlimit:10;stroke-width:2px}.cls-3{fill:#3c3c3b}
        </style>
    </defs>
    <g id="review_kids_s" transform="translate(-560 -297)">
        <path id="사각형_1865" d="M0 0h74v74H0z" class="cls-1" data-name="사각형 1865" transform="translate(560 297)"/>
        <path id="선_695" d="M0 0h74" class="cls-2" data-name="선 695" transform="translate(560 366.2)"/>
        <path id="패스_1623" d="M60.6 46.7l3.8-3.4-4.3-5.5L56 41l-2.9 2a26.867 26.867 0 0 1-10.4 4.2 7.551 7.551 0 0 0 1.1-1.4 7.283 7.283 0 0 0 2.4-.7c2.3-1.3 3.3-3.8 2.2-5.6a3.907 3.907 0 0 0-1.7-1.4c-.5-4.4-2.8-7.6-6.4-8.8a11.419 11.419 0 0 0-3.3-.5 1.672 1.672 0 0 1-1.2-1.6 1.7 1.7 0 0 1 1.3-1.8l-.4-2a3.723 3.723 0 0 0-2.8 3.8 3.557 3.557 0 0 0 .5 1.9c-4.2.9-6.8 4.1-7.3 9a3.435 3.435 0 0 0-1.6 1.3c-1.1 1.8-.1 4.3 2.2 5.6a5.134 5.134 0 0 0 2.4.7 7.551 7.551 0 0 0 1.1 1.4 22.969 22.969 0 0 1-9.7-3.8L18 41l-4-3.1-4.3 5.5 3.8 3.4L25.2 58l-2.3 11 2 .4 2.5-12.2-12-11.3 2.1-2.7 2.9 2a26.622 26.622 0 0 0 11.2 4.2V53a.945.945 0 0 0 1 1h8.7a.945.945 0 0 0 1-1v-3.7a27.335 27.335 0 0 0 11.9-4.7l2.2-1.5 2.2 2.7-.8.9-11.1 10.5 2.5 12.2 2-.4-2.3-11.1 10.3-9.7zm-46.7-2.2l-1.6-1.4 1.9-2.4L16 42zm31.3-1.2a.367.367 0 0 1-.3.1 10.474 10.474 0 0 0 .5-3v-.6a1.782 1.782 0 0 1 1.3.6c.5.9-.2 2.2-1.5 2.9zM37 30.8a8.246 8.246 0 0 1 2.8.4c3.5 1.1 4.6 4.3 5 6.6h-.3a22.338 22.338 0 0 1-10.4-2.6L33 36.9a22.522 22.522 0 0 0 10.5 2.9v.6c0 3.5-2.5 7.2-6.4 7.2s-6.4-3.7-6.4-7.2v-2.6h-.9a.6.6 0 0 1-.4-.1c.2-2.6 1.8-6.9 7.6-6.9zm-8.2 12.5c-1.3-.7-2-2.1-1.5-2.9a1.375 1.375 0 0 1 1.3-.6v.6a10.474 10.474 0 0 0 .5 3 .367.367 0 0 1-.3-.1zM40.3 52h-6.7v-2.4a20.9 20.9 0 0 0 2.5.1h1.8a19.269 19.269 0 0 0 2.4-.1zM58 42l1.7-1.3 1.9 2.4-1.6 1.4z" class="cls-3" data-name="패스 1623" transform="translate(560 297)"/>
    </g>
</svg>
