<svg xmlns="http://www.w3.org/2000/svg" viewBox="0 0 74 74">
    <defs>
        <style>
            .cls-1{fill:none}.cls-2{fill:#3c3c3b}
        </style>
    </defs>
    <g id="review_single_s" transform="translate(-266 -297)">
        <path id="사각형_1862" d="M0 0h74v74H0z" class="cls-1" data-name="사각형 1862" transform="translate(266 297)"/>
        <path id="패스_1620" d="M59.3 68.1c-.9-2.9-4.2-13.6-6.6-18.2l-.9.5.9-.5a7.232 7.232 0 0 0-4.5-3.5l-6.8-1.8v-2.3a9.2 9.2 0 0 0 2.6-2.6 5.659 5.659 0 0 0 2.5-.8 5.99 5.99 0 0 0 2.4-2.6 3.5 3.5 0 0 0-.1-3.3 4.036 4.036 0 0 0-1.3-1.3 11.819 11.819 0 0 0-9.6-12.8 4.931 4.931 0 0 0-5.3 2.1 6.655 6.655 0 0 0-4.1 1.9c-1.8 1.8-2.4 4.8-2 8.8a3.25 3.25 0 0 0-1.3 1.3c-1.1 1.9 0 4.5 2.3 5.8a6.093 6.093 0 0 0 2.5.8 8.7 8.7 0 0 0 2.7 2.7v2.2l-6.8 1.8a7.38 7.38 0 0 0-4 2.7c-.6.8-1.2 1.7-2 2.6-3.4 4.5-7.6 10.1-7.6 13.6v2.9H0v2h74v-2zM47.1 35.5a4.25 4.25 0 0 1-1.6 1.7c-.1.1-.3.1-.4.2a9.6 9.6 0 0 0 .6-3.3v-.8a1.494 1.494 0 0 1 1.4.7 1.59 1.59 0 0 1 0 1.5zm-18.6 1.6c-1.4-.8-2.1-2.2-1.6-3.1a1.75 1.75 0 0 1 1.4-.7v.7a9.6 9.6 0 0 0 .6 3.3.52.52 0 0 1-.4-.2zm1.8-3.1v-2.8h-1.8c-.3-3.2.2-5.6 1.5-7a4.14 4.14 0 0 1 3.1-1.3 1.231 1.231 0 0 0 1-.5 3.07 3.07 0 0 1 3.4-1.6 9.886 9.886 0 0 1 8.1 10.4H45c-3.5-4.2-11-5.6-11.3-5.6a.876.876 0 0 0-1 .5L31 28.6l1.7 1.1 1.3-2c1.9.5 7.6 2 9.7 5.3v1c0 3.6-2.6 7.5-6.7 7.5s-6.7-3.8-6.7-7.5zm4.4 12.1v-2.9a8.524 8.524 0 0 0 2.3.3 6.722 6.722 0 0 0 2.4-.4v2.1a1.087 1.087 0 0 0 .7 1l2.3.6c-.7 1-2.7 2-5.4 2-2.6 0-4.7-1-5.4-2zM14.4 65.3c0-2.8 4.2-8.3 7.2-12.4.7-1 1.4-1.9 2-2.7a5.463 5.463 0 0 1 2.9-2l3.2-.9c.9 2 3.8 3.5 7.4 3.5s6.5-1.4 7.4-3.5l3.3.9a4.936 4.936 0 0 1 3.2 2.6c2.2 4.2 5.2 13.8 6.3 17.3h-8.7V63l-8.9-.9s-8.9-.9-15.5-1.5l-.2 2c5.4.5 12.2 1.2 14.6 1.4v4H14.4zm26.1-1l6 .6v3.3h-6z" class="cls-2" data-name="패스 1620" transform="translate(266 297)"/>
    </g>
</svg>
