<svg xmlns="http://www.w3.org/2000/svg" viewBox="0 0 80 80">
  <defs>
    <style>
      .cls-1 {
        fill: none;
        opacity: 0;
      }

      .cls-2 {
        fill: #3c3c3b;
      }
    </style>
  </defs>
  <g id="category_motion_d" transform="translate(-13153 -3544)">
    <rect id="사각형_1883" data-name="사각형 1883" class="cls-1" width="80" height="80" transform="translate(13153 3544)"/>
    <g id="그룹_3433" data-name="그룹 3433" transform="translate(13166 3559)">
      <path id="패스_1627" data-name="패스 1627" class="cls-2" d="M53.8,11.6,32,.1a.954.954,0,0,0-1.2.3L18.7,16,.5,26.5a.891.891,0,0,0-.5.8v9.3a1.05,1.05,0,0,0,.5.9L22.3,49.9a1.3,1.3,0,0,0,1,0L44.2,37.6l.3-.3,9.7-13.1a1.421,1.421,0,0,0,.2-.6V12.5A1.069,1.069,0,0,0,53.8,11.6Zm-1.4,5.6L42,31.2,22.8,42.3,2,30.5V29L22.3,40.5a1.3,1.3,0,0,0,1,0L41.7,29.9l.3-.3L52.4,15.5v1.7Zm-32.6.4c.1-.1.2-.1.3-.2L31.8,2.3,51.9,12.9,40.5,28.3,22.8,38.5,3,27.3ZM43,35.9,22.8,47.8,2,36V32.7L22.3,44.2a1.3,1.3,0,0,0,1,0L43.1,32.8l.3-.3,9-12.1v2.8Z"/>
    </g>
  </g>
</svg>
