<svg xmlns="http://www.w3.org/2000/svg" viewBox="0 0 80 80">
    <defs>
        <style>
            .cls-1{fill:none;opacity:0}.cls-2{fill:#3c3c3b}
        </style>
    </defs>
    <g id="category_pillow_s" transform="translate(-13878.001 -3544)">
        <path id="사각형_1881" d="M0 0h80v80H0z" class="cls-1" data-name="사각형 1881" transform="translate(13878.001 3544)"/>
        <g id="그룹_3438" data-name="그룹 3438" transform="translate(13895.051 3570)">
            <path id="패스_1632" d="M17.4 0h-.2C5.3 1.6.3 9.6.1 9.9a.908.908 0 0 0 0 1C7.6 23 25.8 27.3 26.6 27.5h.3c13.6-1 19.2-10.8 19.4-11.2a1.063 1.063 0 0 0-.2-1.2A50.78 50.78 0 0 0 17.4 0zM2.2 10.4C3.4 8.7 8.1 3.3 17.3 2c1.3.1 13.7 2 25.2 12.3-10.3-.8-15 8.2-16.2 11.1-3.6-1-17.7-5.3-24.1-15zm26.2 15c1.5-3.2 5.9-10.6 15.4-8.9a23.045 23.045 0 0 1-15.4 8.9z" class="cls-2" data-name="패스 1632"/>
        </g>
    </g>
</svg>
