<svg xmlns="http://www.w3.org/2000/svg" viewBox="0 0 80 80">
  <defs>
    <style>
      .cls-1 {
        fill: none;
        opacity: 0;
      }

      .cls-2 {
        fill: #3c3c3b;
      }
    </style>
  </defs>
  <g id="category_topper_s" transform="translate(-13443 -3544)">
    <rect id="사각형_1878" data-name="사각형 1878" class="cls-1" width="80" height="80" transform="translate(13443 3544)"/>
    <g id="그룹_3437" data-name="그룹 3437" transform="translate(13456 3566.05)">
      <path id="패스_1629" data-name="패스 1629" class="cls-2" d="M53.9,13.4,30.4.1a.908.908,0,0,0-1,0L.5,16.8a1.05,1.05,0,0,0-.5.9v3.7a1.05,1.05,0,0,0,.5.9L24,35.5a1.3,1.3,0,0,0,1,0L53.9,18.8a1.05,1.05,0,0,0,.5-.9V14.2A1.02,1.02,0,0,0,53.9,13.4ZM29.9,2.1,51.4,14.3,24.5,29.8,3,17.7ZM24.5,33.5,2,20.8V19.4L24,31.8a1.3,1.3,0,0,0,1,0L52.4,16v1.4Z"/>
    </g>
  </g>
</svg>
