<svg xmlns="http://www.w3.org/2000/svg" width="100" height="100" viewBox="0 0 100 100">
    <defs>
        <style>
            .cls-1{fill:none}.cls-2{fill:#3c3c3c}
        </style>
    </defs>
    <g id="category_duvet_s" transform="translate(-450 -203)">
        <path id="사각형_1028" d="M0 0h100v100H0z" class="cls-1" data-name="사각형 1028" transform="translate(450 203)"/>
        <path id="패스_525" d="M75.075 46.13l-7.45-4.3 6.27-3.62a1.245 1.245 0 0 0 .575-1.42 1.225 1.225 0 0 0-1.238-.9c-.062 0-6.429.186-9.79-1.858A14.544 14.544 0 0 1 59 29.382a19.431 19.431 0 0 0-4.563-5.048c-4.235-3.112-11.416-3.084-11.73-3.09a1.249 1.249 0 0 0-.613.167l-30.2 17.464a1.243 1.243 0 0 0-.57 1.43 1.23 1.23 0 0 0 1.257.891c.066 0 6.7-.3 10.186 2.442a17.831 17.831 0 0 1 3.544 3.923L17.8 52.474a1.247 1.247 0 0 0-.623 1.079v9.111a1.247 1.247 0 0 0 .623 1.079l22.521 13a1.249 1.249 0 0 0 1.245 0L75.075 57.4a1.243 1.243 0 0 0 .623-1.078v-9.11a1.243 1.243 0 0 0-.623-1.082zm-3.114 1.078L40.943 65.086 20.914 53.551l6.786-3.916-.393-.68a15.736 15.736 0 0 0 4.673 4.525 14.358 14.358 0 0 0 4.226 1.591 1.26 1.26 0 0 0 .277.031 1.31 1.31 0 0 0 .22-.019l11.325-2.026a1.249 1.249 0 0 0 .4-.148l16.83-9.709-.058.1zM39.2 52.107l2.1-3.054 3.213 2.1zM24.3 41.682a15.721 15.721 0 0 0-7.524-2.757l26.269-15.186c1.366.034 6.806.314 9.919 2.6a17.178 17.178 0 0 1 4 4.464 16.765 16.765 0 0 0 5.188 5.351 17.674 17.674 0 0 0 6.844 2.008L47.849 50.37l-6.212-4.07a1.244 1.244 0 0 0-1.708.337l-3.978 5.792a10.762 10.762 0 0 1-2.678-1.08 15.223 15.223 0 0 1-4.589-4.746 21.634 21.634 0 0 0-4.384-4.921zm16.643 32.546L19.666 61.945v-6.238L40.321 67.6a1.243 1.243 0 0 0 1.243 0l31.643-18.237V55.6z" class="cls-2" data-name="패스 525" transform="translate(456.202 204.219)"/>
    </g>
</svg>
