<svg xmlns="http://www.w3.org/2000/svg" viewBox="0 0 80 80">
  <defs>
    <style>
      .cls-1 {
        fill: none;
        opacity: 0;
      }

      .cls-2 {
        fill: #3c3c3b;
      }
    </style>
  </defs>
  <g id="category_acc_s" transform="translate(-14023 -3544)">
    <rect id="사각형_1882" data-name="사각형 1882" class="cls-1" width="80" height="80" transform="translate(14023 3544)"/>
    <g id="그룹_3439" data-name="그룹 3439" transform="translate(14040 3568.05)">
      <path id="패스_1633" data-name="패스 1633" class="cls-2" d="M46,12.7,23.7.1a.908.908,0,0,0-1,0L.5,12.7a1.05,1.05,0,0,0-.5.9v3.7a1.05,1.05,0,0,0,.5.9L22.7,31a1.3,1.3,0,0,0,1,0L46,18.1a1.05,1.05,0,0,0,.5-.9V13.5A1.02,1.02,0,0,0,46,12.7ZM23.2,2.1,43.4,13.5,23.2,25.3,3,13.6Zm0,26.8L2,16.7V15.3l20.8,12a1.3,1.3,0,0,0,1,0l20.8-12v1.4Z"/>
      <path id="패스_1634" data-name="패스 1634" class="cls-2" d="M18.7,12l7.2,4.1a.9.9,0,0,0,.5.1,1.193,1.193,0,0,0,.9-.5.883.883,0,0,0-.4-1.3l-7.2-4.1a.883.883,0,0,0-1.3.4A.8.8,0,0,0,18.7,12Z"/>
    </g>
  </g>
</svg>
