<svg xmlns="http://www.w3.org/2000/svg" viewBox="0 0 80 80">
  <defs>
    <style>
      .cls-1 {
        fill: none;
        opacity: 0;
      }

      .cls-2 {
        fill: #3c3c3b;
      }
    </style>
  </defs>
  <g id="category_cover_s" transform="translate(-13733 -3544)">
    <rect id="사각형_1880" data-name="사각형 1880" class="cls-1" width="80" height="80" transform="translate(13733 3544)"/>
    <g id="그룹_3436" data-name="그룹 3436" transform="translate(13750 3565.026)">
      <path id="패스_1631" data-name="패스 1631" class="cls-2" d="M46.5,16.3a3.841,3.841,0,0,0-1.1-2.9,2.092,2.092,0,0,0-.6-.4L22.8.4h0A2.543,2.543,0,0,0,21.1,0a1.613,1.613,0,0,0-.9.3h-.1L.5,11.7a1.02,1.02,0,0,0-.5.8,1.193,1.193,0,0,0,.5.9l4.1,2.4-.6.3.5.9L4,16.1l-1.7,1h0A5.189,5.189,0,0,0,0,21.6a3.956,3.956,0,0,0,1,2.8c.1.1.1.1.2.1L23.5,37.4l.1.1a2.2,2.2,0,0,0,1.3.4,2.016,2.016,0,0,0,1.1-.3h.1L46,26.2a1.06,1.06,0,0,0,0-1.8l-4.1-2.3L44,20.9A5.667,5.667,0,0,0,46.5,16.3ZM21.2,2.1a.31.31,0,0,1,.2-.1.367.367,0,0,1,.3.1l.5-.7-.4.7L41.6,13.5l-12.1,7L22,16.2a.908.908,0,0,0-1,0l-5.9,3.4L3,12.5ZM18.5,20l3.1-1.8,3.9,2.2Zm25,5.3L25.2,35.9a.693.693,0,0,1-.5,0c-.3-.2-.5-.6-.5-1.5a3.556,3.556,0,0,1,1.3-2.8l14.4-8.3ZM43,19.2,24.5,29.9a5.189,5.189,0,0,0-2.3,4.5h0L2.3,22.9A2.062,2.062,0,0,1,2,21.6a3.556,3.556,0,0,1,1.3-2.8h0l1.7-1H5l1.6-.9,8.1,4.7h.2c.1,0,.2.1.3.1l14.4,1h.6L43.5,15c.1,0,.2-.1.3-.1.2,0,.3,0,.4.1a2.053,2.053,0,0,1,.5,1.4A4.366,4.366,0,0,1,43,19.2Z"/>
    </g>
  </g>
</svg>
