<svg xmlns="http://www.w3.org/2000/svg" viewBox="0 0 80 80">
  <defs>
    <style>
      .cls-1 {
        fill: none;
        opacity: 0;
      }

      .cls-2 {
        fill: #3c3c3b;
      }
    </style>
  </defs>
  <g id="category_frame_s" transform="translate(-13588 -3544)">
    <rect id="사각형_1879" data-name="사각형 1879" class="cls-1" width="80" height="80" transform="translate(13588 3544)"/>
    <g id="그룹_3434" data-name="그룹 3434" transform="translate(13600 3558.05)">
      <path id="패스_1630" data-name="패스 1630" class="cls-2" d="M55.5,12.3c0-.2-.1-.3-.3-.4a.1.1,0,0,1-.1-.1l-.1-.1h0L35,.1a.908.908,0,0,0-1,0L30.5,2h0a.1.1,0,0,0-.1.1.1.1,0,0,0-.1.1l-.1.1-.1.1a.1.1,0,0,1-.1.1v.3h0V14.2L.5,31.2a1.05,1.05,0,0,0-.5.9v8.6a1,1,0,0,0,1,1H2.3a1.013,1.013,0,0,0,.9-.6l.9-2.3,14.6,8.4.6,4.4c0,.4.3.6.6.8l.9.4c.1,0,.2.1.4.1s.3,0,.4-.1l.9-.4a.871.871,0,0,0,.6-.8l.6-4.3,28-16.2.8,2a.875.875,0,0,0,.9.6h1.3a1,1,0,0,0,1-1V12.6a.769.769,0,0,1-.2-.3ZM53.6,27.6,21.2,46.3,2,35.2V33.8L20.7,44.6a1.3,1.3,0,0,0,1,0l30-17.3a1.05,1.05,0,0,0,.5-.9h0V15.1l1.4-.8V27.6ZM31,15.9,49.2,26.4l-28,16.2L3,32.1Zm19.2-.8v9.6L32,14.2V4.5L50,15ZM34.5,2.1,52.6,12.6l-.4.2-1,.6L33,2.9ZM2,38.8V37.5l.4.2ZM21.1,50.4l-.3-2c.1,0,.2.1.3.1h.2ZM53.3,30l.3-.2v1Z"/>
    </g>
  </g>
</svg>
