<?xml version="1.0" encoding="utf-8"?>
<!-- Generator: Adobe Illustrator 16.0.0, SVG Export Plug-In . SVG Version: 6.00 Build 0)  -->
<!DOCTYPE svg PUBLIC "-//W3C//DTD SVG 1.1//EN" "http://www.w3.org/Graphics/SVG/1.1/DTD/svg11.dtd">
<svg version="1.1" id="Layer_1" xmlns="http://www.w3.org/2000/svg" xmlns:xlink="http://www.w3.org/1999/xlink" x="0px" y="0px"
	 width="841.89px" height="105.599px" viewBox="0 0 841.89 105.599" enable-background="new 0 0 841.89 105.599"
	 xml:space="preserve">
<g>
	<path fill="#595A5C" d="M568.995,79.2h29.849V67.729h-25.585V16.265h24.253V4.8h-37.579v65.867
		C559.933,70.667,559.664,79.2,568.995,79.2L568.995,79.2z"/>
	<polygon fill="#595A5C" points="808.858,69.331 808.858,35.465 795.798,35.465 795.798,69.331 781.14,69.331 781.14,35.465 
		767.814,35.465 767.814,69.331 750.226,69.331 750.226,80.53 841.105,80.53 841.105,69.331 808.858,69.331 	"/>
	<path fill="#595A5C" d="M543.143,73.6v30.932h-13.325V78.398h-63.431V67.195h31.449v-9.33h-35.982V47.463h86.621v10.402h-37.313
		v9.33h26.119C537.28,67.195,543.143,67.195,543.143,73.6L543.143,73.6z"/>
	<path fill="#595A5C" d="M529.817,21.864V28.8h-49.839v-6.936H529.817L529.817,21.864z M471.718,39.732h71.425V3.999h-13.325v7.467
		h-49.839V3.999h-13.326v30.398C466.652,34.397,466.387,39.732,471.718,39.732L471.718,39.732z"/>
	<polygon fill="#595A5C" points="630.294,30.665 618.033,30.665 618.033,3.732 604.708,3.732 604.708,81.867 618.033,81.867 
		618.033,42.134 630.294,42.134 630.294,81.867 643.62,81.867 643.62,3.732 630.294,3.732 630.294,30.665 	"/>
	<path fill="#595A5C" d="M833.911,13.066v40.532h-13.059V16.799h-65.832V5.331h71.16C826.181,5.331,833.911,4.8,833.911,13.066
		L833.911,13.066z"/>
	<path fill="#595A5C" d="M682.53,31.199c6.665,0,11.992,4.798,11.992,10.667c0,5.866-5.327,10.399-11.992,10.399
		c-6.396,0-11.728-4.533-11.728-10.399C670.803,35.997,676.135,31.199,682.53,31.199L682.53,31.199z M675.602,21.066
		c-10.131,2.666-17.59,11.2-17.59,20.8c0,11.998,11.191,21.599,24.519,21.599c13.323,0,24.786-9.601,24.786-21.599
		c0-9.868-8.262-18.669-19.189-21.067v-2.934h20.788v-11.2H688.66V0h-13.059v6.666h-18.923v11.2h19.456v2.934L675.602,21.066
		L675.602,21.066z M736.102,27.197V3.732h-13.328v58.402h13.328V38.396h11.991V27.197H736.102L736.102,27.197z M730.236,68.8
		l-69.029-0.269v11.462h61.833v24.803h13.325V73.864C736.365,67.998,730.236,68.8,730.236,68.8L730.236,68.8z"/>
	<path fill="#595A5C" d="M417.347,93.866c-10.926,0-19.988-6.132-19.988-13.6c0-7.466,9.062-13.867,19.988-13.867
		c9.063,0,20.257,5.333,20.257,13.867C437.604,88.799,426.41,93.866,417.347,93.866L417.347,93.866z M450.663,80.266L450.663,80.266
		c0-13.332-14.929-24.27-33.316-24.27c-18.39,0-33.313,10.938-33.313,24.27c0,13.331,14.923,24,33.313,24
		C435.734,104.266,450.663,93.597,450.663,80.266L450.663,80.266z"/>
	<path fill="#595A5C" d="M436.537,3.197v10.402h-20.789v11.466h20.789v7.733h-21.322v11.2h21.322v13.068h13.592V3.197H436.537
		L436.537,3.197z M409.353,4.8h-40.778v10.399h30.118c0,1.6-0.265,4.266-1.6,7.998c-6.928,20.802-30.115,24.535-30.115,24.535
		l0.266,9.869c47.441-6.668,45.308-49.068,45.308-49.068C412.55,5.068,409.353,4.8,409.353,4.8L409.353,4.8z"/>
	<path fill="#DA2429" d="M188.412,105.065h26.384V34.664c0-32.799-25.053-31.199-27.983-31.199H115.92c0,0,6.396,2.399,6.396,11.199
		v90.401h26.384V19.999h30.915c2.933,0,8.796,2.4,8.796,10.666V105.065L188.412,105.065z M331.264,105.065V3.465h-26.386v85.068
		h-30.915c-2.934,0-8.529-2.401-8.529-10.668V3.732h-32.782c0,0,6.929,1.335,6.929,11.199v58.933
		c0,33.068,27.717,31.201,27.717,31.201H331.264L331.264,105.065z M34.9,45.332l45.306,60.267h30.916L63.415,45.332l45.576-41.867
		H82.071l-46.907,41.6L34.9,45.332z M34.099,3.732H0.784c0,0,6.664,1.335,6.664,11.467v89.597h26.651V3.732L34.099,3.732z"/>
</g>
</svg>
