<?xml version="1.0" encoding="utf-8"?>
<!-- Generator: Adobe Illustrator 16.0.0, SVG Export Plug-In . SVG Version: 6.00 Build 0)  -->
<!DOCTYPE svg PUBLIC "-//W3C//DTD SVG 1.1//EN" "http://www.w3.org/Graphics/SVG/1.1/DTD/svg11.dtd">
<svg version="1.1" id="Layer_1" xmlns="http://www.w3.org/2000/svg" xmlns:xlink="http://www.w3.org/1999/xlink" x="0px" y="0px"
	 width="841.89px" height="113.17px" viewBox="0 0 841.89 113.17" enable-background="new 0 0 841.89 113.17" xml:space="preserve">
<g>
	<polygon fill="#4E4E50" points="436.557,60.708 423.006,33.304 416.233,42.438 416.233,60.708 406.218,60.708 406.218,0.295 
		416.233,0.295 416.233,26.525 434.787,0.295 447.158,0.295 429.781,24.461 448.338,60.708 436.557,60.708 	"/>
	<polygon fill="#4E4E50" points="476.611,35.955 476.611,60.708 466.305,60.708 466.305,35.955 450.693,0.295 461.59,0.295 
		471.604,24.756 481.029,0.295 492.223,0.295 476.611,35.955 	"/>
	<path fill="#4E4E50" d="M518.438,61.004c-10.605,0-19.145-8.248-19.145-20.92V0.295h10.016v39.197c0,7.071,3.533,11.2,9.129,11.2
		c5.594,0,9.131-4.129,9.131-11.2V0.295h10.012v39.789C537.58,52.756,529.041,61.004,518.438,61.004L518.438,61.004z"/>
	<polygon fill="#4E4E50" points="581.469,60.708 560.852,23.578 560.852,60.708 550.541,60.708 550.541,0.295 559.672,0.295 
		580.289,37.133 580.289,0.295 590.598,0.295 590.598,60.708 581.469,60.708 	"/>
	<path fill="#4E4E50" d="M636.547,54.226c-4.123,5.01-9.131,6.778-14.727,6.778c-5.889,0-10.605-2.355-14.141-6.482
		c-5.303-6.188-5.303-13.558-5.303-23.869c0-10.61,0-17.978,5.303-24.167C611.215,2.358,615.932,0,621.82,0
		c12.076,0,18.262,9.137,19.734,19.155h-10.311c-1.176-5.598-4.123-8.839-9.424-8.839c-2.947,0-5.008,1.18-6.482,3.242
		c-2.059,2.654-2.648,5.306-2.648,17.095c0,11.491,0.59,14.438,2.648,16.796c1.475,2.063,3.535,3.244,6.482,3.244
		c2.943,0,5.596-1.181,7.361-3.538c1.477-2.064,2.355-4.716,2.355-7.957v-2.359h-9.717v-9.726h19.734v8.842
		C641.555,44.502,640.082,49.806,636.547,54.226L636.547,54.226z"/>
	<path fill="#4E4E50" d="M673.068,10.905h-9.422v16.503h9.422c4.715,0,7.658-3.242,7.658-8.253
		C680.727,14.148,677.783,10.905,673.068,10.905L673.068,10.905z M673.66,38.018h-10.014v22.69h-10.311V0.295h20.324
		c10.896,0,17.377,8.548,17.377,18.86C691.037,29.471,684.557,38.018,673.66,38.018L673.66,38.018z"/>
	<path fill="#4E4E50" d="M725.203,13.558c-1.473-2.062-3.83-3.242-6.775-3.242c-2.652,0-5.006,1.18-6.48,3.242
		c-2.061,2.654-2.354,5.306-2.354,17.095c0,11.491,0.293,14.145,2.354,16.796c1.475,2.063,3.828,3.244,6.48,3.244
		c2.945,0,5.303-1.181,6.775-3.244c1.764-2.651,2.355-5.305,2.355-16.796C727.559,18.863,726.967,16.211,725.203,13.558
		L725.203,13.558z M732.566,54.521c-3.533,4.127-7.955,6.482-14.139,6.482c-5.893,0-10.309-2.355-14.137-6.482
		c-5.303-6.188-5.008-13.558-5.008-23.869c0-10.61-0.295-17.978,5.008-24.167C708.119,2.358,712.535,0,718.428,0
		c6.184,0,10.605,2.358,14.139,6.486c5.303,6.189,5.303,13.556,5.303,24.167C737.869,40.963,737.869,48.333,732.566,54.521
		L732.566,54.521z"/>
	<path fill="#4E4E50" d="M773.803,13.558c-1.475-2.062-3.535-3.242-6.479-3.242c-2.652,0-5.008,1.18-6.482,3.242
		c-2.061,2.654-2.652,5.306-2.652,17.095c0,11.491,0.592,14.145,2.652,16.796c1.475,2.063,3.83,3.244,6.482,3.244
		c2.943,0,5.004-1.181,6.479-3.244c2.059-2.651,2.65-5.305,2.65-16.796C776.453,18.863,775.861,16.211,773.803,13.558
		L773.803,13.558z M781.461,54.521c-3.537,4.127-8.25,6.482-14.137,6.482c-5.895,0-10.607-2.355-14.143-6.482
		c-5.303-6.188-5.006-13.558-5.006-23.869c0-10.61-0.297-17.978,5.006-24.167C756.717,2.358,761.43,0,767.324,0
		c5.887,0,10.6,2.358,14.137,6.486c5.299,6.189,5.299,13.556,5.299,24.167C786.76,40.963,786.76,48.333,781.461,54.521
		L781.461,54.521z"/>
	<polygon fill="#4E4E50" points="828.877,60.708 815.623,33.304 808.85,42.438 808.85,60.708 798.543,60.708 798.543,0.295 
		808.85,0.295 808.85,26.525 827.406,0.295 839.779,0.295 822.398,24.461 840.955,60.708 828.877,60.708 	"/>
	<polygon fill="#4E4E50" points="421.239,113.17 407.987,90.18 407.987,113.17 403.862,113.17 403.862,80.16 407.691,80.16 
		420.947,103.443 420.947,80.16 425.361,80.16 425.361,113.17 421.239,113.17 	"/>
	<path fill="#4E4E50" d="M442.447,87.821l-4.422,14.44h8.84L442.447,87.821L442.447,87.821z M450.104,113.17l-2.063-6.486H436.85
		l-2.063,6.486h-4.713l10.604-33.01h3.535l10.604,33.01H450.104L450.104,113.17z"/>
	<polygon fill="#4E4E50" points="469.25,84.876 469.25,113.17 464.83,113.17 464.83,84.876 456.877,84.876 456.877,80.16 
		477.203,80.16 477.203,84.876 469.25,84.876 	"/>
	<rect x="482.797" y="80.16" fill="#4E4E50" width="4.42" height="33.304"/>
	<path fill="#4E4E50" d="M509.01,86.644c-0.881-1.474-2.648-2.061-4.121-2.061c-1.77,0-3.537,0.587-4.416,2.061
		c-1.477,1.77-1.771,3.536-1.771,10.021c0,6.779,0.295,8.545,1.771,10.315c0.879,1.178,2.646,2.059,4.416,2.059
		c1.473,0,3.24-0.881,4.121-2.059c1.473-1.771,1.77-3.536,1.77-10.315C510.779,90.18,510.482,88.413,509.01,86.644L509.01,86.644z
		 M512.25,109.926c-2.063,2.357-4.418,3.538-7.361,3.538c-3.24,0-5.596-1.181-7.66-3.538c-2.947-3.242-2.648-6.779-2.648-13.262
		c0-6.189-0.299-10.021,2.648-13.261c2.064-2.063,4.42-3.537,7.66-3.537c2.943,0,5.299,1.475,7.361,3.537
		c2.947,3.24,2.65,7.071,2.65,13.261C514.9,103.146,515.197,106.684,512.25,109.926L512.25,109.926z"/>
	<polygon fill="#4E4E50" points="539.938,113.17 526.684,90.18 526.684,113.17 522.266,113.17 522.266,80.16 526.389,80.16 
		539.35,103.443 539.35,80.16 543.766,80.16 543.766,113.17 539.938,113.17 	"/>
	<path fill="#4E4E50" d="M561.146,87.821l-4.713,14.44h8.834L561.146,87.821L561.146,87.821z M568.508,113.17l-2.064-6.486h-11.191
		l-2.061,6.486h-4.416l10.311-33.01h3.531l10.604,33.01H568.508L568.508,113.17z"/>
	<polygon fill="#4E4E50" points="577.932,113.17 577.932,80.16 582.354,80.16 582.354,108.749 596.195,108.749 596.195,113.17 
		577.932,113.17 	"/>
	<path fill="#4E4E50" d="M622.113,113.464c-5.594,0-10.016-4.426-10.016-11.202V80.16h4.127v21.808c0,4.423,2.357,7.07,5.889,7.07
		c3.535,0,6.188-2.647,6.188-7.07V80.16h4.123v22.102C632.424,109.038,628.006,113.464,622.113,113.464L622.113,113.464z"/>
	<polygon fill="#4E4E50" points="658.047,113.17 644.793,90.18 644.793,113.17 640.375,113.17 640.375,80.16 644.205,80.16 
		657.459,103.443 657.459,80.16 661.877,80.16 661.877,113.17 658.047,113.17 	"/>
	<rect x="670.123" y="80.16" fill="#4E4E50" width="4.418" height="33.304"/>
	<polygon fill="#4E4E50" points="691.918,113.17 688.678,113.17 679.252,80.16 683.67,80.16 690.449,104.326 696.928,80.16 
		701.639,80.16 691.918,113.17 	"/>
	<polygon fill="#4E4E50" points="706.352,113.17 706.352,80.16 724.611,80.16 724.611,84.876 710.77,84.876 710.77,94.309 
		722.553,94.309 722.553,98.729 710.77,98.729 710.77,108.749 724.611,108.749 724.611,113.17 706.352,113.17 	"/>
	<path fill="#4E4E50" d="M741.988,84.876h-6.184V95.19h6.184c2.947,0,5.012-2.063,5.012-5.305
		C747,86.644,744.936,84.876,741.988,84.876L741.988,84.876z M747,113.17l-5.895-13.854h-5.301v13.854h-4.418V80.16h11.193
		c5.299,0,8.836,4.128,8.836,9.726c0,4.716-2.652,7.662-5.889,8.843l6.775,14.441H747L747,113.17z"/>
	<path fill="#4E4E50" d="M766.143,113.464c-4.418,0-7.361-1.181-10.309-4.426l2.947-3.239c2.061,2.358,4.416,3.239,7.361,3.239
		c3.828,0,5.893-1.765,5.893-5.006c0-1.475-0.295-2.652-1.18-3.538c-0.588-0.591-1.473-1.178-2.943-1.472l-3.535-0.294
		c-2.357-0.592-4.123-1.476-5.299-2.654c-1.477-1.766-2.068-3.831-2.068-6.484c0-5.598,3.535-9.724,9.428-9.724
		c3.83,0,6.479,1.18,8.834,3.831l-2.65,3.242c-1.766-2.063-3.828-2.651-6.184-2.651c-3.537,0-5.301,2.355-5.301,5.302
		c0,1.178,0.293,2.064,1.18,2.948c0.584,0.886,1.764,1.181,3.238,1.475l3.238,0.589c2.654,0.589,4.123,1.177,5.305,2.356
		c1.469,1.771,2.355,4.127,2.355,6.78C776.453,109.926,772.035,113.464,766.143,113.464L766.143,113.464z"/>
	<rect x="782.934" y="80.16" fill="#4E4E50" width="4.709" height="33.304"/>
	<polygon fill="#4E4E50" points="805.318,84.876 805.318,113.17 800.898,113.17 800.898,84.876 793.24,84.876 793.24,80.16 
		813.27,80.16 813.27,84.876 805.318,84.876 	"/>
	<polygon fill="#4E4E50" points="828.289,99.611 828.289,113.17 823.875,113.17 823.875,99.611 815.328,80.16 820.039,80.16 
		826.23,94.896 832.117,80.16 836.836,80.16 828.289,99.611 	"/>
	<path fill="#DB2429" d="M207.994,112.578h29.454V34.777c0-36.248-27.981-34.187-30.928-34.482h-78.638
		c0,0,7.067,2.654,7.067,12.675v99.608h29.157V18.863h34.17c3.239,0,9.718,2.358,9.718,11.493V112.578L207.994,112.578z
		 M366.159,112.578V0.591H337v93.718h-34.167c-3.24,0-9.719-2.362-9.719-11.791V0.591h-36.228c0,0,7.659,1.476,7.659,12.379v65.127
		c0,36.839,30.63,34.481,30.63,34.481H366.159L366.159,112.578z M38.633,46.859l49.78,66.311h34.165L70.15,46.859l50.071-46.564
		h-29.75L38.929,46.563L38.633,46.859z M37.457,0.591H0.934c0,0,7.364,1.476,7.364,12.967v99.021h29.158V0.591L37.457,0.591z"/>
</g>
</svg>
