<?xml version="1.0" encoding="utf-8"?>
<!-- Generator: Adobe Illustrator 16.0.0, SVG Export Plug-In . SVG Version: 6.00 Build 0)  -->
<!DOCTYPE svg PUBLIC "-//W3C//DTD SVG 1.1//EN" "http://www.w3.org/Graphics/SVG/1.1/DTD/svg11.dtd">
<svg version="1.1" xmlns="http://www.w3.org/2000/svg" xmlns:xlink="http://www.w3.org/1999/xlink" x="0px" y="0px"
	 width="271.232px" height="63.182px" viewBox="0 0 271.232 63.182" enable-background="new 0 0 271.232 63.182"
	 xml:space="preserve">
<g id="내용">
	<g>
		<path fill="#FFFFFF" d="M238.451,18.387c-2.564-1.667-3.064-2.464-3.01-3.956c0.051-1.44,1.305-3.024,3.639-3.404
			c2.342-0.38,4.287,0.496,5.795,1.851v-2.67c-1.797-0.702-4.928-1.2-8.029-0.438c-3.098,0.757-4.521,2.657-5.086,3.972
			c-0.572,1.313-0.73,3.808,0.691,5.44c1.424,1.64,4.607,3.659,6.41,4.831c1.803,1.17,3.543,2.495,3.457,4.976
			c-0.066,1.926-1.996,4.104-5.77,3.619c-2.18-0.271-4.4-1.605-5.463-3.217v3.225c2.967,1.871,8.455,2.807,12.281,0.227
			c3.416-2.31,3.668-5.748,2.594-8.144C244.885,22.299,241.008,20.051,238.451,18.387z"/>
		<path fill="#FFFFFF" d="M103.518,9.718v0.273c1.488,0.245,1.199,1.598,0.881,2.357l-8.586,21.663h2.15l3.494-9.04h9.254
			l2.883,7.532c0.322,0.877,0.992,1.508,2.311,1.508h2.941l-9.563-24.293H103.518z M101.967,23.538l4.111-10.772l4.098,10.772
			H101.967z"/>
		<path fill="#FFFFFF" d="M159.73,9.718v0.273c1.484,0.245,1.203,1.598,0.883,2.357l-8.594,21.663h2.158l3.488-9.04h9.258
			l2.879,7.532c0.324,0.877,0.998,1.508,2.311,1.508h2.941l-9.561-24.293H159.73z M158.172,23.538l4.119-10.772l4.096,10.772
			H158.172z"/>
		<path fill="#FFFFFF" d="M215.037,9.992c1.197,0.319,1.619,1.163,1.619,2.232v21.788h4.371V9.718h-5.99V9.992z"/>
		<path fill="#FFFFFF" d="M260.35,32.459V21.99h9.463v-1.549h-9.463v-9.283h9.871v-1.44h-15.859v0.273
			c1.193,0.319,1.621,1.163,1.621,2.232v21.788l15.25-0.003v-1.55H260.35z"/>
		<path fill="#FFFFFF" d="M193.275,9.718h-10.99v0.273c1.148,0.306,1.58,1.088,1.619,2.084c0,0.016,0.006,0.03,0.006,0.048v21.887
			h8.281c11.539,0,14.027-7.891,14.027-12.527C206.219,14.45,200.316,9.718,193.275,9.718z M192.326,32.624h-4.049V11.149h3.533
			c6.416,0,10.145,4.021,10.145,10.714C201.955,28.559,197.242,32.624,192.326,32.624z"/>
		<path fill="#FFFFFF" d="M144.531,16.006c0-2.976-2.133-6.284-7.373-6.284h-10.67v0.269c1.188,0.319,1.613,1.137,1.625,2.186
			v21.834h4.365V22.57h2.229l5.986,9.919c0.604,0.878,1.48,1.517,2.801,1.522h3.277l-7.504-11.896
			C142.162,21.252,144.531,19.158,144.531,16.006z M132.479,11.164h2.826c2.91,0,5.045,1.934,5.045,4.806
			c0,3.263-1.941,5.239-5.203,5.239h-2.668V11.164z"/>
		<path fill="#FFFFFF" d="M83.268,9.718h-4.141h-0.971h-5.018v0.273c1.201,0.319,1.627,1.163,1.627,2.232v21.788h4.361V22.623h3.172
			c4.072,0,8.346-2.396,8.346-6.631C90.645,13.016,88.512,9.718,83.268,9.718z M81.262,21.194h-2.135V11.149h2.287
			c2.918,0,5.049,1.938,5.049,4.808C86.463,19.221,84.521,21.194,81.262,21.194z"/>
	</g>
	<g>
		<path fill="#96856E" d="M18.729,62.744V45.401c-4.695-0.697-8.881-2.634-12.107-5.601C1.842,35.41-0.477,29.127,0.082,22.111
			c0.467-5.815,3.223-11.235,7.77-15.263C13.135,2.177,19.463,0,27.762,0c17.881,0,32.432,14.13,32.432,31.503
			c0,8.218-3.238,15.997-9.121,21.9c-6.346,6.399-15.141,9.778-25.439,9.778l0,0C22.576,63.182,19.297,62.783,18.729,62.744z
			 M26.736,15.172c9.693,0.415,15.746,6.363,15.475,15.221c-0.248,7.972-6.229,13.873-15.229,15.045
			c-0.926,0.118-1.863,0.196-2.771,0.241v12.215c0.502,0.016,1.002,0.025,1.486,0.025c8.756,0,16.182-2.818,21.475-8.155
			c4.908-4.921,7.613-11.409,7.613-18.262c0-14.475-12.119-26.25-27.023-26.25c-0.139,0-0.281,0.002-0.43,0.005
			C13.295,5.475,6.197,14.359,5.547,22.523c-0.428,5.383,1.291,10.145,4.842,13.41c2.246,2.063,5.049,3.43,8.34,4.063V15.325
			C21.678,15.115,24.082,15.062,26.736,15.172z M24.215,20.438v19.906c0.672-0.037,1.359-0.1,2.039-0.188
			c4.934-0.64,10.279-3.578,10.475-9.922c0.18-5.919-3.545-9.47-10.223-9.736C25.713,20.465,25,20.446,24.215,20.438z"/>
	</g>
	<g>
		<path fill="#FFFFFF" d="M75.043,43.833v5.08h5.873v-5.08h1.586v12.142h-1.586v-5.692h-5.873v5.692h-1.568V43.833H75.043z"/>
		<path fill="#FFFFFF" d="M95.42,49.778c0,4.179-2.539,6.396-5.639,6.396c-3.207,0-5.459-2.486-5.459-6.162
			c0-3.854,2.396-6.377,5.641-6.377C93.277,43.635,95.42,46.175,95.42,49.778z M85.998,49.976c0,2.595,1.406,4.919,3.873,4.919
			c2.486,0,3.891-2.287,3.891-5.044c0-2.414-1.26-4.937-3.873-4.937C87.295,44.914,85.998,47.31,85.998,49.976z"/>
		<path fill="#FFFFFF" d="M99.133,45.166h-3.693v-1.333h8.99v1.333h-3.711v10.809h-1.586V45.166z"/>
		<path fill="#FFFFFF" d="M111.891,50.282h-4.721v4.379h5.262v1.313h-6.828V43.833h6.557v1.316h-4.99v3.836h4.721V50.282z"/>
		<path fill="#FFFFFF" d="M114.287,43.833h1.568v10.828h5.189v1.313h-6.758V43.833z"/>
		<path fill="#FFFFFF" d="M126.252,43.994c0.684-0.143,1.766-0.251,2.865-0.251c1.566,0,2.574,0.271,3.332,0.882
			c0.631,0.47,1.01,1.19,1.01,2.145c0,1.171-0.775,2.197-2.055,2.666v0.037c1.152,0.289,2.504,1.242,2.504,3.044
			c0,1.044-0.414,1.838-1.027,2.433c-0.846,0.774-2.215,1.135-4.195,1.135c-1.082,0-1.912-0.072-2.434-0.145V43.994z M127.82,48.967
			h1.422c1.658,0,2.629-0.864,2.629-2.036c0-1.422-1.078-1.98-2.664-1.98c-0.721,0-1.135,0.054-1.387,0.107V48.967z M127.82,54.786
			c0.307,0.055,0.756,0.071,1.314,0.071c1.621,0,3.115-0.593,3.115-2.359c0-1.657-1.422-2.343-3.133-2.343h-1.297V54.786z"/>
		<path fill="#FFFFFF" d="M137.404,43.833v7.188c0,2.722,1.207,3.874,2.83,3.874c1.801,0,2.953-1.189,2.953-3.874v-7.188h1.586v7.08
			c0,3.729-1.965,5.261-4.594,5.261c-2.486,0-4.359-1.424-4.359-5.189v-7.151H137.404z"/>
		<path fill="#FFFFFF" d="M147.1,54.065c0.703,0.432,1.73,0.792,2.811,0.792c1.604,0,2.541-0.846,2.541-2.07
			c0-1.136-0.648-1.783-2.289-2.414c-1.98-0.703-3.207-1.729-3.207-3.442c0-1.89,1.568-3.296,3.928-3.296
			c1.244,0,2.143,0.289,2.684,0.594l-0.432,1.28c-0.395-0.216-1.207-0.577-2.307-0.577c-1.656,0-2.287,0.99-2.287,1.819
			c0,1.136,0.738,1.694,2.414,2.343c2.053,0.793,3.1,1.783,3.1,3.566c0,1.874-1.389,3.495-4.252,3.495
			c-1.172,0-2.451-0.343-3.1-0.773L147.1,54.065z"/>
		<path fill="#FFFFFF" d="M157.982,52.157l-1.26,3.817H155.1l4.125-12.142h1.893l4.145,12.142h-1.678l-1.297-3.817H157.982z
			 M161.963,50.932l-1.188-3.495c-0.271-0.792-0.451-1.515-0.631-2.216h-0.035c-0.18,0.72-0.379,1.459-0.613,2.197l-1.189,3.514
			H161.963z"/>
		<path fill="#FFFFFF" d="M166.865,55.975V43.833h1.713l3.891,6.143c0.9,1.424,1.604,2.703,2.18,3.946l0.037-0.018
			c-0.145-1.622-0.18-3.1-0.18-4.991v-5.08h1.477v12.142h-1.586l-3.855-6.16c-0.846-1.352-1.656-2.737-2.27-4.054l-0.055,0.019
			c0.09,1.53,0.127,2.99,0.127,5.008v5.188H166.865z"/>
	</g>
</g>
<g id="title_x2F_text">
</g>
<g id="number">
</g>
</svg>
