<?xml version="1.0"?>
<svg xmlns="http://www.w3.org/2000/svg" id="Layer_1" data-name="Layer 1" viewBox="0 0 512 512" width="512" height="512"><path d="M474.5,313.479H460.336l-11.8-26.358a70.51,70.51,0,0,0-64.271-41.642l-206.911.219c-16.663-32.735-26.539-70.586-27.493-105.188h6.506a9.966,9.966,0,0,0,9.955-9.955v-8.873a12.012,12.012,0,0,0,8.117-11.343V64.656a12.014,12.014,0,0,0-12-12H150.371V36.5a22.025,22.025,0,0,0-22-22H56.838a22.025,22.025,0,0,0-22,22V313.85a10.01,10.01,0,0,0-7.338,9.629v22a22.025,22.025,0,0,0,22,22h118v36h-59a22.025,22.025,0,0,0-22,22v14.658a29.032,29.032,0,1,0,27.854,9.342H397.646a28.979,28.979,0,1,0,27.854-9.342V425.479a22.025,22.025,0,0,0-22-22h-59v-36h118a22.025,22.025,0,0,0,22-22v-22A10.011,10.011,0,0,0,474.5,313.479Zm-292.71-56H384.262a58.49,58.49,0,0,1,53.318,34.546l9.607,21.454H274.618a25.479,25.479,0,0,0-21.451-39.261H172a35.83,35.83,0,0,0-22.807,8.169A33.846,33.846,0,0,1,181.79,257.479Zm84.877,42.239a13.515,13.515,0,0,1-13.5,13.5v.261H148v-3.261a24.027,24.027,0,0,1,24-24h81.167A13.515,13.515,0,0,1,266.667,299.718ZM154.319,128.51H134.925v-6.171h19.394Zm8.117-18.171H126.809V88.483h35.627Zm0-45.683V76.483H126.809V64.656ZM46.838,36.5a10.011,10.011,0,0,1,10-10h71.533a10.011,10.011,0,0,1,10,10V52.656H126.809a12.013,12.013,0,0,0-12,12v45.683a12.012,12.012,0,0,0,8.116,11.343v8.873a9.967,9.967,0,0,0,9.955,9.955h4.974c.931,35.514,10.795,74.253,27.5,108.032A45.855,45.855,0,0,0,136,291.27v22.209H115.588a39.757,39.757,0,1,0-41.176,0H46.838ZM95,307.236a27.757,27.757,0,1,1,27.757-27.757A27.788,27.788,0,0,1,95,307.236ZM92.5,485.5a17,17,0,1,1,17-17A17.015,17.015,0,0,1,92.5,485.5Zm327-33.991a17,17,0,1,1-17,17A17.015,17.015,0,0,1,419.5,451.509Zm-16-36.03a10.011,10.011,0,0,1,10,10v12H98.5v-12a10.011,10.011,0,0,1,10-10Zm-224-12v-36h153v36Zm293-58a10.011,10.011,0,0,1-10,10H49.5a10.011,10.011,0,0,1-10-10v-20h433Z"/></svg>
