<?xml version="1.0" encoding="utf-8"?>
<!-- Generator: Adobe Illustrator 16.0.0, SVG Export Plug-In . SVG Version: 6.00 Build 0)  -->
<!DOCTYPE svg PUBLIC "-//W3C//DTD SVG 1.1//EN" "http://www.w3.org/Graphics/SVG/1.1/DTD/svg11.dtd">
<svg version="1.1" xmlns="http://www.w3.org/2000/svg" xmlns:xlink="http://www.w3.org/1999/xlink" x="0px" y="0px"
	 width="56.946px" height="17.238px" viewBox="0 0 56.946 17.238" enable-background="new 0 0 56.946 17.238" xml:space="preserve">
<g id="Layer_2">
</g>
<g id="레이어_1">
	<g>
		<g>
			<path fill="#FFFFFF" d="M11.779,0.371h3.899v9.287c0,1.175,0.232,2.182,1.835,2.182c1.405,0,1.818-0.893,1.818-2.182V0.371h3.9
				v7.532c0,3.817-1.77,5.485-5.719,5.485c-3.686,0-5.734-1.403-5.734-5.502V0.371z"/>
			<path fill="#FFFFFF" d="M10.351,1.922V0.371H0v10.323c0,1.27,0.988,2.145,2.345,2.171h8.006v-1.55H3.9V6.998h6.283V5.447H3.9
				V1.922H10.351z"/>
			<path fill="#FFFFFF" d="M45.174,7.802c0.03,4.16,2.142,5.59,5.916,5.59c4.072,0,5.67-1.841,5.856-4.706c-0.289,0-3.98,0-3.98,0
				v0.905c0,1.329-0.428,2.251-1.876,2.251c-1.655,0-1.893-1.04-1.893-2.251V3.803c0-1.209,0.237-2.25,1.893-2.25
				c1.448,0,1.876,0.921,1.876,2.25v0.924h3.98c0-0.496-0.263-1.716-0.669-2.438c-0.922-1.639-2.716-2.288-5.188-2.288
				c-3.797,0-5.908,1.444-5.915,5.658h-0.001V7.802z"/>
			<g>
				<g>
					<path fill="#9FA0A0" d="M41.627,0.953c-0.043-0.156-0.116-0.269-0.199-0.388c-0.303-0.306-0.949-0.33-1.206,0.488l-1.237,4.069
						l1.981,6.743c0.152,0.512,0.502,0.999,1.269,0.999h2.89L41.627,0.953z"/>
					<path fill="#9FA0A0" d="M32.285,0.953c-0.052-0.137-0.118-0.269-0.2-0.388c-0.304-0.306-0.95-0.33-1.207,0.488L29.64,5.123
						l2.025,6.914c0.043,0.157,0.115,0.269,0.199,0.388c0.303,0.306,0.949,0.331,1.205-0.487l1.238-4.069L32.285,0.953z"/>
					<path fill="#FFFFFF" d="M40.211,0H37.83c-0.86,0.004-1.227,0.446-1.419,0.956l-3.342,10.981
						c-0.257,0.821-0.907,0.793-1.209,0.484c0.227,0.327,0.592,0.565,1.22,0.565h2.381c0.86,0,1.227-0.443,1.421-0.952l3.34-10.981
						c0.258-0.821,0.908-0.794,1.209-0.485C41.204,0.242,40.84,0.004,40.211,0z"/>
				</g>
			</g>
		</g>
		<path fill="#FFFFFF" d="M30.867,0h-2.381c-0.859,0.004-1.227,0.446-1.419,0.956l-4.973,16.282h2.897
			c0.724,0,1.108-0.453,1.237-0.914l4.648-15.271l0,0c0.259-0.821,0.908-0.794,1.21-0.485C31.86,0.242,31.496,0.004,30.867,0z"/>
	</g>
</g>
</svg>
