<?xml version="1.0"?>
<svg xmlns="http://www.w3.org/2000/svg" id="Outline" viewBox="0 0 512 512" width="512" height="512"><path d="M349.657,18.343A8,8,0,0,0,344,16H104A40.045,40.045,0,0,0,64,56V456a40.045,40.045,0,0,0,40,40H408a40.045,40.045,0,0,0,40-40V120a8,8,0,0,0-2.343-5.657ZM352,43.313,420.687,112H376a24.028,24.028,0,0,1-24-24ZM432,456a24.028,24.028,0,0,1-24,24H104a24.028,24.028,0,0,1-24-24V56a24.028,24.028,0,0,1,24-24H336V88a40.045,40.045,0,0,0,40,40h56Z"/><path d="M232,200a8,8,0,0,0,8,8H392a8,8,0,0,0,0-16H240A8,8,0,0,0,232,200Z"/><path d="M120,240H280a8,8,0,0,0,0-16H120a8,8,0,0,0,0,16Z"/><path d="M392,256H248a8,8,0,0,0,0,16H392a8,8,0,0,0,0-16Z"/><path d="M120,304H312a8,8,0,0,0,0-16H120a8,8,0,0,0,0,16Z"/><path d="M144,192a8,8,0,0,0,0,16h64a8,8,0,0,0,0-16Z"/><path d="M392,224H312a8,8,0,0,0,0,16h80a8,8,0,0,0,0-16Z"/><path d="M120,272h96a8,8,0,0,0,0-16H120a8,8,0,0,0,0,16Z"/><path d="M392,288H344a8,8,0,0,0,0,16h48a8,8,0,0,0,0-16Z"/><path d="M120,336h64a8,8,0,0,0,0-16H120a8,8,0,0,0,0,16Z"/><path d="M216,320a8,8,0,0,0,0,16h80a8,8,0,0,0,0-16Z"/><path d="M120,136h16v16a8,8,0,0,0,8,8h32a8,8,0,0,0,8-8V136h16a8,8,0,0,0,8-8V96a8,8,0,0,0-8-8H184V72a8,8,0,0,0-8-8H144a8,8,0,0,0-8,8V88H120a8,8,0,0,0-8,8v32A8,8,0,0,0,120,136Zm8-32h16a8,8,0,0,0,8-8V80h16V96a8,8,0,0,0,8,8h16v16H176a8,8,0,0,0-8,8v16H152V128a8,8,0,0,0-8-8H128Z"/><path d="M264,352H120a8,8,0,0,0,0,16H264a8,8,0,0,0,0-16Z"/><path d="M392,320H328a8,8,0,0,0,0,16h64a8,8,0,0,0,0-16Z"/><path d="M328,432H296a8,8,0,0,0,0,16h32a8,8,0,0,0,0-16Z"/><path d="M392,432H360a8,8,0,0,0,0,16h32a8,8,0,0,0,0-16Z"/><path d="M399.155,380.422a8,8,0,0,0-10.733-3.577L342.111,400H324.944l-5.789-11.578a8,8,0,0,0-12.812-2.079l-16,16a8,8,0,0,0,11.314,11.314l8.152-8.152,3.036,6.073A8,8,0,0,0,320,416h24a7.994,7.994,0,0,0,3.578-.845l48-24A8,8,0,0,0,399.155,380.422Z"/></svg>
