<?xml version="1.0" encoding="utf-8"?>
<!-- Generator: Adobe Illustrator 16.0.0, SVG Export Plug-In . SVG Version: 6.00 Build 0)  -->
<!DOCTYPE svg PUBLIC "-//W3C//DTD SVG 1.1//EN" "http://www.w3.org/Graphics/SVG/1.1/DTD/svg11.dtd">
<svg version="1.1" id="레이어_1" xmlns="http://www.w3.org/2000/svg" xmlns:xlink="http://www.w3.org/1999/xlink" x="0px"
	 y="0px" width="235.332px" height="36.126px" viewBox="0 0 235.332 36.126" enable-background="new 0 0 235.332 36.126"
	 xml:space="preserve">
<g>
	<g>
		<g>
			<g>
				<path fill="#00583E" d="M55.042,29.632c0-0.719-0.327-0.994-1.164-0.994c-0.804,0-1.183,0.275-1.183,0.941
					c0,0.709,0.231,0.973,1.416,1.142c1.775,0.255,2.24,0.783,2.24,1.955c0,1.501-0.855,2.073-2.474,2.073
					c-1.585,0-2.431-0.54-2.431-2.073h1.162c0,0.792,0.37,1.079,1.269,1.079c0.931,0,1.291-0.287,1.291-1.079
					c0-0.655-0.233-0.909-1.522-1.109c-1.448-0.222-2.115-0.74-2.115-1.998c0-1.205,0.73-1.924,2.337-1.924
					c1.596,0,2.336,0.539,2.336,1.987H55.042z"/>
				<path fill="#00583E" d="M61.799,27.761h4.069v0.993h-2.907v1.914h2.537v0.951h-2.537v2.018h2.907v0.991h-4.069V27.761z"/>
				<path fill="#00583E" d="M76.061,32.359c0,1.712-0.751,2.39-2.453,2.39s-2.45-0.677-2.45-2.39v-2.326
					c0-1.711,0.748-2.389,2.45-2.389s2.453,0.677,2.453,2.389V32.359z M72.318,32.369c0,1.057,0.422,1.385,1.289,1.385
					s1.291-0.329,1.291-1.385v-2.346c0-1.058-0.424-1.385-1.291-1.385s-1.289,0.328-1.289,1.385V32.369z"/>
				<path fill="#00583E" d="M82.617,27.761v4.736c0,0.918,0.411,1.257,1.216,1.257c0.804,0,1.215-0.339,1.215-1.257v-4.736h1.164
					v4.692c0,1.755-0.826,2.295-2.379,2.295c-1.556,0-2.38-0.54-2.38-2.295v-4.692H82.617z"/>
				<path fill="#00583E" d="M91.764,27.761h1.162v5.876h2.294v0.994h-3.456V27.761z"/>
			</g>
		</g>
		<g>
			<g>
				<path fill="#00583E" d="M19.812,2.001h6.573v15.651c0,1.977,0.391,3.676,3.091,3.676c2.369,0,3.064-1.503,3.064-3.676V2.001
					h6.573v12.693c0,6.434-2.98,9.246-9.638,9.246c-6.211,0-9.664-2.367-9.664-9.272V2.001z"/>
				<path fill="#00583E" d="M17.405,4.614V2.001H-0.039v17.396c0,2.139,1.665,3.614,3.95,3.66h13.494v-2.613H6.534v-7.276h10.587
					v-2.613H6.534V4.614H17.405z"/>
				<path fill="#00583E" d="M76.092,14.526c0.051,7.008,3.608,9.419,9.969,9.419c6.861,0,9.554-3.104,9.869-7.932
					c-0.487,0-6.708,0-6.708,0v1.527c0,2.24-0.721,3.792-3.161,3.792c-2.788,0-3.189-1.753-3.189-3.792V7.786
					c0-2.041,0.401-3.793,3.189-3.793c2.44,0,3.161,1.551,3.161,3.793v1.553h6.708c0-0.835-0.442-2.889-1.128-4.106
					c-1.55-2.763-4.574-3.856-8.741-3.856c-6.397,0-9.959,2.436-9.969,9.538l0,0V14.526z"/>
				<g>
					<path fill="#00583E" d="M70.115,2.982c-0.075-0.264-0.198-0.452-0.337-0.654c-0.512-0.517-1.601-0.557-2.032,0.822
						l-2.088,6.859l3.34,11.363c0.256,0.863,0.848,1.685,2.141,1.685h4.867L70.115,2.982z"/>
					<path fill="#00583E" d="M54.369,2.982c-0.088-0.23-0.198-0.452-0.338-0.654c-0.512-0.517-1.6-0.557-2.033,0.822l-2.085,6.859
						l3.408,11.651c0.076,0.265,0.198,0.453,0.34,0.656c0.51,0.513,1.598,0.557,2.031-0.824l2.087-6.858L54.369,2.982z"/>
					<linearGradient id="SVGID_1_" gradientUnits="userSpaceOnUse" x1="65.4639" y1="1.2119" x2="57.9687" y2="23.4566">
						<stop  offset="0" style="stop-color:#94D1CA"/>
						<stop  offset="0.0226" style="stop-color:#8ACCC5"/>
						<stop  offset="0.108" style="stop-color:#65BCB5"/>
						<stop  offset="0.1991" style="stop-color:#40B0A9"/>
						<stop  offset="0.2974" style="stop-color:#05A8A0"/>
						<stop  offset="0.408" style="stop-color:#00A49C"/>
						<stop  offset="0.5568" style="stop-color:#00A29A"/>
						<stop  offset="0.6499" style="stop-color:#00A49C"/>
						<stop  offset="0.7442" style="stop-color:#1EAAA2"/>
						<stop  offset="0.839" style="stop-color:#4EB4AD"/>
						<stop  offset="0.9337" style="stop-color:#77C4BC"/>
						<stop  offset="1" style="stop-color:#94D1CA"/>
					</linearGradient>
					<path fill="url(#SVGID_1_)" d="M67.726,1.383h-4.012c-1.446,0-2.065,0.746-2.392,1.604l-5.63,18.506
						c-0.436,1.385-1.53,1.337-2.037,0.817c0.38,0.55,0.994,0.954,2.056,0.954h4.01c1.45,0,2.068-0.749,2.394-1.606L67.746,3.15
						c0.434-1.384,1.528-1.338,2.038-0.816C69.401,1.784,68.788,1.383,67.726,1.383z"/>
				</g>
			</g>
			<linearGradient id="SVGID_2_" gradientUnits="userSpaceOnUse" x1="50.1865" y1="1.5361" x2="46.5733" y2="12.2598">
				<stop  offset="0" style="stop-color:#94D1CA"/>
				<stop  offset="0.3319" style="stop-color:#6FC0B9"/>
				<stop  offset="0.9997" style="stop-color:#00A29A"/>
			</linearGradient>
			<path fill="url(#SVGID_2_)" d="M51.979,1.383h-4.01c-1.448,0-2.068,0.746-2.394,1.604l-9.662,31.646h4.881
				c1.222,0,1.868-0.763,2.087-1.542l9.116-29.94l0,0c0.436-1.384,1.53-1.338,2.039-0.816C53.655,1.784,53.041,1.383,51.979,1.383z"
				/>
		</g>
	</g>
	<g>
		<path fill="#00583E" d="M231.769,4.269v10.54h-2.94c-0.335,0-0.709-0.021-1.118-0.063c-0.411-0.043-0.743-0.104-0.995-0.189
			l-0.176,0.202l0.428,2.268c0.235-0.051,0.508-0.088,0.818-0.114c0.309-0.024,0.607-0.038,0.893-0.038h3.091v2.009l3.104-0.522
			V3.256l0.151-1.233l-3.81-0.521l-0.176,0.302c0.2,0.235,0.374,0.583,0.516,1.045C231.697,3.31,231.769,3.782,231.769,4.269z"/>
		<path fill="#00583E" d="M235.244,20.771c-0.469,0.168-0.964,0.252-1.485,0.252h-10.4v-2.162l0.153-1.232l-3.729-0.402
			l-0.176,0.302c0.2,0.234,0.359,0.565,0.479,0.993c0.116,0.427,0.176,0.886,0.176,1.372v2.465c0.017,0.235,0.108,0.419,0.276,0.553
			c0.168,0.135,0.352,0.202,0.553,0.202h12.771c0.235,0,0.495,0.013,0.779,0.038c0.286,0.026,0.53,0.054,0.73,0.088v-2.342
			L235.244,20.771z"/>
		<path fill="#00583E" d="M221.439,17.038l3.104-0.251v-3.044h1.142c1.391,0,2.519-0.109,3.384-0.327
			c0.863-0.218,1.446-0.419,1.749-0.604l-0.252-2.087c-0.387,0.25-1.033,0.47-1.938,0.654c-0.906,0.184-2.023,0.276-3.347,0.276
			h-6.97c-0.437,0-0.872-0.029-1.308-0.088c-0.438-0.059-0.781-0.138-1.033-0.238l-0.301,0.176l0.428,2.388
			c0.536-0.066,1.004-0.108,1.409-0.125c0.401-0.018,0.855-0.025,1.358-0.025h2.574V17.038z"/>
		<path fill="#00583E" d="M218.755,9.44c0.559,0.404,1.205,0.718,1.941,0.944c0.734,0.226,1.508,0.34,2.32,0.34
			c0.796,0,1.557-0.114,2.283-0.34c0.726-0.226,1.366-0.54,1.915-0.944c0.55-0.402,0.985-0.88,1.305-1.433
			c0.321-0.554,0.483-1.157,0.483-1.812s-0.162-1.263-0.483-1.825c-0.319-0.562-0.755-1.044-1.305-1.446
			c-0.549-0.402-1.189-0.721-1.915-0.957c-0.727-0.235-1.487-0.352-2.283-0.352c-0.813,0-1.586,0.117-2.32,0.352
			c-0.736,0.235-1.383,0.554-1.941,0.957c-0.557,0.402-0.996,0.885-1.317,1.446s-0.482,1.17-0.482,1.825s0.161,1.257,0.482,1.812
			C217.759,8.56,218.198,9.038,218.755,9.44z M220.232,5.227c0.155-0.292,0.368-0.545,0.643-0.755
			c0.271-0.209,0.595-0.377,0.963-0.503c0.37-0.125,0.76-0.188,1.175-0.188c0.398,0,0.775,0.063,1.129,0.188
			c0.354,0.126,0.669,0.294,0.941,0.503c0.274,0.21,0.486,0.462,0.642,0.755c0.156,0.293,0.233,0.617,0.233,0.969
			c0,0.335-0.077,0.646-0.233,0.931c-0.155,0.286-0.367,0.537-0.642,0.755c-0.272,0.218-0.587,0.386-0.941,0.503
			c-0.354,0.118-0.73,0.176-1.129,0.176c-0.415,0-0.805-0.058-1.175-0.176c-0.368-0.118-0.691-0.285-0.963-0.503
			c-0.274-0.218-0.487-0.469-0.643-0.755c-0.156-0.285-0.233-0.595-0.233-0.931C219.999,5.843,220.076,5.52,220.232,5.227z"/>
		<path fill="#00583E" d="M141.197,1.803c0.202,0.235,0.372,0.583,0.515,1.045c0.144,0.461,0.215,0.934,0.215,1.42v5.524h-1.811
			v-6.42l0.151-1.232l-3.678-0.518l-0.174,0.306c0.202,0.235,0.374,0.583,0.518,1.044c0.141,0.461,0.213,0.935,0.213,1.422v9.848
			c-0.336,0.215-0.775,0.381-1.324,0.498c-0.555,0.118-1.082,0.176-1.585,0.176h-4.951v-8.76h4.045c0.251,0,0.516,0.013,0.794,0.038
			c0.275,0.024,0.515,0.055,0.716,0.088v-2.34l-0.125-0.126c-0.471,0.168-0.968,0.253-1.485,0.253h-5.184
			c-0.369,0-0.739-0.031-1.107-0.089c-0.368-0.059-0.671-0.129-0.906-0.214l-0.301,0.251c0.149,0.369,0.26,0.709,0.327,1.019
			c0.065,0.311,0.108,0.683,0.125,1.12v10.09c0.017,0.235,0.108,0.419,0.276,0.553c0.168,0.135,0.354,0.202,0.555,0.202h7.349
			c0.685,0,1.26-0.056,1.722-0.164c0.455-0.108,0.809-0.228,1.061-0.361v7.141l2.97-0.499V11.774h1.811V23.87l2.971-0.502V3.082
			l0.151-1.071l-3.676-0.509L141.197,1.803z"/>
		<path fill="#00583E" d="M117.47,1.803c0.2,0.235,0.372,0.583,0.516,1.045c0.143,0.461,0.215,0.934,0.215,1.42V23.87l3.104-0.523
			V3.256l0.151-1.233l-3.81-0.521L117.47,1.803z"/>
		<path fill="#00583E" d="M163.109,1.803c0.2,0.235,0.372,0.583,0.514,1.045c0.143,0.461,0.215,0.934,0.215,1.42v4.238h-2.915
			c-0.336,0-0.708-0.021-1.119-0.063c-0.411-0.042-0.743-0.105-0.995-0.189l-0.176,0.202l0.428,2.268
			c0.235-0.05,0.508-0.088,0.818-0.113c0.312-0.026,0.607-0.037,0.895-0.037h3.064V23.87l3.104-0.523V3.256l0.151-1.233
			l-3.808-0.521L163.109,1.803z"/>
		<path fill="#00583E" d="M113.615,5.779c-0.566-0.62-1.235-1.107-2.005-1.459s-1.585-0.528-2.446-0.528
			c-0.882,0-1.7,0.176-2.462,0.528c-0.761,0.352-1.426,0.84-1.992,1.459c-0.566,0.621-1.015,1.342-1.344,2.165
			c-0.33,0.821-0.495,1.694-0.495,2.617c0,0.939,0.165,1.815,0.495,2.628c0.329,0.815,0.777,1.528,1.344,2.14
			c0.566,0.613,1.231,1.095,1.992,1.446c0.762,0.353,1.58,0.529,2.462,0.529c0.861,0,1.677-0.176,2.446-0.529
			c0.77-0.352,1.438-0.833,2.005-1.446c0.566-0.611,1.015-1.325,1.344-2.14c0.33-0.813,0.495-1.689,0.495-2.628
			c0-0.923-0.165-1.795-0.495-2.617C114.63,7.121,114.182,6.4,113.615,5.779z M112.15,12.334c-0.172,0.545-0.409,1.018-0.71,1.42
			c-0.299,0.403-0.646,0.722-1.035,0.957c-0.391,0.235-0.804,0.353-1.239,0.353s-0.85-0.118-1.238-0.353
			c-0.393-0.234-0.736-0.553-1.037-0.957c-0.301-0.403-0.536-0.875-0.71-1.42c-0.172-0.545-0.258-1.128-0.258-1.75
			c0-0.637,0.086-1.233,0.258-1.786c0.174-0.555,0.409-1.037,0.71-1.448c0.301-0.41,0.645-0.733,1.037-0.969
			c0.389-0.234,0.803-0.352,1.238-0.352s0.849,0.118,1.239,0.352c0.389,0.235,0.736,0.559,1.035,0.969
			c0.301,0.411,0.538,0.893,0.71,1.448c0.174,0.552,0.26,1.148,0.26,1.786C112.41,11.206,112.324,11.789,112.15,12.334z"/>
		<path fill="#00583E" d="M190.049,11.127c-0.262,0.05-0.575,0.067-0.943,0.05h-16.859c-0.336-0.016-0.68-0.054-1.031-0.113
			c-0.352-0.059-0.63-0.129-0.831-0.214l-0.303,0.177l0.428,2.387c0.252-0.05,0.542-0.088,0.87-0.113
			c0.327-0.025,0.632-0.039,0.918-0.039h6.823v1.537h-3.666c-0.336,0-0.694-0.03-1.07-0.088c-0.379-0.058-0.675-0.129-0.894-0.215
			l-0.301,0.177l0.427,2.393c0.151-0.034,0.405-0.077,0.768-0.127c0.36-0.05,0.708-0.075,1.043-0.075h9.366v1.229h-9.339
			c-0.371,0-0.741-0.029-1.109-0.088c-0.368-0.059-0.671-0.129-0.906-0.213l-0.301,0.25c0.151,0.37,0.26,0.71,0.327,1.019
			c0.065,0.311,0.108,0.794,0.125,1.23v2.508c0.017,0.236,0.11,0.42,0.278,0.554c0.166,0.134,0.352,0.202,0.553,0.202h12.689
			c0.235,0,0.495,0.012,0.78,0.038c0.286,0.026,0.529,0.054,0.729,0.088v-2.318l-0.124-0.1c-0.219,0.084-0.459,0.143-0.719,0.177
			c-0.26,0.033-0.516,0.05-0.767,0.05h-10.424v-1.356h11.203v-5.462l-0.125-0.126c-0.202,0.084-0.432,0.147-0.691,0.189
			c-0.26,0.041-0.525,0.063-0.794,0.063h-3.956v-1.537h6.931c0.284,0,0.579,0.009,0.88,0.025c0.303,0.016,0.587,0.051,0.855,0.1
			v-2.335l-0.125-0.126C190.546,11.01,190.309,11.077,190.049,11.127z"/>
		<path fill="#00583E" d="M175.509,9.127c0.659,0.376,1.426,0.662,2.304,0.854c0.88,0.194,1.814,0.291,2.811,0.291
			c1.016,0,1.965-0.096,2.851-0.291c0.888-0.192,1.659-0.478,2.317-0.854c0.659-0.377,1.179-0.831,1.559-1.358
			c0.379-0.529,0.569-1.136,0.569-1.825c0-0.704-0.19-1.325-0.569-1.863c-0.38-0.536-0.899-0.993-1.559-1.371
			c-0.658-0.377-1.43-0.663-2.317-0.855c-0.886-0.193-1.835-0.289-2.851-0.289c-0.996,0-1.931,0.096-2.811,0.289
			c-0.878,0.192-1.645,0.478-2.304,0.855c-0.658,0.377-1.179,0.834-1.559,1.371c-0.379,0.538-0.569,1.159-0.569,1.863
			c0,0.688,0.19,1.296,0.569,1.825C174.33,8.296,174.851,8.75,175.509,9.127z M176.768,4.963c0.229-0.268,0.537-0.491,0.924-0.667
			c0.389-0.176,0.839-0.31,1.349-0.403c0.51-0.092,1.039-0.138,1.588-0.138c0.593,0,1.144,0.046,1.654,0.138
			c0.51,0.093,0.96,0.227,1.349,0.403c0.389,0.176,0.691,0.399,0.912,0.667s0.332,0.587,0.332,0.956
			c0,0.369-0.111,0.692-0.332,0.969c-0.221,0.276-0.523,0.502-0.912,0.678c-0.389,0.177-0.839,0.307-1.349,0.391
			c-0.511,0.084-1.062,0.126-1.654,0.126c-0.549,0-1.078-0.042-1.588-0.126c-0.51-0.083-0.96-0.213-1.349-0.391
			c-0.387-0.176-0.695-0.402-0.924-0.678c-0.228-0.277-0.342-0.6-0.342-0.969C176.426,5.55,176.54,5.231,176.768,4.963z"/>
		<path fill="#00583E" d="M208.403,1.803c0.2,0.235,0.372,0.583,0.516,1.045c0.142,0.46,0.215,0.821,0.215,1.308v0.5h-1.51
			c-0.336,0-0.71-0.021-1.121-0.063c-0.411-0.041-0.743-0.104-0.994-0.189l-0.176,0.203l0.427,2.269
			c0.235-0.05,0.508-0.088,0.818-0.113c0.312-0.025,0.608-0.038,0.895-0.038h1.661v2.687h-1.51c-0.336,0-0.71-0.021-1.121-0.063
			c-0.411-0.042-0.743-0.104-0.994-0.188l-0.176,0.202l0.427,2.27c0.235-0.05,0.508-0.088,0.818-0.112
			c0.312-0.025,0.608-0.039,0.895-0.039h1.661v3.271l3.104-0.302V3.262l0.149-1.234l-3.808-0.526L208.403,1.803z"/>
		<path fill="#00583E" d="M205.081,3.774l0.151-1.231l-3.621-0.448l-0.174,0.303c0.182,0.184,0.338,0.487,0.465,0.905
			c0.124,0.419,0.188,0.905,0.188,1.459v1.258h-5.141V3.956l0.2-1.232l-3.674-0.452l-0.177,0.302c0.084,0.1,0.168,0.251,0.252,0.452
			c0.084,0.202,0.155,0.437,0.213,0.705c0.06,0.269,0.104,0.555,0.139,0.856c0.033,0.302,0.05,0.587,0.05,0.855v6.87
			c0.017,0.235,0.11,0.419,0.278,0.554c0.167,0.134,0.352,0.2,0.554,0.2h10.297V3.774z M202.09,11.085h-5.141V8.001h5.141V11.085z"
			/>
		<path fill="#00583E" d="M209.784,15.733c-0.667-0.387-1.448-0.684-2.343-0.894c-0.896-0.208-1.857-0.314-2.889-0.314
			c-1.012,0-1.97,0.105-2.874,0.314c-0.902,0.21-1.688,0.507-2.354,0.894c-0.667,0.386-1.195,0.859-1.584,1.421
			c-0.389,0.563-0.583,1.205-0.583,1.925c0,0.722,0.194,1.364,0.583,1.925c0.389,0.563,0.917,1.04,1.584,1.434
			c0.667,0.395,1.452,0.697,2.354,0.905c0.904,0.209,1.862,0.315,2.874,0.315c1.031,0,1.993-0.105,2.889-0.315
			c0.895-0.208,1.676-0.51,2.343-0.905c0.667-0.394,1.194-0.872,1.583-1.434c0.387-0.562,0.584-1.203,0.584-1.925
			c0-0.72-0.197-1.362-0.584-1.925C210.979,16.592,210.451,16.119,209.784,15.733z M208.561,20.085
			c-0.227,0.302-0.535,0.557-0.927,0.767c-0.389,0.209-0.851,0.365-1.387,0.466c-0.534,0.1-1.099,0.15-1.694,0.15
			c-0.58,0-1.133-0.05-1.661-0.15c-0.525-0.101-0.989-0.257-1.385-0.466c-0.398-0.21-0.716-0.465-0.951-0.767
			c-0.237-0.302-0.356-0.654-0.356-1.057c0-0.37,0.119-0.696,0.356-0.982c0.235-0.285,0.553-0.528,0.951-0.729
			c0.396-0.203,0.859-0.354,1.385-0.454c0.528-0.1,1.081-0.15,1.661-0.15c0.596,0,1.16,0.05,1.694,0.15
			c0.536,0.1,0.998,0.251,1.387,0.454c0.392,0.201,0.7,0.444,0.927,0.729c0.229,0.286,0.346,0.612,0.346,0.982
			C208.906,19.432,208.79,19.784,208.561,20.085z"/>
		<path fill="#00583E" d="M156.929,12.101c-0.824-1.39-0.933-3.758-0.938-4.721V4.997l0.149-1.234l-3.946-0.432l-0.177,0.302
			c0.203,0.235,0.375,0.584,0.516,1.044c0.144,0.461,0.215,0.936,0.215,1.422l0.002,1.281c-0.008,0.962-0.114,3.331-0.94,4.721
			c-0.438,0.738-1.056,1.409-1.811,2.038s-1.686,1.221-2.793,1.773l1.635,1.863c1.461-0.755,2.639-1.615,3.535-2.58
			c0.837-0.899,1.5-1.868,1.995-2.905c0.492,1.038,1.155,2.006,1.992,2.905c0.898,0.964,2.076,1.825,3.535,2.58l1.637-1.863
			c-1.106-0.552-2.04-1.145-2.793-1.773C157.986,13.509,157.367,12.839,156.929,12.101z"/>
	</g>
</g>
</svg>
