<?xml version="1.0"?>
<svg xmlns="http://www.w3.org/2000/svg" id="Icons" viewBox="0 0 74 74" width="512" height="512"><path d="M71,72H3a1,1,0,0,1-1-1V32a1,1,0,0,1,2,0V70H70V32a1,1,0,0,1,2,0V71A1,1,0,0,1,71,72Z"/><path d="M71,33a1,1,0,0,1-.649-.239l-13-11.09a1,1,0,0,1,1.3-1.521l13,11.09A1,1,0,0,1,71,33Z"/><path d="M3,33a1,1,0,0,1-.649-1.761l13-11.09a1,1,0,0,1,1.3,1.521l-13,11.09A1,1,0,0,1,3,33Z"/><path d="M45.21,11a.994.994,0,0,1-.648-.239L37,4.314l-7.562,6.447a1,1,0,1,1-1.3-1.521l8.21-7a1,1,0,0,1,1.3,0l8.21,7A1,1,0,0,1,45.21,11Z"/><path d="M37,56.689a8.989,8.989,0,0,1-5.431-1.815L2.4,32.8A1,1,0,1,1,3.6,31.2L32.776,53.279a7.025,7.025,0,0,0,8.447,0L70.4,31.2A1,1,0,1,1,71.6,32.8L42.431,54.874A8.989,8.989,0,0,1,37,56.689Z"/><path d="M71,72H3a1,1,0,0,1-.588-1.809l26.28-19.11A1,1,0,1,1,29.868,52.7L6.075,70h61.85L44.132,52.7a1,1,0,1,1,1.176-1.617l26.28,19.11A1,1,0,0,1,71,72Z"/><path d="M58,42.84a1,1,0,0,1-1-1V11H17V41.84a1,1,0,0,1-2,0V10a1,1,0,0,1,1-1H58a1,1,0,0,1,1,1V41.84A1,1,0,0,1,58,42.84Z"/><path d="M37,37.684a1,1,0,0,1-.646-.237c-.365-.31-8.956-7.647-9.34-13.156a6.21,6.21,0,0,1,6.112-6.608A5.859,5.859,0,0,1,37,19.168a5.854,5.854,0,0,1,3.873-1.485,6.209,6.209,0,0,1,6.112,6.607h0C46.6,29.8,38.012,37.137,37.646,37.447A1,1,0,0,1,37,37.684Zm-3.874-18a4.208,4.208,0,0,0-4.116,4.47c.247,3.558,5.361,8.841,7.99,11.2,2.629-2.363,7.743-7.648,7.989-11.2a4.208,4.208,0,0,0-4.116-4.469,3.956,3.956,0,0,0-3.09,1.553,1.035,1.035,0,0,1-1.566,0A3.96,3.96,0,0,0,33.126,19.683Zm12.861,4.539h0Z"/></svg>
