<?xml version="1.0" encoding="utf-8"?>
<!-- Generator: Adobe Illustrator 16.0.0, SVG Export Plug-In . SVG Version: 6.00 Build 0)  -->
<!DOCTYPE svg PUBLIC "-//W3C//DTD SVG 1.1//EN" "http://www.w3.org/Graphics/SVG/1.1/DTD/svg11.dtd">
<svg version="1.1" id="Layer_1" xmlns="http://www.w3.org/2000/svg" xmlns:xlink="http://www.w3.org/1999/xlink" x="0px" y="0px"
	 width="400px" height="130px" viewBox="0 0 400 130" enable-background="new 0 0 400 130" xml:space="preserve">
<g>
	<path fill="#DDDDDD" d="M171.84,76.887c-4.103,0-7.435-3.877-7.435-8.666c0-4.786,3.332-8.667,7.435-8.667
		c4.102,0,7.435,3.881,7.435,8.667C179.274,73.01,175.942,76.887,171.84,76.887 M186.991,29.296h-7.536v4.342h-6.449v5.253h6.449
		v4.204h-6.476v5.259h6.476v8.44c-2.236-1.139-4.828-1.795-7.605-1.795c-8.351,0-15.123,5.923-15.123,13.229
		c0,7.31,6.772,13.234,15.123,13.234c8.317,0,15.064-5.871,15.12-13.134l0.022,0.011V29.296z"/>
	<path fill="#DDDDDD" d="M148.745,34.466h13.546c0,0,0.837,14.141-12.861,14.643h-1.852v5.154h2.54c0,0,20.45,0.273,20.45-21.299
		v-3.668h-21.823V34.466z"/>
	<path fill="#DDDDDD" d="M223.99,76.887c-4.09,0-7.398-3.877-7.398-8.666c0-4.786,3.309-8.667,7.398-8.667
		c4.086,0,7.397,3.881,7.397,8.667C231.388,73.01,228.076,76.887,223.99,76.887 M238.886,29.296H231.3v6.039h-6.768v5.172h6.768
		v16.229c-2.186-1.107-4.715-1.737-7.414-1.737c-8.27,0-14.975,5.923-14.975,13.229c0,7.31,6.705,13.234,14.975,13.234
		c8.271,0,14.976-5.924,14.976-13.234c0-0.062-0.009-0.126-0.009-0.192l0.033,0.02V29.296z"/>
	<path fill="#DDDDDD" d="M215.866,33.859v-4.564h-7.906v4.696c0,0,0.363,12.164-8.444,13.583v5.369c0,0,8.619-0.256,12.647-7.529
		c0,0,3.213,6.308,12.965,7.318h2.275v-5.467C227.403,47.264,216.327,47.751,215.866,33.859"/>
	<path fill="#DDDDDD" d="M320.224,51.384c-2.694,0-4.879-3.615-4.879-8.07c0-4.454,2.185-8.066,4.879-8.066
		c2.692,0,4.877,3.612,4.877,8.066C325.101,47.77,322.916,51.384,320.224,51.384 M332.796,29.308h-8.749v-4.068h-7.531v4.034h-8.868
		v5.212h4.612c-2.711,2.244-4.439,5.617-4.439,9.391c0,6.768,5.546,12.251,12.39,12.251c6.846,0,12.389-5.483,12.389-12.251
		c0-3.773-1.724-7.146-4.439-9.391h4.637V29.308z"/>
	<path fill="#DDDDDD" d="M395.839,69.826V35.054c0,0,0.564-5.756-4.643-5.756h-29.96v5.225h27.218v35.304h-5.599V47.591h-7.186
		v22.235h-3.697V47.6h-7.107v22.227h-5.142v5.29h38.511v-5.29H395.839z"/>
	<polygon fill="#DDDDDD" points="351.402,40.299 345.517,40.299 345.517,29.298 338.006,29.298 338.006,60.581 310.943,60.581 
		310.943,65.758 338.008,65.758 338.008,79.484 345.517,79.484 345.517,45.495 351.402,45.495 	"/>
	<path fill="#DDDDDD" d="M286.214,29.296V40.61H282.4V29.296h-7.105v31.446h-12.538V34.431h8.737v-5.153h-16.246v31.031l0.037,0.004
		c0,0-0.699,5.777,5.059,5.595h14.951v13.576h7.105V45.805h3.813v33.679h7.102V29.296H286.214z"/>
	<polygon fill="#DDDDDD" points="156.308,90.715 160.193,90.715 155.464,98.3 160.193,107.62 156.215,107.62 152.165,98.956 
		152.119,98.956 152.119,107.62 148.584,107.62 148.584,90.715 152.119,90.715 152.119,97.951 152.165,97.951 	"/>
	<polygon fill="#DDDDDD" points="164.919,101.767 160.496,90.715 164.354,90.715 166.881,97.855 169.582,90.715 173.179,90.715 
		168.458,101.767 168.458,107.62 164.919,107.62 	"/>
	<path fill="#DDDDDD" d="M186.245,90.715v11.987c0,2.528-1.424,5.194-5.734,5.194c-3.883,0-5.762-2.01-5.762-5.194V90.715h3.541
		v11.753c0,2.083,0.887,2.9,2.178,2.9c1.54,0,2.245-1.028,2.245-2.9V90.715H186.245z"/>
	<polygon fill="#DDDDDD" points="189.151,107.62 189.151,90.715 193.923,90.715 198.416,102.423 198.469,102.423 198.469,90.715 
		201.771,90.715 201.771,107.62 197.104,107.62 192.497,95.258 192.45,95.258 192.45,107.62 	"/>
	<path fill="#DDDDDD" d="M212.463,95.914c0.025-1.57-0.234-2.953-2.104-2.953c-2.196,0-2.196,2.979-2.196,6.254
		c0,5.291,0.513,6.226,2.523,6.226c0.587,0,1.217-0.139,1.76-0.328v-3.746h-1.928v-2.6h5.457v8.57
		c-0.958,0.186-3.367,0.56-4.771,0.56c-5.946,0-6.627-2.457-6.627-8.871c0-4.263,0.21-8.593,5.995-8.593
		c3.467,0,5.615,1.946,5.403,5.48H212.463z"/>
	<path fill="#DDDDDD" d="M223.631,107.896c-4.376,0-5.197-2.573-5.012-5.5h3.539c0,1.618,0.065,2.973,2.008,2.973
		c1.197,0,1.781-0.77,1.781-1.918c0-3.045-7.115-3.229-7.115-8.262c0-2.646,1.267-4.755,5.569-4.755
		c3.439,0,5.151,1.544,4.918,5.082h-3.441c0-1.262-0.21-2.552-1.64-2.552c-1.15,0-1.823,0.631-1.823,1.801
		c0,3.21,7.111,2.93,7.111,8.242C229.526,107.381,226.32,107.896,223.631,107.896"/>
	<path fill="#DDDDDD" d="M243.477,90.715v11.987c0,2.528-1.421,5.194-5.729,5.194c-3.891,0-5.76-2.01-5.76-5.194V90.715h3.538
		v11.753c0,2.083,0.885,2.9,2.178,2.9c1.542,0,2.243-1.028,2.243-2.9V90.715H243.477z"/>
	<polygon fill="#DDDDDD" points="246.386,107.62 246.386,90.715 251.158,90.715 255.653,102.423 255.7,102.423 255.7,90.715 
		259.001,90.715 259.001,107.62 254.348,107.62 249.731,95.258 249.682,95.258 249.682,107.62 	"/>
	<path fill="#DDDDDD" d="M269.702,95.914c0.021-1.57-0.236-2.953-2.109-2.953c-2.201,0-2.201,2.979-2.201,6.254
		c0,5.291,0.515,6.226,2.528,6.226c0.583,0,1.216-0.139,1.756-0.328v-3.746h-1.916v-2.6h5.449v8.57
		c-0.959,0.186-3.371,0.56-4.776,0.56c-5.942,0-6.623-2.457-6.623-8.871c0-4.263,0.207-8.593,5.996-8.593
		c3.462,0,5.614,1.946,5.403,5.48H269.702z"/>
	<path fill="#DDDDDD" d="M292.896,90.715v11.987c0,2.528-1.431,5.194-5.738,5.194c-3.882,0-5.753-2.01-5.753-5.194V90.715h3.53
		v11.753c0,2.083,0.889,2.9,2.178,2.9c1.545,0,2.251-1.028,2.251-2.9V90.715H292.896z"/>
	<polygon fill="#DDDDDD" points="295.801,107.62 295.801,90.715 300.572,90.715 305.067,102.423 305.116,102.423 305.116,90.715 
		308.42,90.715 308.42,107.62 303.761,107.62 299.145,95.258 299.105,95.258 299.105,107.62 	"/>
	<rect x="311.388" y="90.715" fill="#DDDDDD" width="3.536" height="16.905"/>
	<polygon fill="#DDDDDD" points="316.539,90.715 320.22,90.715 322.837,103.006 322.89,103.006 325.835,90.715 329.319,90.715 
		324.854,107.62 320.712,107.62 	"/>
	<polygon fill="#DDDDDD" points="330.91,107.62 330.91,90.715 340.139,90.715 340.139,93.315 334.446,93.315 334.446,97.484 
		339.689,97.484 339.689,100.079 334.446,100.079 334.446,105.02 340.326,105.02 340.326,107.62 	"/>
	<path fill="#DDDDDD" d="M346.082,98.021h1.566c1.404,0,1.807-1.405,1.807-2.479c0-1.618-0.683-2.228-1.807-2.228h-1.566V98.021z
		 M346.082,107.62h-3.534V90.715h6.531c2.409,0,3.954,1.547,3.954,4.424c0,2.152-0.844,3.771-3.138,4.146v0.046
		c0.775,0.094,3.068,0.281,3.068,3.324c0,1.076,0.069,4.261,0.399,4.965h-3.468c-0.467-1.031-0.375-2.177-0.375-3.277
		c0-2.014,0.191-3.723-2.524-3.723h-0.914V107.62z"/>
	<path fill="#DDDDDD" d="M360.222,107.896c-4.376,0-5.198-2.573-5.013-5.5h3.537c0,1.618,0.064,2.973,2.012,2.973
		c1.197,0,1.777-0.77,1.777-1.918c0-3.045-7.112-3.229-7.112-8.262c0-2.646,1.266-4.755,5.566-4.755
		c3.443,0,5.153,1.544,4.916,5.082h-3.437c0-1.262-0.211-2.552-1.639-2.552c-1.152,0-1.828,0.631-1.828,1.801
		c0,3.21,7.115,2.93,7.115,8.242C366.117,107.381,362.906,107.896,360.222,107.896"/>
	<rect x="368.647" y="90.715" fill="#DDDDDD" width="3.537" height="16.905"/>
	<polygon fill="#DDDDDD" points="385.22,90.715 385.22,93.526 381.287,93.526 381.287,107.62 377.754,107.62 377.754,93.526 
		373.819,93.526 373.819,90.715 	"/>
	<polygon fill="#DDDDDD" points="389.971,101.767 385.545,90.715 389.41,90.715 391.938,97.855 394.627,90.715 398.234,90.715 
		393.506,101.767 393.506,107.62 389.971,107.62 	"/>
	<g>
		<polygon fill="#DDDDDD" points="12.068,99.298 11.251,97.942 15.718,95.248 15.705,95.225 9.931,95.776 9.121,94.419 
			15.108,93.923 18.831,88.324 19.748,89.847 16.132,94.967 16.163,94.986 21.063,92.03 21.884,93.387 		"/>
		<polygon fill="#DDDDDD" points="5.866,87.323 5.358,85.824 9.495,82.988 9.481,82.964 4.409,82.988 3.964,81.651 11.073,81.613 
			15.535,80.131 16.031,81.622 11.573,83.121 		"/>
		<path fill="#DDDDDD" d="M10.58,67.409c1.34-0.137,2.719,0.259,2.937,2.404c0.21,2.159-1.082,2.804-2.398,2.951l-8.839,0.888
			l-0.141-1.585l9.092-0.896c0.765-0.095,1.142-0.416,1.047-1.238c-0.071-0.803-0.498-1.049-1.259-0.971l-9.112,0.91l-0.142-1.57
			L10.58,67.409z"/>
		<polygon fill="#DDDDDD" points="1.826,59.786 2.101,57.622 11.77,56.898 11.78,56.873 2.32,55.731 2.501,54.249 13.886,55.636 
			13.61,57.896 3.664,58.595 3.664,58.61 13.37,59.786 13.208,61.174 		"/>
		<path fill="#DDDDDD" d="M8.589,43.483l-0.564-0.196c-0.757-0.275-1.361-0.076-1.563,0.508c-0.244,0.698,0.256,1.264,1.405,1.688
			l5.441,1.933c0.865,0.307,1.57,0.091,1.799-0.519c0.137-0.428,0.202-0.784,0.226-0.999l-3.174-1.127l-0.351,0.988l-1.244-0.446
			l0.885-2.5l5.43,1.958c-0.073,0.622-0.313,1.697-0.619,2.559c-0.674,1.902-1.905,2.139-3.574,1.551L7.24,46.917
			c-2.035-0.707-2.624-1.632-1.938-3.55c0.573-1.595,1.453-2.221,2.836-1.725l0.982,0.351L8.589,43.483z"/>
		<path fill="#DDDDDD" d="M21.561,30.727l1.048-1.191l0.688,0.611c0.585,0.498,1.137,0.605,1.547,0.118
			c0.556-0.631,0.253-1.175-0.309-1.651c-0.725-0.636-0.994-0.817-3.322-0.636c-1.428,0.104-2.674,0.151-3.846-0.883
			c-1.42-1.228-1.455-2.426-0.318-3.724c0.557-0.654,1.18-0.931,1.692-0.991c0.374-0.041,0.789,0.083,1.399,0.615l0.822,0.695
			l-0.985,1.139l-0.679-0.597c-0.499-0.44-0.951-0.473-1.353,0c-0.43,0.483-0.358,0.956,0.306,1.542
			c0.598,0.506,1.059,0.69,3.171,0.602c2.238-0.122,2.849,0.034,3.886,0.936c1.358,1.162,1.674,2.377,0.437,3.807
			c-0.955,1.095-2.075,1.44-3.156,0.514L21.561,30.727z"/>
		<path fill="#DDDDDD" d="M34.402,19.8c0.811,1.089,1.188,2.467-0.539,3.752c-1.751,1.308-2.972,0.552-3.768-0.514l-5.305-7.115
			l1.272-0.948l5.467,7.322c0.458,0.625,0.931,0.773,1.589,0.274c0.649-0.488,0.635-0.973,0.181-1.597l-5.479-7.322l1.277-0.941
			L34.402,19.8z"/>
		<polygon fill="#DDDDDD" points="36.449,8.371 38.456,7.481 44.025,15.42 44.061,15.405 40.202,6.705 41.558,6.114 46.22,16.575 
			44.124,17.491 38.433,9.32 38.413,9.35 42.388,18.282 41.113,18.841 		"/>
		<path fill="#DDDDDD" d="M53.968,5.795L53.859,5.21c-0.163-0.791-0.641-1.206-1.257-1.083c-0.71,0.151-0.936,0.87-0.706,2.066
			l1.113,5.67c0.184,0.909,0.731,1.394,1.368,1.277c0.431-0.097,0.781-0.222,0.975-0.308l-0.647-3.301l-1.029,0.193l-0.259-1.312
			l2.59-0.497l1.106,5.64c-0.583,0.276-1.625,0.623-2.511,0.791c-1.981,0.397-2.83-0.531-3.172-2.264l-1.117-5.691
			c-0.415-2.103,0.059-3.087,2.078-3.476c1.669-0.326,2.645,0.113,2.928,1.545l0.21,1.022L53.968,5.795z"/>
		<path fill="#DDDDDD" d="M76.905,12.082c-0.231,1.303-1,2.536-3.117,2.155c-2.139-0.394-2.412-1.81-2.177-3.126l1.597-8.725
			l1.577,0.283l-1.661,8.981c-0.139,0.777,0.077,1.22,0.88,1.374c0.802,0.128,1.155-0.205,1.298-0.966l1.639-8.99l1.561,0.293
			L76.905,12.082z"/>
		<polygon fill="#DDDDDD" points="87.515,6.122 89.517,7.018 87.352,16.472 87.376,16.491 91.255,7.788 92.62,8.399 87.953,18.875 
			85.866,17.928 88.132,8.242 88.107,8.235 84.12,17.16 82.845,16.59 		"/>
		<polygon fill="#DDDDDD" points="100.439,13.129 101.735,14.052 95.044,23.356 93.763,22.439 		"/>
		<polygon fill="#DDDDDD" points="108.396,19.599 109.47,20.769 103.904,28.167 103.932,28.197 111.74,23.222 112.808,24.39 
			102.819,30.458 101.57,29.106 		"/>
		<polygon fill="#DDDDDD" points="117.964,31.631 120.126,35.37 118.972,36.027 117.601,33.667 114.509,35.46 115.789,37.698 
			114.632,38.348 113.338,36.133 109.992,38.059 111.36,40.435 110.2,41.089 108.035,37.358 		"/>
		<path fill="#DDDDDD" d="M121.678,47.693c-1.631,0.526-1.903,0.429-2.291-0.779l-0.122-0.386l3.634-1.135l0.218,0.718
			C123.419,47.055,123.304,47.197,121.678,47.693 M124.435,45.818l-0.732-2.334l-10.942,3.424l0.473,1.508l4.765-1.498l0.163,0.523
			c0.3,1.002,0.096,1.26-0.931,1.599l-2.487,0.766c-0.435,0.127-0.695,0.242-0.919,0.477l0.44,1.435
			c0.433-0.241,0.985-0.409,1.378-0.532l2.377-0.745c1.027-0.318,1.44-0.819,1.234-1.89l0.023-0.015
			c0.77,1.123,1.473,1.123,2.935,0.663C124.611,48.443,125.14,48.026,124.435,45.818"/>
		<path fill="#DDDDDD" d="M118.803,57.92l0.124,1.584l-0.921,0.06c-0.77,0.069-1.213,0.386-1.168,1.02
			c0.063,0.829,0.646,1.002,1.402,0.945c0.948-0.069,1.258-0.144,2.772-1.92c0.939-1.076,1.788-1.992,3.347-2.107
			c1.855-0.141,2.733,0.67,2.87,2.395c0.06,0.854-0.183,1.488-0.506,1.895c-0.22,0.276-0.612,0.513-1.412,0.581l-1.083,0.071
			l-0.11-1.475l0.913-0.086c0.651-0.036,0.992-0.337,0.954-0.959c-0.047-0.648-0.439-0.922-1.322-0.854
			c-0.777,0.065-1.242,0.26-2.651,1.829c-1.488,1.674-2.032,2-3.401,2.107c-1.787,0.127-2.869-0.496-3.022-2.386
			c-0.103-1.442,0.429-2.492,1.87-2.6L118.803,57.92z"/>
		<polygon fill="#DDDDDD" points="126.971,71.186 126.788,72.764 115.405,71.435 115.585,69.869 		"/>
		<polygon fill="#DDDDDD" points="125.158,81.188 123.514,86.331 122.24,85.912 122.813,84.11 113.174,81.036 113.657,79.512 
			123.31,82.6 123.885,80.788 		"/>
		<polygon fill="#DDDDDD" points="120.024,94.152 119.215,95.519 114.364,94.238 114.352,94.266 117.679,98.102 116.971,99.298 
			112.276,93.947 108.246,91.549 109.069,90.178 113.104,92.576 		"/>
		<path fill="#DDDDDD" d="M26.489,110.707l1.281,0.966l-0.57,0.735c-0.446,0.623-0.513,1.164-0.003,1.552
			c0.663,0.514,1.178,0.17,1.625-0.422c0.585-0.765,0.733-1.058,0.402-3.337c-0.199-1.436-0.318-2.683,0.616-3.92
			c1.127-1.497,2.315-1.631,3.694-0.569c0.686,0.506,1.004,1.109,1.103,1.62c0.064,0.368-0.028,0.791-0.518,1.433l-0.644,0.869
			l-1.191-0.903l0.547-0.717c0.382-0.516,0.4-0.989-0.1-1.364c-0.514-0.389-0.971-0.28-1.513,0.429
			c-0.458,0.624-0.621,1.104-0.376,3.206c0.271,2.216,0.17,2.837-0.667,3.935c-1.076,1.438-2.258,1.828-3.763,0.693
			c-1.168-0.867-1.587-1.97-0.725-3.109L26.489,110.707z"/>
		<polygon fill="#DDDDDD" points="38.765,109.279 40.155,110.048 34.604,120.061 33.199,119.292 		"/>
		<polygon fill="#DDDDDD" points="43.778,111.883 45.828,112.648 44.246,122.226 44.267,122.239 47.611,113.311 49.006,113.838 
			44.998,124.555 42.86,123.754 44.518,113.96 44.493,113.944 41.069,123.093 39.759,122.606 		"/>
		<path fill="#DDDDDD" d="M52.157,117.691c0.295-1.579,1.074-2.871,3.195-2.481c1.542,0.293,2.111,1.196,1.875,2.465l-0.201,1.137
			l-1.466-0.283l0.148-0.775c0.125-0.722-0.045-1.219-0.696-1.348c-0.812-0.148-1.074,0.411-1.337,1.755l-1.004,5.528
			c-0.255,1.33,0.124,1.64,0.622,1.729c0.575,0.126,1.025-0.226,1.196-1.149l0.159-0.797l1.46,0.277l-0.232,1.246
			c-0.226,1.196-0.872,2.005-2.68,1.677c-1.962-0.37-2.411-1.526-2.096-3.286L52.157,117.691z"/>
		<polygon fill="#DDDDDD" points="61.232,116.048 65.555,116.168 65.517,117.506 62.787,117.429 62.703,121.01 65.278,121.072 
			65.235,122.413 62.658,122.346 62.561,126.223 65.296,126.286 65.265,127.614 60.946,127.5 		"/>
		<path fill="#DDDDDD" d="M71.337,117.851h-0.025c-0.27,0.488-0.534,0.811-1.074,1.336l-0.192-1.483
			c0.314-0.302,1.033-1.486,1.168-2.01l1.325-0.187l1.521,11.355l-1.476,0.198L71.337,117.851z"/>
		<path fill="#DDDDDD" d="M81.854,119.675c-0.663,0.217-0.944-0.175-1.129-0.758l-0.8-2.532c-0.269-0.858-0.422-1.373,0.396-1.622
			c0.849-0.275,1.045,0.377,1.268,1.092l0.69,2.184C82.581,119.006,82.441,119.5,81.854,119.675 M84.887,121.385l-1.847-5.908
			c-0.602-1.939-1.379-2.333-2.966-1.84c-1.969,0.619-2.191,1.489-1.587,3.45l0.585,1.864c0.485,1.564,1.151,2.541,2.553,2.098
			c0.644-0.194,1.013-0.505,1.221-1.076l0.025-0.008l0.632,2.013c0.273,0.861,0.216,1.434-0.418,1.628
			c-0.602,0.185-0.917-0.063-1.184-0.923l-0.177-0.538l-1.418,0.445l0.303,0.972c0.382,1.196,1.246,1.717,2.846,1.223
			C85.082,124.269,85.501,123.347,84.887,121.385"/>
		<path fill="#DDDDDD" d="M89.705,119.006l1.329-0.667l0.463,0.892c0.295,0.585,0.711,0.797,1.289,0.521
			c0.826-0.425,0.389-1.279,0.087-1.869l-1.116-2.175c-0.365-0.717-0.817-0.813-1.25-0.58c-0.475,0.23-0.597,0.758-0.252,1.456
			l0.216,0.403l-1.33,0.676l-3.143-6.135l3.958-2.029l0.57,1.091l-2.641,1.351l1.6,3.123h0.031c0.101-0.727,0.44-1.059,0.931-1.316
			c0.754-0.376,1.807-0.343,2.471,0.96l1.5,2.905c0.634,1.242,0.438,2.353-1.165,3.162c-1.397,0.733-2.442,0.407-2.978-0.654
			L89.705,119.006z"/>
		<path fill="#DDDDDD" d="M98.528,114l1.207-0.897l0.6,0.814c0.382,0.521,0.828,0.669,1.333,0.281
			c0.756-0.552,0.188-1.317-0.211-1.847l-1.468-1.958c-0.481-0.665-0.955-0.665-1.34-0.375c-0.421,0.323-0.461,0.86,0.012,1.483
			l0.272,0.367l-1.195,0.905l-4.125-5.538l3.552-2.66l0.745,0.992l-2.363,1.776l2.096,2.801l0.025-0.022
			c-0.025-0.715,0.25-1.102,0.708-1.445c0.667-0.494,1.719-0.638,2.587,0.528l1.958,2.605c0.845,1.131,0.845,2.26-0.602,3.328
			c-1.255,0.949-2.347,0.802-3.05-0.15L98.528,114z"/>
		<polygon fill="#DDDDDD" points="93.689,28.868 80.034,42.189 93.689,55.51 66.7,55.51 66.7,28.868 		"/>
		<path fill="#DDDDDD" d="M64.51,109.272c0,0,9.124-3.933,16.594-7.167c7.471-3.233,12.237-10.397,12.237-19.626V59.429H66.7v17.809
			c3.667-1.585,9.591-7.099,10.89-8.362l0.165,0.165c-1.287,1.323-6.98,7.442-8.45,11.093c3.619,1.542,11.973,1.847,13.82,1.87
			v0.234c-1.847,0.025-10.201,0.327-13.82,1.869c1.47,3.65,7.161,9.771,8.45,11.093l-0.167,0.165
			c-1.32-1.288-7.443-6.98-11.091-8.447c-1.543,3.619-1.847,11.971-1.871,13.816h-0.228c-0.023-1.846-0.326-10.197-1.869-13.816
			c-3.65,1.467-9.77,7.159-11.091,8.447l-0.167-0.165c1.289-1.322,6.979-7.443,8.449-11.093c-3.619-1.542-11.973-1.844-13.817-1.869
			v-0.234c1.844-0.023,10.198-0.328,13.815-1.87c-1.468-3.65-7.16-9.77-8.447-11.093l0.166-0.165
			c1.297,1.264,7.224,6.777,10.894,8.362V59.429H35.684v23.051c0,9.229,4.767,16.394,12.238,19.626
			c7.473,3.233,16.593,7.167,16.593,7.167"/>
		<rect x="35.684" y="28.866" fill="#DDDDDD" width="26.648" height="26.644"/>
	</g>
</g>
</svg>
