<?xml version="1.0" encoding="utf-8"?>
<!-- Generator: Adobe Illustrator 16.0.0, SVG Export Plug-In . SVG Version: 6.00 Build 0)  -->
<!DOCTYPE svg PUBLIC "-//W3C//DTD SVG 1.1//EN" "http://www.w3.org/Graphics/SVG/1.1/DTD/svg11.dtd">
<svg version="1.1" id="Layer_1" xmlns="http://www.w3.org/2000/svg" xmlns:xlink="http://www.w3.org/1999/xlink" x="0px" y="0px"
	 width="238.667px" height="80px" viewBox="0 0 238.667 80" enable-background="new 0 0 238.667 80" xml:space="preserve">
<g>
	<path fill="#58595B" d="M102.644,47.044c-2.432,0-4.405-2.298-4.405-5.136c0-2.837,1.974-5.137,4.405-5.137
		c2.433,0,4.406,2.3,4.406,5.137C107.05,44.747,105.076,47.044,102.644,47.044 M111.624,18.839h-4.466v2.573h-3.823v3.113h3.823
		v2.491h-3.838v3.117h3.838v5.002c-1.325-0.675-2.862-1.064-4.508-1.064c-4.949,0-8.964,3.511-8.964,7.841
		c0,4.332,4.015,7.843,8.964,7.843c4.93,0,8.928-3.479,8.961-7.784l0.013,0.007V18.839z"/>
	<path fill="#58595B" d="M88.957,21.904h8.028c0,0,0.495,8.381-7.622,8.678h-1.099v3.055h1.505c0,0,12.12,0.162,12.12-12.623v-2.174
		H88.957V21.904z"/>
	<path fill="#58595B" d="M133.551,47.044c-2.424,0-4.385-2.298-4.385-5.136c0-2.837,1.961-5.137,4.385-5.137
		c2.422,0,4.385,2.3,4.385,5.137C137.936,44.747,135.973,47.044,133.551,47.044 M142.379,18.839h-4.496v3.579h-4.01v3.065h4.01
		v9.618c-1.295-0.656-2.795-1.03-4.394-1.03c-4.901,0-8.875,3.511-8.875,7.841c0,4.332,3.974,7.843,8.875,7.843
		s8.875-3.511,8.875-7.843c0-0.037-0.005-0.075-0.005-0.114l0.02,0.012V18.839z"/>
	<path fill="#58595B" d="M128.736,21.543v-2.705h-4.686v2.783c0,0,0.215,7.209-5.005,8.05v3.182c0,0,5.108-0.151,7.496-4.462
		c0,0,1.903,3.738,7.683,4.337h1.349v-3.24C135.573,29.488,129.01,29.777,128.736,21.543"/>
	<path fill="#58595B" d="M190.584,31.93c-1.597,0-2.892-2.143-2.892-4.783c0-2.64,1.295-4.78,2.892-4.78
		c1.596,0,2.891,2.141,2.891,4.78C193.475,29.788,192.18,31.93,190.584,31.93 M198.035,18.846h-5.186v-2.411h-4.463v2.391h-5.256
		v3.089h2.733c-1.606,1.33-2.631,3.329-2.631,5.565c0,4.011,3.287,7.261,7.343,7.261c4.057,0,7.342-3.25,7.342-7.261
		c0-2.236-1.021-4.235-2.631-5.565h2.748V18.846z"/>
	<path fill="#58595B" d="M235.398,42.86V22.251c0,0,0.334-3.411-2.752-3.411h-17.756v3.097h16.131V42.86h-3.318V29.682h-4.258V42.86
		h-2.191V29.687h-4.213V42.86h-3.047v3.135h22.824V42.86H235.398z"/>
	<polygon fill="#58595B" points="209.063,25.361 205.574,25.361 205.574,18.84 201.123,18.84 201.123,37.38 185.084,37.38 
		185.084,40.449 201.125,40.449 201.125,48.583 205.574,48.583 205.574,28.44 209.063,28.44 	"/>
	<path fill="#58595B" d="M170.428,18.839v6.705h-2.26v-6.705h-4.211v18.637h-7.432V21.882h5.18v-3.054h-9.629v18.391l0.021,0.002
		c0,0-0.414,3.424,2.998,3.316h8.861v8.046h4.211v-19.96h2.26v19.96h4.209V18.839H170.428z"/>
	<polygon fill="#58595B" points="93.439,55.24 95.742,55.24 92.938,59.735 95.742,65.258 93.384,65.258 90.984,60.124 
		90.957,60.124 90.957,65.258 88.862,65.258 88.862,55.24 90.957,55.24 90.957,59.528 90.984,59.528 	"/>
	<polygon fill="#58595B" points="98.542,61.79 95.921,55.24 98.208,55.24 99.706,59.471 101.306,55.24 103.438,55.24 100.64,61.79 
		100.64,65.258 98.542,65.258 	"/>
	<path fill="#58595B" d="M111.181,55.24v7.104c0,1.498-0.844,3.078-3.397,3.078c-2.301,0-3.415-1.191-3.415-3.078V55.24h2.098v6.966
		c0,1.234,0.526,1.719,1.291,1.719c0.912,0,1.33-0.609,1.33-1.719V55.24H111.181z"/>
	<polygon fill="#58595B" points="112.904,65.258 112.904,55.24 115.732,55.24 118.395,62.178 118.426,62.178 118.426,55.24 
		120.382,55.24 120.382,65.258 117.618,65.258 114.886,57.932 114.859,57.932 114.859,65.258 	"/>
	<path fill="#58595B" d="M126.719,58.321c0.016-0.931-0.139-1.75-1.246-1.75c-1.303,0-1.303,1.766-1.303,3.707
		c0,3.135,0.305,3.689,1.496,3.689c0.348,0,0.721-0.082,1.043-0.194v-2.22h-1.143v-1.541h3.234v5.079
		c-0.568,0.11-1.996,0.332-2.828,0.332c-3.524,0-3.928-1.456-3.928-5.258c0-2.526,0.125-5.093,3.553-5.093
		c2.055,0,3.328,1.153,3.203,3.248H126.719z"/>
	<path fill="#58595B" d="M133.338,65.422c-2.594,0-3.08-1.525-2.971-3.26h2.098c0,0.959,0.039,1.762,1.19,1.762
		c0.709,0,1.056-0.456,1.056-1.137c0-1.805-4.217-1.914-4.217-4.896c0-1.568,0.75-2.818,3.301-2.818
		c2.039,0,3.053,0.915,2.914,3.012h-2.039c0-0.748-0.125-1.513-0.972-1.513c-0.683,0-1.081,0.374-1.081,1.067
		c0,1.902,4.215,1.736,4.215,4.885C136.832,65.117,134.932,65.422,133.338,65.422"/>
	<path fill="#58595B" d="M145.1,55.24v7.104c0,1.498-0.842,3.078-3.396,3.078c-2.306,0-3.413-1.191-3.413-3.078V55.24h2.096v6.966
		c0,1.234,0.525,1.719,1.291,1.719c0.914,0,1.33-0.609,1.33-1.719V55.24H145.1z"/>
	<polygon fill="#58595B" points="146.823,65.258 146.823,55.24 149.652,55.24 152.316,62.178 152.344,62.178 152.344,55.24 
		154.3,55.24 154.3,65.258 151.542,65.258 148.807,57.932 148.777,57.932 148.777,65.258 	"/>
	<path fill="#58595B" d="M160.643,58.321c0.012-0.931-0.141-1.75-1.25-1.75c-1.305,0-1.305,1.766-1.305,3.707
		c0,3.135,0.305,3.689,1.498,3.689c0.346,0,0.721-0.082,1.041-0.194v-2.22h-1.136v-1.541h3.229v5.079
		c-0.568,0.11-1.998,0.332-2.83,0.332c-3.522,0-3.926-1.456-3.926-5.258c0-2.526,0.123-5.093,3.553-5.093
		c2.053,0,3.328,1.153,3.203,3.248H160.643z"/>
	<path fill="#58595B" d="M174.389,55.24v7.104c0,1.498-0.848,3.078-3.4,3.078c-2.301,0-3.41-1.191-3.41-3.078V55.24h2.092v6.966
		c0,1.234,0.527,1.719,1.291,1.719c0.916,0,1.334-0.609,1.334-1.719V55.24H174.389z"/>
	<polygon fill="#58595B" points="176.109,65.258 176.109,55.24 178.938,55.24 181.602,62.178 181.631,62.178 181.631,55.24 
		183.589,55.24 183.589,65.258 180.827,65.258 178.092,57.932 178.068,57.932 178.068,65.258 	"/>
	<rect x="185.348" y="55.24" fill="#58595B" width="2.096" height="10.019"/>
	<polygon fill="#58595B" points="188.4,55.24 190.582,55.24 192.133,62.524 192.164,62.524 193.91,55.24 195.975,55.24 
		193.328,65.258 190.873,65.258 	"/>
	<polygon fill="#58595B" points="196.918,65.258 196.918,55.24 202.387,55.24 202.387,56.781 199.014,56.781 199.014,59.251 
		202.121,59.251 202.121,60.79 199.014,60.79 199.014,63.717 202.498,63.717 202.498,65.258 	"/>
	<path fill="#58595B" d="M205.91,59.57h0.928c0.832,0,1.07-0.833,1.07-1.469c0-0.959-0.404-1.32-1.07-1.32h-0.928V59.57z
		 M205.91,65.258h-2.096V55.24h3.871c1.428,0,2.344,0.917,2.344,2.622c0,1.275-0.5,2.234-1.859,2.457v0.027
		c0.459,0.056,1.818,0.166,1.818,1.97c0,0.638,0.041,2.525,0.236,2.942h-2.055c-0.277-0.61-0.223-1.29-0.223-1.942
		c0-1.193,0.113-2.206-1.496-2.206h-0.541V65.258z"/>
	<path fill="#58595B" d="M214.289,65.422c-2.594,0-3.08-1.525-2.971-3.26h2.096c0,0.959,0.039,1.762,1.193,1.762
		c0.709,0,1.053-0.456,1.053-1.137c0-1.805-4.215-1.914-4.215-4.896c0-1.568,0.75-2.818,3.299-2.818
		c2.041,0,3.055,0.915,2.914,3.012h-2.037c0-0.748-0.125-1.513-0.971-1.513c-0.684,0-1.084,0.374-1.084,1.067
		c0,1.902,4.217,1.736,4.217,4.885C217.783,65.117,215.881,65.422,214.289,65.422"/>
	<rect x="219.283" y="55.24" fill="#58595B" width="2.096" height="10.019"/>
	<polygon fill="#58595B" points="229.105,55.24 229.105,56.906 226.773,56.906 226.773,65.258 224.68,65.258 224.68,56.906 
		222.348,56.906 222.348,55.24 	"/>
	<polygon fill="#58595B" points="231.92,61.79 229.297,55.24 231.588,55.24 233.086,59.471 234.68,55.24 236.818,55.24 
		234.016,61.79 234.016,65.258 231.92,65.258 	"/>
	<g>
		<polygon fill="#6D6E71" points="7.954,60.327 7.47,59.523 10.117,57.926 10.109,57.913 6.688,58.239 6.208,57.435 9.756,57.141 
			11.963,53.823 12.506,54.725 10.362,57.759 10.382,57.771 13.286,56.019 13.771,56.823 		"/>
		<polygon fill="#6D6E71" points="4.278,53.229 3.978,52.341 6.429,50.661 6.421,50.646 3.416,50.661 3.152,49.868 7.364,49.845 
			10.009,48.967 10.303,49.851 7.66,50.739 		"/>
		<path fill="#6D6E71" d="M7.072,41.427c0.794-0.081,1.612,0.153,1.741,1.425c0.125,1.279-0.641,1.662-1.422,1.749l-5.239,0.526
			l-0.083-0.939l5.389-0.531c0.453-0.057,0.678-0.246,0.621-0.733c-0.043-0.476-0.296-0.622-0.747-0.575l-5.399,0.539l-0.084-0.931
			L7.072,41.427z"/>
		<polygon fill="#6D6E71" points="1.884,36.911 2.048,35.627 7.778,35.198 7.783,35.183 2.178,34.506 2.285,33.628 9.031,34.45 
			8.868,35.791 2.974,36.205 2.974,36.212 8.727,36.911 8.631,37.732 		"/>
		<path fill="#6D6E71" d="M5.894,27.249l-0.335-0.116c-0.449-0.164-0.807-0.045-0.926,0.301c-0.145,0.413,0.151,0.748,0.832,0.999
			l3.226,1.146c0.513,0.181,0.931,0.053,1.065-0.308c0.081-0.255,0.12-0.465,0.134-0.593L8.01,28.01l-0.209,0.587l-0.736-0.266
			l0.524-1.481l3.217,1.16c-0.043,0.368-0.186,1.006-0.366,1.518c-0.398,1.126-1.129,1.268-2.118,0.919l-3.228-1.163
			c-1.206-0.419-1.556-0.968-1.149-2.104c0.34-0.946,0.861-1.316,1.681-1.023l0.583,0.208L5.894,27.249z"/>
		<path fill="#6D6E71" d="M13.58,19.687l0.622-0.706l0.406,0.363c0.347,0.294,0.675,0.358,0.918,0.07
			c0.329-0.375,0.15-0.696-0.184-0.979c-0.429-0.377-0.589-0.484-1.968-0.377c-0.848,0.063-1.585,0.09-2.28-0.523
			c-0.841-0.728-0.862-1.437-0.188-2.207c0.329-0.387,0.698-0.552,1.003-0.587c0.222-0.023,0.468,0.05,0.828,0.364l0.487,0.412
			l-0.583,0.676l-0.403-0.354c-0.295-0.26-0.563-0.28-0.802,0c-0.255,0.286-0.212,0.567,0.182,0.915
			c0.354,0.299,0.627,0.408,1.879,0.356c1.326-0.073,1.688,0.02,2.303,0.554c0.805,0.688,0.992,1.409,0.26,2.256
			c-0.566,0.65-1.229,0.854-1.871,0.305L13.58,19.687z"/>
		<path fill="#6D6E71" d="M21.19,13.212c0.48,0.645,0.705,1.461-0.318,2.223c-1.039,0.776-1.762,0.328-2.234-0.305l-3.144-4.216
			l0.754-0.562l3.241,4.339c0.271,0.37,0.552,0.459,0.941,0.162c0.385-0.289,0.375-0.575,0.106-0.945l-3.247-4.34l0.757-0.558
			L21.19,13.212z"/>
		<polygon fill="#6D6E71" points="22.404,6.438 23.593,5.912 26.895,10.617 26.915,10.607 24.628,5.451 25.432,5.1 28.195,11.3 
			26.953,11.844 23.579,7.001 23.567,7.018 25.924,12.312 25.168,12.643 		"/>
		<path fill="#6D6E71" d="M32.787,4.913l-0.065-0.348c-0.097-0.469-0.38-0.715-0.744-0.642c-0.421,0.09-0.556,0.515-0.418,1.225
			l0.659,3.36c0.108,0.539,0.434,0.825,0.81,0.756c0.257-0.057,0.463-0.132,0.579-0.183l-0.385-1.956l-0.61,0.114L32.46,6.463
			l1.534-0.296L34.65,9.51c-0.346,0.164-0.963,0.369-1.489,0.47c-1.173,0.235-1.677-0.315-1.879-1.342l-0.663-3.373
			c-0.245-1.246,0.035-1.83,1.231-2.061c0.989-0.193,1.568,0.067,1.735,0.916l0.125,0.606L32.787,4.913z"/>
		<path fill="#6D6E71" d="M46.38,8.638c-0.137,0.772-0.591,1.503-1.847,1.276c-1.268-0.232-1.429-1.072-1.289-1.853l0.946-5.17
			l0.935,0.168l-0.984,5.321c-0.082,0.461,0.045,0.723,0.521,0.815c0.476,0.076,0.685-0.122,0.769-0.573l0.972-5.328l0.926,0.175
			L46.38,8.638z"/>
		<polygon fill="#6D6E71" points="52.668,5.106 53.854,5.637 52.571,11.239 52.587,11.25 54.886,6.093 55.693,6.456 52.929,12.665 
			51.691,12.103 53.034,6.362 53.019,6.359 50.657,11.648 49.901,11.309 		"/>
		<polygon fill="#6D6E71" points="60.329,9.259 61.097,9.806 57.132,15.32 56.372,14.776 		"/>
		<polygon fill="#6D6E71" points="65.044,13.092 65.681,13.787 62.382,18.171 62.397,18.188 67.025,15.24 67.658,15.933 
			61.738,19.528 60.998,18.728 		"/>
		<polygon fill="#6D6E71" points="70.714,20.224 71.996,22.439 71.312,22.83 70.5,21.431 68.667,22.494 69.426,23.819 68.74,24.205 
			67.973,22.891 65.989,24.034 66.8,25.441 66.112,25.83 64.83,23.619 		"/>
		<path fill="#6D6E71" d="M72.915,29.743c-0.966,0.312-1.128,0.254-1.357-0.462l-0.071-0.229l2.152-0.673l0.131,0.427
			C73.948,29.364,73.879,29.45,72.915,29.743 M74.549,28.631l-0.433-1.383l-6.486,2.028l0.28,0.895l2.825-0.888l0.096,0.31
			c0.178,0.595,0.058,0.747-0.552,0.947l-1.473,0.455c-0.259,0.074-0.412,0.143-0.545,0.281l0.26,0.851
			c0.257-0.142,0.584-0.242,0.816-0.314l1.41-0.441c0.607-0.188,0.854-0.485,0.73-1.12l0.015-0.01
			c0.456,0.665,0.872,0.665,1.739,0.393C74.653,30.188,74.968,29.94,74.549,28.631"/>
		<path fill="#6D6E71" d="M71.211,35.804l0.074,0.938l-0.547,0.036c-0.455,0.04-0.718,0.229-0.691,0.604
			c0.036,0.492,0.383,0.594,0.831,0.56c0.562-0.041,0.745-0.085,1.642-1.137c0.557-0.638,1.061-1.181,1.983-1.25
			c1.1-0.083,1.62,0.398,1.701,1.42c0.036,0.506-0.108,0.882-0.3,1.123c-0.131,0.164-0.362,0.304-0.837,0.344l-0.641,0.042
			l-0.066-0.873l0.542-0.052c0.385-0.021,0.588-0.2,0.565-0.568c-0.029-0.384-0.262-0.547-0.784-0.507
			c-0.461,0.039-0.735,0.154-1.571,1.085c-0.882,0.991-1.203,1.186-2.015,1.248c-1.059,0.076-1.701-0.293-1.792-1.414
			c-0.061-0.854,0.255-1.476,1.108-1.54L71.211,35.804z"/>
		<polygon fill="#6D6E71" points="76.053,43.666 75.943,44.601 69.198,43.813 69.304,42.885 		"/>
		<polygon fill="#6D6E71" points="74.978,49.593 74.004,52.641 73.249,52.393 73.589,51.326 67.875,49.503 68.162,48.6 
			73.882,50.43 74.223,49.356 		"/>
		<polygon fill="#6D6E71" points="71.936,57.277 71.456,58.086 68.58,57.328 68.573,57.344 70.546,59.618 70.125,60.327 
			67.344,57.155 64.955,55.734 65.443,54.921 67.835,56.342 		"/>
		<path fill="#6D6E71" d="M16.501,67.088l0.76,0.572l-0.339,0.436c-0.265,0.369-0.304,0.689-0.002,0.92
			c0.393,0.305,0.699,0.101,0.964-0.25c0.346-0.453,0.434-0.627,0.237-1.978c-0.118-0.851-0.188-1.59,0.365-2.323
			c0.668-0.887,1.372-0.967,2.189-0.337c0.406,0.3,0.595,0.657,0.653,0.96c0.039,0.218-0.017,0.469-0.307,0.85l-0.381,0.515
			l-0.707-0.535l0.325-0.425c0.226-0.306,0.237-0.586-0.06-0.809c-0.306-0.23-0.576-0.166-0.897,0.254
			c-0.271,0.37-0.367,0.654-0.223,1.9c0.161,1.313,0.101,1.682-0.395,2.332c-0.639,0.852-1.339,1.083-2.231,0.41
			c-0.692-0.514-0.939-1.167-0.429-1.843L16.501,67.088z"/>
		<polygon fill="#6D6E71" points="23.776,66.242 24.601,66.698 21.311,72.631 20.479,72.176 		"/>
		<polygon fill="#6D6E71" points="26.747,67.785 27.963,68.239 27.024,73.915 27.038,73.922 29.019,68.631 29.847,68.944 
			27.47,75.295 26.203,74.821 27.187,69.016 27.171,69.006 25.142,74.428 24.366,74.14 		"/>
		<path fill="#6D6E71" d="M31.713,71.227c0.176-0.936,0.637-1.701,1.895-1.471c0.913,0.174,1.25,0.709,1.111,1.461l-0.12,0.674
			l-0.868-0.168l0.088-0.459c0.074-0.428-0.027-0.723-0.412-0.799c-0.482-0.088-0.638,0.243-0.794,1.04l-0.595,3.276
			c-0.15,0.788,0.073,0.972,0.368,1.024c0.341,0.075,0.608-0.134,0.709-0.681l0.096-0.473l0.864,0.164l-0.137,0.738
			c-0.135,0.709-0.518,1.188-1.589,0.994c-1.162-0.22-1.428-0.904-1.241-1.947L31.713,71.227z"/>
		<polygon fill="#6D6E71" points="37.092,70.253 39.653,70.325 39.632,71.118 38.013,71.072 37.964,73.194 39.489,73.231 
			39.464,74.026 37.938,73.986 37.879,76.284 39.5,76.321 39.481,77.108 36.923,77.041 		"/>
		<path fill="#6D6E71" d="M43.081,71.322h-0.015c-0.161,0.289-0.317,0.48-0.637,0.792l-0.114-0.879
			c0.187-0.18,0.611-0.881,0.691-1.191l0.785-0.11l0.901,6.729l-0.875,0.117L43.081,71.322z"/>
		<path fill="#6D6E71" d="M49.313,72.403c-0.392,0.129-0.559-0.104-0.669-0.449l-0.475-1.501c-0.158-0.509-0.25-0.813,0.236-0.961
			c0.503-0.163,0.619,0.224,0.751,0.647l0.408,1.294C49.745,72.006,49.661,72.299,49.313,72.403 M51.11,73.417l-1.095-3.501
			c-0.355-1.149-0.817-1.383-1.758-1.091c-1.166,0.367-1.298,0.883-0.94,2.045l0.348,1.104c0.286,0.927,0.681,1.506,1.512,1.243
			c0.383-0.115,0.601-0.3,0.725-0.638l0.015-0.005l0.375,1.193c0.162,0.51,0.128,0.85-0.249,0.965
			c-0.356,0.109-0.543-0.037-0.701-0.547l-0.104-0.318l-0.841,0.264l0.18,0.576c0.227,0.709,0.738,1.018,1.688,0.725
			C51.227,75.125,51.475,74.58,51.11,73.417"/>
		<path fill="#6D6E71" d="M53.966,72.006l0.788-0.396l0.275,0.528c0.174,0.347,0.421,0.473,0.764,0.309
			c0.488-0.252,0.23-0.758,0.052-1.107l-0.662-1.289c-0.217-0.425-0.484-0.481-0.741-0.344c-0.281,0.137-0.353,0.449-0.148,0.863
			l0.127,0.238l-0.787,0.4l-1.863-3.636l2.347-1.202l0.337,0.646l-1.564,0.801l0.947,1.851h0.019
			c0.061-0.431,0.262-0.628,0.552-0.78c0.447-0.223,1.072-0.203,1.465,0.569l0.89,1.722c0.375,0.736,0.26,1.395-0.69,1.874
			c-0.828,0.435-1.448,0.241-1.766-0.388L53.966,72.006z"/>
		<path fill="#6D6E71" d="M59.196,69.04l0.714-0.531l0.355,0.482c0.227,0.31,0.492,0.396,0.79,0.167
			c0.449-0.327,0.111-0.781-0.125-1.095l-0.87-1.16c-0.284-0.394-0.565-0.394-0.794-0.223c-0.25,0.191-0.272,0.51,0.008,0.879
			l0.161,0.218l-0.708,0.536l-2.446-3.282l2.106-1.576l0.44,0.588l-1.4,1.053l1.242,1.66l0.016-0.013
			c-0.016-0.424,0.147-0.653,0.419-0.856c0.396-0.293,1.02-0.378,1.533,0.313l1.161,1.544c0.501,0.67,0.501,1.339-0.357,1.972
			c-0.743,0.563-1.39,0.476-1.808-0.089L59.196,69.04z"/>
		<polygon fill="#D71920" points="56.327,18.585 48.235,26.482 56.327,34.376 40.332,34.376 40.332,18.585 		"/>
		<path fill="#FCAF17" d="M39.035,66.238c0,0,5.406-2.331,9.834-4.247s7.252-6.162,7.252-11.632v-13.66H40.332v10.554
			c2.173-0.939,5.685-4.207,6.454-4.956l0.098,0.098c-0.763,0.784-4.137,4.411-5.007,6.574c2.145,0.914,7.096,1.095,8.189,1.108
			v0.139c-1.094,0.015-6.045,0.193-8.189,1.107c0.87,2.163,4.243,5.791,5.007,6.574l-0.098,0.098
			c-0.783-0.764-4.411-4.137-6.574-5.007c-0.914,2.146-1.095,7.095-1.109,8.188h-0.134c-0.015-1.094-0.193-6.043-1.108-8.188
			c-2.163,0.87-5.79,4.243-6.573,5.007l-0.099-0.098c0.765-0.783,4.136-4.411,5.008-6.574c-2.146-0.914-7.097-1.093-8.189-1.107
			v-0.139c1.093-0.014,6.044-0.194,8.188-1.108c-0.87-2.163-4.243-5.79-5.006-6.574l0.098-0.098c0.77,0.749,4.282,4.017,6.457,4.956
			V36.699H21.951v13.66c0,5.47,2.824,9.716,7.252,11.632c4.429,1.916,9.835,4.247,9.835,4.247"/>
		<rect x="21.951" y="18.584" fill="#005BAA" width="15.792" height="15.792"/>
	</g>
</g>
</svg>
