<?xml version="1.0" encoding="utf-8"?>
<!-- Generator: Adobe Illustrator 25.1.0, SVG Export Plug-In . SVG Version: 6.00 Build 0)  -->
<svg version="1.1" id="Capa_1" xmlns="http://www.w3.org/2000/svg" xmlns:xlink="http://www.w3.org/1999/xlink" x="0px" y="0px"
	 viewBox="0 0 960 560" style="enable-background:new 0 0 960 560;" xml:space="preserve">
<style type="text/css">
	.st0{fill:#354652;}
</style>
<path class="st0" d="M200,0v560h560V0H200z M727.2,527.2H232.8V32.8h494.4V527.2z M421.1,198.6h-32L318,385h37.3l17.1-46.5h65.1
	l17.3,46.5H492L421.1,198.6z M378.3,313.1l26.8-73.2l25.7,73.2H378.3z M641.1,315.7c0-47.5-36.7-70.6-71.7-70.6
	c-49,0-72.7,37.8-72.7,71.9c0,38,28.5,70.6,72.5,70.6c41.8,0,59-25.5,64-36l-30.2-8.4c-2.3,5.6-13,18.6-32.5,18.6
	c-30.2,0-36-29-36.5-34.4h106.3C640.7,326.1,641.1,318,641.1,315.7z M533.5,304.7c1.6-20.2,16.9-34.1,35.4-34.1
	c18,0,33.9,12.2,36,34.1H533.5z"/>
</svg>
