<?xml version="1.0" encoding="utf-8"?>
<!-- Generator: Adobe Illustrator 25.1.0, SVG Export Plug-In . SVG Version: 6.00 Build 0)  -->
<svg version="1.1" id="Layer_1" xmlns="http://www.w3.org/2000/svg" xmlns:xlink="http://www.w3.org/1999/xlink" x="0px" y="0px"
	 viewBox="0 0 400 400" style="enable-background:new 0 0 400 400;" xml:space="preserve">
<style type="text/css">
	.st0{display:none;}
	.st1{display:inline;fill:none;stroke:#DDDDDD;stroke-miterlimit:10;}
	.st2{fill:#DEC3E1;}
	.st3{fill:#FEF8E5;}
	.st4{fill:#362862;}
	.st5{fill:none;stroke:#354652;stroke-width:4;stroke-linecap:round;stroke-linejoin:round;stroke-miterlimit:10;}
	.st6{fill:none;stroke:#362862;stroke-width:4;stroke-linecap:round;stroke-linejoin:round;stroke-miterlimit:10;}
	.st7{fill:none;stroke:#362862;stroke-width:3;stroke-linecap:round;stroke-linejoin:round;stroke-miterlimit:10;}
	.st8{fill:none;stroke:#FFFFFF;stroke-width:4;stroke-linecap:round;stroke-linejoin:round;stroke-miterlimit:10;}
</style>
<g id="Layer_3" class="st0">
	<circle class="st1" cx="200" cy="200" r="200"/>
</g>
<path class="st2" d="M204.1,136.1c0,0-2.9,29.6,33.6,39c2.4,0.6,5.1,23.1,5.1,23.1s5.6-9.9,11.7-9.9s11,6.5,11,14.4
	c0,8-10,18.1-16.1,18.1c0,0,0,88.5-32.9,112.8l24.1,4.6c18.3-2.7,23.4-32.7,23.4-32.7l3.2,30c28.3-16.6,6.6-150.2,6.6-150.2
	l-1.6-6.2c8.4-49.7-34.5-69.2-51.4-70.2c-11.8-0.7-16.8,3.3-16.8,3.3s2.6-20.5-17.2-18l11.1,17.2c0,0-2.9-3.5-19-3.3
	c-12.9,0.2-26.8,8.5-37,18.6s-29.2,30.6-24.8,56c0.4,2.1,2.4,9.3,9.5,14.1l2.9,4.8c0,0,10.8,113.7-6.9,129.4l12.6,7.4l13.7,4
	c21.6-4.3,13-88.8,13-88.8l-19-35.3c-1.6-1.5-8-28.2-5.6-33C153.1,154,176,135,176,135s-24.1,22.1-6.8,42.4c4.2,5,33-0.8,33-0.8
	c-4.3-6.7-8.6-29.5,1.2-41.6"/>
<circle class="st3" cx="224.7" cy="226.9" r="13.8"/>
<path class="st4" d="M169.2,211.6c0.1,2.4-1.7,4.5-4.1,4.6l0,0c-2.4,0.1-4.5-1.7-4.6-4.1l-0.6-9.5c-0.1-2.4,1.7-4.5,4.1-4.6l0,0
	c2.4-0.1,4.5,1.7,4.6,4.1L169.2,211.6z"/>
<path class="st2" d="M162.6,211.5v0.8c0.1,1.2,1.1,2.1,2.3,2.1c1.2-0.1,2.1-1.1,2.1-2.3l-0.1-1.2c-0.4-0.2-0.9-0.4-1.5-0.4
	C164.3,210.2,163.3,210.7,162.6,211.5z"/>
<path class="st4" d="M214.5,211.6c0.1,2.4-1.7,4.5-4.1,4.6l0,0c-2.4,0.1-4.5-1.7-4.6-4.1l-0.6-9.5c-0.1-2.4,1.7-4.5,4.1-4.6l0,0
	c2.4-0.1,4.5,1.7,4.6,4.1L214.5,211.6z"/>
<path class="st2" d="M207.4,211.3l0.1,0.9c0.1,1.5,1.3,2.6,2.8,2.5s2.6-1.3,2.5-2.8l-0.1-1.5c-0.5-0.3-1.1-0.5-1.8-0.5
	C209.5,209.8,208.3,210.4,207.4,211.3z"/>
<path class="st5" d="M186.8,136.1"/>
<path class="st6" d="M264.1,305.7c0,0-5.1,30-23.4,32.7"/>
<path class="st3" d="M147.9,218.2c-1.1,0-2.1,0.1-3.2,0.4c-1.6,4.8-2.8,8.7-2.9,9.3c-1.1,6.2,2.8,11.6,9,16
	c5.8-1.3,10.1-6.5,10.1-12.7C161,224.1,155.1,218.2,147.9,218.2z"/>
<g>
	<path class="st6" d="M197.9,111.6c0,0-2.9-3.5-19-3.3c-12.9,0.2-26.8,8.5-37,18.6c-10.2,10.2-29.2,30.6-24.8,56
		c0.4,2.1,2.4,9.3,9.5,14.1"/>
	<path class="st6" d="M176.1,135.1c0,0-14.1,6.6-14.1,24.9c0,15.9,9.6,19,11,19.3"/>
	<path class="st6" d="M186.8,136.1c0,0-4.7,12.1-3.4,23.4c1.5,12.4,8.8,17.9,17.8,17.2"/>
	<path class="st6" d="M204.1,136.1c0,0-2.9,29.6,33.6,39c2.4,0.6,5.1,23.1,5.1,23.1s5.6-9.9,11.7-9.9s11,6.5,11,14.4
		c0,8-10,18.1-16.1,18.1"/>
	<path class="st6" d="M272.3,179.2c8.4-49.7-34.5-69.2-51.4-70.2c-11.8-0.7-16.8,3.3-16.8,3.3s2.6-20.5-17.2-18"/>
	<path class="st6" d="M153.2,154.1c0,0-7.9,21.4-15.8,31.3c-3.3,4.2,4,31.6,5.6,33"/>
	<path class="st6" d="M273.9,185.5c0,0,21.6,133.7-6.6,150.2"/>
	<path class="st6" d="M249.4,220.9c0,0,0,88.5-32.9,112.8"/>
	<path class="st6" d="M129.5,201.9c0,0,10.8,113.7-6.9,129.4"/>
	<path class="st6" d="M162,253.8c0,0,8.5,84.6-13,88.8"/>
	<path class="st6" d="M135.2,338.7c11.2-4.9,10.2-19.1,10.2-19.1"/>
	<path class="st6" d="M169,256.7c0,0-2.9,5.5,0,9.9"/>
	<path class="st6" d="M237.7,242.8c0,0,6.9,3.7,5.1,11c-1.8,7.3,4.3,1.2,4.3,1.2"/>
	<path class="st6" d="M173.8,269.9c0,0,0.2,12.1,18.4,12.1s40.8-17.2,40.8-17.2"/>
	<path class="st6" d="M285,271.3c0,0,22.4,1.8,17.7,51c0,0,5.6,0,5.6,5.6c0,1.5,14.2,24.7,15.1,31.5"/>
	<path class="st6" d="M297.7,325.4c0,0-11.5-3-27.5,22.2"/>
	<path class="st6" d="M249.4,210.7c0,0,2.9-10.6,9.5-8.8"/>
	<g>
		<line class="st6" x1="99.1" y1="61.1" x2="99.1" y2="231.9"/>
		<line class="st6" x1="99.1" y1="5.2" x2="99.1" y2="52.5"/>
		<path class="st6" d="M97.9,266.6c1.7-0.7,3.2-1.8,4.2-3.4c1.7-2.5,1.9-5.6,0.9-8.5c1.2-0.7,2.3-1.6,3.1-2.9
			c3.1-4.6,1.3-11.2-4-14.7s-12.1-2.6-15.2,2c-1.7,2.5-1.9,5.6-0.9,8.5c-1.2,0.7-2.3,1.6-3.1,2.9c-1.7,2.5-1.9,5.6-0.9,8.5
			c-1,0.3-1.8,0.8-2.3,1.6c-2,2.9,0.8,8.2,6.1,11.7c5.3,3.5,11.2,4,13.1,1C100,271.6,99.5,269.1,97.9,266.6z"/>
		<path class="st6" d="M98.2,232.6c-0.6-3.5,6.4-3.3,11.7,0.2c5.3,3.5,9.3,12.7,7.3,15.6"/>
		<path class="st6" d="M117.7,250.1c1.2,2.6,1.7,8.1-3.5,16c-5.3,7.9-13.3,11.8-18,8.7"/>
		<path class="st6" d="M96.5,260"/>
		<path class="st6" d="M82,275.3c0,0-1.1,4.8,2.9,8.7c8.4,8,26.7,5.8,31.5-4.3"/>
		<path class="st6" d="M114.2,266.2c0,0,9,2.7,8.4,9.1c-1.1,11.4,5.1,3.5,1.3,29.6"/>
		<path class="st6" d="M83.5,286.7c0,0-1.7,5.3-1.6,15.3s-7.4,14.5-2.9,26.4c1.2,3.1,4.3,23.6,18.6,23.6c11,0,25-9.1,25-20.8"/>
		<path class="st6" d="M108,245.9c0,0,2.3,2.9,4.5,3.2"/>
	</g>
	<path class="st7" d="M209.3,186.4c0,0,6.2-0.6,8.1,5.3"/>
	<path class="st6" d="M245.5,225.5c0,0-12.6,29.5-59.7,29.5c-16.6,0-46.7-11.2-44-27.1c0.3-1.9,1.3-4.4,1.3-4.4"/>
</g>
<path class="st8" d="M149.3,123.9c0,0,0.5,3.7,6.4,3.7s10.8-8.6,14.5-7.4s1.5,7.4,5.6,6.7c4-0.8,13.4-6.8,13.4-6.8"/>
</svg>
