<?xml version="1.0" encoding="utf-8"?>
<!-- Generator: Adobe Illustrator 25.1.0, SVG Export Plug-In . SVG Version: 6.00 Build 0)  -->
<svg version="1.1" id="Layer_2" xmlns="http://www.w3.org/2000/svg" xmlns:xlink="http://www.w3.org/1999/xlink" x="0px" y="0px"
	 viewBox="0 0 400 400" style="enable-background:new 0 0 400 400;" xml:space="preserve">
<style type="text/css">
	.st0{fill:#DEC3E1;}
	.st1{fill:#5844A0;}
	.st2{fill:none;stroke:#5844A0;stroke-width:4;stroke-linecap:round;stroke-linejoin:round;stroke-miterlimit:10;}
	.st3{fill:none;stroke:#354652;stroke-width:4;stroke-linecap:round;stroke-linejoin:round;stroke-miterlimit:10;}
	.st4{fill:none;stroke:#5844A0;stroke-width:3;stroke-linecap:round;stroke-linejoin:round;stroke-miterlimit:10;}
	.st5{fill:none;stroke:#FFFFFF;stroke-width:4;stroke-linecap:round;stroke-linejoin:round;stroke-miterlimit:10;}
</style>
<path class="st0" d="M204.3,141.3c0,0-3.1,30.8,35,40.6c2.5,0.6,5.3,24.1,5.3,24.1s5.9-10.3,12.2-10.3c6.3,0,11.4,6.7,11.4,15
	s-10.4,18.8-16.8,18.8c0,0,0,92.1-34.2,117.5l25.1,4.8c19-2.8,24.4-34,24.4-34L270,349c29.4-17.3,6.9-156.4,6.9-156.4l-1.7-6.5
	c8.7-51.8-35.9-72.1-53.5-73.1c-12.3-0.7-17.5,3.5-17.5,3.5s2.7-21.4-18-18.7l11.5,17.9c0,0-3-3.7-19.8-3.4
	c-13.4,0.2-27.9,8.8-38.5,19.4s-30.4,31.9-25.8,58.3c0.4,2.2,2.5,9.7,9.9,14.7l3,4.9c0,0,11.2,118.4-7.2,134.7l13.1,7.7l14.3,4.1
	c22.5-4.4,13.6-92.5,13.6-92.5L140.6,227c-1.6-1.5-8.3-29.4-5.8-34.4c16.5-32.6,40.3-52.4,40.3-52.4s-25.1,23-7.1,44.1
	c4.4,5.2,34.3-0.8,34.3-0.8c-4.5-7-8.9-30.7,1.2-43.3"/>
<circle class="st0" cx="225.7" cy="235.8" r="14.3"/>
<path class="st1" d="M168,219.9c0.1,2.5-1.8,4.7-4.3,4.8l0,0c-2.5,0.1-4.7-1.8-4.8-4.3l-0.6-9.9c-0.1-2.5,1.8-4.7,4.3-4.8l0,0
	c2.5-0.1,4.7,1.8,4.8,4.3L168,219.9z"/>
<path class="st0" d="M161,219.7l0,0.8c0.1,1.3,1.2,2.2,2.4,2.1c1.3-0.1,2.2-1.2,2.1-2.4l-0.1-1.3c-0.5-0.2-1-0.4-1.5-0.4
	C162.9,218.5,161.8,218.9,161,219.7z"/>
<path class="st1" d="M215.1,219.9c0.1,2.5-1.8,4.7-4.3,4.8l0,0c-2.5,0.1-4.7-1.8-4.8-4.3l-0.6-9.9c-0.1-2.5,1.8-4.7,4.3-4.8l0,0
	c2.5-0.1,4.7,1.8,4.8,4.3L215.1,219.9z"/>
<path class="st0" d="M207.7,219.5l0.1,0.9c0.1,1.5,1.4,2.7,2.9,2.6c1.5-0.1,2.7-1.4,2.6-2.9l-0.1-1.5c-0.6-0.3-1.2-0.5-1.8-0.5
	C209.9,218,208.6,218.6,207.7,219.5z"/>
<path class="st2" d="M197.8,115.8c0,0-3-3.7-19.8-3.4c-13.4,0.2-27.9,8.8-38.5,19.4s-30.4,31.9-25.8,58.3c0.4,2.2,2.5,9.7,9.9,14.7"
	/>
<path class="st2" d="M175.1,140.2c0,0-14.7,6.9-14.7,25.9c0,16.5,10,19.8,11.4,20"/>
<path class="st3" d="M186.3,141.3"/>
<path class="st2" d="M186.3,141.3c0,0-4.9,12.6-3.6,24.4c1.5,12.9,9.1,18.7,18.5,17.9"/>
<path class="st2" d="M204.3,141.3c0,0-3.1,30.8,35,40.6c2.5,0.6,5.3,24.1,5.3,24.1s5.9-10.3,12.2-10.3c6.3,0,11.4,6.7,11.4,15
	s-10.4,18.8-16.8,18.8"/>
<path class="st2" d="M275.2,186.2c8.7-51.8-35.9-72.1-53.5-73.1c-12.3-0.7-17.5,3.5-17.5,3.5s2.7-21.4-18-18.7"/>
<path class="st2" d="M151.3,160c0,0-8.2,22.3-16.5,32.6c-3.5,4.3,4.2,32.9,5.8,34.4"/>
<path class="st2" d="M276.9,192.6c0,0,22.5,139.2-6.9,156.4"/>
<path class="st2" d="M251.5,229.6c0,0,0,92.1-34.2,117.5"/>
<path class="st2" d="M266.7,317.8c0,0-5.3,31.2-24.4,34"/>
<path class="st2" d="M126.7,209.8c0,0,11.2,118.4-7.2,134.7"/>
<path class="st2" d="M160.4,263.8c0,0,8.9,88-13.6,92.5"/>
<path class="st2" d="M132.6,352.1c11.7-5.1,10.7-19.8,10.7-19.8"/>
<path class="st2" d="M167.8,266.8c0,0-3,5.7,0,10.3"/>
<path class="st2" d="M239.3,252.4c0,0,7.2,3.8,5.3,11.4c-1.9,7.6,4.5,1.3,4.5,1.3"/>
<path class="st2" d="M172.7,280.5c0,0,0.3,12.6,19.2,12.6c18.9,0,42.5-17.9,42.5-17.9"/>
<path class="st2" d="M288.5,282c0,0,23.3,1.9,18.5,53.1c0,0,5.8,0,5.8,5.8c0,1.9,20.8,30.2,12.9,30.2"/>
<path class="st2" d="M301.7,338.4c0,0-11.9-3.1-28.7,23.1"/>
<path class="st2" d="M251.5,218.9c0,0,3.1-11,9.9-9.1"/>
<g>
	<line class="st2" x1="95" y1="48" x2="95" y2="241"/>
	<line class="st2" x1="95" y1="29" x2="95" y2="39"/>
	<path class="st2" d="M93.7,277.1c1.8-0.7,3.3-1.9,4.4-3.5c1.7-2.6,2-5.8,0.9-8.8c1.3-0.7,2.4-1.7,3.3-3c3.2-4.8,1.3-11.7-4.2-15.3
		s-12.6-2.7-15.8,2.1c-1.7,2.6-2,5.8-0.9,8.8c-1.3,0.7-2.4,1.7-3.3,3c-1.7,2.6-2,5.9-0.9,8.9c-1,0.3-1.9,0.9-2.4,1.7
		c-2,3.1,0.8,8.5,6.3,12.2c5.5,3.7,11.6,4.1,13.7,1.1C95.9,282.3,95.4,279.7,93.7,277.1z"/>
	<path class="st2" d="M94.1,241.7c-0.7-3.6,6.6-3.5,12.2,0.2c5.5,3.7,9.6,13.2,7.6,16.3"/>
	<path class="st2" d="M114.4,260c1.3,2.8,1.8,8.5-3.7,16.7c-5.5,8.2-13.8,12.3-18.7,9.1"/>
	<path class="st2" d="M92.3,270.3"/>
	<path class="st2" d="M77.2,286.2c0,0-1.1,5,3,9c8.7,8.4,27.8,6.1,32.8-4.5"/>
	<path class="st2" d="M110.7,276.7c0,0,9.4,2.8,8.8,9.5c-1.1,11.9,5.3,3.7,1.4,30.8"/>
	<path class="st2" d="M78.7,298c0,0-1.8,5.5-1.7,15.9s-7.7,15.1-3,27.5c1.2,3.2,4.5,24.5,19.4,24.5c11.5,0,26-9.5,26-21.7"/>
	<path class="st2" d="M104.2,255.5c0,0,2.4,3,4.7,3.3"/>
</g>
<path class="st4" d="M209.7,193.6c0,0,6.5-0.7,8.5,5.5"/>
<path class="st0" d="M145.8,226.8c-1.1,0-2.2,0.2-3.3,0.4c-1.6,5-2.9,9-3,9.7c-1.1,6.4,2.9,12.1,9.3,16.6c6-1.4,10.6-6.8,10.6-13.2
	C159.4,232.8,153.3,226.8,145.8,226.8z"/>
<path class="st2" d="M247.4,234.4c0,0-13.1,30.7-62.2,30.7c-17.3,0-48.7-11.7-45.8-28.2c0.4-2,1.4-4.6,1.4-4.6"/>
<path class="st5" d="M147.2,128.5c0,0,0.6,3.9,6.7,3.9s11.2-8.9,15.1-7.7s1.6,7.7,5.8,6.9s13.9-7,13.9-7"/>
</svg>
