<?xml version="1.0" encoding="utf-8"?>
<!-- Generator: Adobe Illustrator 25.1.0, SVG Export Plug-In . SVG Version: 6.00 Build 0)  -->
<svg version="1.1" id="Capa_1" xmlns="http://www.w3.org/2000/svg" xmlns:xlink="http://www.w3.org/1999/xlink" x="0px" y="0px"
	 viewBox="0 0 960 560" style="enable-background:new 0 0 960 560;" xml:space="preserve">
<style type="text/css">
	.st0{fill:#354652;}
</style>
<path class="st0" d="M691.9,117.7l-13.1-13.1L587,12.8l0,0l-7.4-7.4c-3.4-3.4-8-5.3-12.8-5.3H286.5c-11.5,0-23.8,8.8-23.8,28.3
	v348.3v159.7v4.5c0,8.1,8.1,16,17.7,18.4c0.5,0.1,1,0.3,1.5,0.4c1.5,0.3,3,0.5,4.6,0.5h386.9c1.5,0,3.1-0.2,4.6-0.5
	c0.5-0.1,1-0.3,1.5-0.4c9.6-2.5,17.7-10.3,17.7-18.4v-4.5V376.6V135C697.2,127.6,696.3,122.1,691.9,117.7z M581.4,34.4l81.4,81.4
	h-81.4V34.4z M286.5,540.7c-0.7,0-1.3-0.2-1.9-0.5c-1.5-0.7-2.6-2.2-2.6-4V395.9h395.9v140.4c0,1.8-1.1,3.3-2.6,4
	c-0.6,0.2-1.2,0.5-1.9,0.5L286.5,540.7L286.5,540.7z M282.1,376.6V28.3c0-2.1,0.3-8.9,4.5-8.9h276.1c-0.3,1.2-0.6,2.5-0.6,3.8v110
	c-5.1-4.6-11.9-7.5-19.3-7.5c-5.3,0-9.7,4.3-9.7,9.7s4.3,9.7,9.7,9.7c5.3,0,9.7,4.3,9.7,9.7v38.6c0,11.6,5.2,21.9,13.3,29
	c-8.1,7.1-13.3,17.4-13.3,29V290c0,5.3-4.3,9.7-9.7,9.7c-5.3,0-9.7,4.3-9.7,9.7c0,5.3,4.3,9.7,9.7,9.7c16,0,29-13,29-29V251
	c0-10.6,8.7-19.3,19.3-19.3c5.3,0,9.7-4.3,9.7-9.7s-4.3-9.7-9.7-9.7c-10.6,0-19.3-8.7-19.3-19.3v-38.6c0-7.4-2.9-14.2-7.5-19.3h110
	c1.3,0,2.6-0.2,3.8-0.6c0,0.1,0,0.2,0,0.3v241.6L282.1,376.6L282.1,376.6z M393.4,443.7c2.3-3,5-5,7.9-6.3c2.9-1.2,6.1-1.8,9.3-1.8
	c2.9,0,5.7,0.6,8.4,1.7c2.7,1.1,5.1,3,7.3,5.5l11-9.8c-3.6-3.5-7.7-6.2-12.3-7.9c-4.6-1.8-9.5-2.6-14.8-2.6c-5.7,0-11,1.1-16,3.2
	c-4.9,2.2-9.2,5.3-12.9,9.4c-3.6,4.1-6.5,9.3-8.6,15.5s-3.1,13.4-3.1,21.6s1,15.4,3.1,21.6s4.9,11.4,8.6,15.6
	c3.6,4.1,7.9,7.3,12.8,9.4c4.9,2.1,10.2,3.2,16,3.2c5.3,0,10.2-0.9,14.8-2.6c4.6-1.8,8.7-4.4,12.3-7.9l-11-9.6
	c-2.3,2.6-4.8,4.4-7.6,5.5c-2.8,1.1-5.7,1.7-8.9,1.7s-6.2-0.7-9-2s-5.4-3.5-7.7-6.5c-2.2-3-4-6.7-5.3-11.4c-1.3-4.7-2-10.3-2-16.9
	c0.1-6.8,0.8-12.5,2.1-17.2C389.3,450.5,391.1,446.6,393.4,443.7z M504.4,473.7c-3-2.2-6.3-4.1-9.8-5.6s-6.8-3.1-9.8-4.8
	s-5.5-3.5-7.5-5.7s-3-5-3-8.5c0-1.4,0.3-2.9,1.1-4.4c0.7-1.5,1.7-2.9,2.9-4.2c1.2-1.2,2.6-2.3,4.2-3.1s3.3-1.3,5-1.5
	c3.2-0.3,5.8-0.3,7.8-0.1s3.6,0.5,4.9,0.9c1.2,0.4,2.2,0.9,2.8,1.3c0.7,0.4,1.3,0.8,1.8,1.1c0.1-0.1,0.3-0.5,0.8-1.3
	c0.4-0.8,1-1.8,1.6-3s1.3-2.5,2-3.8c0.7-1.4,1.3-2.6,1.8-3.8c-2.6-1.7-5.9-2.9-10-3.6s-8.2-1.1-12.3-1.1c-4,0-7.7,0.6-11.3,1.8
	c-3.6,1.2-6.7,3-9.4,5.3c-2.7,2.3-4.8,5.2-6.4,8.5c-1.6,3.4-2.4,7.2-2.4,11.5c0,4.8,1,8.7,3,11.9c2,3.2,4.6,5.9,7.7,8.2
	c3.1,2.3,6.4,4.4,9.9,6.1s6.8,3.4,9.8,5.1s5.6,3.6,7.6,5.7s3,4.7,3,7.7c0,4.9-1.4,8.7-4.3,11.2s-7,3.8-12.3,3.8
	c-1.8,0-3.6-0.2-5.7-0.5c-2-0.3-4-0.8-6.1-1.4c-2-0.6-4-1.2-5.9-1.8c-1.9-0.7-3.4-1.3-4.7-2l-2.8,11.4c1.5,1.3,3.3,2.4,5.3,3.4
	s4.2,1.7,6.5,2.2s4.6,0.9,6.8,1.1c2.2,0.2,4.4,0.3,6.5,0.3c4.9,0,9.3-0.7,13.2-2.2c3.9-1.5,7.1-3.5,9.8-6s4.7-5.4,6.1-8.7
	c1.5-3.3,2.2-6.7,2.2-10.2c0-5.2-1-9.4-3-12.7C510,478.7,507.5,475.9,504.4,473.7z M576,473.7c-3-2.2-6.3-4.1-9.8-5.6
	s-6.8-3.1-9.8-4.8s-5.5-3.5-7.5-5.7s-3-5-3-8.5c0-1.4,0.3-2.9,1.1-4.4c0.7-1.5,1.7-2.9,2.9-4.2c1.2-1.2,2.6-2.3,4.2-3.1
	s3.3-1.3,5-1.5c3.2-0.3,5.8-0.3,7.8-0.1s3.6,0.5,4.9,0.9c1.2,0.4,2.2,0.9,2.8,1.3c0.7,0.4,1.3,0.8,1.8,1.1c0.1-0.1,0.3-0.5,0.8-1.3
	c0.4-0.8,1-1.8,1.6-3s1.3-2.5,2-3.8c0.7-1.4,1.3-2.6,1.8-3.8c-2.6-1.7-5.9-2.9-10-3.6s-8.2-1.1-12.3-1.1c-4,0-7.7,0.6-11.3,1.8
	s-6.7,3-9.4,5.3s-4.8,5.2-6.4,8.5c-1.6,3.4-2.4,7.2-2.4,11.5c0,4.8,1,8.7,3,11.9c2,3.2,4.6,5.9,7.7,8.2c3.1,2.3,6.4,4.4,9.9,6.1
	s6.8,3.4,9.8,5.1s5.6,3.6,7.6,5.7s3,4.7,3,7.7c0,4.9-1.4,8.7-4.3,11.2c-2.9,2.5-7,3.8-12.3,3.8c-1.8,0-3.6-0.2-5.7-0.5
	c-2-0.3-4-0.8-6.1-1.4c-2-0.6-4-1.2-5.9-1.8c-1.9-0.7-3.4-1.3-4.7-2L530,515c1.5,1.3,3.3,2.4,5.3,3.4s4.2,1.7,6.5,2.2
	s4.6,0.9,6.8,1.1c2.2,0.2,4.4,0.3,6.5,0.3c4.9,0,9.3-0.7,13.2-2.2s7.1-3.5,9.8-6s4.7-5.4,6.1-8.7s2.2-6.7,2.2-10.2
	c0-5.2-1-9.4-3-12.7C581.6,478.7,579,475.9,576,473.7z M397.9,193.1v-38.6c0-5.3,4.3-9.7,9.7-9.7c5.3,0,9.7-4.3,9.7-9.7
	s-4.3-9.7-9.7-9.7c-16,0-29,13-29,29V193c0,10.6-8.7,19.3-19.3,19.3c-5.3,0-9.7,4.3-9.7,9.7s4.3,9.7,9.7,9.7
	c10.6,0,19.3,8.7,19.3,19.3v38.6c0,16,13,29,29,29c5.3,0,9.7-4.3,9.7-9.7c0-5.3-4.3-9.7-9.7-9.7c-5.3,0-9.7-4.3-9.7-9.7V251
	c0-11.6-5.2-21.9-13.3-29C392.7,215,397.9,204.7,397.9,193.1z"/>
</svg>
