<?xml version="1.0" encoding="utf-8"?>
<!-- Generator: Adobe Illustrator 25.1.0, SVG Export Plug-In . SVG Version: 6.00 Build 0)  -->
<svg version="1.1" id="pen" xmlns="http://www.w3.org/2000/svg" xmlns:xlink="http://www.w3.org/1999/xlink" x="0px" y="0px"
	 viewBox="0 0 512 512" style="enable-background:new 0 0 512 512;" xml:space="preserve">
<style type="text/css">
	.st0{fill:#354652;}
</style>
<g>
	<path class="st0" d="M468,420.3c-14.3,0-26,11.7-26,26s11.7,26,26,26s26-11.7,26-26S482.3,420.3,468,420.3z M468,455
		c-4.8,0-8.7-3.9-8.7-8.7c0-4.8,3.9-8.7,8.7-8.7c4.8,0,8.7,3.9,8.7,8.7C476.6,451.1,472.7,455,468,455z M285.6,195.5
		c-13.5,13.5-13.5,35.5,0,49c6.8,6.8,15.6,10.1,24.5,10.1s17.8-3.4,24.5-10.1c13.5-13.5,13.5-35.5,0-49
		C321.6,182.4,298.8,182.4,285.6,195.5L285.6,195.5z M427.7,200.6c3.5,1.7,7.3,2.7,11.2,2.7c6.8,0,13.3-2.7,18.1-7.5l31-31
		c3.4-3.4,3.4-8.9,0-12.3c-3.4-3.4-8.9-3.4-12.3,0l-31,31c-3.1,3.1-8.5,3.1-11.6,0l-0.3-0.3L347,97.4l-0.3-0.3
		c-1.6-1.6-2.4-3.6-2.4-5.8c0-2.2,0.9-4.3,2.4-5.8l31-31c3.4-3.4,3.4-8.9,0-12.3s-8.9-3.4-12.3,0l-31,31c-4.8,4.8-7.5,11.3-7.5,18.1
		c0,4,1,7.8,2.7,11.2l-18.4,18.4l-81,38.8c-2.6,1.2-4.4,3.6-4.8,6.4l-8.5,52.6c-6.7,41.7-21.9,80.8-45.2,116l-22.8,34.5
		c-2.3,3.4-1.8,8,1.1,10.9c1.7,1.7,3.9,2.5,6.1,2.5c1.7,0,3.3-0.5,4.8-1.4l33.1-22c35.3-23.4,74.3-38.8,116.1-45.6l53.9-8.8
		c2.8-0.5,5.2-2.3,6.4-4.8l38.8-81L427.7,200.6z M414.4,189.3l-12.3,12.3L328.6,128l12.3-12.3L414.4,189.3z M356.8,288.4l-49.4,8.1
		c-32.1,5.2-62.6,15.3-91.2,29.8l51.1-51.1c3.4-3.4,3.4-8.9,0-12.3s-8.9-3.4-12.3,0l-51.2,51.2c14.9-29,25-60.1,30.3-92.6l7.7-48.1
		l72.8-34.9l77.2,77.2L356.8,288.4z M352.4,450.6c0,5.4-4.4,9.8-9.8,9.8s-9.8-4.4-9.8-9.8s4.4-9.8,9.8-9.8
		C348.1,440.8,352.5,445.2,352.4,450.6z M450.6,281.6v26c0,4.8-3.9,8.7-8.7,8.7c-4.8,0-8.7-3.9-8.7-8.7v-26c0-4.8,3.9-8.7,8.7-8.7
		S450.6,276.8,450.6,281.6z M441.9,377c-4.8,0-8.7-3.9-8.7-8.7v-26c0-4.8,3.9-8.7,8.7-8.7c4.8,0,8.7,3.9,8.7,8.7v26
		C450.6,373.1,446.7,377,441.9,377z M433.3,324.9c0,4.8-3.9,8.7-8.7,8.7h-26c-4.8,0-8.7-3.9-8.7-8.7c0-4.8,3.9-8.7,8.7-8.7h26
		C429.4,316.3,433.3,320.1,433.3,324.9z M485.3,316.3c4.8,0,8.7,3.9,8.7,8.7c0,4.8-3.9,8.7-8.7,8.7h-26c-4.8,0-8.7-3.9-8.7-8.7
		c0-4.8,3.9-8.7,8.7-8.7H485.3z M143.8,387.5c3.8,2.9,4.5,8.4,1.5,12.2c-1.5,1.9-36.7,46.6-75.5,47.2c-0.3,0-0.6,0-0.9,0
		c-15.7,0-29.6-7.1-41.2-21C3,396.3,29.4,344.6,60,284.8c40.7-79.7,86.9-170,21-221.8c-3.8-3-4.4-8.4-1.5-12.2
		c3-3.8,8.4-4.4,12.2-1.5c77.3,60.7,25.5,162-16.1,243.3C49,344.7,23.8,393.9,41.1,414.7c8.4,10.1,17.6,15.2,28.4,14.8
		c30.5-0.5,61.8-40.1,62.1-40.5C134.6,385.2,140,384.5,143.8,387.5L143.8,387.5z"/>
</g>
</svg>
