<?xml version="1.0" encoding="utf-8"?>
<!-- Generator: Adobe Illustrator 25.1.0, SVG Export Plug-In . SVG Version: 6.00 Build 0)  -->
<svg version="1.1" id="Capa_1" xmlns="http://www.w3.org/2000/svg" xmlns:xlink="http://www.w3.org/1999/xlink" x="0px" y="0px"
	 viewBox="0 0 960 560" style="enable-background:new 0 0 960 560;" xml:space="preserve">
<style type="text/css">
	.st0{fill:#354652;}
</style>
<path class="st0" d="M691.9,117.7l-13.1-13.1L587,12.8l0,0l-7.4-7.4c-3.4-3.4-8-5.3-12.8-5.3H286.5c-11.5,0-23.8,8.8-23.8,28.3
	v348.3v159.7v4.5c0,8.1,8.1,16,17.7,18.4c0.5,0.1,1,0.3,1.5,0.4c1.5,0.3,3,0.5,4.6,0.5h386.9c1.5,0,3.1-0.2,4.6-0.5
	c0.5-0.1,1-0.3,1.5-0.4c9.6-2.5,17.7-10.3,17.7-18.4v-4.5V376.6V135C697.2,127.6,696.3,122.1,691.9,117.7z M581.4,34.4l81.4,81.4
	h-81.4V34.4z M286.5,540.7c-0.7,0-1.3-0.2-1.9-0.5c-1.5-0.7-2.6-2.2-2.6-4V395.9h395.9v140.4c0,1.8-1.1,3.3-2.6,4
	c-0.6,0.2-1.2,0.5-1.9,0.5L286.5,540.7L286.5,540.7z M282.1,376.6V28.3c0-2.1,0.3-8.9,4.5-8.9h276.1c-0.3,1.2-0.6,2.5-0.6,3.8v112.1
	h112.1c1.3,0,2.6-0.2,3.8-0.6c0,0.1,0,0.2,0,0.3v241.6H282.1L282.1,376.6z M362.3,466.7h-42.1v-42.6h-16.1v97.3h16.1v-43.8h42.1
	v43.8h15.8v-97.3h-15.8V466.7z M397.3,434.9h29v86.5h16v-86.5h29v-10.8h-74V434.9z M535.3,490.6l-28.9-66.5h-16.1v97.3h16.1v-66.9
	l21.9,54.1h14l21.8-54.1v66.9h16.1v-97.3H564L535.3,490.6z M620.7,424.1h-16.1v97.3h60.9v-12h-44.8L620.7,424.1L620.7,424.1z
	 M433.7,167c-3.8-3.8-9.9-3.8-13.7,0l-57.9,57.9c-3.8,3.8-3.8,9.9,0,13.7l57.9,57.9c1.9,1.9,4.4,2.8,6.8,2.8s4.9-0.9,6.8-2.8
	c3.8-3.8,3.8-9.9,0-13.7l-51.1-51.1l51.1-51.1C437.5,176.8,437.5,170.7,433.7,167z M549.6,167c-3.8-3.8-9.9-3.8-13.7,0
	s-3.8,9.9,0,13.7l51.1,51.1l-51.1,51.1c-3.8,3.8-3.8,9.9,0,13.7c1.9,1.9,4.4,2.8,6.8,2.8s4.9-0.9,6.8-2.8l57.9-57.9
	c3.8-3.8,3.8-9.9,0-13.7L549.6,167z"/>
</svg>
