<?xml version="1.0" encoding="utf-8"?>
<!-- Generator: Adobe Illustrator 25.1.0, SVG Export Plug-In . SVG Version: 6.00 Build 0)  -->
<svg version="1.1" id="Capa_1" xmlns="http://www.w3.org/2000/svg" xmlns:xlink="http://www.w3.org/1999/xlink" x="0px" y="0px"
	 viewBox="0 0 960 560" style="enable-background:new 0 0 960 560;" xml:space="preserve">
<style type="text/css">
	.st0{fill:#354652;}
</style>
<path class="st0" d="M379.7,198.6h36.2V385h-36.2V198.6z M200,0v560h560V0H200z M727.2,527.2H232.8V32.8h494.4V527.2z M584.4,344.6
	V193.4h-35.2v78.2c-4.6-7.9-18.8-26.5-46.5-26.5c-32.6,0-61.4,28.4-61.4,71.1c0,37.7,25,71.4,65.4,71.4c27.6,0,42.7-17.8,47.8-26.5
	c0,0-2.3,25.7,23.1,25.7c3.8,0,8.8-0.6,15-1.8v-29.9C589.6,354.9,584.4,348.3,584.4,344.6z M549.2,334.6
	c-1.2,3.3-11.3,23.1-33.3,23.1c-23.3,0-38.1-20.6-38.1-40.7c0-18.2,12-42,36-42c21.4,0,34,22.9,35.4,26.8L549.2,334.6L549.2,334.6z"
	/>
</svg>
