<?xml version="1.0" encoding="utf-8"?>
<!-- Generator: Adobe Illustrator 25.1.0, SVG Export Plug-In . SVG Version: 6.00 Build 0)  -->
<svg version="1.1" id="Capa_1" xmlns="http://www.w3.org/2000/svg" xmlns:xlink="http://www.w3.org/1999/xlink" x="0px" y="0px"
	 viewBox="0 0 960 560" style="enable-background:new 0 0 960 560;" xml:space="preserve">
<style type="text/css">
	.st0{fill:#354652;}
</style>
<path class="st0" d="M691.9,117.7l-13.1-13.1L587,12.8l0,0l-7.4-7.4c-3.4-3.4-8-5.3-12.8-5.3H286.5c-11.5,0-23.8,8.8-23.8,28.3
	v348.3v159.7v4.5c0,8.1,8.1,16,17.7,18.4c0.5,0.1,1,0.3,1.5,0.4c1.5,0.3,3,0.5,4.6,0.5h386.9c1.5,0,3.1-0.2,4.6-0.5
	c0.5-0.1,1-0.3,1.5-0.4c9.6-2.5,17.7-10.3,17.7-18.4v-4.5V376.6V135C697.2,127.6,696.3,122.1,691.9,117.7z M581.4,34.4l81.4,81.4
	h-81.4V34.4z M286.5,540.7c-0.7,0-1.3-0.2-1.9-0.5c-1.5-0.7-2.6-2.2-2.6-4V395.9h395.9v140.4c0,1.8-1.1,3.3-2.6,4
	c-0.6,0.2-1.2,0.5-1.9,0.5L286.5,540.7L286.5,540.7z M282.1,376.6V28.3c0-2.1,0.3-8.9,4.5-8.9h276.1c-0.3,1.2-0.6,2.5-0.6,3.8v110
	c-5.1-4.6-11.9-7.5-19.3-7.5c-5.3,0-9.7,4.3-9.7,9.7s4.3,9.7,9.7,9.7c5.3,0,9.7,4.3,9.7,9.7v38.6c0,11.6,5.2,21.9,13.3,29
	c-8.1,7.1-13.3,17.4-13.3,29V290c0,5.3-4.3,9.7-9.7,9.7c-5.3,0-9.7,4.3-9.7,9.7c0,5.3,4.3,9.7,9.7,9.7c16,0,29-13,29-29V251
	c0-10.6,8.7-19.3,19.3-19.3c5.3,0,9.7-4.3,9.7-9.7s-4.3-9.7-9.7-9.7c-10.6,0-19.3-8.7-19.3-19.3v-38.6c0-7.4-2.9-14.2-7.5-19.3h110
	c1.3,0,2.6-0.2,3.8-0.6c0,0.1,0,0.2,0,0.3v241.6L282.1,376.6L282.1,376.6z M444.8,496.6c-0.2,4.3-1.6,7.4-4.4,9.2
	c-2.8,1.8-6.5,2.7-11.2,2.7c-1.8,0-3.8-0.2-5.9-0.7c-2.1-0.4-4.1-0.9-6.1-1.5c-1.9-0.6-3.7-1.2-5.3-1.8s-2.9-1.3-3.8-1.9l-6.7,10.7
	c1.8,1.3,3.9,2.5,6.5,3.6c2.5,1.1,5.2,2,8,2.8s5.5,1.4,8.1,1.8c2.6,0.4,4.9,0.6,6.8,0.6c3.9,0,7.6-0.4,11.3-1.1
	c3.6-0.7,6.9-2.1,9.7-4c2.8-1.9,5-4.4,6.7-7.5c1.7-3.1,2.5-7,2.5-11.5v-75.8h-16.1L444.8,496.6L444.8,496.6z M529.1,473.7
	c-3-2.2-6.3-4.1-9.8-5.6s-6.8-3.1-9.8-4.8c-3-1.6-5.5-3.5-7.5-5.7s-3-5-3-8.5c0-1.4,0.3-2.9,1.1-4.4c0.7-1.5,1.7-2.9,2.9-4.2
	c1.2-1.2,2.6-2.3,4.2-3.1c1.6-0.8,3.3-1.3,5-1.5c3.2-0.3,5.8-0.3,7.8-0.1c2,0.2,3.7,0.5,4.9,0.9s2.2,0.9,2.8,1.3s1.3,0.8,1.8,1.1
	c0.1-0.1,0.3-0.5,0.8-1.3c0.4-0.8,1-1.8,1.6-3s1.3-2.5,2-3.8c0.7-1.4,1.3-2.6,1.8-3.8c-2.6-1.7-5.9-2.9-10-3.6s-8.2-1.1-12.3-1.1
	c-4,0-7.7,0.6-11.3,1.8c-3.6,1.2-6.7,3-9.4,5.3c-2.7,2.3-4.8,5.2-6.4,8.5c-1.6,3.4-2.4,7.2-2.4,11.5c0,4.8,1,8.7,3,11.9
	c2,3.2,4.6,5.9,7.7,8.2c3.1,2.3,6.4,4.4,9.9,6.1s6.8,3.4,9.8,5.1s5.6,3.6,7.6,5.7s3,4.7,3,7.7c0,4.9-1.4,8.7-4.3,11.2
	c-2.9,2.5-7,3.8-12.3,3.8c-1.8,0-3.7-0.2-5.7-0.5s-4.1-0.8-6.1-1.4s-4-1.2-5.9-1.8c-1.9-0.7-3.5-1.3-4.7-2l-2.8,11.4
	c1.5,1.3,3.3,2.4,5.4,3.4s4.2,1.7,6.5,2.2s4.6,0.9,6.8,1.1c2.2,0.2,4.4,0.3,6.5,0.3c4.9,0,9.3-0.7,13.2-2.2c3.9-1.5,7.1-3.5,9.8-6
	s4.7-5.4,6.1-8.7c1.5-3.3,2.2-6.7,2.2-10.2c0-5.2-1-9.4-3-12.7C534.6,478.7,532.1,475.9,529.1,473.7z M397.9,193.1v-38.6
	c0-5.3,4.3-9.7,9.7-9.7c5.3,0,9.7-4.3,9.7-9.7s-4.3-9.7-9.7-9.7c-16,0-29,13-29,29V193c0,10.6-8.7,19.3-19.3,19.3
	c-5.3,0-9.7,4.3-9.7,9.7s4.3,9.7,9.7,9.7c10.6,0,19.3,8.7,19.3,19.3v38.6c0,16,13,29,29,29c5.3,0,9.7-4.3,9.7-9.7
	c0-5.3-4.3-9.7-9.7-9.7c-5.3,0-9.7-4.3-9.7-9.7V251c0-11.6-5.2-21.9-13.3-29C392.7,215,397.9,204.7,397.9,193.1z M475.2,173.8
	c8,0,14.5,6.5,14.5,14.5s-6.5,14.5-14.5,14.5s-14.5-6.5-14.5-14.5S467.2,173.8,475.2,173.8z M475.2,241.4c-5.3,0-9.7,4.3-9.7,9.7v29
	c0,5.3,4.3,9.7,9.7,9.7c5.3,0,9.7-4.3,9.7-9.7v-29C484.8,245.7,480.5,241.4,475.2,241.4z"/>
</svg>
