<?xml version="1.0" encoding="utf-8"?>
<!-- Generator: Adobe Illustrator 16.0.0, SVG Export Plug-In . SVG Version: 6.00 Build 0)  -->
<!DOCTYPE svg PUBLIC "-//W3C//DTD SVG 1.1//EN" "http://www.w3.org/Graphics/SVG/1.1/DTD/svg11.dtd">
<svg version="1.1" id="Layer_1" xmlns="http://www.w3.org/2000/svg" xmlns:xlink="http://www.w3.org/1999/xlink" x="0px" y="0px"
	 width="960px" height="356px" viewBox="0 0 960 356" enable-background="new 0 0 960 356" xml:space="preserve">
<g>
	
		<linearGradient id="SVGID_1_" gradientUnits="userSpaceOnUse" x1="275.3994" y1="-89.4395" x2="558.4873" y2="400.8832" gradientTransform="matrix(1 0 0 -1 62.2427 340.248)">
		<stop  offset="0" style="stop-color:#F7E9E4"/>
		<stop  offset="1" style="stop-color:#F6DED4"/>
	</linearGradient>
	<path fill="url(#SVGID_1_)" d="M906.629,357H226.215C196.319,357,172,332.604,172,302.709V178c0-29.896,24.319-54,54.215-54H659
		v-15H58.339C28.444,109,4.208,84.896,4.208,55S28.443,1,58.339,1h654.375C742.609,1,767,24.766,767,54.662V178
		c0,29.896-24.594,53.906-54.488,53.908L280,231.906V248h626.63c29.896,0,54.132,24.604,54.131,54.501
		C960.762,332.396,936.525,357,906.629,357z"/>
</g>
</svg>
