<?xml version="1.0" encoding="utf-8"?>
<!-- Generator: Adobe Illustrator 25.1.0, SVG Export Plug-In . SVG Version: 6.00 Build 0)  -->
<svg version="1.1" id="Layer_1" xmlns="http://www.w3.org/2000/svg" xmlns:xlink="http://www.w3.org/1999/xlink" x="0px" y="0px"
	 viewBox="0 0 960 356" style="enable-background:new 0 0 960 356;" xml:space="preserve">
<style type="text/css">
	.st0{fill:url(#SVGID_1_);}
</style>
<g>
	
		<linearGradient id="SVGID_1_" gradientUnits="userSpaceOnUse" x1="4.2" y1="179" x2="960.7003" y2="179" gradientTransform="matrix(1 0 0 -1 0 358)">
		<stop  offset="0" style="stop-color:#FAF6E9"/>
		<stop  offset="1" style="stop-color:#FDF3C3"/>
	</linearGradient>
	<path class="st0" d="M906.6,357H226.2c-29.9,0-54.2-24.4-54.2-54.3V178c0-29.9,24.3-54,54.2-54H659v-15H58.3
		C28.4,109,4.2,84.9,4.2,55S28.4,1,58.3,1h654.4C742.6,1,767,24.8,767,54.7V178c0,29.9-24.6,53.9-54.5,53.9H280V248h626.6
		c29.9,0,54.1,24.6,54.1,54.5C960.8,332.4,936.5,357,906.6,357z"/>
</g>
</svg>
