<?xml version="1.0" encoding="utf-8"?>
<!-- Generator: Adobe Illustrator 25.1.0, SVG Export Plug-In . SVG Version: 6.00 Build 0)  -->
<svg version="1.1" id="Capa_1" xmlns="http://www.w3.org/2000/svg" xmlns:xlink="http://www.w3.org/1999/xlink" x="0px" y="0px"
	 viewBox="0 0 512 512" style="enable-background:new 0 0 512 512;" xml:space="preserve">
<style type="text/css">
	.st0{fill:#354652;}
</style>
<path id="XMLID_1123_" class="st0" d="M234,243.8c-1,0-1.9,0.1-2.7,0.4l0,0l-28.7,8.2c-5.3,1.5-8.4,7-6.9,12.4
	c1.3,4.4,5.3,7.3,9.6,7.3c0.9,0,1.8-0.1,2.7-0.4l16-4.6v35.4l-124,35.3v-35.4l21.5-6.1c5.3-1.5,8.4-7,6.9-12.4
	c-1.5-5.3-7-8.4-12.4-6.9l-28.7,8.2l0,0c-4.2,1.2-7.3,5-7.3,9.6V422c-8.4-6.3-18.8-10-30-10c-27.6,0-50,22.4-50,50s22.4,50,50,50
	s50-22.4,50-50V358.6l124-35.3V381c-8.4-6.3-18.8-10-30-10c-27.6,0-50,22.4-50,50s22.4,50,50,50s50-22.4,50-50V253.8
	C244,248.3,239.5,243.8,234,243.8L234,243.8z M50,492c-16.5,0-30-13.5-30-30s13.5-30,30-30s30,13.5,30,30S66.5,492,50,492z M194,451
	c-16.5,0-30-13.5-30-30s13.5-30,30-30s30,13.5,30,30S210.5,451,194,451z M508,2c-2.5-1.9-5.8-2.5-8.8-1.6L394.8,30.5
	c-4.3,1.2-7.2,5.2-7.2,9.6v127.2c-8.4-6.3-18.8-10-30-10c-27.6,0-50,22.4-50,50s22.4,50,50,50s50-22.4,50-50V103.8l97.2-28
	c4.3-1.2,7.2-5.2,7.2-9.6V10C512,6.9,510.5,3.9,508,2z M357.6,237.3c-16.5,0-30-13.5-30-30s13.5-30,30-30s30,13.5,30,30
	S374.1,237.3,357.6,237.3z M492,58.7L407.6,83V47.6L492,23.3V58.7z M471.6,348.8l-48.3-7L401.7,298c-1.7-3.4-5.2-5.6-9-5.6
	s-7.3,2.2-9,5.6l-21.6,43.8l-48.3,7c-3.8,0.5-6.9,3.2-8.1,6.8c-1.2,3.6-0.2,7.6,2.5,10.3l34.9,34.1l-8.1,48c-0.6,3.8,0.9,7.5,4,9.8
	c3.1,2.2,7.2,2.5,10.5,0.8l43.2-22.7l43.2,22.7c1.5,0.8,3.1,1.1,4.7,1.1c2.1,0,4.1-0.6,5.9-1.9c3.1-2.2,4.6-6,4-9.8l-8.2-48.1
	l34.9-34.1c2.7-2.7,3.7-6.6,2.5-10.3C478.5,351.9,475.4,349.3,471.6,348.8L471.6,348.8z M424.5,389.2c-2.4,2.3-3.4,5.6-2.9,8.9
	l5.7,33.3l-29.9-15.7c-2.9-1.5-6.4-1.5-9.3,0l-29.9,15.7l5.7-33.3c0.6-3.2-0.5-6.6-2.9-8.9l-24.2-23.6l33.4-4.9
	c3.3-0.5,6.1-2.5,7.5-5.5l15-30.3l15,30.3c1.5,3,4.3,5,7.5,5.5l33.4,4.9L424.5,389.2z M32.6,90.7L26,129.3c-0.6,3.8,0.9,7.5,4,9.8
	c3.1,2.2,7.2,2.5,10.5,0.8l34.7-18.2l34.7,18.2c1.5,0.8,3.1,1.1,4.7,1.1c2.1,0,4.1-0.6,5.9-1.9c3.1-2.2,4.6-6,4-9.8l-6.6-38.6
	l28-27.3c2.7-2.7,3.7-6.6,2.5-10.3s-4.3-6.3-8.1-6.8l-38.8-5.6L84.1,5.6C82.5,2.2,79,0,75.2,0s-7.3,2.2-9,5.6L48.9,40.7l-38.8,5.6
	c-3.8,0.5-6.9,3.2-8.1,6.8s-0.2,7.6,2.5,10.3L32.6,90.7z M57,59.7c3.3-0.5,6.1-2.5,7.5-5.5l10.7-21.7l10.7,21.7c1.5,3,4.3,5,7.5,5.5
	l23.9,3.5L100,80.1c-2.4,2.3-3.4,5.6-2.9,8.9l4.1,23.8l-21.4-11.2c-1.5-0.8-3.1-1.1-4.7-1.1s-3.2,0.4-4.7,1.1L49,112.8L53.1,89
	c0.6-3.2-0.5-6.6-2.9-8.9L33,63.2L57,59.7z M234,86.3c-5.5,0-10,4.5-10,10v10c0,5.5,4.5,10,10,10s10-4.5,10-10v-10
	C244,90.8,239.5,86.3,234,86.3z M234,156.3c-5.5,0-10,4.5-10,10v10c0,5.5,4.5,10,10,10s10-4.5,10-10v-10
	C244,160.8,239.5,156.3,234,156.3z M274,126.3h-10c-5.5,0-10,4.5-10,10s4.5,10,10,10h10c5.5,0,10-4.5,10-10S279.5,126.3,274,126.3z
	 M194,146.3h10c5.5,0,10-4.5,10-10s-4.5-10-10-10h-10c-5.5,0-10,4.5-10,10S188.5,146.3,194,146.3z M162,284.3c2.6,0,5.2-1.1,7.1-2.9
	c1.9-1.9,2.9-4.4,2.9-7.1c0-2.6-1.1-5.2-2.9-7.1c-1.9-1.9-4.4-2.9-7.1-2.9s-5.2,1.1-7.1,2.9c-1.9,1.9-2.9,4.4-2.9,7.1
	c0,2.6,1.1,5.2,2.9,7.1C156.8,283.2,159.4,284.3,162,284.3z"/>
</svg>
