<?xml version="1.0" encoding="utf-8"?>
<!-- Generator: Adobe Illustrator 25.1.0, SVG Export Plug-In . SVG Version: 6.00 Build 0)  -->
<svg version="1.1" id="Layer_1" xmlns="http://www.w3.org/2000/svg" xmlns:xlink="http://www.w3.org/1999/xlink" x="0px" y="0px"
	 viewBox="0 0 410 410" style="enable-background:new 0 0 410 410;" xml:space="preserve">
<style type="text/css">
	.st0{fill:#354652;}
</style>
<path class="st0" d="M241.4,13.9H45.9c-3.5,0-6.4,2.8-6.4,6.4v331.4c0,3.5,2.8,6.4,6.4,6.4h12.7v31.8c0,2.4,1.3,4.5,3.4,5.6
	s4.6,1,6.6-0.4l18.7-12.8L106,395c1.1,0.7,2.3,1.1,3.6,1.1c1,0,2-0.2,3-0.7c2.1-1.1,3.4-3.3,3.4-5.6V358h125.4
	c29.1,0,52.7-23.6,52.7-52.7V66.6C294.1,37.5,270.4,13.9,241.4,13.9z M236.8,58.9c6,5.4,9.6,13.1,9.6,21.4c0,8.4-3.6,16.1-9.6,21.4
	V58.9z M198.6,101.6c-6-5.4-9.5-13-9.5-21.3c0-8.2,3.6-15.9,9.5-21.3V101.6z M52.3,26.6h38.5c4.2,5.1,6.4,11.4,6.4,18
	c0,15.8-12.9,28.6-28.7,28.6c-5.8,0-11.5-1.8-16.3-5.1L52.3,26.6L52.3,26.6z M52.3,229.1c4-2.1,8.5-3.2,13.1-3.2
	c15.8,0,28.7,12.9,28.7,28.6c0,15.8-12.9,28.7-28.7,28.7c-4.6,0-9-1.1-13.1-3.2L52.3,229.1L52.3,229.1z M52.3,293.8
	c4.2,1.4,8.6,2.1,13.1,2.1c22.8,0,41.4-18.6,41.4-41.4s-18.6-41.4-41.4-41.4c-4.5,0-8.9,0.7-13.1,2.1V82.6C57.4,84.8,63,86,68.6,86
	C91.4,86,110,67.4,110,44.6c0-6.3-1.4-12.5-4.2-18h92.8v17.1c-13.5,7.1-22.2,21.3-22.2,36.6c0,15.5,8.5,29.5,22.2,36.7v55.1
	c-6.2-15.1-21-25.7-38.3-25.7c-22.8,0-41.4,18.6-41.4,41.4s18.6,41.4,41.4,41.4c17.3,0,32.1-10.6,38.3-25.7v141.9h-6.8
	c-3.2-18.8-20.3-33.2-40.8-33.2s-37.6,14.4-40.8,33.2H52.3V293.8z M189,187.7c0,15.8-12.9,28.6-28.6,28.6
	c-15.8,0-28.6-12.9-28.6-28.6c0-15.8,12.9-28.7,28.6-28.7C176.1,159.1,189,171.9,189,187.7z M103.2,377.7l-12.3-8.4
	c-1.1-0.7-2.3-1.1-3.6-1.1c-1.3,0-2.5,0.4-3.6,1.1l-12.3,8.4V358h31.8V377.7z M123.1,345.2c3.1-11.8,14.4-20.5,27.8-20.5
	c13.5,0,24.8,8.7,27.8,20.5H123.1z M211.4,345.2V27.1h12.7v20.6v0.2v297.3L211.4,345.2L211.4,345.2z M241.4,345.2h-4.6v-61.4
	c5.9,15.7,21,26.9,38.8,26.9c1.8,0,3.6-0.2,5.5-0.4C278.5,330,261.7,345.2,241.4,345.2z M281.4,297.4c-18.1,4-34.4-10.3-34.4-28
	c0-15.8,12.9-28.6,28.6-28.6c1.9,0,3.8,0.2,5.8,0.6V297.4L281.4,297.4z M281.4,228.5c-1.9-0.3-3.9-0.5-5.8-0.5
	c-17.7,0-32.9,11.2-38.8,26.9V117c13.8-7.2,22.4-21.2,22.4-36.7s-8.8-29.7-22.4-36.7v-17h4.6c22,0,40,17.9,40,40L281.4,228.5
	L281.4,228.5z M348.2,27.1c-12.3,0-22.3,10-22.3,22.3v236.7c0,0.6,0.1,1.1,0.2,1.7l0.5,1.9c0.8,2.8,3.3,4.7,6.1,4.7h30.8
	c2.9,0,5.4-1.9,6.1-4.7l0.5-1.9c0.1-0.5,0.2-1.1,0.2-1.6V49.4C370.4,37.1,360.4,27.1,348.2,27.1z M357.7,281.6h-19.1V49.4
	c0-5.3,4.3-9.5,9.5-9.5c5.3,0,9.5,4.3,9.5,9.5L357.7,281.6L357.7,281.6z"/>
</svg>
