<?xml version="1.0" encoding="utf-8"?>
<!-- Generator: Adobe Illustrator 25.1.0, SVG Export Plug-In . SVG Version: 6.00 Build 0)  -->
<svg version="1.1" id="Capa_1" xmlns="http://www.w3.org/2000/svg" xmlns:xlink="http://www.w3.org/1999/xlink" x="0px" y="0px"
	 viewBox="0 0 960 560" style="enable-background:new 0 0 960 560;" xml:space="preserve">
<style type="text/css">
	.st0{fill:#354652;}
</style>
<path class="st0" d="M200,0v560h560V0H200z M727.2,527.2H232.8V32.8h494.4V527.2z M433.1,198.6h-79V385h36.2v-62.5h44.1
	c32.3,0,58-28.1,58-62C492.4,231.9,469.2,198.6,433.1,198.6z M432.3,290.8h-42v-60.4h40.4c15.4,0,24.9,14.4,24.9,30.2
	C455.7,278.9,445,290.8,432.3,290.8z M568.5,302.6c-5.1-1.2-27-4.8-27-17.3c0-10,8.2-15.5,21-15.5c17.3,0,32.9,10,39.9,15.2
	l14.2-21.3c-7.5-6.6-23.6-18.9-53.8-18.9c-28.7,0-54.1,16.3-54.1,45.4c0,30.2,40.2,35.9,49.1,38.3c10.7,3,30.2,6.8,30.2,18.6
	c0,9.6-9.2,15.2-22.6,15.2c-20.6,0-39.9-12.2-48.3-18.1l-13.1,22c7.9,6.8,30.5,21.3,62.2,21.3c17.1,0,55.6-5.4,55.6-43.6
	C621.8,311.7,578,305,568.5,302.6z"/>
</svg>
