<?xml version="1.0" encoding="utf-8"?>
<!-- Generator: Adobe Illustrator 25.1.0, SVG Export Plug-In . SVG Version: 6.00 Build 0)  -->
<svg version="1.1" id="Capa_1" xmlns="http://www.w3.org/2000/svg" xmlns:xlink="http://www.w3.org/1999/xlink" x="0px" y="0px"
	 viewBox="0 0 960 560" style="enable-background:new 0 0 960 560;" xml:space="preserve">
<style type="text/css">
	.st0{fill:#354652;}
</style>
<path class="st0" d="M200,0v560h560V0H200z M727.2,527.2H232.8V32.8h494.4V527.2z M450.7,198.6h-79V385h36.2v-62.5H452
	c32.3,0,58-28.1,58-62C510,231.9,486.8,198.6,450.7,198.6z M449.9,290.8h-42v-60.4h40.4c15.4,0,24.9,14.4,24.9,30.2
	C473.2,278.9,462.6,290.8,449.9,290.8z M613.7,277.9v-32c-31.8-3.3-47.2,26.3-49.6,31v-29.4h-32.3V385H567v-83.2
	C570.6,293.9,582.7,277.9,613.7,277.9L613.7,277.9z"/>
</svg>
