<?xml version="1.0" encoding="utf-8"?>
<!-- Generator: Adobe Illustrator 16.0.0, SVG Export Plug-In . SVG Version: 6.00 Build 0)  -->
<!DOCTYPE svg PUBLIC "-//W3C//DTD SVG 1.1//EN" "http://www.w3.org/Graphics/SVG/1.1/DTD/svg11.dtd">
<svg version="1.1" xmlns="http://www.w3.org/2000/svg" xmlns:xlink="http://www.w3.org/1999/xlink" x="0px" y="0px" width="400px"
	 height="400px" viewBox="0 0 400 400" enable-background="new 0 0 400 400" xml:space="preserve">
<g id="Layer_3" display="none">
	<circle display="inline" fill="none" stroke="#DDDDDD" stroke-miterlimit="10" cx="200" cy="200" r="200"/>
</g>
<g id="Layer_2">
	<circle fill="#FFE59D" cx="225.093" cy="225.886" r="14.334"/>
	<g>
		<path fill="#354652" d="M161.604,212.222c0.31,2.502-1.469,4.783-3.971,5.093l0,0c-2.503,0.31-4.784-1.468-5.093-3.971
			l-1.215-9.82c-0.31-2.502,1.468-4.783,3.971-5.093l0,0c2.503-0.31,4.784,1.468,5.094,3.972L161.604,212.222z"/>
		<path fill="#FDD28B" d="M153.615,212.165l0.141,1.134c0.225,1.819,1.883,3.112,3.703,2.887c1.819-0.225,3.112-1.883,2.887-3.702
			l-0.229-1.849c-0.687-0.309-1.446-0.484-2.248-0.484C156.155,210.151,154.625,210.937,153.615,212.165z"/>
	</g>
	<g>
		<path fill="#354652" d="M208.794,212.222c0.31,2.502-1.468,4.783-3.971,5.093l0,0c-2.503,0.31-4.783-1.468-5.093-3.971
			l-1.215-9.82c-0.31-2.502,1.468-4.783,3.971-5.093l0,0c2.503-0.31,4.783,1.468,5.093,3.972L208.794,212.222z"/>
		<path fill="#FDD28B" d="M200.805,212.165l0.141,1.134c0.225,1.819,1.883,3.112,3.703,2.887c1.819-0.225,3.112-1.883,2.887-3.702
			l-0.229-1.849c-0.687-0.309-1.446-0.484-2.247-0.484C203.345,210.151,201.814,210.937,200.805,212.165z"/>
	</g>
	<path fill="none" stroke="#354652" stroke-width="4" stroke-linecap="round" stroke-linejoin="round" stroke-miterlimit="10" d="
		M197.185,105.881c0,0-3.046-3.664-19.79-3.425c-13.383,0.19-27.94,8.81-38.539,19.409c-10.599,10.599-30.432,31.901-25.777,58.349
		c0.381,2.162,2.477,9.66,9.895,14.72"/>
	<path fill="none" stroke="#354652" stroke-width="4" stroke-linecap="round" stroke-linejoin="round" stroke-miterlimit="10" d="
		M174.478,130.364c0,0-14.715,6.85-14.715,25.878c0,16.519,9.958,19.802,11.417,20.043"/>
	<path fill="none" stroke="#354652" stroke-width="4" stroke-linecap="round" stroke-linejoin="round" stroke-miterlimit="10" d="
		M185.641,131.378"/>
	<path fill="none" stroke="#354652" stroke-width="4" stroke-linecap="round" stroke-linejoin="round" stroke-miterlimit="10" d="
		M185.641,131.378c0,0-4.931,12.635-3.552,24.356c1.522,12.939,9.135,18.674,18.513,17.861"/>
	<path fill="none" stroke="#354652" stroke-width="4" stroke-linecap="round" stroke-linejoin="round" stroke-miterlimit="10" d="
		M203.655,131.378c0,0-3.052,30.826,35.012,40.594c2.53,0.649,5.328,24.102,5.328,24.102s5.85-10.275,12.163-10.275
		c6.314,0,11.432,6.729,11.432,15.032s-10.446,18.838-16.76,18.838"/>
	<path fill="none" stroke="#354652" stroke-width="4" stroke-linecap="round" stroke-linejoin="round" stroke-miterlimit="10" d="
		M274.609,176.286c8.711-51.757-35.943-72.054-53.478-73.072c-12.322-0.715-17.536,3.48-17.536,3.48s2.722-21.363-17.955-18.699"/>
	<path fill="none" stroke="#354652" stroke-width="4" stroke-linecap="round" stroke-linejoin="round" stroke-miterlimit="10" d="
		M150.629,150.153c0,0-8.246,22.327-16.491,32.602c-3.482,4.339,4.211,32.855,5.835,34.377"/>
	<path fill="none" stroke="#354652" stroke-width="4" stroke-linecap="round" stroke-linejoin="round" stroke-miterlimit="10" d="
		M276.29,182.755c0,0,22.506,139.161-6.924,156.413"/>
	<path fill="none" stroke="#354652" stroke-width="4" stroke-linecap="round" stroke-linejoin="round" stroke-miterlimit="10" d="
		M250.83,219.67c0,0,0.015,92.097-34.236,117.468"/>
	<path fill="none" stroke="#354652" stroke-width="4" stroke-linecap="round" stroke-linejoin="round" stroke-miterlimit="10" d="
		M266.067,307.961c0,0-5.328,31.207-24.357,33.998"/>
	<path fill="none" stroke="#354652" stroke-width="4" stroke-linecap="round" stroke-linejoin="round" stroke-miterlimit="10" d="
		M126.019,199.88c0,0,11.237,118.356-7.231,134.72"/>
	<path fill="none" stroke="#354652" stroke-width="4" stroke-linecap="round" stroke-linejoin="round" stroke-miterlimit="10" d="
		M159.763,253.921c0,0,8.88,88.038-13.574,92.478"/>
	<path fill="none" stroke="#354652" stroke-width="4" stroke-linecap="round" stroke-linejoin="round" stroke-miterlimit="10" d="
		M142.571,322.423c0,0,1.002,14.715-10.653,19.844"/>
	<path fill="none" stroke="#354652" stroke-width="4" stroke-linecap="round" stroke-linejoin="round" stroke-miterlimit="10" d="
		M167.12,256.965c0,0-3.044,5.708,0,10.275"/>
	<path fill="none" stroke="#354652" stroke-width="4" stroke-linecap="round" stroke-linejoin="round" stroke-miterlimit="10" d="
		M238.667,242.504c0,0,7.231,3.806,5.328,11.417s4.476,1.269,4.476,1.269"/>
	<path fill="none" stroke="#354652" stroke-width="4" stroke-linecap="round" stroke-linejoin="round" stroke-miterlimit="10" d="
		M172.067,270.666c0,0,0.257,12.559,19.157,12.559c18.899,0,42.487-17.887,42.487-17.887"/>
	<path fill="none" stroke="#354652" stroke-width="4" stroke-linecap="round" stroke-linejoin="round" stroke-miterlimit="10" d="
		M287.854,272.153c0,0,23.293,1.913,18.456,53.062c0,0,5.806-0.017,5.806,5.818c0,1.902,20.786,30.207,12.94,30.207"/>
	<path fill="none" stroke="#354652" stroke-width="4" stroke-linecap="round" stroke-linejoin="round" stroke-miterlimit="10" d="
		M301.08,328.512c0,0-11.934-3.121-28.679,23.11"/>
	<path fill="none" stroke="#354652" stroke-width="4" stroke-linecap="round" stroke-linejoin="round" stroke-miterlimit="10" d="
		M250.83,209.014c0,0,3.059-11.037,9.91-9.134"/>
	<g>
		
			<line fill="none" stroke="#354652" stroke-width="4" stroke-linecap="round" stroke-linejoin="round" stroke-miterlimit="10" x1="94" y1="38" x2="94" y2="231"/>
		
			<line fill="none" stroke="#354652" stroke-width="4" stroke-linecap="round" stroke-linejoin="round" stroke-miterlimit="10" x1="94" y1="19" x2="94" y2="29"/>
		<path fill="none" stroke="#354652" stroke-width="4" stroke-linecap="round" stroke-linejoin="round" stroke-miterlimit="10" d="
			M93.025,267.224c1.763-0.713,3.298-1.889,4.381-3.522c1.739-2.621,1.963-5.848,0.927-8.837c1.292-0.719,2.419-1.715,3.268-2.995
			c3.194-4.816,1.312-11.688-4.205-15.348c-5.517-3.66-12.58-2.721-15.775,2.095c-1.738,2.621-1.962,5.848-0.927,8.837
			c-1.292,0.719-2.419,1.715-3.268,2.995c-1.743,2.627-1.965,5.867-0.919,8.863c-1.042,0.319-1.889,0.877-2.434,1.699
			c-2.033,3.065,0.791,8.518,6.309,12.177c5.517,3.66,11.638,4.142,13.671,1.077C95.25,272.461,94.753,269.83,93.025,267.224z"/>
		<path fill="none" stroke="#354652" stroke-width="4" stroke-linecap="round" stroke-linejoin="round" stroke-miterlimit="10" d="
			M93.427,231.834c-0.664-3.617,6.649-3.486,12.167,0.173c5.518,3.66,9.634,13.209,7.601,16.274"/>
		<path fill="none" stroke="#354652" stroke-width="4" stroke-linecap="round" stroke-linejoin="round" stroke-miterlimit="10" d="
			M113.722,250.103c1.275,2.759,1.783,8.462-3.684,16.703c-5.466,8.241-13.85,12.3-18.726,9.067"/>
		<path fill="none" stroke="#354652" stroke-width="4" stroke-linecap="round" stroke-linejoin="round" stroke-miterlimit="10" d="
			M91.622,260.422"/>
		<path fill="none" stroke="#354652" stroke-width="4" stroke-linecap="round" stroke-linejoin="round" stroke-miterlimit="10" d="
			M76.545,276.281c0,0-1.14,4.995,3.044,9.024c8.695,8.372,27.781,6.089,32.794-4.512"/>
		<path fill="none" stroke="#354652" stroke-width="4" stroke-linecap="round" stroke-linejoin="round" stroke-miterlimit="10" d="
			M110.039,266.806c0,0,9.392,2.8,8.75,9.476c-1.142,11.879,5.309,3.696,1.396,30.844"/>
		<path fill="none" stroke="#354652" stroke-width="4" stroke-linecap="round" stroke-linejoin="round" stroke-miterlimit="10" d="
			M78.068,288.16c0,0-1.806,5.518-1.664,15.92s-7.688,15.099-2.99,27.464c1.229,3.235,4.512,24.547,19.354,24.547
			c11.474,0,26.021-9.514,26.021-21.692"/>
		<path fill="none" stroke="#354652" stroke-width="4" stroke-linecap="round" stroke-linejoin="round" stroke-miterlimit="10" d="
			M103.553,245.667c0,0,2.422,2.977,4.706,3.294"/>
	</g>
	<path fill="none" stroke="#354652" stroke-width="3" stroke-linecap="round" stroke-linejoin="round" stroke-miterlimit="10" d="
		M200.089,183.758c0,0,6.474-0.672,8.464,5.525"/>
	<path fill="none" stroke="#000000" stroke-width="4" stroke-linecap="round" stroke-linejoin="round" stroke-miterlimit="10" d="
		M516.5-525.5c0,0-4.002-4.813-26-4.5c-17.584,0.25-36.709,11.575-50.634,25.5S399.883-462.588,406-427.84
		c0.5,2.84,3.254,12.692,13,19.34"/>
	<path fill="none" stroke="#000000" stroke-width="4" stroke-linecap="round" stroke-linejoin="round" stroke-miterlimit="10" d="
		M486.667-493.333c0,0-19.333,9-19.333,34c0,21.703,13.083,26.018,15,26.333"/>
	<path fill="none" stroke="#000000" stroke-width="4" stroke-linecap="round" stroke-linejoin="round" stroke-miterlimit="10" d="
		M501.334-492"/>
	<path fill="none" stroke="#000000" stroke-width="4" stroke-linecap="round" stroke-linejoin="round" stroke-miterlimit="10" d="
		M501.334-492c0,0-6.479,16.601-4.667,32c2,17,12.002,24.534,24.323,23.466"/>
	<path fill="none" stroke="#000000" stroke-width="4" stroke-linecap="round" stroke-linejoin="round" stroke-miterlimit="10" d="
		M525-492c0,0-4.01,40.5,46,53.333c3.324,0.853,7,31.667,7,31.667s7.686-13.5,15.98-13.5S609-411.658,609-400.75
		S595.275-376,586.98-376"/>
	<path fill="none" stroke="#000000" stroke-width="4" stroke-linecap="round" stroke-linejoin="round" stroke-miterlimit="10" d="
		M618.223-433c11.444-68-47.223-94.667-70.261-96.004c-16.189-0.94-23.038,4.572-23.038,4.572S528.5-552.5,501.334-549"/>
	<path fill="none" stroke="#000000" stroke-width="4" stroke-linecap="round" stroke-linejoin="round" stroke-miterlimit="10" d="
		M455.334-467.333c0,0-10.834,29.333-21.667,42.833c-4.574,5.701,5.532,43.167,7.667,45.167"/>
	<path fill="none" stroke="#000000" stroke-width="4" stroke-linecap="round" stroke-linejoin="round" stroke-miterlimit="10" d="
		M620.431-424.5c0,0,29.569,182.834-9.097,205.5"/>
	<path fill="none" stroke="#000000" stroke-width="4" stroke-linecap="round" stroke-linejoin="round" stroke-miterlimit="10" d="
		M586.98-376c0,0,0.02,121-44.98,154.333"/>
	<path fill="none" stroke="#000000" stroke-width="4" stroke-linecap="round" stroke-linejoin="round" stroke-miterlimit="10" d="
		M607-260c0,0-7,41-32.001,44.667"/>
	<path fill="none" stroke="#000000" stroke-width="4" stroke-linecap="round" stroke-linejoin="round" stroke-miterlimit="10" d="
		M581.667-369.667c0,0-17.177,40.333-81.667,40.333c-22.666,0-63.931-15.33-60.134-37c0.468-2.667,1.8-6,1.8-6"/>
	<path fill="none" stroke="#000000" stroke-width="4" stroke-linecap="round" stroke-linejoin="round" stroke-miterlimit="10" d="
		M423-402c0,0,14.764,155.5-9.5,177"/>
	<path fill="none" stroke="#000000" stroke-width="4" stroke-linecap="round" stroke-linejoin="round" stroke-miterlimit="10" d="
		M467.334-331c0,0,11.666,115.667-17.834,121.5"/>
	<path fill="none" stroke="#000000" stroke-width="4" stroke-linecap="round" stroke-linejoin="round" stroke-miterlimit="10" d="
		M444.747-241c0,0,1.315,19.333-13.997,26.071"/>
	<path fill="none" stroke="#000000" stroke-width="4" stroke-linecap="round" stroke-linejoin="round" stroke-miterlimit="10" d="
		M477-327c0,0-4,7.5,0,13.5"/>
	<path fill="none" stroke="#000000" stroke-width="4" stroke-linecap="round" stroke-linejoin="round" stroke-miterlimit="10" d="
		M571-346c0,0,9.5,5,7,15s5.881,1.667,5.881,1.667"/>
	<path fill="none" stroke="#000000" stroke-width="4" stroke-linecap="round" stroke-linejoin="round" stroke-miterlimit="10" d="
		M483.5-309c0,0,0.338,16.5,25.169,16.5S564.49-316,564.49-316"/>
	<path fill="none" stroke="#000000" stroke-width="4" stroke-linecap="round" stroke-linejoin="round" stroke-miterlimit="10" d="
		M635.623-307.046c0,0,30.604,2.513,24.248,69.714c0,0,7.628-0.021,7.628,7.645c0,2.5,27.309,39.688,17.001,39.688
		c-42.5,0-267.5,0-267.5,0"/>
	<path fill="none" stroke="#000000" stroke-width="4" stroke-linecap="round" stroke-linejoin="round" stroke-miterlimit="10" d="
		M653-233c0,0-15.68-4.102-37.68,30.363"/>
	<path fill="none" stroke="#000000" stroke-width="4" stroke-linecap="round" stroke-linejoin="round" stroke-miterlimit="10" d="
		M586.98-390c0,0,4.02-14.5,13.02-12"/>
	<g>
		
			<line fill="none" stroke="#000000" stroke-width="4" stroke-linecap="round" stroke-linejoin="round" stroke-miterlimit="10" x1="381" y1="-518" x2="381" y2="-346"/>
		
			<line fill="none" stroke="#000000" stroke-width="4" stroke-linecap="round" stroke-linejoin="round" stroke-miterlimit="10" x1="381" y1="-543" x2="381" y2="-530"/>
		<path fill="none" stroke="#000000" stroke-width="4" stroke-linecap="round" stroke-linejoin="round" stroke-miterlimit="10" d="
			M379.651-297.756c2.316-0.938,4.333-2.482,5.756-4.628c2.284-3.443,2.579-7.684,1.218-11.61c1.698-0.944,3.179-2.254,4.293-3.935
			c4.197-6.327,1.725-15.356-5.524-20.164c-7.249-4.809-16.528-3.575-20.726,2.752c-2.283,3.443-2.578,7.684-1.218,11.61
			c-1.698,0.944-3.179,2.254-4.293,3.935c-2.29,3.452-2.582,7.708-1.207,11.645c-1.37,0.419-2.481,1.153-3.198,2.232
			c-2.672,4.027,1.039,11.19,8.288,15.998c7.249,4.809,15.291,5.441,17.962,1.415C382.574-290.876,381.922-294.333,379.651-297.756z
			"/>
		<path fill="none" stroke="#000000" stroke-width="4" stroke-linecap="round" stroke-linejoin="round" stroke-miterlimit="10" d="
			M380.18-344.252c-0.873-4.752,8.736-4.58,15.984,0.228c7.249,4.809,12.657,17.355,9.986,21.382"/>
		<path fill="none" stroke="#000000" stroke-width="4" stroke-linecap="round" stroke-linejoin="round" stroke-miterlimit="10" d="
			M406.844-320.25c1.676,3.625,2.343,11.117-4.84,21.944c-7.182,10.827-18.196,16.16-24.602,11.912"/>
		<path fill="none" stroke="#000000" stroke-width="4" stroke-linecap="round" stroke-linejoin="round" stroke-miterlimit="10" d="
			M377.809-306.692"/>
		<path fill="none" stroke="#000000" stroke-width="4" stroke-linecap="round" stroke-linejoin="round" stroke-miterlimit="10" d="
			M358-285.855c0,0-1.498,6.562,4,11.855c11.424,11,36.5,8,43.086-5.928"/>
		<path fill="none" stroke="#000000" stroke-width="4" stroke-linecap="round" stroke-linejoin="round" stroke-miterlimit="10" d="
			M402.004-298.306c0,0,12.34,3.679,11.496,12.45c-1.5,15.605,6.975,4.855,1.834,40.522"/>
		<path fill="none" stroke="#000000" stroke-width="4" stroke-linecap="round" stroke-linejoin="round" stroke-miterlimit="10" d="
			M360-270.25c0,0-2.372,7.25-2.186,20.917c0.186,13.667-10.102,19.837-3.93,36.083C355.5-209,359.813-181,379.313-181
			c15.075,0,34.188-12.5,34.188-28.5"/>
		<path fill="none" stroke="#000000" stroke-width="4" stroke-linecap="round" stroke-linejoin="round" stroke-miterlimit="10" d="
			M393.484-326.078c0,0,3.182,3.911,6.182,4.328"/>
	</g>
	<path fill="none" stroke="#000000" stroke-width="3" stroke-linecap="round" stroke-linejoin="round" stroke-miterlimit="10" d="
		M520.315-423.182c0,0,8.506-0.882,11.12,7.259"/>
	
		<line fill="none" stroke="#666666" stroke-width="3" stroke-linecap="round" stroke-linejoin="round" stroke-miterlimit="10" x1="540.119" y1="-372.528" x2="547.881" y2="-374.472"/>
	
		<line fill="none" stroke="#666666" stroke-width="3" stroke-linecap="round" stroke-linejoin="round" stroke-miterlimit="10" x1="540.119" y1="-366.528" x2="547.881" y2="-368.472"/>
	
		<line fill="none" stroke="#666666" stroke-width="3" stroke-linecap="round" stroke-linejoin="round" stroke-miterlimit="10" x1="447.119" y1="-370.528" x2="454.881" y2="-372.472"/>
	
		<line fill="none" stroke="#666666" stroke-width="3" stroke-linecap="round" stroke-linejoin="round" stroke-miterlimit="10" x1="447.119" y1="-364.528" x2="454.881" y2="-366.472"/>
	<path fill="none" stroke="#000000" stroke-width="4" stroke-linecap="round" stroke-linejoin="round" stroke-miterlimit="10" d="
		M454.334-391.25c0,0,0.313,8.24,8.239,8.24s7.927-8.24,7.927-8.24"/>
	<path fill="none" stroke="#000000" stroke-width="4" stroke-linecap="round" stroke-linejoin="round" stroke-miterlimit="10" d="
		M517.334-391.25c0,0,0.313,8.24,8.239,8.24s7.927-8.24,7.927-8.24"/>
	<g>
		<path fill="#FFE59D" d="M145.174,216.88c-1.137,0-2.234,0.154-3.29,0.417c-1.629,5.006-2.907,9.037-3.028,9.73
			c-1.124,6.414,2.94,12.097,9.339,16.649c6.04-1.375,10.552-6.768,10.552-13.224C158.748,222.957,152.67,216.88,145.174,216.88z"/>
	</g>
	<path fill="none" stroke="#354652" stroke-width="4" stroke-linecap="round" stroke-linejoin="round" stroke-miterlimit="10" d="
		M246.786,224.491c0,0-13.074,30.699-62.159,30.699c-17.252,0-48.66-11.668-45.77-28.162c0.356-2.03,1.37-4.567,1.37-4.567"/>
	<circle fill="#FFE59D" cx="141.167" cy="-294.833" r="18.833"/>
	<g>
		<path fill="#333333" d="M57.753-312.786c0.407,3.288-1.929,6.284-5.217,6.691l0,0c-3.289,0.407-6.285-1.929-6.692-5.218
			l-1.597-12.901c-0.407-3.288,1.929-6.284,5.217-6.691l0,0c3.289-0.407,6.285,1.929,6.692,5.218L57.753-312.786z"/>
		<path fill="#FDD28B" d="M47.256-312.86l0.185,1.49c0.296,2.391,2.474,4.089,4.865,3.793c2.39-0.296,4.089-2.474,3.793-4.864
			l-0.301-2.429c-0.902-0.405-1.9-0.636-2.953-0.636C50.593-315.506,48.583-314.475,47.256-312.86z"/>
	</g>
	<g>
		<path fill="#333333" d="M119.753-312.786c0.407,3.288-1.929,6.284-5.217,6.691l0,0c-3.289,0.407-6.285-1.929-6.692-5.218
			l-1.597-12.901c-0.407-3.288,1.929-6.284,5.217-6.691l0,0c3.289-0.407,6.285,1.929,6.692,5.218L119.753-312.786z"/>
		<path fill="#FDD28B" d="M109.256-312.86l0.185,1.49c0.296,2.391,2.474,4.089,4.865,3.793c2.39-0.296,4.089-2.474,3.793-4.864
			l-0.301-2.429c-0.902-0.405-1.9-0.636-2.953-0.636C112.593-315.506,110.583-314.475,109.256-312.86z"/>
	</g>
	<path fill="none" stroke="#333333" stroke-width="4" stroke-linecap="round" stroke-linejoin="round" stroke-miterlimit="10" d="
		M104.5-452.5c0,0-4.002-4.813-26-4.5c-17.583,0.25-36.709,11.575-50.634,25.5S-12.117-389.588-6-354.84
		c0.5,2.84,3.254,12.691,13,19.34"/>
	<path fill="none" stroke="#333333" stroke-width="4" stroke-linecap="round" stroke-linejoin="round" stroke-miterlimit="10" d="
		M74.667-420.333c0,0-19.333,9-19.333,34c0,21.703,13.083,26.017,15,26.333"/>
	<path fill="none" stroke="#333333" stroke-width="4" stroke-linecap="round" stroke-linejoin="round" stroke-miterlimit="10" d="
		M89.333-419"/>
	<path fill="none" stroke="#333333" stroke-width="4" stroke-linecap="round" stroke-linejoin="round" stroke-miterlimit="10" d="
		M89.333-419c0,0-6.478,16.601-4.667,32c2,17,12.002,24.534,24.323,23.466"/>
	<path fill="none" stroke="#333333" stroke-width="4" stroke-linecap="round" stroke-linejoin="round" stroke-miterlimit="10" d="
		M113-419c0,0-4.01,40.5,46,53.334c3.324,0.853,7,31.666,7,31.666s7.686-13.5,15.98-13.5S197-338.658,197-327.75
		S183.275-303,174.98-303"/>
	<path fill="none" stroke="#333333" stroke-width="4" stroke-linecap="round" stroke-linejoin="round" stroke-miterlimit="10" d="
		M206.223-360c11.444-68-47.223-94.667-70.261-96.004c-16.189-0.94-23.039,4.572-23.039,4.572S116.5-479.5,89.333-476"/>
	<path fill="none" stroke="#333333" stroke-width="4" stroke-linecap="round" stroke-linejoin="round" stroke-miterlimit="10" d="
		M43.333-394.333c0,0-10.833,29.333-21.667,42.833c-4.574,5.701,5.533,43.166,7.667,45.166"/>
	<path fill="none" stroke="#333333" stroke-width="4" stroke-linecap="round" stroke-linejoin="round" stroke-miterlimit="10" d="
		M208.431-351.5c0,0,29.569,182.834-9.097,205.5"/>
	<path fill="none" stroke="#333333" stroke-width="4" stroke-linecap="round" stroke-linejoin="round" stroke-miterlimit="10" d="
		M174.98-303c0,0,0.02,121-44.98,154.333"/>
	<path fill="none" stroke="#333333" stroke-width="4" stroke-linecap="round" stroke-linejoin="round" stroke-miterlimit="10" d="
		M195-187c0,0-7,41-32.001,44.667"/>
	<path fill="none" stroke="#333333" stroke-width="4" stroke-linecap="round" stroke-linejoin="round" stroke-miterlimit="10" d="
		M11-329c0,0,14.763,155.5-9.5,177"/>
	<path fill="none" stroke="#333333" stroke-width="4" stroke-linecap="round" stroke-linejoin="round" stroke-miterlimit="10" d="
		M55.333-258c0,0,11.667,115.667-17.833,121.5"/>
	<path fill="none" stroke="#333333" stroke-width="4" stroke-linecap="round" stroke-linejoin="round" stroke-miterlimit="10" d="
		M32.747-168c0,0,1.316,19.333-13.997,26.071"/>
	<path fill="none" stroke="#333333" stroke-width="4" stroke-linecap="round" stroke-linejoin="round" stroke-miterlimit="10" d="
		M65-254c0,0-4,7.5,0,13.5"/>
	<path fill="none" stroke="#333333" stroke-width="4" stroke-linecap="round" stroke-linejoin="round" stroke-miterlimit="10" d="
		M159-273c0,0,9.5,5,7,15s5.881,1.667,5.881,1.667"/>
	<path fill="none" stroke="#333333" stroke-width="4" stroke-linecap="round" stroke-linejoin="round" stroke-miterlimit="10" d="
		M71.5-236c0,0,0.338,16.5,25.169,16.5S152.49-243,152.49-243"/>
	<path fill="none" stroke="#333333" stroke-width="4" stroke-linecap="round" stroke-linejoin="round" stroke-miterlimit="10" d="
		M223.623-234.046c0,0,30.604,2.513,24.248,69.714c0,0,7.628-0.021,7.628,7.645c0,2.5,27.309,39.688,17.001,39.688"/>
	<path fill="none" stroke="#333333" stroke-width="4" stroke-linecap="round" stroke-linejoin="round" stroke-miterlimit="10" d="
		M241-160c0,0-15.68-4.102-37.68,30.363"/>
	<path fill="none" stroke="#333333" stroke-width="4" stroke-linecap="round" stroke-linejoin="round" stroke-miterlimit="10" d="
		M174.98-317c0,0,4.02-14.5,13.02-12"/>
	<g>
		
			<line fill="none" stroke="#333333" stroke-width="4" stroke-linecap="round" stroke-linejoin="round" stroke-miterlimit="10" x1="-31" y1="-526" x2="-31" y2="-273"/>
		
			<line fill="none" stroke="#333333" stroke-width="4" stroke-linecap="round" stroke-linejoin="round" stroke-miterlimit="10" x1="-31" y1="-551" x2="-31" y2="-538"/>
		<path fill="none" stroke="#333333" stroke-width="4" stroke-linecap="round" stroke-linejoin="round" stroke-miterlimit="10" d="
			M-32.349-224.756c2.316-0.938,4.333-2.482,5.756-4.628c2.284-3.443,2.579-7.684,1.218-11.61c1.698-0.944,3.179-2.254,4.293-3.935
			c4.197-6.327,1.724-15.356-5.524-20.164c-7.249-4.809-16.528-3.575-20.726,2.752c-2.284,3.443-2.579,7.684-1.218,11.61
			c-1.698,0.944-3.178,2.254-4.293,3.935c-2.291,3.452-2.582,7.708-1.207,11.645c-1.37,0.419-2.482,1.153-3.198,2.232
			c-2.671,4.027,1.04,11.19,8.288,15.998c7.249,4.809,15.291,5.441,17.962,1.415C-29.426-217.876-30.078-221.333-32.349-224.756z"/>
		<path fill="none" stroke="#333333" stroke-width="4" stroke-linecap="round" stroke-linejoin="round" stroke-miterlimit="10" d="
			M-31.821-271.252c-0.873-4.752,8.736-4.58,15.985,0.228c7.249,4.809,12.657,17.355,9.986,21.382"/>
		<path fill="none" stroke="#333333" stroke-width="4" stroke-linecap="round" stroke-linejoin="round" stroke-miterlimit="10" d="
			M-5.156-247.25c1.675,3.625,2.343,11.117-4.839,21.944c-7.182,10.827-18.197,16.16-24.602,11.912"/>
		<path fill="none" stroke="#333333" stroke-width="4" stroke-linecap="round" stroke-linejoin="round" stroke-miterlimit="10" d="
			M-34.192-233.692"/>
		<path fill="none" stroke="#333333" stroke-width="4" stroke-linecap="round" stroke-linejoin="round" stroke-miterlimit="10" d="
			M-54-212.855c0,0-1.498,6.562,4,11.855c11.424,11,36.5,8,43.085-5.928"/>
		<path fill="none" stroke="#333333" stroke-width="4" stroke-linecap="round" stroke-linejoin="round" stroke-miterlimit="10" d="
			M-9.996-225.306c0,0,12.339,3.679,11.496,12.45C0-197.25,8.474-208,3.333-172.333"/>
		<path fill="none" stroke="#333333" stroke-width="4" stroke-linecap="round" stroke-linejoin="round" stroke-miterlimit="10" d="
			M-52-197.25c0,0-2.372,7.25-2.186,20.917s-10.101,19.837-3.929,36.083C-56.5-136-52.187-108-32.687-108
			C-17.612-108,1.5-120.5,1.5-136.5"/>
		<path fill="none" stroke="#333333" stroke-width="4" stroke-linecap="round" stroke-linejoin="round" stroke-miterlimit="10" d="
			M-18.516-253.078c0,0,3.183,3.911,6.183,4.328"/>
	</g>
	<path fill="none" stroke="#333333" stroke-width="3" stroke-linecap="round" stroke-linejoin="round" stroke-miterlimit="10" d="
		M108.315-350.182c0,0,8.506-0.883,11.12,7.259"/>
	<g>
		<path fill="#FFE59D" d="M36.167-306.666c-1.494,0-2.936,0.203-4.322,0.549c-2.141,6.577-3.819,11.873-3.979,12.784
			c-1.477,8.427,3.862,15.894,12.27,21.874C48.072-273.266,54-280.351,54-288.833C54-298.682,46.016-306.666,36.167-306.666z"/>
	</g>
	<path fill="none" stroke="#333333" stroke-width="4" stroke-linecap="round" stroke-linejoin="round" stroke-miterlimit="10" d="
		M169.667-296.666c0,0-17.177,40.333-81.667,40.333c-22.667,0-63.931-15.33-60.134-37c0.467-2.667,1.8-6.001,1.8-6.001"/>
</g>
</svg>
