<?xml version="1.0" encoding="UTF-8"?>
<svg width="156px" height="51px" viewBox="0 0 156 51" version="1.1" xmlns="http://www.w3.org/2000/svg" xmlns:xlink="http://www.w3.org/1999/xlink">
    <!-- Generator: sketchtool 62 (101010) - https://sketch.com -->
    <title>215A3B18-BBDF-4C81-BFAB-0DF4B0BC6A19</title>
    <desc>Created with sketchtool.</desc>
    <defs>
        <polygon id="path-1" points="0 0.00315 28.5253576 0.00315 28.5253576 39.7034357 0 39.7034357"></polygon>
        <polygon id="path-3" points="0 50.9524286 155.789795 50.9524286 155.789795 0 0 0"></polygon>
    </defs>
    <g id="HP-Desktop" stroke="none" stroke-width="1" fill="none" fill-rule="evenodd">
        <g id="Desktop-HD_HP_SignIn_dropdown" transform="translate(-642.000000, -48.000000)">
            <g id="Header/Desktop">
                <g id="Icon/Logo" transform="translate(642.000000, 48.000000)">
                    <path d="M47.576991,22.1900571 C47.576991,18.4842 46.5968159,15.0678429 42.7902878,15.0678429 C38.7534944,15.0678429 37.5422003,18.4842 37.5422003,22.1900571 L37.5422003,23.8119857 L47.1732263,23.8119857 C47.4617516,23.8119857 47.576991,23.6384143 47.576991,23.4065571 L47.576991,22.1900571 Z M37.5422003,30.1814143 C37.4845806,34.2939857 38.0612044,38.9266286 43.4823644,38.9266286 C48.3269007,38.9266286 51.9027365,35.6838429 52.7098391,30.9346286 L53.6326079,30.9346286 C52.7098391,36.2622 48.7882851,39.8525571 43.4823644,39.8525571 C36.7348843,39.8525571 32.0058008,34.6415571 32.0058008,26.9967 C32.0058008,21.3789857 36.5037653,14.1408429 42.7902878,14.1408429 C49.5958145,14.1408429 53.1140306,21.7846286 53.1140306,24.2174143 C53.1140306,24.5647714 52.9405313,24.7379143 52.5943863,24.7379143 L37.5422003,24.7379143 L37.5422003,30.1814143 Z" id="Fill-1" fill="#F284A1"></path>
                    <path d="M58.939745,16.3417714 L54.3839475,16.3417714 L54.3839475,15.4147714 L58.939745,15.4147714 C61.7084782,15.4147714 62.7462731,15.4147714 63.7844947,14.1408429 L63.7844947,20.0476286 L63.8995207,20.0476286 C65.3993401,17.2681286 68.2826725,14.1408429 72.4929653,14.1408429 C78.6642484,14.1408429 80.3932662,17.2681286 80.3932662,20.6851286 L80.3932662,38.2310571 L84.9505576,38.2310571 L84.9505576,39.1578429 L70.9931458,39.1578429 L70.9931458,38.2310571 L75.5493702,38.2310571 L75.5493702,19.2950571 C75.5493702,16.1103429 73.9921445,15.0678429 72.1468202,15.0678429 C67.3024974,15.0678429 64.8225029,19.9312714 63.7844947,21.9007714 L63.7844947,38.2310571 L68.1674331,38.2310571 L68.1674331,39.1578429 L54.3839475,39.1578429 L54.3839475,38.2310571 L58.939745,38.2310571 L58.939745,16.3417714 Z" id="Fill-3" fill="#F284A1"></path>
                    <path d="M100.386619,22.1900571 C100.386619,18.4842 99.4075108,15.0678429 95.6003425,15.0678429 C91.5635491,15.0678429 90.3526818,18.4842 90.3526818,22.1900571 L90.3526818,23.8119857 L99.9834944,23.8119857 C100.272233,23.8119857 100.386619,23.6384143 100.386619,23.4065571 L100.386619,22.1900571 Z M90.3526818,30.1814143 C90.2946353,34.2939857 90.8710457,38.9266286 96.2922057,38.9266286 C101.137382,38.9266286 104.712791,35.6838429 105.519894,30.9346286 L106.442663,30.9346286 C105.519894,36.2622 101.598126,39.8525571 96.2922057,39.8525571 C89.5445122,39.8525571 84.8158555,34.6415571 84.8158555,26.9967 C84.8158555,21.3789857 89.3140334,14.1408429 95.6003425,14.1408429 C102.405869,14.1408429 105.923659,21.7846286 105.923659,24.2174143 C105.923659,24.5647714 105.751013,24.7379143 105.405295,24.7379143 L90.3526818,24.7379143 L90.3526818,30.1814143 Z" id="Fill-5" fill="#F284A1"></path>
                    <path d="M142.755685,16.3417714 L137.73829,16.3417714 L137.73829,15.4147714 C143.736714,15.5304857 145.92861,12.9826286 146.908358,7.30748571 L147.600862,7.30748571 L147.600862,15.4147714 L155.560063,15.4147714 L155.560063,16.3417714 L147.600862,16.3417714 L147.600862,35.7989143 C147.600862,38.1734143 148.58125,38.9266286 150.426788,38.9266286 C153.310547,38.9266286 154.578821,36.2622 154.925606,35.2784143 L155.789688,35.4519857 C155.385923,36.8418429 153.714312,39.8525571 149.445973,39.8525571 C145.408966,39.8525571 142.755685,38.5209857 142.755685,34.6987714 L142.755685,16.3417714 Z" id="Fill-7" fill="#F284A1"></path>
                    <path d="M129.668502,16.3417714 L127.718822,16.3417714 L127.718822,15.4147714 L129.668502,15.4147714 C131.513613,15.4147714 133.35915,15.2994857 134.513465,14.1408429 L134.513465,38.2310571 L139.126242,38.2310571 L139.126242,39.1578429 L125.053591,39.1578429 L125.053591,38.2310571 L129.668502,38.2310571 L129.668502,16.3417714 Z" id="Fill-9" fill="#F284A1"></path>
                    <path d="M119.909325,16.8419143 C116.278644,27.3200571 113.201539,38.0701286 110.549112,42.7089857 C106.538567,49.7435571 104.048543,51.0674143 100.563405,50.9448429 C98.683722,50.8788429 97.2989286,49.2708429 97.3497193,47.8167 C97.4034977,46.2597 98.6568328,45.2639143 99.9289477,45.3091286 C101.422152,45.3605571 102.386535,46.2785571 102.343213,47.5237714 C102.290502,49.0306286 101.240116,48.9935571 101.218775,49.6164857 C101.206184,49.9792714 101.532483,50.1470571 102.030146,50.1654857 C102.969774,50.1980571 105.154201,49.4952 106.797643,45.2375571 C108.928078,39.6965571 111.739919,27.0909857 114.896411,17.5321286 L115.177468,16.7052 C116.98694,10.8421286 120.081544,6.33634286 123.168466,3.53348571 C125.968997,1.03234286 128.333112,-0.0810857143 130.766584,0.00462857143 C132.756811,0.0742714286 134.550918,1.50441429 134.484121,3.42591429 C134.435251,4.8282 133.618759,6.1017 131.736302,6.13512857 C129.914453,6.16662857 129.005342,4.46541429 129.045676,3.32327143 C129.093692,1.9212 129.987864,1.69255714 130.004723,1.22605714 C130.018381,0.810128571 129.576417,0.7947 129.24393,0.782914286 C125.926316,0.666557143 122.588855,8.55848571 121.783673,11.0266286 L119.909325,16.8419143 Z" id="Fill-11" fill="#F284A1"></path>
                    <polygon id="Fill-13" fill="#F284A1" points="109.939261 16.3433357 109.941822 15.4122643 125.272289 15.41205 125.269729 16.3433357"></polygon>
                    <g id="Group-17" transform="translate(0.000000, 0.166714)">
                        <mask id="mask-2" fill="white">
                            <use xlink:href="#path-1"></use>
                        </mask>
                        <g id="Clip-16"></g>
                        <path d="M8.87042462,30.5628643 C8.87042462,36.0937929 13.1611715,38.7717214 16.581861,38.7717214 C22.2635902,38.7717214 22.9592947,35.4537214 22.9592947,26.7790071 C22.9592947,18.8028643 22.0898774,14.7858643 16.9877598,14.7858643 C12.1752345,14.7858643 8.87042462,19.5597214 8.87042462,23.8098643 L8.87042462,30.5628643 Z M4.00070643,2.42093571 L-2.13406293e-05,2.42093571 L-2.13406293e-05,1.46972143 L4.00070643,1.46972143 C5.85584733,1.46972143 7.71098824,1.34243571 8.87042462,0.00315 L8.87042462,19.7928643 L8.98630424,19.7928643 C10.0300744,17.0564357 12.8133193,13.8543643 16.9877598,13.8543643 C23.9452317,13.8543643 28.5253576,21.0734357 28.5253576,26.7790071 C28.5253576,33.5902929 23.8287119,39.7034357 16.581861,39.7034357 C12.4652536,39.7034357 9.74026867,36.6179357 8.98630424,34.75515 L8.87042462,34.75515 L8.87042462,39.0044357 L-2.13406293e-05,39.0044357 L-2.13406293e-05,38.07315 L4.00070643,38.07315 L4.00070643,2.42093571 Z" id="Fill-15" fill="#F284A1" mask="url(#mask-2)"></path>
                    </g>
                    <path d="M6.85599726,45.9930429 C6.31757319,45.6840429 6.04057182,45.5912571 5.67906156,45.5912571 C5.04801915,45.5912571 4.57126949,46.0239 4.57126949,46.5956143 C4.57126949,48.0015429 7.07132421,47.3295429 7.07132421,49.1756143 C7.07132421,49.9869 6.40229549,50.6201143 5.5482435,50.6201143 C5.1173762,50.6201143 4.66346101,50.4658286 4.2018632,50.1568286 L4.2018632,49.6779 C4.78659644,50.1028286 5.1173762,50.2419 5.52519562,50.2419 C6.148342,50.2419 6.63298769,49.7861143 6.63298769,49.1912571 C6.63298769,47.6925429 4.13271956,48.3493286 4.13271956,46.6110429 C4.13271956,45.8308286 4.80964432,45.2128286 5.64064843,45.2128286 C6.04825445,45.2128286 6.44839124,45.3210429 6.85599726,45.5451857 L6.85599726,45.9930429 Z" id="Fill-18" fill="#F284A1"></path>
                    <path d="M6.85599726,45.9930429 C6.31757319,45.6840429 6.04057182,45.5912571 5.67906156,45.5912571 C5.04801915,45.5912571 4.57126949,46.0239 4.57126949,46.5956143 C4.57126949,48.0015429 7.07132421,47.3295429 7.07132421,49.1756143 C7.07132421,49.9869 6.40229549,50.6201143 5.5482435,50.6201143 C5.1173762,50.6201143 4.66346101,50.4658286 4.2018632,50.1568286 L4.2018632,49.6779 C4.78659644,50.1028286 5.1173762,50.2419 5.52519562,50.2419 C6.148342,50.2419 6.63298769,49.7861143 6.63298769,49.1912571 C6.63298769,47.6925429 4.13271956,48.3493286 4.13271956,46.6110429 C4.13271956,45.8308286 4.80964432,45.2128286 5.64064843,45.2128286 C6.04825445,45.2128286 6.44839124,45.3210429 6.85599726,45.5451857 L6.85599726,45.9930429 Z" id="Stroke-20" stroke="#F284A1" stroke-width="0.5"></path>
                    <path d="M4.22853899,50.1425143 C4.67925308,50.4416571 5.12313817,50.5933714 5.5482435,50.5933714 C6.38735705,50.5933714 7.04464843,49.9706571 7.04464843,49.1756571 C7.04464843,48.2083714 6.35342544,47.9486571 5.68461012,47.6975143 C5.09838304,47.4772286 4.54459371,47.2693714 4.54459371,46.5956571 C4.54459371,46.0078714 5.03222709,45.5645143 5.67906156,45.5645143 C6.04078523,45.5645143 6.31415869,45.6547286 6.82932148,45.9470143 L6.82932148,45.5610857 C6.43153215,45.3448714 6.04249248,45.2396571 5.64064843,45.2396571 C4.82394254,45.2396571 4.15939535,45.8548714 4.15939535,46.6110857 C4.15939535,47.4939429 4.82138167,47.7474429 5.46181395,47.9925857 C6.07791792,48.2285143 6.65966347,48.4511571 6.65966347,49.1913 C6.65966347,49.7953714 6.16135978,50.2685143 5.52519562,50.2685143 C5.11951026,50.2685143 4.78809029,50.1320143 4.22853899,49.7302286 L4.22853899,50.1425143 Z M5.5482435,50.6469429 C5.10862654,50.6469429 4.65087004,50.4896571 4.18713817,50.1791571 L4.17518741,50.1712286 L4.17518741,49.6254429 L4.21744186,49.6560857 C4.79235841,50.0739429 5.12228454,50.2149429 5.52519562,50.2149429 C6.1314829,50.2149429 6.6063119,49.7653714 6.6063119,49.1913 C6.6063119,48.4882286 6.04121204,48.2718 5.44282079,48.0427286 C4.78552941,47.7909429 4.10604378,47.5308 4.10604378,46.6110857 C4.10604378,45.8253 4.79449248,45.1860857 5.64064843,45.1860857 C6.05636389,45.1860857 6.45820793,45.2958 6.86880164,45.5216571 L6.88267305,45.5291571 L6.88267305,46.0391571 L6.84276607,46.0162286 C6.31095759,45.7110857 6.03907798,45.6180857 5.67906156,45.6180857 C5.06274419,45.6180857 4.59794528,46.0383 4.59794528,46.5956571 C4.59794528,47.2320857 5.13487551,47.4339429 5.70338988,47.6473714 C6.35705335,47.8929429 7.098,48.1713 7.098,49.1756571 C7.098,50.0006571 6.41723393,50.6469429 5.5482435,50.6469429 L5.5482435,50.6469429 Z" id="Fill-22" fill="#F284A1"></path>
                    <path d="M4.22853899,50.1425143 C4.67925308,50.4416571 5.12313817,50.5933714 5.5482435,50.5933714 C6.38735705,50.5933714 7.04464843,49.9706571 7.04464843,49.1756571 C7.04464843,48.2083714 6.35342544,47.9486571 5.68461012,47.6975143 C5.09838304,47.4772286 4.54459371,47.2693714 4.54459371,46.5956571 C4.54459371,46.0078714 5.03222709,45.5645143 5.67906156,45.5645143 C6.04078523,45.5645143 6.31415869,45.6547286 6.82932148,45.9470143 L6.82932148,45.5610857 C6.43153215,45.3448714 6.04249248,45.2396571 5.64064843,45.2396571 C4.82394254,45.2396571 4.15939535,45.8548714 4.15939535,46.6110857 C4.15939535,47.4939429 4.82138167,47.7474429 5.46181395,47.9925857 C6.07791792,48.2285143 6.65966347,48.4511571 6.65966347,49.1913 C6.65966347,49.7953714 6.16135978,50.2685143 5.52519562,50.2685143 C5.11951026,50.2685143 4.78809029,50.1320143 4.22853899,49.7302286 L4.22853899,50.1425143 Z M5.5482435,50.6469429 C5.10862654,50.6469429 4.65087004,50.4896571 4.18713817,50.1791571 L4.17518741,50.1712286 L4.17518741,49.6254429 L4.21744186,49.6560857 C4.79235841,50.0739429 5.12228454,50.2149429 5.52519562,50.2149429 C6.1314829,50.2149429 6.6063119,49.7653714 6.6063119,49.1913 C6.6063119,48.4882286 6.04121204,48.2718 5.44282079,48.0427286 C4.78552941,47.7909429 4.10604378,47.5308 4.10604378,46.6110857 C4.10604378,45.8253 4.79449248,45.1860857 5.64064843,45.1860857 C6.05636389,45.1860857 6.45820793,45.2958 6.86880164,45.5216571 L6.88267305,45.5291571 L6.88267305,46.0391571 L6.84276607,46.0162286 C6.31095759,45.7110857 6.03907798,45.6180857 5.67906156,45.6180857 C5.06274419,45.6180857 4.59794528,46.0383 4.59794528,46.5956571 C4.59794528,47.2320857 5.13487551,47.4339429 5.70338988,47.6473714 C6.35705335,47.8929429 7.098,48.1713 7.098,49.1756571 C7.098,50.0006571 6.41723393,50.6469429 5.5482435,50.6469429 Z" id="Stroke-24" stroke="#F284A1" stroke-width="0.5"></path>
                    <path d="M12.4872985,45.9081857 L11.3641412,48.3879 L13.6181384,48.3879 L12.4872985,45.9081857 Z M15.0259798,50.5506857 L14.6030085,50.5506857 L13.7720044,48.7277571 L11.2102752,48.7277571 L10.3794845,50.5506857 L9.95629986,50.5506857 L12.3797417,45.2436857 L12.6027513,45.2436857 L15.0259798,50.5506857 Z" id="Fill-26" fill="#F284A1"></path>
                    <path d="M12.4872985,45.9081857 L11.3641412,48.3879 L13.6181384,48.3879 L12.4872985,45.9081857 Z M15.0259798,50.5506857 L14.6030085,50.5506857 L13.7720044,48.7277571 L11.2102752,48.7277571 L10.3794845,50.5506857 L9.95629986,50.5506857 L12.3797417,45.2436857 L12.6027513,45.2436857 L15.0259798,50.5506857 Z" id="Stroke-28" stroke="#F284A1" stroke-width="0.5"></path>
                    <path d="M11.40567,48.36105 L13.5766523,48.36105 L12.4874265,45.9726214 L11.40567,48.36105 Z M13.6598807,48.4146214 L11.322655,48.4146214 L12.4872131,45.8436214 L13.6598807,48.4146214 Z M14.620209,50.5238357 L14.9844936,50.5238357 L12.5855934,45.2706214 L12.3967289,45.2706214 L9.99782873,50.5238357 L10.3623267,50.5238357 L11.1931174,48.7009071 L13.7889915,48.7009071 L13.7962473,48.71655 L14.620209,50.5238357 Z M15.067722,50.5774071 L14.5858506,50.5774071 L14.5788082,50.5619786 L13.7548465,48.7544786 L11.2274758,48.7544786 L10.3964717,50.5774071 L9.91481368,50.5774071 L9.93209959,50.5394786 L12.3625839,45.21705 L12.6197384,45.21705 L12.6269943,45.2324786 L15.067722,50.5774071 Z" id="Fill-30" fill="#F284A1"></path>
                    <path d="M11.40567,48.36105 L13.5766523,48.36105 L12.4874265,45.9726214 L11.40567,48.36105 Z M13.6598807,48.4146214 L11.322655,48.4146214 L12.4872131,45.8436214 L13.6598807,48.4146214 Z M14.620209,50.5238357 L14.9844936,50.5238357 L12.5855934,45.2706214 L12.3967289,45.2706214 L9.99782873,50.5238357 L10.3623267,50.5238357 L11.1931174,48.7009071 L13.7889915,48.7009071 L13.7962473,48.71655 L14.620209,50.5238357 Z M15.067722,50.5774071 L14.5858506,50.5774071 L14.5788082,50.5619786 L13.7548465,48.7544786 L11.2274758,48.7544786 L10.3964717,50.5774071 L9.91481368,50.5774071 L9.93209959,50.5394786 L12.3625839,45.21705 L12.6197384,45.21705 L12.6269943,45.2324786 L15.067722,50.5774071 Z" id="Stroke-32" stroke="#F284A1" stroke-width="0.5"></path>
                    <polygon id="Fill-34" fill="#F284A1" points="22.9267929 50.5506857 22.5883305 50.5506857 18.6031814 45.9469714 18.6031814 50.5506857 18.1955754 50.5506857 18.1955754 45.2824714 18.5417204 45.2824714 22.5189735 49.8861857 22.5189735 45.2824714 22.9267929 45.2824714"></polygon>
                    <polygon id="Stroke-36" stroke="#F284A1" stroke-width="0.5" points="22.9267929 50.5506857 22.5883305 50.5506857 18.6031814 45.9469714 18.6031814 50.5506857 18.1955754 50.5506857 18.1955754 45.2824714 18.5417204 45.2824714 22.5189735 49.8861857 22.5189735 45.2824714 22.9267929 45.2824714"></polygon>
                    <path d="M22.600452,50.5239 L22.9000744,50.5239 L22.9000744,45.3092571 L22.54582,45.3092571 L22.54582,49.9579714 L18.5295135,45.3092571 L18.2222085,45.3092571 L18.2222085,50.5239 L18.5766763,50.5239 L18.5766763,45.8751857 L22.600452,50.5239 Z M22.953426,50.5774714 L22.5761237,50.5774714 L22.5682276,50.5682571 L18.6300279,46.0185429 L18.6300279,50.5774714 L18.1688569,50.5774714 L18.1688569,45.2556857 L18.5540553,45.2556857 L18.5619513,45.2649 L22.4924684,49.8144 L22.4924684,45.2556857 L22.953426,45.2556857 L22.953426,50.5774714 Z" id="Fill-38" fill="#F284A1"></path>
                    <path d="M22.600452,50.5239 L22.9000744,50.5239 L22.9000744,45.3092571 L22.54582,45.3092571 L22.54582,49.9579714 L18.5295135,45.3092571 L18.2222085,45.3092571 L18.2222085,50.5239 L18.5766763,50.5239 L18.5766763,45.8751857 L22.600452,50.5239 Z M22.953426,50.5774714 L22.5761237,50.5774714 L22.5682276,50.5682571 L18.6300279,46.0185429 L18.6300279,50.5774714 L18.1688569,50.5774714 L18.1688569,45.2556857 L18.5540553,45.2556857 L18.5619513,45.2649 L22.4924684,49.8144 L22.4924684,45.2556857 L22.953426,45.2556857 L22.953426,50.5774714 Z" id="Stroke-40" stroke="#F284A1" stroke-width="0.5"></path>
                    <polygon id="Fill-42" fill="#F284A1" points="34.043212 45.6221143 31.7508016 45.6221143 31.7508016 47.6231143 33.8202025 47.6231143 33.8202025 47.9629714 31.7508016 47.9629714 31.7508016 50.5506857 31.3429822 50.5506857 31.3429822 45.2824714 34.043212 45.2824714"></polygon>
                    <polygon id="Stroke-44" stroke="#F284A1" stroke-width="0.5" points="34.043212 45.6221143 31.7508016 45.6221143 31.7508016 47.6231143 33.8202025 47.6231143 33.8202025 47.9629714 31.7508016 47.9629714 31.7508016 50.5506857 31.3429822 50.5506857 31.3429822 45.2824714 34.043212 45.2824714"></polygon>
                    <path d="M31.3696793,50.5239 L31.7241472,50.5239 L31.7241472,47.9361857 L33.793548,47.9361857 L33.793548,47.6499 L31.7241472,47.6499 L31.7241472,45.5953286 L34.0165576,45.5953286 L34.0165576,45.3092571 L31.3696793,45.3092571 L31.3696793,50.5239 Z M31.7774988,50.5774714 L31.3163278,50.5774714 L31.3163278,45.2556857 L34.0699092,45.2556857 L34.0699092,45.6489 L31.7774988,45.6489 L31.7774988,47.5963286 L33.8468996,47.5963286 L33.8468996,47.9897571 L31.7774988,47.9897571 L31.7774988,50.5774714 Z" id="Fill-46" fill="#F284A1"></path>
                    <path d="M31.3696793,50.5239 L31.7241472,50.5239 L31.7241472,47.9361857 L33.793548,47.9361857 L33.793548,47.6499 L31.7241472,47.6499 L31.7241472,45.5953286 L34.0165576,45.5953286 L34.0165576,45.3092571 L31.3696793,45.3092571 L31.3696793,50.5239 Z M31.7774988,50.5774714 L31.3163278,50.5774714 L31.3163278,45.2556857 L34.0699092,45.2556857 L34.0699092,45.6489 L31.7774988,45.6489 L31.7774988,47.5963286 L33.8468996,47.5963286 L33.8468996,47.9897571 L31.7774988,47.9897571 L31.7774988,50.5774714 Z" id="Stroke-48" stroke="#F284A1" stroke-width="0.5"></path>
                    <path d="M37.6666375,47.6847214 L38.5358413,47.6847214 C39.4590369,47.6847214 39.9052695,47.2829357 39.9052695,46.6497214 C39.9052695,46.0550786 39.4820848,45.6222214 38.5204761,45.6222214 L37.6666375,45.6222214 L37.6666375,47.6847214 Z M38.6051984,45.2823643 C39.8899042,45.2823643 40.3438194,45.93915 40.3438194,46.6417929 C40.3438194,47.2522929 40.0130397,47.6772214 39.3435841,47.9242929 C39.589855,48.05565 39.7974993,48.3567214 40.0437702,48.72765 L41.2286019,50.5507929 L40.7516389,50.5507929 L39.8361259,49.1060786 C39.2052969,48.10965 39.0053352,48.0247929 38.3742927,48.0247929 L37.6666375,48.0247929 L37.6666375,50.5507929 L37.2588181,50.5507929 L37.2588181,45.2823643 L38.6051984,45.2823643 Z" id="Fill-50" fill="#F284A1"></path>
                    <path d="M37.6666375,47.6847214 L38.5358413,47.6847214 C39.4590369,47.6847214 39.9052695,47.2829357 39.9052695,46.6497214 C39.9052695,46.0550786 39.4820848,45.6222214 38.5204761,45.6222214 L37.6666375,45.6222214 L37.6666375,47.6847214 Z M38.6051984,45.2823643 C39.8899042,45.2823643 40.3438194,45.93915 40.3438194,46.6417929 C40.3438194,47.2522929 40.0130397,47.6772214 39.3435841,47.9242929 C39.589855,48.05565 39.7974993,48.3567214 40.0437702,48.72765 L41.2286019,50.5507929 L40.7516389,50.5507929 L39.8361259,49.1060786 C39.2052969,48.10965 39.0053352,48.0247929 38.3742927,48.0247929 L37.6666375,48.0247929 L37.6666375,50.5507929 L37.2588181,50.5507929 L37.2588181,45.2823643 L38.6051984,45.2823643 Z" id="Stroke-52" stroke="#F284A1" stroke-width="0.5"></path>
                    <path d="M37.6933133,47.6579357 L38.5358413,47.6579357 C39.4016306,47.6579357 39.8785937,47.2998643 39.8785937,46.6497214 C39.8785937,46.0137214 39.3834911,45.6490071 38.5204761,45.6490071 L37.6933133,45.6490071 L37.6933133,47.6579357 Z M38.5358413,47.7115071 L37.6399617,47.7115071 L37.6399617,45.5954357 L38.5204761,45.5954357 C39.4174227,45.5954357 39.9319453,45.97965 39.9319453,46.6497214 C39.9319453,47.0463643 39.7505499,47.7115071 38.5358413,47.7115071 L38.5358413,47.7115071 Z M40.7661505,50.5240071 L41.1793051,50.5240071 L40.0215759,48.7424357 C39.7650616,48.3560786 39.5653133,48.0730071 39.3312066,47.9478643 L39.2784952,47.9197929 L39.3344077,47.8990071 C39.9957538,47.65515 40.3171436,47.2437214 40.3171436,46.6417929 C40.3171436,46.2410786 40.1502599,45.30915 38.6051984,45.30915 L37.2854938,45.30915 L37.2854938,50.5240071 L37.6399617,50.5240071 L37.6399617,47.9980071 L38.3742927,47.9980071 C39.0264624,47.9980071 39.2259973,48.0922929 39.8585335,49.0917214 L40.7661505,50.5240071 Z M41.2778988,50.5775786 L40.7369138,50.5775786 L40.7290178,50.5649357 L39.8135048,49.1204357 C39.1952668,48.1437214 39.0021341,48.0515786 38.3742927,48.0515786 L37.6933133,48.0515786 L37.6933133,50.5775786 L37.2321423,50.5775786 L37.2321423,45.2555786 L38.6051984,45.2555786 C40.1984897,45.2555786 40.3704952,46.2250071 40.3704952,46.6417929 C40.3704952,47.2439357 40.0459042,47.6767929 39.405472,47.9294357 C39.6293352,48.0710786 39.8228947,48.3464357 40.0659644,48.7128643 L41.2778988,50.5775786 Z" id="Fill-54" fill="#F284A1"></path>
                    <path d="M37.6933133,47.6579357 L38.5358413,47.6579357 C39.4016306,47.6579357 39.8785937,47.2998643 39.8785937,46.6497214 C39.8785937,46.0137214 39.3834911,45.6490071 38.5204761,45.6490071 L37.6933133,45.6490071 L37.6933133,47.6579357 Z M38.5358413,47.7115071 L37.6399617,47.7115071 L37.6399617,45.5954357 L38.5204761,45.5954357 C39.4174227,45.5954357 39.9319453,45.97965 39.9319453,46.6497214 C39.9319453,47.0463643 39.7505499,47.7115071 38.5358413,47.7115071 Z M40.7661505,50.5240071 L41.1793051,50.5240071 L40.0215759,48.7424357 C39.7650616,48.3560786 39.5653133,48.0730071 39.3312066,47.9478643 L39.2784952,47.9197929 L39.3344077,47.8990071 C39.9957538,47.65515 40.3171436,47.2437214 40.3171436,46.6417929 C40.3171436,46.2410786 40.1502599,45.30915 38.6051984,45.30915 L37.2854938,45.30915 L37.2854938,50.5240071 L37.6399617,50.5240071 L37.6399617,47.9980071 L38.3742927,47.9980071 C39.0264624,47.9980071 39.2259973,48.0922929 39.8585335,49.0917214 L40.7661505,50.5240071 Z M41.2778988,50.5775786 L40.7369138,50.5775786 L40.7290178,50.5649357 L39.8135048,49.1204357 C39.1952668,48.1437214 39.0021341,48.0515786 38.3742927,48.0515786 L37.6933133,48.0515786 L37.6933133,50.5775786 L37.2321423,50.5775786 L37.2321423,45.2555786 L38.6051984,45.2555786 C40.1984897,45.2555786 40.3704952,46.2250071 40.3704952,46.6417929 C40.3704952,47.2439357 40.0459042,47.6767929 39.405472,47.9294357 C39.6293352,48.0710786 39.8228947,48.3464357 40.0659644,48.7128643 L41.2778988,50.5775786 Z" id="Stroke-56" stroke="#F284A1" stroke-width="0.5"></path>
                    <path d="M46.1597384,45.9081857 L45.0365811,48.3879 L47.2905784,48.3879 L46.1597384,45.9081857 Z M48.6984197,50.5506857 L48.2754484,50.5506857 L47.4444443,48.7277571 L44.8827152,48.7277571 L44.0519245,50.5506857 L43.6287398,50.5506857 L46.0521817,45.2436857 L46.2751912,45.2436857 L48.6984197,50.5506857 Z" id="Fill-58" fill="#F284A1"></path>
                    <path d="M46.1597384,45.9081857 L45.0365811,48.3879 L47.2905784,48.3879 L46.1597384,45.9081857 Z M48.6984197,50.5506857 L48.2754484,50.5506857 L47.4444443,48.7277571 L44.8827152,48.7277571 L44.0519245,50.5506857 L43.6287398,50.5506857 L46.0521817,45.2436857 L46.2751912,45.2436857 L48.6984197,50.5506857 Z" id="Stroke-60" stroke="#F284A1" stroke-width="0.5"></path>
                    <path d="M45.0781313,48.36105 L47.2491135,48.36105 L46.1598878,45.9726214 L45.0781313,48.36105 Z M47.332342,48.4146214 L44.9951163,48.4146214 L46.1596744,45.8436214 L47.332342,48.4146214 Z M48.2926703,50.5238357 L48.6569549,50.5238357 L46.2580547,45.2706214 L46.0691902,45.2706214 L43.67029,50.5238357 L44.034788,50.5238357 L44.8655787,48.7009071 L47.4614528,48.7009071 L47.4687086,48.71655 L48.2926703,50.5238357 Z M48.7401833,50.5774071 L48.2583119,50.5774071 L48.2512695,50.5619786 L47.4273078,48.7544786 L44.8999371,48.7544786 L44.068933,50.5774071 L43.587275,50.5774071 L43.6045609,50.5394786 L46.0350451,45.21705 L46.2921997,45.21705 L46.2994555,45.2324786 L48.7401833,50.5774071 Z" id="Fill-62" fill="#F284A1"></path>
                    <path d="M45.0781313,48.36105 L47.2491135,48.36105 L46.1598878,45.9726214 L45.0781313,48.36105 Z M47.332342,48.4146214 L44.9951163,48.4146214 L46.1596744,45.8436214 L47.332342,48.4146214 Z M48.2926703,50.5238357 L48.6569549,50.5238357 L46.2580547,45.2706214 L46.0691902,45.2706214 L43.67029,50.5238357 L44.034788,50.5238357 L44.8655787,48.7009071 L47.4614528,48.7009071 L47.4687086,48.71655 L48.2926703,50.5238357 Z M48.7401833,50.5774071 L48.2583119,50.5774071 L48.2512695,50.5619786 L47.4273078,48.7544786 L44.8999371,48.7544786 L44.068933,50.5774071 L43.587275,50.5774071 L43.6045609,50.5394786 L46.0350451,45.21705 L46.2921997,45.21705 L46.2994555,45.2324786 L48.7401833,50.5774071 Z" id="Stroke-64" stroke="#F284A1" stroke-width="0.5"></path>
                    <polygon id="Fill-66" fill="#F284A1" points="56.5993609 50.5506857 56.2606851 50.5506857 52.2757494 45.9469714 52.2757494 50.5506857 51.86793 50.5506857 51.86793 45.2824714 52.214075 45.2824714 56.1915415 49.8861857 56.1915415 45.2824714 56.5993609 45.2824714"></polygon>
                    <polygon id="Stroke-68" stroke="#F284A1" stroke-width="0.5" points="56.5993609 50.5506857 56.2606851 50.5506857 52.2757494 45.9469714 52.2757494 50.5506857 51.86793 50.5506857 51.86793 45.2824714 52.214075 45.2824714 56.1915415 49.8861857 56.1915415 45.2824714 56.5993609 45.2824714"></polygon>
                    <path d="M56.2728919,50.5239 L56.5727278,50.5239 L56.5727278,45.3092571 L56.2182599,45.3092571 L56.2182599,49.9579714 L52.2019535,45.3092571 L51.8946484,45.3092571 L51.8946484,50.5239 L52.2491163,50.5239 L52.2491163,45.8751857 L56.2728919,50.5239 Z M56.6260793,50.5774714 L56.2485636,50.5774714 L56.2406676,50.5682571 L52.3024679,46.0185429 L52.3024679,50.5774714 L51.8412969,50.5774714 L51.8412969,45.2556857 L52.2262818,45.2556857 L52.2341778,45.2649 L56.1649083,49.8144 L56.1649083,45.2556857 L56.6260793,45.2556857 L56.6260793,50.5774714 Z" id="Fill-70" fill="#F284A1"></path>
                    <path d="M56.2728919,50.5239 L56.5727278,50.5239 L56.5727278,45.3092571 L56.2182599,45.3092571 L56.2182599,49.9579714 L52.2019535,45.3092571 L51.8946484,45.3092571 L51.8946484,50.5239 L52.2491163,50.5239 L52.2491163,45.8751857 L56.2728919,50.5239 Z M56.6260793,50.5774714 L56.2485636,50.5774714 L56.2406676,50.5682571 L52.3024679,46.0185429 L52.3024679,50.5774714 L51.8412969,50.5774714 L51.8412969,45.2556857 L52.2262818,45.2556857 L52.2341778,45.2649 L56.1649083,49.8144 L56.1649083,45.2556857 L56.6260793,45.2556857 L56.6260793,50.5774714 Z" id="Stroke-72" stroke="#F284A1" stroke-width="0.5"></path>
                    <path d="M64.7154583,46.1012143 C64.0615814,45.7534286 63.4689521,45.5914286 62.8460192,45.5914286 C61.538052,45.5914286 60.5533953,46.5878571 60.5533953,47.9241429 C60.5533953,49.2837857 61.5303694,50.2418571 62.8997975,50.2418571 C63.4924268,50.2418571 64.0536854,50.0794286 64.7692367,49.701 L64.7692367,50.1257143 C64.1614555,50.4503571 63.5152613,50.6200714 62.9074802,50.6200714 C61.3073598,50.6200714 60.1148454,49.4691429 60.1148454,47.9241429 C60.1148454,46.3099286 61.4302818,45.2127857 62.869067,45.2127857 C63.4538003,45.2127857 64.0769466,45.3597857 64.7154583,45.6533571 L64.7154583,46.1012143 Z" id="Fill-74" fill="#F284A1"></path>
                    <path d="M64.7154583,46.1012143 C64.0615814,45.7534286 63.4689521,45.5914286 62.8460192,45.5914286 C61.538052,45.5914286 60.5533953,46.5878571 60.5533953,47.9241429 C60.5533953,49.2837857 61.5303694,50.2418571 62.8997975,50.2418571 C63.4924268,50.2418571 64.0536854,50.0794286 64.7692367,49.701 L64.7692367,50.1257143 C64.1614555,50.4503571 63.5152613,50.6200714 62.9074802,50.6200714 C61.3073598,50.6200714 60.1148454,49.4691429 60.1148454,47.9241429 C60.1148454,46.3099286 61.4302818,45.2127857 62.869067,45.2127857 C63.4538003,45.2127857 64.0769466,45.3597857 64.7154583,45.6533571 L64.7154583,46.1012143 Z" id="Stroke-76" stroke="#F284A1" stroke-width="0.5"></path>
                    <path d="M62.869003,45.2396786 C61.1617527,45.2396786 60.1416706,46.6046786 60.1416706,47.92425 C60.1416706,49.4458929 61.3307705,50.5933929 62.9076295,50.5933929 C63.5109291,50.5933929 64.1451726,50.42625 64.7424969,50.10975 L64.7424969,49.74525 C64.0406036,50.1116786 63.487241,50.2685357 62.8999469,50.2685357 C61.5025625,50.2685357 60.5266555,49.3044643 60.5266555,47.92425 C60.5266555,46.5789643 61.5239031,45.5645357 62.8461685,45.5645357 C63.4592848,45.5645357 64.0459387,45.7211786 64.6887185,46.0569643 L64.6887185,45.6706071 C64.0621576,45.3845357 63.4498949,45.2396786 62.869003,45.2396786 M62.9076295,50.6469643 C61.3002534,50.6469643 60.088319,49.4763214 60.088319,47.92425 C60.088319,47.1575357 60.3885817,46.4540357 60.9342616,45.9436071 C61.4487841,45.4623214 62.1538785,45.1861071 62.869003,45.1861071 C63.4624859,45.1861071 64.0875529,45.3350357 64.7267048,45.6288214 L64.74207,45.6361071 L64.74207,46.1456786 L64.7030167,46.1248929 C64.0527677,45.77925 63.4626993,45.6181071 62.8461685,45.6181071 C61.5542068,45.6181071 60.5800071,46.6096071 60.5800071,47.92425 C60.5800071,49.2729643 61.5339332,50.2149643 62.8999469,50.2149643 C63.4889483,50.2149643 64.0444449,50.05425 64.7567951,49.6773214 L64.7958484,49.65675 L64.7958484,50.1418929 L64.7817636,50.1493929 C64.1724886,50.4748929 63.5243737,50.6469643 62.9076295,50.6469643" id="Fill-78" fill="#F284A1"></path>
                    <path d="M62.869003,45.2396786 C61.1617527,45.2396786 60.1416706,46.6046786 60.1416706,47.92425 C60.1416706,49.4458929 61.3307705,50.5933929 62.9076295,50.5933929 C63.5109291,50.5933929 64.1451726,50.42625 64.7424969,50.10975 L64.7424969,49.74525 C64.0406036,50.1116786 63.487241,50.2685357 62.8999469,50.2685357 C61.5025625,50.2685357 60.5266555,49.3044643 60.5266555,47.92425 C60.5266555,46.5789643 61.5239031,45.5645357 62.8461685,45.5645357 C63.4592848,45.5645357 64.0459387,45.7211786 64.6887185,46.0569643 L64.6887185,45.6706071 C64.0621576,45.3845357 63.4498949,45.2396786 62.869003,45.2396786 Z M62.9076295,50.6469643 C61.3002534,50.6469643 60.088319,49.4763214 60.088319,47.92425 C60.088319,47.1575357 60.3885817,46.4540357 60.9342616,45.9436071 C61.4487841,45.4623214 62.1538785,45.1861071 62.869003,45.1861071 C63.4624859,45.1861071 64.0875529,45.3350357 64.7267048,45.6288214 L64.74207,45.6361071 L64.74207,46.1456786 L64.7030167,46.1248929 C64.0527677,45.77925 63.4626993,45.6181071 62.8461685,45.6181071 C61.5542068,45.6181071 60.5800071,46.6096071 60.5800071,47.92425 C60.5800071,49.2729643 61.5339332,50.2149643 62.8999469,50.2149643 C63.4889483,50.2149643 64.0444449,50.05425 64.7567951,49.6773214 L64.7958484,49.65675 L64.7958484,50.1418929 L64.7817636,50.1493929 C64.1724886,50.4748929 63.5243737,50.6469643 62.9076295,50.6469643 Z" id="Stroke-80" stroke="#F284A1" stroke-width="0.5"></path>
                    <mask id="mask-4" fill="white">
                        <use xlink:href="#path-3"></use>
                    </mask>
                    <g id="Clip-83"></g>
                    <polygon id="Fill-82" fill="#F284A1" mask="url(#mask-4)" points="68.0849302 50.5506429 68.4925363 50.5506429 68.4925363 45.2824286 68.0849302 45.2824286"></polygon>
                    <polygon id="Stroke-84" stroke="#F284A1" stroke-width="0.5" mask="url(#mask-4)" points="68.0849302 50.5506429 68.4925363 50.5506429 68.4925363 45.2824286 68.0849302 45.2824286"></polygon>
                    <path d="M68.111606,50.5238571 L68.4658605,50.5238571 L68.4658605,45.3092143 L68.111606,45.3092143 L68.111606,50.5238571 Z M68.0582544,50.5774286 L68.519212,50.5774286 L68.519212,45.2556429 L68.0582544,45.2556429 L68.0582544,50.5774286 Z" id="Fill-85" fill="#F284A1" mask="url(#mask-4)"></path>
                    <path d="M68.111606,50.5238571 L68.4658605,50.5238571 L68.4658605,45.3092143 L68.111606,45.3092143 L68.111606,50.5238571 Z M68.0582544,50.5774286 L68.519212,50.5774286 L68.519212,45.2556429 L68.0582544,45.2556429 L68.0582544,50.5774286 Z" id="Stroke-86" stroke="#F284A1" stroke-width="0.5" mask="url(#mask-4)"></path>
                    <path d="M74.7007601,45.9930429 C74.1625494,45.6840429 73.885548,45.5912571 73.5238244,45.5912571 C72.8927819,45.5912571 72.4160323,46.0239 72.4160323,46.5956143 C72.4160323,48.0015429 74.9165138,47.3295429 74.9165138,49.1756143 C74.9165138,49.9869 74.2468449,50.6201143 73.3930063,50.6201143 C72.9623524,50.6201143 72.5084372,50.4658286 72.046626,50.1568286 L72.046626,49.6779 C72.6313592,50.1028286 72.9623524,50.2419 73.3699584,50.2419 C73.9931048,50.2419 74.4777505,49.7861143 74.4777505,49.1912571 C74.4777505,47.6925429 71.9774824,48.3493286 71.9774824,46.6110429 C71.9774824,45.8308286 72.6546205,45.2128286 73.4854112,45.2128286 C73.8930172,45.2128286 74.293154,45.3210429 74.7007601,45.5451857 L74.7007601,45.9930429 Z" id="Fill-87" fill="#F284A1" mask="url(#mask-4)"></path>
                    <path d="M74.7007601,45.9930429 C74.1625494,45.6840429 73.885548,45.5912571 73.5238244,45.5912571 C72.8927819,45.5912571 72.4160323,46.0239 72.4160323,46.5956143 C72.4160323,48.0015429 74.9165138,47.3295429 74.9165138,49.1756143 C74.9165138,49.9869 74.2468449,50.6201143 73.3930063,50.6201143 C72.9623524,50.6201143 72.5084372,50.4658286 72.046626,50.1568286 L72.046626,49.6779 C72.6313592,50.1028286 72.9623524,50.2419 73.3699584,50.2419 C73.9931048,50.2419 74.4777505,49.7861143 74.4777505,49.1912571 C74.4777505,47.6925429 71.9774824,48.3493286 71.9774824,46.6110429 C71.9774824,45.8308286 72.6546205,45.2128286 73.4854112,45.2128286 C73.8930172,45.2128286 74.293154,45.3210429 74.7007601,45.5451857 L74.7007601,45.9930429 Z" id="Stroke-88" stroke="#F284A1" stroke-width="0.5" mask="url(#mask-4)"></path>
                    <path d="M72.0733871,50.1425143 C72.5241012,50.4416571 72.9679863,50.5933714 73.3930917,50.5933714 C74.2324186,50.5933714 74.88971,49.9706571 74.88971,49.1756571 C74.88971,48.2083714 74.1982736,47.9486571 73.5296717,47.6975143 C72.9432312,47.4772286 72.3892285,47.2693714 72.3892285,46.5956571 C72.3892285,46.0078714 72.8770752,45.5645143 73.5239097,45.5645143 C73.8856334,45.5645143 74.1590068,45.6545143 74.6741696,45.9470143 L74.6741696,45.5610857 C74.2763803,45.3448714 73.8873406,45.2396571 73.4852832,45.2396571 C72.6685773,45.2396571 72.0042435,45.8548714 72.0042435,46.6110857 C72.0042435,47.4939429 72.6662298,47.7474429 73.3066621,47.9925857 C73.9225527,48.2285143 74.5045116,48.4511571 74.5045116,49.1913 C74.5045116,49.7953714 74.0059945,50.2685143 73.3698304,50.2685143 C72.964145,50.2685143 72.632725,50.1320143 72.0733871,49.7302286 L72.0733871,50.1425143 Z M73.3930917,50.6469429 C72.9536881,50.6469429 72.4957182,50.4896571 72.0319863,50.1791571 L72.0200356,50.1712286 L72.0200356,49.6254429 L72.06229,49.6560857 C72.6372066,50.0739429 72.9669193,50.2149429 73.3698304,50.2149429 C73.9761176,50.2149429 74.4511601,49.7653714 74.4511601,49.1913 C74.4511601,48.4882286 73.8858468,48.2718 73.2874555,48.0427286 C72.6303776,47.7909429 71.9508919,47.5308 71.9508919,46.6110857 C71.9508919,45.8253 72.6391272,45.1860857 73.4852832,45.1860857 C73.901212,45.1860857 74.3028427,45.2958 74.7136498,45.5216571 L74.7275212,45.5291571 L74.7275212,46.0391571 L74.6876142,46.0162286 C74.1558057,45.7110857 73.8839261,45.6180857 73.5239097,45.6180857 C72.9075923,45.6180857 72.44258,46.0383 72.44258,46.5956571 C72.44258,47.2320857 72.9797237,47.4339429 73.548238,47.6473714 C74.2021149,47.8929429 74.9430616,48.1713 74.9430616,49.1756571 C74.9430616,50.0006571 74.2622955,50.6469429 73.3930917,50.6469429 L73.3930917,50.6469429 Z" id="Fill-89" fill="#F284A1" mask="url(#mask-4)"></path>
                    <path d="M72.0733871,50.1425143 C72.5241012,50.4416571 72.9679863,50.5933714 73.3930917,50.5933714 C74.2324186,50.5933714 74.88971,49.9706571 74.88971,49.1756571 C74.88971,48.2083714 74.1982736,47.9486571 73.5296717,47.6975143 C72.9432312,47.4772286 72.3892285,47.2693714 72.3892285,46.5956571 C72.3892285,46.0078714 72.8770752,45.5645143 73.5239097,45.5645143 C73.8856334,45.5645143 74.1590068,45.6545143 74.6741696,45.9470143 L74.6741696,45.5610857 C74.2763803,45.3448714 73.8873406,45.2396571 73.4852832,45.2396571 C72.6685773,45.2396571 72.0042435,45.8548714 72.0042435,46.6110857 C72.0042435,47.4939429 72.6662298,47.7474429 73.3066621,47.9925857 C73.9225527,48.2285143 74.5045116,48.4511571 74.5045116,49.1913 C74.5045116,49.7953714 74.0059945,50.2685143 73.3698304,50.2685143 C72.964145,50.2685143 72.632725,50.1320143 72.0733871,49.7302286 L72.0733871,50.1425143 Z M73.3930917,50.6469429 C72.9536881,50.6469429 72.4957182,50.4896571 72.0319863,50.1791571 L72.0200356,50.1712286 L72.0200356,49.6254429 L72.06229,49.6560857 C72.6372066,50.0739429 72.9669193,50.2149429 73.3698304,50.2149429 C73.9761176,50.2149429 74.4511601,49.7653714 74.4511601,49.1913 C74.4511601,48.4882286 73.8858468,48.2718 73.2874555,48.0427286 C72.6303776,47.7909429 71.9508919,47.5308 71.9508919,46.6110857 C71.9508919,45.8253 72.6391272,45.1860857 73.4852832,45.1860857 C73.901212,45.1860857 74.3028427,45.2958 74.7136498,45.5216571 L74.7275212,45.5291571 L74.7275212,46.0391571 L74.6876142,46.0162286 C74.1558057,45.7110857 73.8839261,45.6180857 73.5239097,45.6180857 C72.9075923,45.6180857 72.44258,46.0383 72.44258,46.5956571 C72.44258,47.2320857 72.9797237,47.4339429 73.548238,47.6473714 C74.2021149,47.8929429 74.9430616,48.1713 74.9430616,49.1756571 C74.9430616,50.0006571 74.2622955,50.6469429 73.3930917,50.6469429 Z" id="Stroke-90" stroke="#F284A1" stroke-width="0.5" mask="url(#mask-4)"></path>
                    <path d="M82.7478845,46.1012143 C82.0937943,45.7534286 81.5013784,45.5914286 80.8784454,45.5914286 C79.5706917,45.5914286 78.5858216,46.5878571 78.5858216,47.9241429 C78.5858216,49.2837857 79.5625822,50.2418571 80.9324372,50.2418571 C81.5246397,50.2418571 82.0861116,50.0794286 82.8018763,49.701 L82.8018763,50.1257143 C82.1938818,50.4503571 81.547901,50.6200714 80.9399064,50.6200714 C79.3395726,50.6200714 78.1470583,49.4691429 78.1470583,47.9241429 C78.1470583,46.3099286 79.4629215,45.2127857 80.9017067,45.2127857 C81.4864399,45.2127857 82.1093729,45.3597857 82.7478845,45.6533571 L82.7478845,46.1012143 Z" id="Fill-91" fill="#F284A1" mask="url(#mask-4)"></path>
                    <path d="M82.7478845,46.1012143 C82.0937943,45.7534286 81.5013784,45.5914286 80.8784454,45.5914286 C79.5706917,45.5914286 78.5858216,46.5878571 78.5858216,47.9241429 C78.5858216,49.2837857 79.5625822,50.2418571 80.9324372,50.2418571 C81.5246397,50.2418571 82.0861116,50.0794286 82.8018763,49.701 L82.8018763,50.1257143 C82.1938818,50.4503571 81.547901,50.6200714 80.9399064,50.6200714 C79.3395726,50.6200714 78.1470583,49.4691429 78.1470583,47.9241429 C78.1470583,46.3099286 79.4629215,45.2127857 80.9017067,45.2127857 C81.4864399,45.2127857 82.1093729,45.3597857 82.7478845,45.6533571 L82.7478845,46.1012143 Z" id="Stroke-92" stroke="#F284A1" stroke-width="0.5" mask="url(#mask-4)"></path>
                    <path d="M80.9016213,45.2396786 C79.1941576,45.2396786 78.1738621,46.6046786 78.1738621,47.92425 C78.1738621,49.4458929 79.362962,50.5933929 80.9400345,50.5933929 C81.5433341,50.5933929 82.1775776,50.42625 82.7751152,50.10975 L82.7751152,49.74525 C82.0730085,50.1118929 81.519646,50.2685357 80.9325653,50.2685357 C79.5351808,50.2685357 78.5590605,49.3044643 78.5590605,47.92425 C78.5590605,46.5789643 79.5560947,45.5645357 80.8785735,45.5645357 C81.4914763,45.5645357 82.0781302,45.7211786 82.7211234,46.0569643 L82.7211234,45.6706071 C82.0945625,45.3845357 81.4825133,45.2396786 80.9016213,45.2396786 M80.9400345,50.6469643 C79.3324449,50.6469643 78.1205105,49.4763214 78.1205105,47.92425 C78.1205105,47.1575357 78.4209866,46.4540357 78.9668799,45.9436071 C79.4811891,45.4623214 80.1862834,45.1861071 80.9016213,45.1861071 C81.4948908,45.1861071 82.1199579,45.3350357 82.7588963,45.6288214 L82.774475,45.6361071 L82.774475,46.1456786 L82.7354216,46.1248929 C82.0849592,45.77925 81.4948908,45.6181071 80.8785735,45.6181071 C79.5866118,45.6181071 78.612412,46.6096071 78.612412,47.92425 C78.612412,49.2729643 79.5665516,50.2149643 80.9325653,50.2149643 C81.5213532,50.2149643 82.0768498,50.05425 82.7894134,49.6773214 L82.8284668,49.65675 L82.8284668,50.1418929 L82.8143819,50.1493929 C82.2048936,50.4748929 81.5567787,50.6469643 80.9400345,50.6469643" id="Fill-93" fill="#F284A1" mask="url(#mask-4)"></path>
                    <path d="M80.9016213,45.2396786 C79.1941576,45.2396786 78.1738621,46.6046786 78.1738621,47.92425 C78.1738621,49.4458929 79.362962,50.5933929 80.9400345,50.5933929 C81.5433341,50.5933929 82.1775776,50.42625 82.7751152,50.10975 L82.7751152,49.74525 C82.0730085,50.1118929 81.519646,50.2685357 80.9325653,50.2685357 C79.5351808,50.2685357 78.5590605,49.3044643 78.5590605,47.92425 C78.5590605,46.5789643 79.5560947,45.5645357 80.8785735,45.5645357 C81.4914763,45.5645357 82.0781302,45.7211786 82.7211234,46.0569643 L82.7211234,45.6706071 C82.0945625,45.3845357 81.4825133,45.2396786 80.9016213,45.2396786 Z M80.9400345,50.6469643 C79.3324449,50.6469643 78.1205105,49.4763214 78.1205105,47.92425 C78.1205105,47.1575357 78.4209866,46.4540357 78.9668799,45.9436071 C79.4811891,45.4623214 80.1862834,45.1861071 80.9016213,45.1861071 C81.4948908,45.1861071 82.1199579,45.3350357 82.7588963,45.6288214 L82.774475,45.6361071 L82.774475,46.1456786 L82.7354216,46.1248929 C82.0849592,45.77925 81.4948908,45.6181071 80.8785735,45.6181071 C79.5866118,45.6181071 78.612412,46.6096071 78.612412,47.92425 C78.612412,49.2729643 79.5665516,50.2149643 80.9325653,50.2149643 C81.5213532,50.2149643 82.0768498,50.05425 82.7894134,49.6773214 L82.8284668,49.65675 L82.8284668,50.1418929 L82.8143819,50.1493929 C82.2048936,50.4748929 81.5567787,50.6469643 80.9400345,50.6469643 Z" id="Stroke-94" stroke="#F284A1" stroke-width="0.5" mask="url(#mask-4)"></path>
                    <path d="M88.6942802,45.5913429 C87.3790572,45.5913429 86.347878,46.6034143 86.347878,47.9167714 C86.347878,49.2297 87.3790572,50.2417714 88.6942802,50.2417714 C90.0097166,50.2417714 91.0251037,49.2297 91.0251037,47.9167714 C91.0251037,46.6034143 90.0097166,45.5913429 88.6942802,45.5913429 M88.6793417,50.6202 C87.1248903,50.6202 85.9095415,49.4304857 85.9095415,47.9167714 C85.9095415,46.4026286 87.1248903,45.2129143 88.6793417,45.2129143 C90.2406222,45.2129143 91.4640804,46.4026286 91.4640804,47.9167714 C91.4640804,49.4304857 90.2406222,50.6202 88.6793417,50.6202" id="Fill-95" fill="#F284A1" mask="url(#mask-4)"></path>
                    <path d="M88.6942802,45.5913429 C87.3790572,45.5913429 86.347878,46.6034143 86.347878,47.9167714 C86.347878,49.2297 87.3790572,50.2417714 88.6942802,50.2417714 C90.0097166,50.2417714 91.0251037,49.2297 91.0251037,47.9167714 C91.0251037,46.6034143 90.0097166,45.5913429 88.6942802,45.5913429 Z M88.6793417,50.6202 C87.1248903,50.6202 85.9095415,49.4304857 85.9095415,47.9167714 C85.9095415,46.4026286 87.1248903,45.2129143 88.6793417,45.2129143 C90.2406222,45.2129143 91.4640804,46.4026286 91.4640804,47.9167714 C91.4640804,49.4304857 90.2406222,50.6202 88.6793417,50.6202 Z" id="Stroke-96" stroke="#F284A1" stroke-width="0.5" mask="url(#mask-4)"></path>
                    <path d="M88.6942802,45.6181286 C87.3933554,45.6181286 86.3745538,46.6276286 86.3745538,47.9167714 C86.3745538,49.2054857 87.3933554,50.2149857 88.6942802,50.2149857 C89.9864553,50.2149857 90.9984279,49.2054857 90.9984279,47.9167714 C90.9984279,46.6276286 89.9864553,45.6181286 88.6942802,45.6181286 M88.6942802,50.2685571 C87.3636919,50.2685571 86.3212022,49.2354857 86.3212022,47.9167714 C86.3212022,46.5976286 87.3636919,45.5645571 88.6942802,45.5645571 C90.0161187,45.5645571 91.0517795,46.5976286 91.0517795,47.9167714 C91.0517795,49.2354857 90.0161187,50.2685571 88.6942802,50.2685571 M88.6793417,45.2397 C87.1411092,45.2397 85.9362172,46.4154857 85.9362172,47.9167714 C85.9362172,49.4176286 87.1411092,50.5934143 88.6793417,50.5934143 C90.2258971,50.5934143 91.4374047,49.4176286 91.4374047,47.9167714 C91.4374047,46.4154857 90.2258971,45.2397 88.6793417,45.2397 M88.6793417,50.6469857 C87.1112323,50.6469857 85.8828657,49.4476286 85.8828657,47.9167714 C85.8828657,46.3854857 87.1112323,45.1861286 88.6793417,45.1861286 C90.2555606,45.1861286 91.4907562,46.3854857 91.4907562,47.9167714 C91.4907562,49.4476286 90.2555606,50.6469857 88.6793417,50.6469857" id="Fill-97" fill="#F284A1" mask="url(#mask-4)"></path>
                    <path d="M88.6942802,45.6181286 C87.3933554,45.6181286 86.3745538,46.6276286 86.3745538,47.9167714 C86.3745538,49.2054857 87.3933554,50.2149857 88.6942802,50.2149857 C89.9864553,50.2149857 90.9984279,49.2054857 90.9984279,47.9167714 C90.9984279,46.6276286 89.9864553,45.6181286 88.6942802,45.6181286 Z M88.6942802,50.2685571 C87.3636919,50.2685571 86.3212022,49.2354857 86.3212022,47.9167714 C86.3212022,46.5976286 87.3636919,45.5645571 88.6942802,45.5645571 C90.0161187,45.5645571 91.0517795,46.5976286 91.0517795,47.9167714 C91.0517795,49.2354857 90.0161187,50.2685571 88.6942802,50.2685571 Z M88.6793417,45.2397 C87.1411092,45.2397 85.9362172,46.4154857 85.9362172,47.9167714 C85.9362172,49.4176286 87.1411092,50.5934143 88.6793417,50.5934143 C90.2258971,50.5934143 91.4374047,49.4176286 91.4374047,47.9167714 C91.4374047,46.4154857 90.2258971,45.2397 88.6793417,45.2397 Z M88.6793417,50.6469857 C87.1112323,50.6469857 85.8828657,49.4476286 85.8828657,47.9167714 C85.8828657,46.3854857 87.1112323,45.1861286 88.6793417,45.1861286 C90.2555606,45.1861286 91.4907562,46.3854857 91.4907562,47.9167714 C91.4907562,49.4476286 90.2555606,50.6469857 88.6793417,50.6469857 Z" id="Stroke-98" stroke="#F284A1" stroke-width="0.5" mask="url(#mask-4)"></path>
                </g>
            </g>
        </g>
    </g>
</svg>