<?xml version="1.0" standalone="no"?>
<!DOCTYPE svg PUBLIC "-//W3C//DTD SVG 20010904//EN"
 "http://www.w3.org/TR/2001/REC-SVG-20010904/DTD/svg10.dtd">
<svg version="1.0" xmlns="http://www.w3.org/2000/svg"
 width="1590.000000pt" height="354.000000pt" viewBox="0 0 1590.000000 354.000000"
 preserveAspectRatio="xMidYMid meet">

<g transform="translate(0.000000,354.000000) scale(0.100000,-0.100000)"
fill="#00643E" stroke="none">
<path d="M1655 3534 c-16 -2 -66 -9 -110 -15 -113 -15 -287 -61 -374 -98 -208
-88 -311 -230 -282 -387 6 -32 9 -59 7 -61 -1 -2 -25 9 -52 24 -43 25 -60 28
-134 28 -74 0 -92 -4 -140 -29 -157 -82 -315 -288 -433 -566 -145 -342 -179
-781 -75 -983 49 -96 152 -167 243 -167 19 0 36 -4 39 -8 3 -5 -13 -26 -35
-48 -90 -86 -111 -199 -65 -337 61 -180 253 -418 473 -584 246 -185 569 -311
770 -301 145 7 229 58 283 170 l27 57 34 -66 c88 -173 286 -207 587 -101 281
98 544 281 740 513 148 176 213 312 213 448 0 84 -31 157 -91 211 -22 20 -40
38 -40 40 0 2 23 6 52 9 261 31 357 347 257 839 -58 284 -217 599 -388 769
-144 144 -275 179 -411 112 -36 -17 -65 -31 -67 -30 -1 2 3 23 8 47 33 142
-47 282 -211 369 -85 46 -253 98 -386 122 -113 19 -369 33 -439 23z m-105
-245 c220 -35 291 -35 490 2 163 29 369 36 441 16 68 -20 139 -79 169 -143 26
-53 25 -143 -3 -207 l-16 -38 -56 35 c-136 87 -328 166 -495 202 -67 15 -127
19 -285 19 -158 0 -218 -4 -285 -19 -167 -36 -379 -124 -500 -205 -25 -17 -48
-31 -52 -31 -16 0 -50 141 -44 182 16 100 96 183 201 209 71 17 241 9 435 -22z
m170 -152 c-47 -15 -116 -86 -129 -133 -16 -57 -13 -114 8 -159 18 -41 82
-105 104 -105 24 0 -18 -20 -44 -20 -14 0 -60 -9 -102 -19 -444 -114 -747
-503 -747 -958 0 -185 44 -343 139 -508 63 -109 226 -272 338 -339 97 -57 246
-111 356 -128 l77 -12 -40 -23 c-46 -28 -86 -90 -96 -151 -15 -95 45 -194 139
-231 l52 -21 -80 6 c-495 36 -938 333 -1163 780 -204 405 -195 898 24 1301
176 325 475 567 834 677 108 33 228 54 305 54 58 0 59 0 25 -11z m311 -3 c587
-100 1051 -562 1154 -1149 23 -132 24 -357 1 -485 -48 -270 -177 -523 -369
-726 -113 -120 -230 -207 -376 -283 -179 -91 -356 -141 -546 -155 l-80 -5 46
14 c53 17 113 71 134 122 37 88 6 200 -72 259 l-41 32 76 12 c43 7 119 27 171
46 256 91 477 302 578 550 56 139 76 254 70 414 -10 264 -101 476 -286 661
-148 148 -313 234 -524 274 -90 17 -97 20 -69 30 54 16 112 115 112 189 0 83
-66 179 -140 203 l-35 11 51 1 c28 1 93 -6 145 -15z m-158 -18 c39 -17 92 -71
106 -109 33 -88 -3 -195 -83 -242 -92 -54 -217 -23 -271 69 -27 47 -34 122
-14 173 14 37 66 92 104 109 39 17 117 18 158 0z m-1047 -141 c27 -14 62 -37
79 -50 l30 -25 -40 -32 c-279 -226 -457 -531 -521 -893 -31 -173 -17 -447 31
-609 8 -27 12 -52 9 -55 -3 -3 -39 -5 -79 -5 -93 2 -152 33 -196 102 -82 129
-63 234 98 557 108 214 123 261 158 476 60 366 115 486 251 539 68 26 120 25
180 -5z m2138 0 c119 -57 175 -186 226 -515 35 -225 45 -256 152 -472 121
-246 150 -327 151 -423 0 -56 -5 -80 -26 -120 -50 -98 -113 -135 -228 -135
-64 0 -70 2 -64 18 17 43 45 198 55 302 25 270 -42 576 -182 822 -86 152 -228
319 -358 421 l-35 28 35 30 c80 71 184 87 274 44z m-929 -304 c355 -93 631
-389 701 -749 8 -41 14 -94 14 -118 l0 -44 -95 0 -95 0 0 -35 0 -35 -90 0 -90
0 0 35 0 35 -75 0 -75 0 0 49 c0 48 0 49 36 56 44 8 131 47 161 72 16 13 20
25 16 44 -4 24 -10 27 -62 33 -72 8 -179 68 -195 109 -6 16 -18 27 -29 27 -16
0 -18 8 -15 66 l3 67 65 21 c105 36 124 51 102 82 -4 6 -38 17 -77 25 l-69 14
-29 55 c-15 30 -31 58 -35 62 -4 3 -36 0 -72 -8 -87 -18 -383 -18 -470 0 -67
14 -90 9 -90 -20 0 -8 -12 -32 -26 -53 -23 -36 -31 -40 -92 -51 -66 -13 -82
-22 -82 -48 0 -15 90 -57 144 -67 l36 -7 0 -69 c0 -62 -2 -69 -20 -69 -13 0
-20 -7 -20 -20 0 -34 -125 -108 -195 -116 -45 -6 -59 -11 -65 -28 -14 -33 49
-83 137 -109 l73 -21 0 -48 0 -48 -70 0 -70 0 0 -35 0 -35 -95 0 -95 0 0 35 0
35 -96 0 -97 0 6 78 c32 409 362 768 780 848 102 19 309 12 412 -15z m-515
-271 c0 -73 -3 -90 -15 -90 -12 0 -15 15 -15 74 0 77 6 106 21 106 5 0 9 -40
9 -90z m58 -3 c2 -73 0 -87 -13 -87 -12 0 -15 16 -15 91 0 68 3 90 13 87 8 -3
13 -33 15 -91z m462 3 c0 -73 -3 -90 -15 -90 -12 0 -15 16 -15 83 0 46 3 87 7
90 18 18 23 0 23 -83z m54 74 c3 -9 6 -49 6 -90 0 -59 -3 -74 -15 -74 -12 0
-15 17 -15 90 0 83 9 112 24 74z m-464 -84 c0 -53 -4 -90 -10 -90 -6 0 -10 37
-10 90 0 53 4 90 10 90 6 0 10 -37 10 -90z m355 0 c0 -58 -4 -85 -12 -87 -10
-4 -13 18 -13 87 0 69 3 91 13 88 8 -3 12 -30 12 -88z m-295 -5 c0 -69 -3 -85
-15 -85 -12 0 -15 16 -15 85 0 69 3 85 15 85 12 0 15 -16 15 -85z m60 0 c0
-69 -3 -85 -15 -85 -12 0 -15 16 -15 85 0 69 3 85 15 85 12 0 15 -16 15 -85z
m60 0 c0 -69 -3 -85 -15 -85 -12 0 -15 16 -15 85 0 69 3 85 15 85 12 0 15 -16
15 -85z m60 0 c0 -69 -3 -85 -15 -85 -12 0 -15 16 -15 85 0 69 3 85 15 85 12
0 15 -16 15 -85z m60 0 c0 -69 -3 -85 -15 -85 -12 0 -15 16 -15 85 0 69 3 85
15 85 12 0 15 -16 15 -85z m-470 -20 c0 -33 -4 -45 -15 -45 -19 0 -21 60 -3
78 17 17 18 16 18 -33z m700 -11 c0 -24 -5 -34 -15 -34 -11 0 -15 12 -15 46 0
40 2 45 15 34 8 -7 15 -28 15 -46z m-820 5 c0 -11 -4 -17 -10 -14 -5 3 -10 13
-10 21 0 8 5 14 10 14 6 0 10 -9 10 -21z m60 -4 c0 -16 -6 -25 -15 -25 -9 0
-15 9 -15 25 0 16 6 25 15 25 9 0 15 -9 15 -25z m820 0 c0 -16 -6 -25 -15 -25
-9 0 -15 9 -15 25 0 16 6 25 15 25 9 0 15 -9 15 -25z m57 8 c2 -6 -3 -13 -12
-16 -10 -5 -15 0 -15 14 0 21 21 22 27 2z m-717 -158 l0 -55 -35 0 -35 0 0 55
0 55 35 0 35 0 0 -55z m110 0 l0 -55 -40 0 -40 0 0 55 0 55 40 0 40 0 0 -55z
m110 0 l0 -55 -40 0 -40 0 0 55 0 55 40 0 40 0 0 -55z m110 0 l0 -55 -40 0
-40 0 0 55 0 55 40 0 40 0 0 -55z m100 0 l0 -55 -35 0 -35 0 0 55 0 55 35 0
35 0 0 -55z m110 0 l0 -55 -35 0 -35 0 0 55 0 55 35 0 35 0 0 -55z m-640 -210
c0 -87 -3 -105 -15 -105 -12 0 -15 18 -15 98 0 54 3 102 7 105 18 19 23 -2 23
-98z m60 0 c0 -87 -3 -105 -15 -105 -12 0 -15 18 -15 105 0 87 3 105 15 105
12 0 15 -18 15 -105z m60 0 c0 -87 -3 -105 -15 -105 -12 0 -15 18 -15 105 0
87 3 105 15 105 12 0 15 -18 15 -105z m58 51 c4 -62 26 -56 30 7 2 26 7 47 12
47 5 0 10 -21 12 -47 4 -63 26 -69 30 -7 4 67 28 71 28 5 0 -39 4 -51 15 -51
11 0 15 12 15 50 0 38 4 50 15 50 11 0 15 -12 15 -50 0 -38 4 -50 15 -50 11 0
15 12 15 50 0 38 4 50 15 50 11 0 15 -12 15 -50 0 -38 4 -50 15 -50 11 0 15
12 15 51 0 66 24 62 28 -5 4 -62 26 -56 30 8 2 31 7 46 15 43 9 -3 12 -41 11
-130 l0 -127 98 0 98 0 0 -40 c0 -38 -2 -40 -30 -40 -28 0 -30 -3 -30 -35 l0
-34 -67 -3 c-55 -2 -68 -6 -71 -20 -3 -16 6 -18 87 -18 l91 0 0 40 0 40 90 0
90 0 0 -40 0 -40 125 0 125 0 0 40 0 40 80 0 80 0 0 -47 c0 -72 -34 -219 -69
-303 -87 -209 -258 -393 -461 -495 -62 -31 -161 -67 -168 -61 -2 3 -13 101
-23 218 -17 192 -22 218 -47 268 -18 35 -42 65 -70 85 -38 26 -52 30 -110 30
-83 0 -133 -23 -173 -78 -39 -54 -46 -84 -64 -287 -22 -244 -21 -242 -48 -234
-262 79 -500 295 -609 556 -34 81 -68 229 -68 301 l0 47 80 0 80 0 0 -40 0
-40 125 0 125 0 0 40 0 40 90 0 90 0 0 -40 0 -40 91 0 c81 0 90 2 87 18 -3 14
-16 18 -71 20 l-67 3 0 34 c0 32 -2 35 -30 35 -28 0 -30 2 -30 40 l0 40 100 0
100 0 0 131 c0 100 3 130 13 127 7 -3 13 -25 15 -52z m402 -51 c0 -87 -3 -105
-15 -105 -12 0 -15 18 -15 98 0 54 3 102 7 105 18 19 23 -2 23 -98z m60 0 c0
-87 -3 -105 -15 -105 -12 0 -15 18 -15 105 0 87 3 105 15 105 12 0 15 -18 15
-105z m60 0 c0 -87 -3 -105 -15 -105 -12 0 -15 18 -15 105 0 87 3 105 15 105
12 0 15 -18 15 -105z m-760 -30 c0 -43 -4 -75 -10 -75 -11 0 -14 133 -3 143
12 13 13 7 13 -68z m818 -3 c2 -60 0 -72 -13 -72 -12 0 -15 14 -15 76 0 56 3
75 13 72 8 -3 13 -30 15 -76z m-870 -7 c-4 -66 -22 -78 -26 -16 -4 49 2 71 18
71 7 0 10 -20 8 -55z m932 -10 c0 -29 -5 -45 -15 -49 -12 -4 -15 6 -15 56 0
53 2 59 15 48 9 -8 15 -29 15 -55z m-990 0 c0 -24 -5 -35 -15 -35 -10 0 -15
10 -15 29 0 25 6 33 28 40 1 1 2 -15 2 -34z m1040 -6 c0 -19 -5 -29 -15 -29
-15 0 -22 50 -9 63 12 12 24 -4 24 -34z m-1100 11 c0 -11 -7 -20 -15 -20 -8 0
-15 9 -15 20 0 11 7 20 15 20 8 0 15 -9 15 -20z m1160 0 c0 -11 -7 -20 -15
-20 -8 0 -15 9 -15 20 0 11 7 20 15 20 8 0 15 -9 15 -20z m-497 -585 c20 -14
46 -43 56 -63 20 -39 38 -112 28 -112 -3 0 -26 25 -50 55 -44 54 -45 54 -63
34 -18 -20 -18 -20 -45 12 l-26 32 -23 -33 -23 -32 -20 20 -20 20 -44 -54
c-25 -31 -47 -53 -50 -51 -10 11 11 79 37 120 34 54 78 76 150 77 43 0 64 -6
93 -25z m-1453 -108 c0 -30 95 -217 156 -310 77 -115 224 -273 329 -352 211
-159 464 -257 735 -285 63 -7 117 -13 118 -15 2 -2 -3 -28 -12 -57 -35 -122
-116 -183 -241 -183 -120 1 -195 50 -461 307 l-170 163 -189 98 c-227 118
-309 171 -369 239 -112 124 -96 293 38 385 46 32 66 35 66 10z m2773 -6 c86
-60 117 -115 117 -208 -1 -148 -90 -234 -425 -407 -93 -49 -183 -98 -200 -109
-16 -12 -103 -92 -193 -179 -233 -226 -331 -290 -442 -292 -113 -1 -198 58
-239 168 -25 67 -26 76 -6 76 62 0 239 27 330 50 268 69 477 192 677 398 146
151 251 318 321 515 8 23 11 22 60 -12z m-1393 -15 c0 -7 -6 -21 -14 -31 -13
-18 -14 -18 -25 3 -16 30 3 69 25 51 8 -6 14 -17 14 -23z m-66 -46 c21 -27 39
-50 41 -50 2 0 20 23 41 50 21 28 41 50 45 50 4 0 29 -28 57 -62 l49 -63 12
-149 c10 -116 10 -151 0 -156 -13 -9 -90 -22 -95 -17 -2 2 1 20 7 40 13 47 5
73 -33 114 -25 25 -29 36 -23 61 7 36 -9 51 -24 23 -17 -31 -13 -56 13 -80 39
-37 51 -75 37 -122 -11 -36 -15 -39 -48 -39 -27 0 -33 3 -26 13 6 6 16 29 23
50 11 35 10 41 -15 79 -21 31 -25 48 -21 73 6 33 -6 55 -19 35 -25 -40 -23
-70 6 -114 l30 -45 -20 -46 c-17 -39 -24 -45 -50 -45 l-30 0 20 35 c16 27 20
44 14 73 -4 20 -7 61 -8 90 0 61 -16 65 -34 8 -11 -31 -10 -42 2 -66 22 -42
19 -74 -10 -108 -22 -27 -28 -29 -65 -22 -23 4 -43 10 -46 12 -11 12 19 294
34 318 22 37 83 110 91 110 4 0 24 -22 45 -50z m148 -470 c35 -23 70 -68 84
-105 7 -17 3 -16 -25 8 -67 56 -145 24 -162 -68 -16 -85 -75 -122 -142 -90
-101 48 -62 213 63 270 50 22 139 15 182 -15z m-95 -386 c-3 -3 -12 -4 -19 -1
-8 3 -5 6 6 6 11 1 17 -2 13 -5z"/>
<path d="M1286 2958 c-27 -14 -41 -17 -49 -9 -20 20 -38 13 -32 -12 5 -18 1
-26 -20 -35 -21 -10 -27 -9 -31 3 -4 8 -13 15 -21 15 -11 0 -13 -7 -9 -24 5
-20 0 -26 -34 -41 -22 -10 -40 -22 -40 -26 0 -19 22 -18 59 0 28 15 41 17 43
9 5 -13 -5 -82 -17 -130 -5 -21 -4 -28 8 -28 8 0 18 10 21 23 6 20 9 17 33
-28 31 -61 29 -59 48 -51 14 5 10 17 -25 82 -25 45 -40 83 -37 95 3 10 0 19
-6 19 -8 0 -8 3 0 11 6 6 9 17 7 23 -6 15 43 39 51 26 9 -14 34 0 29 15 -4 9
10 22 35 35 39 19 50 33 34 43 -5 3 -25 -4 -47 -15z"/>
<path d="M1315 2840 c-35 -36 -43 -37 -51 -5 -6 24 -23 32 -37 18 -4 -3 14
-46 40 -95 53 -100 59 -102 136 -52 29 19 37 31 37 54 0 24 -4 30 -21 30 -15
0 -19 -5 -14 -19 4 -13 -3 -25 -21 -40 -34 -27 -51 -24 -72 11 -16 27 -16 28
22 67 21 22 35 44 32 50 -11 17 -20 13 -51 -19z"/>
<path d="M930 2770 c-12 -8 -6 -18 34 -59 26 -27 46 -54 42 -59 -11 -18 15
-25 31 -9 19 19 9 38 -49 94 -32 32 -47 40 -58 33z"/>
<path d="M880 2715 c-14 -17 76 -103 92 -87 9 9 0 22 -35 55 -34 31 -50 40
-57 32z"/>
<path d="M787 2623 c-37 -50 -35 -83 3 -48 26 23 26 5 0 -28 -24 -30 -9 -48
19 -23 28 25 34 19 27 -24 -5 -31 -3 -40 8 -40 8 0 17 14 21 30 7 32 14 37 32
19 6 -6 16 -8 23 -4 8 5 5 14 -11 31 l-22 24 25 0 c14 0 31 -7 38 -15 9 -11 3
-23 -35 -64 -60 -64 -50 -90 11 -30 48 47 55 39 24 -30 -24 -52 -24 -51 -5
-51 18 0 40 42 49 94 l7 38 24 -22 c31 -29 45 -7 15 25 l-21 23 36 6 c51 10
85 27 85 43 0 16 0 16 -43 -2 -65 -27 -75 -19 -33 24 23 23 35 44 31 51 -5 8
-25 -5 -60 -40 -35 -34 -55 -48 -60 -40 -4 6 -13 9 -20 6 -7 -2 -16 1 -18 8
-3 9 -15 12 -31 9 -27 -6 -34 5 -15 24 6 6 8 16 4 23 -5 8 -14 5 -31 -11 -30
-28 -42 -18 -20 16 16 24 16 25 -3 25 -11 0 -34 -19 -54 -47z"/>
<path d="M614 2325 c-28 -12 -54 -50 -54 -81 0 -54 71 -116 155 -135 43 -10
56 -9 83 5 61 32 65 124 6 162 -65 43 -144 4 -144 -73 0 -34 -1 -35 -22 -21
-13 8 -29 27 -36 42 -12 23 -11 31 2 51 9 13 25 25 37 27 13 2 24 8 26 14 6
18 -21 23 -53 9z m182 -90 c39 -39 16 -95 -39 -95 -58 0 -88 60 -50 102 23 25
59 22 89 -7z"/>
<path d="M527 2089 c-32 -19 -50 -75 -37 -114 14 -41 59 -63 95 -47 20 9 26 8
39 -12 18 -28 67 -40 101 -24 26 12 55 63 55 97 0 11 -5 31 -11 44 -20 43 -94
63 -120 31 -11 -14 -14 -14 -28 5 -19 25 -69 35 -94 20z m67 -45 c21 -20 20
-43 -1 -66 -31 -34 -73 -16 -73 32 0 47 42 66 74 34z m140 -20 c9 -8 16 -22
16 -29 0 -26 -23 -65 -42 -70 -59 -19 -96 50 -55 103 13 17 62 15 81 -4z"/>
<path d="M611 1841 c-17 -17 -21 -18 -32 -5 -17 21 -75 18 -99 -6 -29 -29 -28
-99 3 -128 27 -26 79 -29 97 -7 11 14 14 13 27 -5 22 -32 95 -28 122 6 31 39
29 107 -4 139 -30 31 -86 34 -114 6z m-49 -38 c24 -22 23 -58 -3 -77 -49 -34
-96 35 -53 78 20 20 33 20 56 -1z m146 5 c22 -22 15 -76 -13 -94 -51 -33 -103
23 -76 82 8 18 18 24 44 24 18 0 38 -5 45 -12z"/>
<path d="M715 1615 c-5 -2 -63 -11 -127 -21 -118 -17 -141 -29 -96 -49 13 -6
29 -22 36 -37 18 -38 32 -35 32 6 0 40 0 40 118 57 66 9 82 15 78 26 -3 8 -6
17 -6 19 0 5 -20 4 -35 -1z"/>
<path d="M681 1324 c-63 -30 -117 -56 -119 -59 -6 -5 67 -173 77 -180 4 -2 12
-1 18 3 8 5 0 31 -23 81 -19 40 -34 75 -34 76 0 5 80 38 83 34 1 -2 16 -32 32
-66 16 -35 32 -63 36 -63 20 0 17 23 -10 83 l-29 64 34 17 c19 9 36 16 39 16
2 0 18 -31 36 -70 17 -39 38 -70 46 -70 9 0 -18 -47 -66 -117 -68 -99 -79
-119 -67 -131 11 -11 29 -6 111 32 54 26 100 45 102 43 2 -2 -24 -45 -58 -95
-50 -74 -60 -94 -50 -106 10 -12 31 -5 141 47 117 55 128 63 114 77 -14 13
-24 10 -105 -33 -50 -27 -92 -47 -95 -45 -2 2 23 44 56 93 53 79 58 91 45 104
-13 14 -23 11 -83 -18 -37 -19 -82 -40 -100 -48 -40 -17 -40 -18 36 84 l54 73
-22 57 c-24 59 -78 173 -83 172 -1 0 -53 -25 -116 -55z"/>
<path d="M1045 808 c-62 -94 -72 -114 -59 -121 8 -5 17 -7 18 -5 2 1 17 24 35
51 20 29 37 45 44 41 11 -7 97 -64 105 -70 2 -1 -12 -26 -32 -55 -31 -46 -33
-55 -20 -62 8 -5 17 -7 18 -5 35 42 145 221 141 228 -11 18 -24 10 -55 -35
l-31 -45 -60 40 -59 41 30 45 c29 41 32 64 10 64 -6 0 -43 -50 -85 -112z"/>
<path d="M1285 671 c-49 -54 -91 -103 -93 -110 -8 -23 32 -10 57 18 l26 30 51
-21 52 -20 -6 -40 c-4 -37 6 -57 29 -58 3 0 9 64 13 142 7 142 4 158 -29 158
-5 0 -50 -45 -100 -99z m95 -6 c0 -60 -11 -68 -57 -42 l-22 12 35 43 c20 23
38 42 40 42 2 0 4 -25 4 -55z"/>
<path d="M2385 2913 l-30 -35 -45 26 c-41 23 -60 25 -60 6 0 -4 16 -17 35 -29
19 -11 35 -24 35 -29 0 -4 -18 -19 -40 -32 -41 -26 -46 -43 -14 -49 22 -4 54
-30 54 -44 0 -10 -85 -5 -113 7 -15 7 -16 5 -8 -15 8 -22 14 -24 77 -25 l69 0
20 -42 c12 -26 26 -42 37 -42 22 0 22 2 -2 50 -11 22 -20 43 -20 48 0 5 18 24
41 42 40 32 42 32 74 17 28 -13 34 -14 39 -2 3 9 -20 27 -71 55 l-75 42 28 29
c24 25 26 31 14 43 -13 11 -20 8 -45 -21z m35 -113 c0 -5 -14 -18 -31 -30
l-30 -22 -25 23 -25 24 27 22 c25 20 30 20 56 7 15 -8 28 -19 28 -24z"/>
<path d="M2606 2701 c-3 -5 14 -31 39 -59 25 -27 45 -52 45 -55 0 -24 -155
-35 -202 -13 -14 6 -18 4 -18 -13 0 -26 64 -45 130 -39 l45 5 0 -86 c0 -81 1
-86 22 -89 20 -3 21 -1 12 35 -4 21 -6 56 -2 78 5 37 28 95 38 95 2 0 24 -21
49 -47 32 -35 48 -45 56 -37 8 8 -2 25 -35 61 l-45 51 30 25 c19 16 28 31 24
41 -8 22 -17 20 -44 -9 -13 -14 -27 -25 -32 -25 -4 0 -26 20 -49 45 -42 46
-53 52 -63 36z"/>
<path d="M2933 2313 c-8 -3 -9 -12 -1 -34 6 -17 7 -34 2 -38 -5 -4 -46 -23
-91 -42 -46 -19 -83 -36 -83 -39 0 -3 4 -11 8 -18 12 -18 273 94 265 114 -3 8
-16 14 -28 14 -13 0 -32 10 -42 23 -10 13 -23 22 -30 20z"/>
<path d="M2936 2109 c-34 -27 -37 -91 -4 -126 l21 -23 -41 0 c-29 0 -48 6 -62
20 -25 25 -25 45 0 70 14 14 18 26 12 36 -7 13 -11 13 -32 -4 -19 -15 -25 -30
-25 -61 0 -77 66 -109 177 -86 80 16 123 59 114 113 -3 19 -15 45 -27 58 -30
31 -95 33 -133 3z m114 -29 c32 -32 25 -66 -17 -89 -32 -16 -58 -14 -77 8 -52
58 39 136 94 81z"/>
<path d="M2912 1835 l3 -65 -32 0 c-26 0 -33 -4 -33 -20 0 -16 7 -20 35 -20
28 0 35 -4 35 -20 0 -11 7 -20 15 -20 9 0 15 9 15 25 0 25 1 25 90 25 81 0 90
2 90 19 0 13 -30 38 -96 80 -52 33 -102 61 -110 61 -13 0 -15 -12 -12 -65z
m98 -14 c65 -42 63 -51 -15 -51 -36 0 -44 4 -49 23 -7 26 -8 67 -1 67 2 0 31
-18 65 -39z"/>
<path d="M2851 1644 c-28 -36 -32 -103 -8 -133 24 -28 76 -43 112 -31 39 13
70 68 61 106 -6 23 -4 24 21 18 43 -10 44 -12 41 -76 -2 -40 1 -62 9 -65 11
-4 17 16 29 99 l6 47 -71 22 c-40 11 -75 18 -78 15 -4 -4 -1 -23 6 -42 12 -33
11 -39 -6 -63 -24 -32 -56 -38 -89 -17 -36 25 -34 78 6 108 36 26 38 38 6 38
-15 0 -33 -11 -45 -26z"/>
<path d="M2691 1176 c-10 -11 3 -26 69 -76 45 -36 83 -73 86 -86 12 -47 -51
-112 -93 -97 -10 4 -52 33 -95 64 -66 51 -78 56 -89 43 -7 -9 -8 -18 -3 -23
53 -46 147 -113 169 -121 85 -32 188 120 128 187 -18 20 -149 123 -157 123 -2
0 -9 -6 -15 -14z"/>
<path d="M2943 1154 c-9 -24 19 -37 34 -17 10 13 10 18 0 25 -18 12 -27 10
-34 -8z"/>
<path d="M2469 917 c-14 -11 -13 -22 13 -112 15 -55 28 -104 28 -108 0 -5 -37
25 -82 67 -45 42 -84 76 -87 76 -3 0 -13 -4 -21 -10 -12 -8 -11 -22 9 -107 13
-54 26 -105 29 -113 3 -8 -33 22 -79 67 -75 73 -86 80 -102 69 -16 -12 -8 -22
88 -111 94 -87 108 -97 121 -83 13 13 12 26 -10 119 -13 57 -22 106 -20 108 3
3 30 -20 62 -50 102 -97 106 -100 125 -86 15 11 14 23 -17 145 -19 74 -36 135
-38 137 -1 2 -10 -2 -19 -8z"/>
<path d="M2651 781 c-12 -8 -13 -12 -1 -26 12 -14 15 -14 28 -1 8 8 11 19 8
25 -9 13 -16 14 -35 2z"/>
<path d="M1776 3102 c-13 -15 -15 -31 -9 -82 l6 -63 -64 6 c-50 4 -68 2 -82
-10 -16 -15 -16 -18 -1 -34 14 -15 27 -17 82 -12 l65 6 -7 -66 c-6 -59 -4 -67
13 -77 35 -18 50 10 44 81 l-6 62 66 -7 c58 -6 67 -4 76 12 6 11 6 24 0 35 -9
15 -19 16 -76 11 l-66 -7 5 61 c5 50 3 65 -12 81 -17 20 -18 20 -34 3z"/>
<path d="M1680 1933 c0 -63 8 -68 117 -71 86 -3 102 -1 122 16 17 13 22 24 17
37 -6 16 -8 17 -24 1 -15 -13 -38 -16 -113 -15 l-94 2 70 8 c99 12 115 17 115
35 0 13 -7 15 -32 11 -18 -3 -59 -9 -90 -13 -50 -5 -58 -4 -58 10 0 9 -7 16
-15 16 -11 0 -15 -11 -15 -37z"/>
<path d="M1660 1751 l0 -100 33 -3 32 -4 -37 -17 c-64 -29 -44 -57 21 -31 28
11 41 22 41 35 0 16 8 19 51 19 41 0 50 -3 46 -15 -7 -16 41 -55 66 -55 29 0
26 28 -4 40 -39 17 -37 30 6 30 24 0 35 5 35 15 0 13 -21 15 -130 15 l-130 0
0 85 c0 69 -3 85 -15 85 -12 0 -15 -18 -15 -99z"/>
<path d="M1712 1773 l3 -78 93 -3 92 -3 0 81 0 80 -95 0 -96 0 3 -77z m125 40
c-20 -2 -52 -2 -70 0 -17 2 0 4 38 4 39 0 53 -2 32 -4z m33 -43 c0 -6 -26 -10
-59 -10 -33 0 -63 5 -66 10 -4 6 18 10 59 10 37 0 66 -4 66 -10z m0 -40 c0 -6
-29 -10 -66 -10 -41 0 -63 4 -59 10 3 6 33 10 66 10 33 0 59 -4 59 -10z"/>
<path d="M2253 1502 c-8 -5 -9 -13 -3 -22 16 -26 11 -30 -35 -30 -33 0 -45 -4
-45 -15 0 -12 14 -15 65 -15 37 0 65 -4 65 -10 0 -5 -22 -10 -50 -10 -38 0
-50 -4 -50 -15 0 -11 12 -15 50 -15 28 0 50 -4 50 -10 0 -6 -28 -10 -65 -10
-51 0 -65 -3 -65 -15 0 -10 10 -15 29 -15 24 0 41 -14 41 -36 0 -2 -18 -4 -40
-4 -29 0 -40 -4 -40 -15 0 -13 24 -15 155 -15 131 0 155 2 155 15 0 11 -11 15
-40 15 -38 0 -40 2 -30 20 7 13 21 20 40 20 20 0 30 5 30 15 0 12 -14 15 -70
15 -40 0 -70 4 -70 10 0 6 23 10 50 10 38 0 50 4 50 15 0 11 -12 15 -50 15
-27 0 -50 5 -50 10 0 6 28 10 65 10 51 0 65 3 65 15 0 11 -11 15 -41 15 -38 0
-41 2 -35 24 9 37 -20 42 -33 5 -7 -22 -16 -29 -35 -29 -19 0 -26 5 -26 19 0
23 -22 42 -37 33z m47 -202 c0 -11 -7 -20 -15 -20 -8 0 -15 2 -15 4 0 2 -3 11
-6 20 -4 12 0 16 15 16 14 0 21 -6 21 -20z m68 3 c-5 -26 -38 -29 -38 -4 0 15
6 21 21 21 14 0 19 -5 17 -17z"/>
<path d="M1205 1491 c-3 -5 -1 -12 5 -16 5 -3 10 -13 10 -21 0 -10 -12 -14
-45 -14 -33 0 -45 -4 -45 -15 0 -12 14 -15 65 -15 37 0 65 -4 65 -10 0 -5 -22
-10 -50 -10 -43 0 -50 -3 -50 -20 0 -17 7 -20 50 -20 28 0 50 -4 50 -10 0 -6
-28 -10 -65 -10 -58 0 -65 -2 -65 -20 0 -18 7 -20 65 -20 37 0 65 -4 65 -10 0
-6 -27 -10 -60 -10 -53 0 -60 -2 -60 -20 0 -17 7 -20 51 -20 65 0 61 -15 -15
-54 -49 -25 -55 -32 -43 -44 12 -12 20 -11 53 6 22 11 50 32 63 46 l24 25 18
-24 c11 -13 40 -33 65 -45 40 -20 47 -21 60 -8 13 13 10 17 -29 32 -24 9 -54
28 -67 41 l-23 25 56 0 c50 0 57 2 57 20 0 18 -7 20 -60 20 -33 0 -60 4 -60
10 0 6 28 10 65 10 58 0 65 2 65 20 0 18 -7 20 -65 20 -37 0 -65 4 -65 10 0 6
23 10 50 10 43 0 50 3 50 20 0 17 -7 20 -50 20 -27 0 -50 5 -50 10 0 6 27 10
60 10 47 0 60 3 60 15 0 10 -11 15 -35 15 -33 0 -34 1 -28 30 4 22 2 30 -9 30
-7 0 -19 -13 -25 -30 -9 -24 -17 -30 -42 -30 -23 0 -29 4 -25 15 10 26 -27 58
-41 36z"/>
<path d="M2210 1181 c0 -53 12 -70 36 -50 10 8 39 10 94 6 l80 -5 0 49 0 49
-105 0 -105 0 0 -49z m170 4 c0 -12 -14 -15 -65 -15 -51 0 -65 3 -65 15 0 12
14 15 65 15 51 0 65 -3 65 -15z"/>
<path d="M5498 3024 c-4 -3 4 -27 15 -52 22 -47 22 -52 25 -819 2 -725 4 -773
20 -772 26 0 162 25 167 30 2 3 5 361 7 797 3 786 3 793 -17 797 -35 7 -175
25 -194 25 -10 0 -20 -3 -23 -6z"/>
<path d="M6468 3024 c-4 -3 0 -20 7 -38 8 -18 17 -56 21 -84 l7 -52 -145 0
c-80 0 -169 4 -198 10 -29 5 -56 8 -60 5 -11 -7 25 -170 37 -168 6 1 49 5 94
9 l84 7 -42 -47 c-55 -63 -78 -130 -78 -231 1 -66 6 -91 28 -140 45 -96 132
-176 228 -208 l44 -15 3 -78 3 -77 -173 7 c-95 3 -193 9 -217 13 l-44 6 7 -42
c3 -23 11 -63 16 -89 l11 -47 372 2 c405 3 563 13 657 42 l60 19 0 -224 c0
-123 3 -224 7 -224 8 0 131 20 161 26 l22 4 0 392 0 391 125 -7 126 -7 -3 88
c-2 72 -6 87 -18 84 -8 -2 -64 -6 -123 -9 l-108 -5 3 331 c3 324 3 331 -17
336 -42 10 -216 28 -221 23 -3 -2 5 -33 18 -68 22 -63 23 -74 26 -515 l3 -450
-38 -17 c-58 -26 -173 -45 -325 -53 l-138 -7 0 77 c0 64 3 78 18 83 59 20 123
56 164 92 139 123 158 356 41 499 l-37 45 92 -7 93 -7 -3 83 c-2 68 -6 82 -18
79 -8 -3 -91 -7 -184 -9 l-168 -4 4 76 3 76 -30 5 c-43 8 -168 25 -181 25 -6
0 -13 -3 -16 -6z m239 -390 c110 -87 124 -254 30 -352 -45 -47 -84 -65 -142
-65 -99 0 -182 71 -204 173 -21 96 23 207 102 255 36 22 51 26 109 23 57 -3
73 -8 105 -34z"/>
<path d="M8913 3013 c3 -10 13 -38 22 -63 9 -25 19 -80 22 -122 l6 -78 -95 0
c-52 0 -120 5 -152 11 -32 6 -60 8 -63 5 -5 -4 12 -121 22 -156 4 -13 26 -15
145 -12 l140 4 0 -176 0 -176 -107 0 c-60 0 -125 3 -145 6 l-38 7 8 41 c57
319 -188 620 -483 593 -233 -22 -408 -214 -422 -463 -9 -147 33 -274 122 -372
145 -161 349 -201 536 -107 69 35 157 125 194 198 l30 57 10 -57 11 -58 142 4
142 4 0 -362 c0 -337 1 -361 18 -360 26 0 162 25 167 31 2 2 6 360 7 796 l3
792 -30 5 c-185 31 -220 32 -212 8z m-587 -304 c52 -24 94 -71 131 -142 38
-74 45 -216 14 -299 -62 -164 -202 -237 -336 -174 -60 28 -109 80 -144 156
-21 46 -25 70 -26 150 0 83 3 102 28 155 70 150 209 214 333 154z"/>
<path d="M10497 3024 c-3 -4 4 -25 16 -48 l22 -41 3 -777 c2 -606 5 -778 15
-778 6 0 50 7 97 15 47 8 86 15 88 15 1 0 2 176 2 391 l0 392 125 -7 126 -7
-3 83 -3 83 -123 -4 -123 -3 3 331 3 331 -30 5 c-126 22 -208 29 -218 19z"/>
<path d="M12280 3021 c0 -5 10 -30 22 -57 21 -45 23 -66 26 -276 l4 -228 -77
0 -76 0 3 265 c3 257 2 264 -17 269 -44 10 -216 28 -221 23 -3 -3 4 -32 17
-64 23 -56 23 -69 27 -421 l4 -362 -39 -18 c-32 -14 -78 -17 -310 -20 l-273
-3 0 286 0 287 235 -4 236 -3 -3 80 c-3 74 -5 80 -23 76 -59 -10 -494 -12
-571 -1 -48 6 -88 9 -90 7 -3 -2 2 -36 11 -76 12 -57 15 -147 15 -419 0 -298
2 -351 16 -370 15 -22 16 -22 344 -22 294 0 335 2 389 19 l61 19 0 -309 c0
-355 -15 -317 115 -298 l75 11 0 444 0 444 75 0 75 0 0 -461 0 -461 33 6 c17
3 55 8 83 12 28 3 56 9 62 13 8 5 12 239 14 799 l3 792 -30 5 c-159 27 -215
31 -215 16z"/>
<path d="M13160 3023 c0 -5 7 -30 15 -57 8 -27 15 -65 15 -84 l0 -34 -177 5
c-98 3 -189 9 -202 13 -23 7 -24 6 -17 -35 16 -104 28 -142 42 -137 7 3 48 8
91 12 l77 7 -37 -45 c-86 -105 -102 -263 -40 -389 56 -113 157 -186 293 -211
164 -31 354 62 429 209 64 127 45 293 -47 395 l-37 41 93 -7 92 -7 0 79 0 78
-180 -4 -180 -4 0 76 c0 87 12 78 -129 96 -100 12 -101 12 -101 3z m226 -379
c72 -49 105 -111 106 -198 0 -98 -39 -169 -115 -208 -180 -92 -364 114 -273
307 40 86 99 125 187 125 44 0 64 -6 95 -26z"/>
<path d="M13858 3025 c-2 -3 6 -35 18 -72 23 -67 23 -76 24 -485 0 -328 3
-418 13 -418 6 0 49 5 95 12 l82 11 0 155 0 155 130 -5 131 -5 -3 86 -3 86
-50 -5 c-27 -3 -84 -5 -125 -5 l-75 0 0 233 c0 225 -1 233 -20 237 -35 7 -175
25 -194 25 -10 0 -20 -2 -23 -5z"/>
<path d="M14585 2900 c-4 -6 1 -47 11 -93 l17 -82 490 3 490 3 -7 -243 c-4
-134 -13 -301 -20 -373 -8 -71 -13 -131 -11 -133 1 -1 44 6 96 16 l93 17 7 40
c14 81 30 347 36 590 l6 250 -569 0 c-313 0 -583 3 -601 7 -18 4 -35 3 -38 -2z"/>
<path d="M4735 2886 c-117 -30 -207 -91 -273 -184 -67 -95 -94 -183 -94 -303
0 -344 322 -579 630 -461 142 54 256 196 291 360 73 343 -234 668 -554 588z
m203 -182 c117 -58 182 -206 160 -364 -11 -80 -46 -148 -107 -202 -171 -154
-412 -21 -429 237 -9 148 67 290 182 341 52 22 135 17 194 -12z"/>
<path d="M9462 2848 c3 -7 11 -45 18 -84 l13 -71 163 5 164 5 0 -74 c-1 -97
-22 -215 -49 -268 -34 -66 -159 -190 -259 -255 l-90 -59 55 -74 55 -73 77 53
c110 75 261 228 296 300 l28 59 13 -31 c37 -87 143 -203 276 -302 120 -89 109
-88 159 -17 24 34 47 67 51 73 5 8 -25 34 -80 71 -100 68 -207 170 -245 235
-36 62 -57 158 -57 268 l0 93 165 -3 166 -4 -3 80 -3 80 -40 -5 c-65 -8 -734
-6 -809 3 -54 6 -67 5 -64 -5z"/>
<path d="M15167 2345 c-2 -5 6 -30 17 -55 19 -41 21 -67 24 -288 l3 -243 -113
3 -113 3 -1 275 -1 274 -117 16 c-64 9 -119 13 -122 9 -2 -4 6 -29 19 -55 20
-46 22 -65 25 -286 l4 -238 -89 0 c-48 0 -128 5 -176 11 -49 6 -91 8 -94 6 -3
-3 3 -44 14 -92 l18 -85 718 -3 717 -2 0 93 0 93 -62 -8 c-35 -4 -146 -8 -248
-8 l-185 0 0 280 -1 280 -117 15 c-79 11 -118 13 -120 5z"/>
<path d="M12953 1964 c3 -16 11 -54 17 -84 l10 -55 460 3 460 4 2 -224 3 -223
93 14 92 13 -2 279 -3 279 -540 4 c-297 1 -553 6 -569 11 -27 7 -28 7 -23 -21z"/>
<path d="M6567 1093 c-5 -8 -206 -457 -238 -531 l-19 -43 37 3 c36 3 37 4 74
93 l38 90 99 3 99 3 35 -93 35 -93 53 -3 c42 -3 51 0 47 11 -37 96 -243 567
-249 567 -4 0 -9 -3 -11 -7z m32 -247 c17 -44 29 -82 27 -83 -2 -2 -35 -3 -74
-1 l-70 3 35 88 c20 49 39 85 43 80 5 -4 22 -44 39 -87z"/>
<path d="M8167 1090 c-139 -36 -221 -142 -221 -291 -1 -65 4 -84 29 -135 55
-107 161 -161 301 -152 129 9 232 80 268 186 18 53 21 160 5 216 -15 53 -88
129 -151 156 -58 25 -172 35 -231 20z m183 -55 c115 -59 147 -273 60 -393 -43
-59 -90 -84 -159 -84 -68 0 -106 17 -148 66 -44 50 -56 95 -51 195 3 72 9 95
31 134 15 25 40 55 56 66 56 40 150 47 211 16z"/>
<path d="M9601 1078 c-5 -13 -63 -143 -129 -290 l-120 -268 36 0 37 0 39 95
38 95 98 0 98 0 38 -95 37 -95 49 0 c26 0 48 3 48 8 0 18 -243 572 -251 572
-5 0 -13 -10 -18 -22z m33 -215 c16 -43 31 -84 33 -90 4 -10 -14 -13 -70 -13
l-75 0 36 90 c19 50 38 90 42 90 3 0 18 -35 34 -77z"/>
<path d="M10697 1086 c-70 -25 -107 -78 -107 -152 0 -70 24 -100 117 -146 97
-48 123 -75 123 -127 0 -45 -23 -79 -64 -96 -45 -18 -89 -8 -135 31 l-40 35
-7 -37 c-8 -41 3 -55 55 -73 71 -23 157 -10 218 35 60 45 80 156 39 219 -9 14
-57 45 -105 70 -49 24 -97 55 -105 67 -33 47 -12 119 41 139 36 13 98 -6 121
-38 l19 -26 13 37 c14 44 10 49 -50 66 -47 13 -87 12 -133 -4z"/>
<path d="M14335 1085 c-75 -27 -116 -99 -101 -179 10 -53 43 -86 124 -123 96
-45 112 -62 112 -117 0 -110 -120 -148 -203 -65 -16 17 -31 29 -32 27 -2 -2
-6 -20 -10 -41 -7 -37 -7 -37 40 -58 89 -39 209 -12 263 59 23 30 27 45 27
103 0 84 -14 102 -132 160 -98 48 -123 82 -107 141 20 70 125 83 173 22 l21
-26 10 27 c16 43 12 52 -30 69 -49 19 -102 20 -155 1z"/>
<path d="M4480 805 l0 -285 150 0 150 0 0 28 0 27 -105 -3 -105 -3 0 110 0
111 95 0 95 0 0 30 0 30 -92 -3 -93 -2 -3 99 -3 98 101 -4 100 -4 0 28 0 28
-145 0 -145 0 0 -285z"/>
<path d="M4834 1073 c11 -28 176 -542 176 -548 0 -3 15 -5 33 -5 l34 0 67 193
c102 289 86 275 135 117 99 -318 94 -305 130 -305 l33 0 92 265 c51 146 96
273 101 283 7 16 3 18 -30 15 l-38 -3 -63 -195 c-34 -107 -65 -204 -69 -215
-4 -14 -29 47 -79 195 l-73 215 -33 0 c-30 0 -34 -4 -46 -40 -63 -187 -138
-384 -145 -378 -8 9 -65 186 -104 326 l-28 97 -49 0 c-43 0 -49 -3 -44 -17z"/>
<path d="M5730 805 l0 -285 45 0 45 0 0 140 0 141 153 -3 152 -3 3 -137 3
-138 44 0 45 0 0 285 0 285 -45 0 -44 0 -3 -117 -3 -118 -152 -3 -153 -3 0
121 0 120 -45 0 -45 0 0 -285z"/>
<path d="M7090 1085 c0 -4 41 -133 91 -286 l91 -280 31 3 32 3 75 212 c41 116
78 214 81 217 3 3 36 -93 74 -214 l68 -220 34 0 c18 0 33 2 33 4 0 2 43 127
95 279 52 151 95 277 95 281 0 3 -14 6 -30 6 -37 0 -31 12 -110 -237 -34 -106
-63 -193 -65 -193 -2 0 -36 97 -75 216 l-72 215 -30 -3 c-30 -3 -32 -6 -106
-210 -41 -115 -78 -208 -83 -208 -8 0 -55 143 -111 335 l-24 80 -47 3 c-26 2
-47 0 -47 -3z"/>
<path d="M8701 993 c-13 -106 -58 -414 -66 -450 -5 -21 -2 -23 33 -23 l38 0
13 143 c7 78 16 162 20 187 l7 45 92 -182 c51 -101 98 -183 105 -183 6 0 42
60 80 133 37 72 82 157 99 187 l32 55 7 -45 c3 -25 12 -111 19 -192 l13 -148
48 0 c27 0 49 3 49 8 0 4 -11 99 -25 212 -13 113 -28 236 -32 275 -6 52 -12
71 -24 73 -18 3 -19 2 -155 -245 -49 -90 -92 -163 -95 -163 -3 0 -54 92 -113
205 -59 113 -113 205 -121 205 -8 0 -16 -30 -24 -97z"/>
<path d="M9980 805 l0 -285 30 0 30 0 0 205 c0 113 3 205 8 204 4 0 88 -92
187 -204 133 -151 186 -205 203 -205 l22 0 -2 283 -3 282 -30 0 -30 0 -5 -198
-5 -198 -183 201 c-117 127 -190 200 -203 200 -18 0 -19 -10 -19 -285z"/>
<path d="M11260 893 c0 -260 14 -308 103 -356 34 -18 58 -22 132 -22 78 0 96
3 135 25 49 28 84 73 100 129 5 20 10 123 10 229 l0 193 -32 -3 -33 -3 -2
-203 c-2 -222 -9 -253 -65 -295 -69 -52 -194 -20 -233 58 -17 35 -20 65 -23
243 l-4 202 -44 0 -44 0 0 -197z"/>
<path d="M11910 805 l0 -285 30 0 30 0 0 205 c0 113 4 205 9 205 4 0 90 -92
191 -205 115 -129 189 -205 201 -205 18 0 19 13 19 285 l0 285 -30 0 -30 0 -2
-202 -3 -202 -185 202 c-135 147 -191 202 -207 202 l-23 0 0 -285z"/>
<path d="M12547 1084 c-4 -4 -7 -133 -7 -286 l0 -278 50 0 50 0 -2 283 -3 282
-40 3 c-23 2 -44 0 -48 -4z"/>
<path d="M12720 1088 c0 -2 55 -129 123 -283 96 -219 127 -281 143 -283 16 -2
27 18 68 120 27 68 80 194 117 280 38 86 69 159 69 162 0 3 -15 6 -34 6 l-34
0 -83 -210 c-45 -116 -86 -213 -90 -215 -8 -5 -45 80 -125 285 l-53 135 -50 3
c-28 2 -51 2 -51 0z"/>
<path d="M13337 1084 c-4 -4 -7 -133 -7 -286 l0 -278 150 0 150 0 0 28 0 27
-100 -3 -100 -3 0 110 0 111 90 0 90 0 0 30 0 31 -90 -7 -90 -7 0 103 0 103
101 -5 100 -5 -3 26 -3 26 -141 3 c-77 1 -143 -1 -147 -4z"/>
<path d="M13750 806 l0 -286 45 0 45 0 0 138 0 137 25 -30 c14 -16 62 -78 107
-137 l83 -108 53 0 c40 0 51 3 46 13 -4 6 -52 67 -106 134 -54 67 -98 126 -98
131 0 5 17 14 38 20 86 26 136 127 99 199 -26 49 -75 66 -214 71 l-123 5 0
-287z m205 230 c40 -17 55 -42 55 -93 0 -48 -39 -90 -96 -104 -77 -17 -74 -22
-74 101 l0 110 40 0 c22 0 56 -6 75 -14z"/>
<path d="M14667 1084 c-4 -4 -7 -133 -7 -286 l0 -278 50 0 50 0 -2 283 -3 282
-40 3 c-23 2 -44 0 -48 -4z"/>
<path d="M14840 1059 l0 -32 85 7 85 7 0 -260 0 -261 50 0 50 0 0 261 0 260
80 -7 80 -7 0 32 0 31 -215 0 -215 0 0 -31z"/>
<path d="M15306 1078 c4 -7 49 -81 100 -165 l94 -151 0 -121 0 -121 45 0 45 0
0 127 c0 125 0 127 34 188 19 34 60 102 93 151 32 49 60 93 62 97 2 5 -14 7
-35 5 -36 -3 -39 -6 -108 -121 -39 -65 -75 -119 -81 -119 -5 0 -41 54 -79 121
l-69 121 -54 0 c-40 0 -52 -3 -47 -12z"/>
</g>
</svg>
