<?xml version="1.0" encoding="utf-8"?>
<!-- Generator: Adobe Illustrator 16.0.0, SVG Export Plug-In . SVG Version: 6.00 Build 0)  -->
<!DOCTYPE svg PUBLIC "-//W3C//DTD SVG 1.1//EN" "http://www.w3.org/Graphics/SVG/1.1/DTD/svg11.dtd">
<svg version="1.1" id="Layer_1" xmlns="http://www.w3.org/2000/svg" xmlns:xlink="http://www.w3.org/1999/xlink" x="0px" y="0px"
	 width="255.421px" height="89.71px" viewBox="0 0 255.421 89.71" enable-background="new 0 0 255.421 89.71" xml:space="preserve">
<g>
	<path fill="none" stroke="#000000" d="M29.81,80.573H10.816V9.186h42.188v15.479H29.81v13.623h21.387v15.479H29.81V80.573z"/>
	<path fill="none" stroke="#000000" d="M108.521,80.573l-3.516-13.379H81.812l-3.613,13.379H57.007l23.291-71.68h25.732
		l23.584,71.68H108.521z M101.001,51.374l-3.076-11.719c-0.717-2.604-1.587-5.973-2.612-10.107
		c-1.025-4.134-1.701-7.096-2.026-8.887c-0.293,1.66-0.871,4.395-1.733,8.203c-0.863,3.809-2.775,11.313-5.737,22.51H101.001z"/>
	<path fill="none" stroke="#000000" d="M169.117,23.981c-4.59,0-8.171,1.88-10.742,5.64c-2.572,3.76-3.857,8.944-3.857,15.552
		c0,13.737,5.225,20.605,15.674,20.605c3.157,0,6.217-0.439,9.18-1.318c2.962-0.879,5.94-1.937,8.936-3.174v16.309
		c-5.957,2.637-12.695,3.955-20.215,3.955c-10.775,0-19.035-3.125-24.78-9.375c-5.746-6.25-8.618-15.283-8.618-27.1
		c0-7.389,1.392-13.883,4.175-19.482c2.783-5.599,6.787-9.903,12.012-12.915c5.225-3.011,11.368-4.517,18.433-4.517
		c7.715,0,15.088,1.677,22.119,5.029l-5.908,15.186c-2.637-1.236-5.273-2.278-7.91-3.125
		C174.976,24.405,172.144,23.981,169.117,23.981z"/>
	<path fill="none" stroke="#000000" d="M244.605,80.573h-42.383V9.186h42.383v15.479h-23.096v11.23h21.387v15.479h-21.387V64.85
		h23.096V80.573z"/>
</g>
</svg>
