<?xml version="1.0" encoding="utf-8"?>
<!-- Generator: Adobe Illustrator 16.0.0, SVG Export Plug-In . SVG Version: 6.00 Build 0)  -->
<!DOCTYPE svg PUBLIC "-//W3C//DTD SVG 1.1//EN" "http://www.w3.org/Graphics/SVG/1.1/DTD/svg11.dtd">
<svg version="1.1" id="_x33_" xmlns="http://www.w3.org/2000/svg" xmlns:xlink="http://www.w3.org/1999/xlink" x="0px" y="0px"
	 width="1900px" height="6200px" viewBox="0 0 1900 6200" enable-background="new 0 0 1900 6200" xml:space="preserve">
<g>
	<path fill="#1C1C1C" d="M768.204,2627.016c-4.074-4.617-14.125-24.79-14.125-38.042c0-33.02-9.294-46.519-13.262-52.283
		c-0.489-0.709-0.914-1.329-1.259-1.872c-0.147-0.231-14.781-23.271-20.619-36.074c-5.236-11.481-6.889-45.389-7.061-49.217
		l-0.153-3.422l3.136-1.378c6.202-2.726,2.557-16.389,2.521-16.515l-7.06-26.473h-63.137l-7.061,26.473
		c-0.849,2.881-2.908,14.128,2.521,16.514l3.136,1.379l-0.153,3.422c-0.171,3.829-1.825,37.736-7.061,49.217
		c-5.834,12.794-20.471,35.843-20.618,36.074c-0.345,0.543-0.77,1.163-1.259,1.873c-3.969,5.764-13.263,19.264-13.263,52.283
		c0,13.25-10.05,33.423-14.124,38.042c-2.911,3.298-18.729,27.976-18.729,57.843h216.355
		C786.931,2654.996,771.114,2630.314,768.204,2627.016z"/>
	<path fill="#1C1C1C" d="M573.889,2920.493c0.09,5.64,0.144,8.936,0.148,9.192l-0.002,0.24c-0.039,1.21-0.561,29.667,32.593,32.51
		c37.584,3.221,71.375,3.26,71.716,3.26c0.349,0,34.928-0.038,72.534-3.26c32.923-2.823,32.623-31.318,32.595-32.511l-0.002-0.24
		c0.004-0.257,0.058-3.552,0.148-9.192H573.889z"/>
</g>
<g>
	<path fill="#1C1C1C" d="M1040.22,2627.016c-4.073-4.617-14.124-24.79-14.124-38.042c0-33.02-9.295-46.519-13.263-52.283
		c-0.489-0.709-0.913-1.329-1.259-1.872c-0.147-0.231-14.781-23.271-20.619-36.074c-5.235-11.481-6.889-45.389-7.061-49.217
		l-0.152-3.422l3.136-1.378c6.202-2.726,2.558-16.389,2.521-16.515l-7.061-26.473h-63.136l-7.061,26.473
		c-0.849,2.881-2.908,14.128,2.521,16.514l3.136,1.379l-0.153,3.422c-0.171,3.829-1.825,37.736-7.061,49.217
		c-5.834,12.794-20.471,35.843-20.618,36.074c-0.345,0.543-0.77,1.163-1.259,1.873c-3.969,5.764-13.263,19.264-13.263,52.283
		c0,13.25-10.05,33.423-14.124,38.042c-2.911,3.298-18.729,27.976-18.729,57.843h216.355
		C1058.947,2654.996,1043.13,2630.314,1040.22,2627.016z"/>
	<path fill="#1C1C1C" d="M845.905,2920.493c0.09,5.64,0.144,8.936,0.148,9.192l-0.002,0.24c-0.039,1.21-0.561,29.667,32.593,32.51
		c37.584,3.221,71.375,3.26,71.716,3.26c0.349,0,34.928-0.038,72.534-3.26c32.923-2.823,32.623-31.318,32.595-32.511l-0.002-0.24
		c0.005-0.257,0.058-3.552,0.147-9.192H845.905z"/>
</g>
<g>
	<path fill="#1C1C1C" d="M1311.521,2627.016c-4.073-4.617-14.124-24.79-14.124-38.042c0-33.02-9.295-46.519-13.263-52.283
		c-0.489-0.709-0.913-1.329-1.259-1.872c-0.147-0.231-14.781-23.271-20.619-36.074c-5.235-11.481-6.889-45.389-7.061-49.217
		l-0.152-3.422l3.136-1.378c6.202-2.726,2.558-16.389,2.521-16.515l-7.061-26.473h-63.137l-7.061,26.473
		c-0.85,2.881-2.908,14.128,2.521,16.514l3.136,1.379l-0.153,3.422c-0.171,3.829-1.824,37.736-7.061,49.217
		c-5.834,12.794-20.471,35.843-20.617,36.074c-0.346,0.543-0.771,1.163-1.26,1.873c-3.969,5.764-13.262,19.264-13.262,52.283
		c0,13.25-10.051,33.423-14.125,38.042c-2.91,3.298-18.729,27.976-18.729,57.843h216.355
		C1330.248,2654.996,1314.431,2630.314,1311.521,2627.016z"/>
	<path fill="#1C1C1C" d="M1117.206,2920.493c0.091,5.64,0.144,8.936,0.147,9.192l-0.002,0.24c-0.038,1.21-0.561,29.667,32.594,32.51
		c37.584,3.221,71.375,3.26,71.716,3.26c0.349,0,34.928-0.038,72.534-3.26c32.923-2.823,32.623-31.318,32.595-32.511l-0.002-0.24
		c0.005-0.257,0.058-3.552,0.147-9.192H1117.206z"/>
</g>
<path fill="#F2CF63" d="M-518.87,2892.185l0.001,0.001c-60.714,9.299-133.387,26.817-181.132,40.761
	c-142.666,41.667-157.095-29.994-222-54c-73-27-99,22-138,46s-76,52-167,0c-41.352-23.629-82.288-33.835-114.65-37.94
	c-0.006-0.001-0.011-0.002-0.017-0.003c-21.755-3.66-44.502-4.413-65.333-3.756v2.699V2935v393.947h967V2935v-49.053v-2.699
	C-483.645,2884.622-518.87,2892.185-518.87,2892.185z"/>
</svg>
